G04 #@! TF.GenerationSoftware,KiCad,Pcbnew,5.1.10-88a1d61d58~90~ubuntu20.04.1*
G04 #@! TF.CreationDate,2022-03-06T19:10:03-08:00*
G04 #@! TF.ProjectId,WKL Minivan_KiCAD,574b4c20-4d69-46e6-9976-616e5f4b6943,rev?*
G04 #@! TF.SameCoordinates,Original*
G04 #@! TF.FileFunction,Legend,Top*
G04 #@! TF.FilePolarity,Positive*
%FSLAX46Y46*%
G04 Gerber Fmt 4.6, Leading zero omitted, Abs format (unit mm)*
G04 Created by KiCad (PCBNEW 5.1.10-88a1d61d58~90~ubuntu20.04.1) date 2022-03-06 19:10:03*
%MOMM*%
%LPD*%
G01*
G04 APERTURE LIST*
%ADD10C,0.225000*%
%ADD11C,0.187500*%
%ADD12C,0.750000*%
%ADD13C,0.120000*%
%ADD14C,0.150000*%
%ADD15C,4.089800*%
%ADD16C,1.852000*%
%ADD17C,2.102000*%
%ADD18C,3.150000*%
G04 APERTURE END LIST*
D10*
X155299000Y-85272619D02*
X155341857Y-85225000D01*
X155427571Y-85177380D01*
X155641857Y-85177380D01*
X155727571Y-85225000D01*
X155770428Y-85272619D01*
X155813285Y-85367857D01*
X155813285Y-85463095D01*
X155770428Y-85605952D01*
X155256142Y-86177380D01*
X155813285Y-86177380D01*
X156199000Y-86082142D02*
X156241857Y-86129761D01*
X156199000Y-86177380D01*
X156156142Y-86129761D01*
X156199000Y-86082142D01*
X156199000Y-86177380D01*
X156584714Y-85272619D02*
X156627571Y-85225000D01*
X156713285Y-85177380D01*
X156927571Y-85177380D01*
X157013285Y-85225000D01*
X157056142Y-85272619D01*
X157099000Y-85367857D01*
X157099000Y-85463095D01*
X157056142Y-85605952D01*
X156541857Y-86177380D01*
X157099000Y-86177380D01*
X157913285Y-85177380D02*
X157484714Y-85177380D01*
X157441857Y-85653571D01*
X157484714Y-85605952D01*
X157570428Y-85558333D01*
X157784714Y-85558333D01*
X157870428Y-85605952D01*
X157913285Y-85653571D01*
X157956142Y-85748809D01*
X157956142Y-85986904D01*
X157913285Y-86082142D01*
X157870428Y-86129761D01*
X157784714Y-86177380D01*
X157570428Y-86177380D01*
X157484714Y-86129761D01*
X157441857Y-86082142D01*
X158341857Y-85177380D02*
X158341857Y-85986904D01*
X158384714Y-86082142D01*
X158427571Y-86129761D01*
X158513285Y-86177380D01*
X158684714Y-86177380D01*
X158770428Y-86129761D01*
X158813285Y-86082142D01*
X158856142Y-85986904D01*
X158856142Y-85177380D01*
X136677571Y-85177380D02*
X136506142Y-85177380D01*
X136420428Y-85225000D01*
X136377571Y-85272619D01*
X136291857Y-85415476D01*
X136249000Y-85605952D01*
X136249000Y-85986904D01*
X136291857Y-86082142D01*
X136334714Y-86129761D01*
X136420428Y-86177380D01*
X136591857Y-86177380D01*
X136677571Y-86129761D01*
X136720428Y-86082142D01*
X136763285Y-85986904D01*
X136763285Y-85748809D01*
X136720428Y-85653571D01*
X136677571Y-85605952D01*
X136591857Y-85558333D01*
X136420428Y-85558333D01*
X136334714Y-85605952D01*
X136291857Y-85653571D01*
X136249000Y-85748809D01*
X137149000Y-86082142D02*
X137191857Y-86129761D01*
X137149000Y-86177380D01*
X137106142Y-86129761D01*
X137149000Y-86082142D01*
X137149000Y-86177380D01*
X137534714Y-85272619D02*
X137577571Y-85225000D01*
X137663285Y-85177380D01*
X137877571Y-85177380D01*
X137963285Y-85225000D01*
X138006142Y-85272619D01*
X138049000Y-85367857D01*
X138049000Y-85463095D01*
X138006142Y-85605952D01*
X137491857Y-86177380D01*
X138049000Y-86177380D01*
X138863285Y-85177380D02*
X138434714Y-85177380D01*
X138391857Y-85653571D01*
X138434714Y-85605952D01*
X138520428Y-85558333D01*
X138734714Y-85558333D01*
X138820428Y-85605952D01*
X138863285Y-85653571D01*
X138906142Y-85748809D01*
X138906142Y-85986904D01*
X138863285Y-86082142D01*
X138820428Y-86129761D01*
X138734714Y-86177380D01*
X138520428Y-86177380D01*
X138434714Y-86129761D01*
X138391857Y-86082142D01*
X139291857Y-85177380D02*
X139291857Y-85986904D01*
X139334714Y-86082142D01*
X139377571Y-86129761D01*
X139463285Y-86177380D01*
X139634714Y-86177380D01*
X139720428Y-86129761D01*
X139763285Y-86082142D01*
X139806142Y-85986904D01*
X139806142Y-85177380D01*
X115984428Y-85272619D02*
X116027285Y-85225000D01*
X116113000Y-85177380D01*
X116327285Y-85177380D01*
X116413000Y-85225000D01*
X116455857Y-85272619D01*
X116498714Y-85367857D01*
X116498714Y-85463095D01*
X116455857Y-85605952D01*
X115941571Y-86177380D01*
X116498714Y-86177380D01*
X116884428Y-85177380D02*
X116884428Y-85986904D01*
X116927285Y-86082142D01*
X116970142Y-86129761D01*
X117055857Y-86177380D01*
X117227285Y-86177380D01*
X117313000Y-86129761D01*
X117355857Y-86082142D01*
X117398714Y-85986904D01*
X117398714Y-85177380D01*
D11*
X187539380Y-77088857D02*
X187539380Y-77231714D01*
X187587000Y-77303142D01*
X187634619Y-77338857D01*
X187777476Y-77410285D01*
X187967952Y-77446000D01*
X188348904Y-77446000D01*
X188444142Y-77410285D01*
X188491761Y-77374571D01*
X188539380Y-77303142D01*
X188539380Y-77160285D01*
X188491761Y-77088857D01*
X188444142Y-77053142D01*
X188348904Y-77017428D01*
X188110809Y-77017428D01*
X188015571Y-77053142D01*
X187967952Y-77088857D01*
X187920333Y-77160285D01*
X187920333Y-77303142D01*
X187967952Y-77374571D01*
X188015571Y-77410285D01*
X188110809Y-77446000D01*
X188444142Y-76696000D02*
X188491761Y-76660285D01*
X188539380Y-76696000D01*
X188491761Y-76731714D01*
X188444142Y-76696000D01*
X188539380Y-76696000D01*
X187634619Y-76374571D02*
X187587000Y-76338857D01*
X187539380Y-76267428D01*
X187539380Y-76088857D01*
X187587000Y-76017428D01*
X187634619Y-75981714D01*
X187729857Y-75946000D01*
X187825095Y-75946000D01*
X187967952Y-75981714D01*
X188539380Y-76410285D01*
X188539380Y-75946000D01*
X187539380Y-75267428D02*
X187539380Y-75624571D01*
X188015571Y-75660285D01*
X187967952Y-75624571D01*
X187920333Y-75553142D01*
X187920333Y-75374571D01*
X187967952Y-75303142D01*
X188015571Y-75267428D01*
X188110809Y-75231714D01*
X188348904Y-75231714D01*
X188444142Y-75267428D01*
X188491761Y-75303142D01*
X188539380Y-75374571D01*
X188539380Y-75553142D01*
X188491761Y-75624571D01*
X188444142Y-75660285D01*
X187539380Y-74910285D02*
X188348904Y-74910285D01*
X188444142Y-74874571D01*
X188491761Y-74838857D01*
X188539380Y-74767428D01*
X188539380Y-74624571D01*
X188491761Y-74553142D01*
X188444142Y-74517428D01*
X188348904Y-74481714D01*
X187539380Y-74481714D01*
X87590380Y-77088857D02*
X87590380Y-77231714D01*
X87638000Y-77303142D01*
X87685619Y-77338857D01*
X87828476Y-77410285D01*
X88018952Y-77446000D01*
X88399904Y-77446000D01*
X88495142Y-77410285D01*
X88542761Y-77374571D01*
X88590380Y-77303142D01*
X88590380Y-77160285D01*
X88542761Y-77088857D01*
X88495142Y-77053142D01*
X88399904Y-77017428D01*
X88161809Y-77017428D01*
X88066571Y-77053142D01*
X88018952Y-77088857D01*
X87971333Y-77160285D01*
X87971333Y-77303142D01*
X88018952Y-77374571D01*
X88066571Y-77410285D01*
X88161809Y-77446000D01*
X88495142Y-76696000D02*
X88542761Y-76660285D01*
X88590380Y-76696000D01*
X88542761Y-76731714D01*
X88495142Y-76696000D01*
X88590380Y-76696000D01*
X87685619Y-76374571D02*
X87638000Y-76338857D01*
X87590380Y-76267428D01*
X87590380Y-76088857D01*
X87638000Y-76017428D01*
X87685619Y-75981714D01*
X87780857Y-75946000D01*
X87876095Y-75946000D01*
X88018952Y-75981714D01*
X88590380Y-76410285D01*
X88590380Y-75946000D01*
X87590380Y-75267428D02*
X87590380Y-75624571D01*
X88066571Y-75660285D01*
X88018952Y-75624571D01*
X87971333Y-75553142D01*
X87971333Y-75374571D01*
X88018952Y-75303142D01*
X88066571Y-75267428D01*
X88161809Y-75231714D01*
X88399904Y-75231714D01*
X88495142Y-75267428D01*
X88542761Y-75303142D01*
X88590380Y-75374571D01*
X88590380Y-75553142D01*
X88542761Y-75624571D01*
X88495142Y-75660285D01*
X87590380Y-74910285D02*
X88399904Y-74910285D01*
X88495142Y-74874571D01*
X88542761Y-74838857D01*
X88590380Y-74767428D01*
X88590380Y-74624571D01*
X88542761Y-74553142D01*
X88495142Y-74517428D01*
X88399904Y-74481714D01*
X87590380Y-74481714D01*
X144962619Y-80906714D02*
X144915000Y-80871000D01*
X144867380Y-80799571D01*
X144867380Y-80621000D01*
X144915000Y-80549571D01*
X144962619Y-80513857D01*
X145057857Y-80478142D01*
X145153095Y-80478142D01*
X145295952Y-80513857D01*
X145867380Y-80942428D01*
X145867380Y-80478142D01*
X145772142Y-80156714D02*
X145819761Y-80121000D01*
X145867380Y-80156714D01*
X145819761Y-80192428D01*
X145772142Y-80156714D01*
X145867380Y-80156714D01*
X144962619Y-79835285D02*
X144915000Y-79799571D01*
X144867380Y-79728142D01*
X144867380Y-79549571D01*
X144915000Y-79478142D01*
X144962619Y-79442428D01*
X145057857Y-79406714D01*
X145153095Y-79406714D01*
X145295952Y-79442428D01*
X145867380Y-79871000D01*
X145867380Y-79406714D01*
X144867380Y-78728142D02*
X144867380Y-79085285D01*
X145343571Y-79121000D01*
X145295952Y-79085285D01*
X145248333Y-79013857D01*
X145248333Y-78835285D01*
X145295952Y-78763857D01*
X145343571Y-78728142D01*
X145438809Y-78692428D01*
X145676904Y-78692428D01*
X145772142Y-78728142D01*
X145819761Y-78763857D01*
X145867380Y-78835285D01*
X145867380Y-79013857D01*
X145819761Y-79085285D01*
X145772142Y-79121000D01*
X144867380Y-78371000D02*
X145676904Y-78371000D01*
X145772142Y-78335285D01*
X145819761Y-78299571D01*
X145867380Y-78228142D01*
X145867380Y-78085285D01*
X145819761Y-78013857D01*
X145772142Y-77978142D01*
X145676904Y-77942428D01*
X144867380Y-77942428D01*
X128198619Y-80363142D02*
X128151000Y-80327428D01*
X128103380Y-80256000D01*
X128103380Y-80077428D01*
X128151000Y-80006000D01*
X128198619Y-79970285D01*
X128293857Y-79934571D01*
X128389095Y-79934571D01*
X128531952Y-79970285D01*
X129103380Y-80398857D01*
X129103380Y-79934571D01*
X128103380Y-79613142D02*
X128912904Y-79613142D01*
X129008142Y-79577428D01*
X129055761Y-79541714D01*
X129103380Y-79470285D01*
X129103380Y-79327428D01*
X129055761Y-79256000D01*
X129008142Y-79220285D01*
X128912904Y-79184571D01*
X128103380Y-79184571D01*
X168711619Y-80906714D02*
X168664000Y-80871000D01*
X168616380Y-80799571D01*
X168616380Y-80621000D01*
X168664000Y-80549571D01*
X168711619Y-80513857D01*
X168806857Y-80478142D01*
X168902095Y-80478142D01*
X169044952Y-80513857D01*
X169616380Y-80942428D01*
X169616380Y-80478142D01*
X169521142Y-80156714D02*
X169568761Y-80121000D01*
X169616380Y-80156714D01*
X169568761Y-80192428D01*
X169521142Y-80156714D01*
X169616380Y-80156714D01*
X168711619Y-79835285D02*
X168664000Y-79799571D01*
X168616380Y-79728142D01*
X168616380Y-79549571D01*
X168664000Y-79478142D01*
X168711619Y-79442428D01*
X168806857Y-79406714D01*
X168902095Y-79406714D01*
X169044952Y-79442428D01*
X169616380Y-79871000D01*
X169616380Y-79406714D01*
X168616380Y-78728142D02*
X168616380Y-79085285D01*
X169092571Y-79121000D01*
X169044952Y-79085285D01*
X168997333Y-79013857D01*
X168997333Y-78835285D01*
X169044952Y-78763857D01*
X169092571Y-78728142D01*
X169187809Y-78692428D01*
X169425904Y-78692428D01*
X169521142Y-78728142D01*
X169568761Y-78763857D01*
X169616380Y-78835285D01*
X169616380Y-79013857D01*
X169568761Y-79085285D01*
X169521142Y-79121000D01*
X168616380Y-78371000D02*
X169425904Y-78371000D01*
X169521142Y-78335285D01*
X169568761Y-78299571D01*
X169616380Y-78228142D01*
X169616380Y-78085285D01*
X169568761Y-78013857D01*
X169521142Y-77978142D01*
X169425904Y-77942428D01*
X168616380Y-77942428D01*
X104322619Y-80363142D02*
X104275000Y-80327428D01*
X104227380Y-80256000D01*
X104227380Y-80077428D01*
X104275000Y-80006000D01*
X104322619Y-79970285D01*
X104417857Y-79934571D01*
X104513095Y-79934571D01*
X104655952Y-79970285D01*
X105227380Y-80398857D01*
X105227380Y-79934571D01*
X104227380Y-79613142D02*
X105036904Y-79613142D01*
X105132142Y-79577428D01*
X105179761Y-79541714D01*
X105227380Y-79470285D01*
X105227380Y-79327428D01*
X105179761Y-79256000D01*
X105132142Y-79220285D01*
X105036904Y-79184571D01*
X104227380Y-79184571D01*
D12*
X59005735Y-33404714D02*
X59568235Y-28904714D01*
X61472997Y-28904714D01*
X61922401Y-29119000D01*
X62133711Y-29333285D01*
X62318235Y-29761857D01*
X62237877Y-30404714D01*
X61946211Y-30833285D01*
X61681330Y-31047571D01*
X61178354Y-31261857D01*
X59273592Y-31261857D01*
X64300377Y-31047571D02*
X65967044Y-31047571D01*
X66386687Y-33404714D02*
X64005735Y-33404714D01*
X64568235Y-28904714D01*
X66949187Y-28904714D01*
X71684306Y-29119000D02*
X71234901Y-28904714D01*
X70520616Y-28904714D01*
X69779544Y-29119000D01*
X69249782Y-29547571D01*
X68958116Y-29976142D01*
X68612877Y-30833285D01*
X68532520Y-31476142D01*
X68663473Y-32333285D01*
X68847997Y-32761857D01*
X69270616Y-33190428D01*
X69958116Y-33404714D01*
X70434306Y-33404714D01*
X71175377Y-33190428D01*
X71440258Y-32976142D01*
X71627758Y-31476142D01*
X70675377Y-31476142D01*
X73452163Y-32119000D02*
X75833116Y-32119000D01*
X72815258Y-33404714D02*
X75044425Y-28904714D01*
X76148592Y-33404714D01*
X77603949Y-33190428D02*
X78291449Y-33404714D01*
X79481925Y-33404714D01*
X79984901Y-33190428D01*
X80249782Y-32976142D01*
X80541449Y-32547571D01*
X80595020Y-32119000D01*
X80410497Y-31690428D01*
X80199187Y-31476142D01*
X79749782Y-31261857D01*
X78824187Y-31047571D01*
X78374782Y-30833285D01*
X78163473Y-30619000D01*
X77978949Y-30190428D01*
X78032520Y-29761857D01*
X78324187Y-29333285D01*
X78589068Y-29119000D01*
X79092044Y-28904714D01*
X80282520Y-28904714D01*
X80970020Y-29119000D01*
X83139663Y-28904714D02*
X82684306Y-32547571D01*
X82868830Y-32976142D01*
X83080139Y-33190428D01*
X83529544Y-33404714D01*
X84481925Y-33404714D01*
X84984901Y-33190428D01*
X85249782Y-32976142D01*
X85541449Y-32547571D01*
X85996806Y-28904714D01*
X87603949Y-33190428D02*
X88291449Y-33404714D01*
X89481925Y-33404714D01*
X89984901Y-33190428D01*
X90249782Y-32976142D01*
X90541449Y-32547571D01*
X90595020Y-32119000D01*
X90410497Y-31690428D01*
X90199187Y-31476142D01*
X89749782Y-31261857D01*
X88824187Y-31047571D01*
X88374782Y-30833285D01*
X88163473Y-30619000D01*
X87978949Y-30190428D01*
X88032520Y-29761857D01*
X88324187Y-29333285D01*
X88589068Y-29119000D01*
X89092044Y-28904714D01*
X90282520Y-28904714D01*
X90970020Y-29119000D01*
D13*
X29153750Y-23043500D02*
G75*
G03*
X29153750Y-23043500I-3000000J0D01*
G01*
X20253750Y-21043500D02*
X20253750Y-16943500D01*
X32053750Y-16943500D02*
X32053750Y-21043500D01*
X32053750Y-25043500D02*
X32053750Y-29143500D01*
X20253750Y-25043500D02*
X20253750Y-29143500D01*
X20253750Y-29143500D02*
X32053750Y-29143500D01*
X22353750Y-30543500D02*
X22053750Y-30843500D01*
X22053750Y-30843500D02*
X22053750Y-30243500D01*
X22053750Y-30243500D02*
X22353750Y-30543500D01*
X20253750Y-16943500D02*
X22653750Y-16943500D01*
X24853750Y-16943500D02*
X27453750Y-16943500D01*
X29653750Y-16943500D02*
X32053750Y-16943500D01*
X25653750Y-23043500D02*
X26653750Y-23043500D01*
X26153750Y-23543500D02*
X26153750Y-22543500D01*
X253054750Y-61143500D02*
G75*
G03*
X253054750Y-61143500I-3000000J0D01*
G01*
X244154750Y-59143500D02*
X244154750Y-55043500D01*
X255954750Y-55043500D02*
X255954750Y-59143500D01*
X255954750Y-63143500D02*
X255954750Y-67243500D01*
X244154750Y-63143500D02*
X244154750Y-67243500D01*
X244154750Y-67243500D02*
X255954750Y-67243500D01*
X246254750Y-68643500D02*
X245954750Y-68943500D01*
X245954750Y-68943500D02*
X245954750Y-68343500D01*
X245954750Y-68343500D02*
X246254750Y-68643500D01*
X244154750Y-55043500D02*
X246554750Y-55043500D01*
X248754750Y-55043500D02*
X251354750Y-55043500D01*
X253554750Y-55043500D02*
X255954750Y-55043500D01*
X249554750Y-61143500D02*
X250554750Y-61143500D01*
X250054750Y-61643500D02*
X250054750Y-60643500D01*
D14*
X18882321Y-29457785D02*
X18882321Y-29124452D01*
X19406130Y-28981595D02*
X19406130Y-29457785D01*
X18406130Y-29457785D01*
X18406130Y-28981595D01*
X19406130Y-28553023D02*
X18406130Y-28553023D01*
X19406130Y-27981595D01*
X18406130Y-27981595D01*
X19310892Y-26933976D02*
X19358511Y-26981595D01*
X19406130Y-27124452D01*
X19406130Y-27219690D01*
X19358511Y-27362547D01*
X19263273Y-27457785D01*
X19168035Y-27505404D01*
X18977559Y-27553023D01*
X18834702Y-27553023D01*
X18644226Y-27505404D01*
X18548988Y-27457785D01*
X18453750Y-27362547D01*
X18406130Y-27219690D01*
X18406130Y-27124452D01*
X18453750Y-26981595D01*
X18501369Y-26933976D01*
X19406130Y-25981595D02*
X19406130Y-26553023D01*
X19406130Y-26267309D02*
X18406130Y-26267309D01*
X18548988Y-26362547D01*
X18644226Y-26457785D01*
X18691845Y-26553023D01*
X242783321Y-67557785D02*
X242783321Y-67224452D01*
X243307130Y-67081595D02*
X243307130Y-67557785D01*
X242307130Y-67557785D01*
X242307130Y-67081595D01*
X243307130Y-66653023D02*
X242307130Y-66653023D01*
X243307130Y-66081595D01*
X242307130Y-66081595D01*
X243211892Y-65033976D02*
X243259511Y-65081595D01*
X243307130Y-65224452D01*
X243307130Y-65319690D01*
X243259511Y-65462547D01*
X243164273Y-65557785D01*
X243069035Y-65605404D01*
X242878559Y-65653023D01*
X242735702Y-65653023D01*
X242545226Y-65605404D01*
X242449988Y-65557785D01*
X242354750Y-65462547D01*
X242307130Y-65319690D01*
X242307130Y-65224452D01*
X242354750Y-65081595D01*
X242402369Y-65033976D01*
X242402369Y-64653023D02*
X242354750Y-64605404D01*
X242307130Y-64510166D01*
X242307130Y-64272071D01*
X242354750Y-64176833D01*
X242402369Y-64129214D01*
X242497607Y-64081595D01*
X242592845Y-64081595D01*
X242735702Y-64129214D01*
X243307130Y-64700642D01*
X243307130Y-64081595D01*
%LPC*%
D15*
X33337500Y-61087000D03*
D16*
X28257500Y-61087000D03*
X38417500Y-61087000D03*
D15*
X28575000Y-80137000D03*
D16*
X23495000Y-80137000D03*
X33655000Y-80137000D03*
D15*
X66675000Y-80137000D03*
D16*
X61595000Y-80137000D03*
X71755000Y-80137000D03*
D15*
X59531250Y-61087000D03*
D16*
X54451250Y-61087000D03*
X64611250Y-61087000D03*
D15*
X28575000Y-42037000D03*
D16*
X23495000Y-42037000D03*
X33655000Y-42037000D03*
D15*
X97631250Y-61087000D03*
D16*
X92551250Y-61087000D03*
X102711250Y-61087000D03*
G36*
G01*
X24653750Y-31594500D02*
X22653750Y-31594500D01*
G75*
G02*
X22602750Y-31543500I0J51000D01*
G01*
X22602750Y-29543500D01*
G75*
G02*
X22653750Y-29492500I51000J0D01*
G01*
X24653750Y-29492500D01*
G75*
G02*
X24704750Y-29543500I0J-51000D01*
G01*
X24704750Y-31543500D01*
G75*
G02*
X24653750Y-31594500I-51000J0D01*
G01*
G37*
D17*
X26153750Y-30543500D03*
X28653750Y-30543500D03*
G36*
G01*
X21553750Y-24694500D02*
X19553750Y-24694500D01*
G75*
G02*
X19502750Y-24643500I0J51000D01*
G01*
X19502750Y-21443500D01*
G75*
G02*
X19553750Y-21392500I51000J0D01*
G01*
X21553750Y-21392500D01*
G75*
G02*
X21604750Y-21443500I0J-51000D01*
G01*
X21604750Y-24643500D01*
G75*
G02*
X21553750Y-24694500I-51000J0D01*
G01*
G37*
G36*
G01*
X32753750Y-24694500D02*
X30753750Y-24694500D01*
G75*
G02*
X30702750Y-24643500I0J51000D01*
G01*
X30702750Y-21443500D01*
G75*
G02*
X30753750Y-21392500I51000J0D01*
G01*
X32753750Y-21392500D01*
G75*
G02*
X32804750Y-21443500I0J-51000D01*
G01*
X32804750Y-24643500D01*
G75*
G02*
X32753750Y-24694500I-51000J0D01*
G01*
G37*
X23653750Y-16043500D03*
X28653750Y-16043500D03*
G36*
G01*
X248554750Y-69694500D02*
X246554750Y-69694500D01*
G75*
G02*
X246503750Y-69643500I0J51000D01*
G01*
X246503750Y-67643500D01*
G75*
G02*
X246554750Y-67592500I51000J0D01*
G01*
X248554750Y-67592500D01*
G75*
G02*
X248605750Y-67643500I0J-51000D01*
G01*
X248605750Y-69643500D01*
G75*
G02*
X248554750Y-69694500I-51000J0D01*
G01*
G37*
X250054750Y-68643500D03*
X252554750Y-68643500D03*
G36*
G01*
X245454750Y-62794500D02*
X243454750Y-62794500D01*
G75*
G02*
X243403750Y-62743500I0J51000D01*
G01*
X243403750Y-59543500D01*
G75*
G02*
X243454750Y-59492500I51000J0D01*
G01*
X245454750Y-59492500D01*
G75*
G02*
X245505750Y-59543500I0J-51000D01*
G01*
X245505750Y-62743500D01*
G75*
G02*
X245454750Y-62794500I-51000J0D01*
G01*
G37*
G36*
G01*
X256654750Y-62794500D02*
X254654750Y-62794500D01*
G75*
G02*
X254603750Y-62743500I0J51000D01*
G01*
X254603750Y-59543500D01*
G75*
G02*
X254654750Y-59492500I51000J0D01*
G01*
X256654750Y-59492500D01*
G75*
G02*
X256705750Y-59543500I0J-51000D01*
G01*
X256705750Y-62743500D01*
G75*
G02*
X256654750Y-62794500I-51000J0D01*
G01*
G37*
X247554750Y-54143500D03*
X252554750Y-54143500D03*
D15*
X138112500Y-80137000D03*
D16*
X133032500Y-80137000D03*
X143192500Y-80137000D03*
D18*
X88112600Y-87122000D03*
X188112400Y-87122000D03*
D15*
X88112600Y-71882000D03*
X188112400Y-71882000D03*
X247650000Y-80137000D03*
D16*
X242570000Y-80137000D03*
X252730000Y-80137000D03*
D15*
X209550000Y-80137000D03*
D16*
X204470000Y-80137000D03*
X214630000Y-80137000D03*
D15*
X188118750Y-80137000D03*
D16*
X183038750Y-80137000D03*
X193198750Y-80137000D03*
D15*
X157162500Y-80137000D03*
D16*
X152082500Y-80137000D03*
X162242500Y-80137000D03*
D18*
X145256250Y-87122000D03*
X169068750Y-87122000D03*
D15*
X145256250Y-71882000D03*
X169068750Y-71882000D03*
X116681250Y-80137000D03*
D16*
X111601250Y-80137000D03*
X121761250Y-80137000D03*
D18*
X104775000Y-87122000D03*
X128587500Y-87122000D03*
D15*
X104775000Y-71882000D03*
X128587500Y-71882000D03*
X88106250Y-80137000D03*
D16*
X83026250Y-80137000D03*
X93186250Y-80137000D03*
D15*
X250031250Y-61087000D03*
D16*
X244951250Y-61087000D03*
X255111250Y-61087000D03*
D15*
X230981250Y-61087000D03*
D16*
X225901250Y-61087000D03*
X236061250Y-61087000D03*
D15*
X211931250Y-61087000D03*
D16*
X206851250Y-61087000D03*
X217011250Y-61087000D03*
D15*
X192881250Y-61087000D03*
D16*
X187801250Y-61087000D03*
X197961250Y-61087000D03*
D15*
X173831250Y-61087000D03*
D16*
X168751250Y-61087000D03*
X178911250Y-61087000D03*
D15*
X154781250Y-61087000D03*
D16*
X149701250Y-61087000D03*
X159861250Y-61087000D03*
D15*
X135731250Y-61087000D03*
D16*
X130651250Y-61087000D03*
X140811250Y-61087000D03*
D15*
X116681250Y-61087000D03*
D16*
X111601250Y-61087000D03*
X121761250Y-61087000D03*
D15*
X78581250Y-61087000D03*
D16*
X73501250Y-61087000D03*
X83661250Y-61087000D03*
D15*
X245268750Y-42037000D03*
D16*
X240188750Y-42037000D03*
X250348750Y-42037000D03*
D15*
X221456250Y-42037000D03*
D16*
X216376250Y-42037000D03*
X226536250Y-42037000D03*
D15*
X202406250Y-42037000D03*
D16*
X197326250Y-42037000D03*
X207486250Y-42037000D03*
D15*
X183356250Y-42037000D03*
D16*
X178276250Y-42037000D03*
X188436250Y-42037000D03*
D15*
X164306250Y-42037000D03*
D16*
X159226250Y-42037000D03*
X169386250Y-42037000D03*
D15*
X145256250Y-42037000D03*
D16*
X140176250Y-42037000D03*
X150336250Y-42037000D03*
D15*
X126206250Y-42037000D03*
D16*
X121126250Y-42037000D03*
X131286250Y-42037000D03*
D15*
X107156250Y-42037000D03*
D16*
X102076250Y-42037000D03*
X112236250Y-42037000D03*
D15*
X88106250Y-42037000D03*
D16*
X83026250Y-42037000D03*
X93186250Y-42037000D03*
D15*
X69056250Y-42037000D03*
D16*
X63976250Y-42037000D03*
X74136250Y-42037000D03*
D15*
X50006250Y-42037000D03*
D16*
X44926250Y-42037000D03*
X55086250Y-42037000D03*
D15*
X242887500Y-22987000D03*
D16*
X237807500Y-22987000D03*
X247967500Y-22987000D03*
D15*
X216693750Y-22987000D03*
D16*
X211613750Y-22987000D03*
X221773750Y-22987000D03*
D15*
X197643750Y-22987000D03*
D16*
X192563750Y-22987000D03*
X202723750Y-22987000D03*
D15*
X178593750Y-22987000D03*
D16*
X173513750Y-22987000D03*
X183673750Y-22987000D03*
D15*
X159543750Y-22987000D03*
D16*
X154463750Y-22987000D03*
X164623750Y-22987000D03*
D15*
X140493750Y-22987000D03*
D16*
X135413750Y-22987000D03*
X145573750Y-22987000D03*
D15*
X121443750Y-22987000D03*
D16*
X116363750Y-22987000D03*
X126523750Y-22987000D03*
D15*
X102393750Y-22987000D03*
D16*
X97313750Y-22987000D03*
X107473750Y-22987000D03*
D15*
X83343750Y-22987000D03*
D16*
X78263750Y-22987000D03*
X88423750Y-22987000D03*
D15*
X64293750Y-22987000D03*
D16*
X59213750Y-22987000D03*
X69373750Y-22987000D03*
D15*
X45243750Y-22987000D03*
D16*
X40163750Y-22987000D03*
X50323750Y-22987000D03*
D15*
X26193750Y-22987000D03*
D16*
X21113750Y-22987000D03*
X31273750Y-22987000D03*
M02*
