M48
; DRILL file {KiCad 5.1.10-88a1d61d58~90~ubuntu20.04.1} date Sun Mar  6 19:10:04 2022
; FORMAT={-:-/ absolute / inch / decimal}
; #@! TF.CreationDate,2022-03-06T19:10:04-08:00
; #@! TF.GenerationSoftware,Kicad,Pcbnew,5.1.10-88a1d61d58~90~ubuntu20.04.1
; #@! TF.FileFunction,NonPlated,1,2,NPTH
FMAT,2
INCH
T1C0.0689
T2C0.1200
T3C0.1570
%
G90
G05
T1
X0.8312Y-0.905
X0.925Y-1.655
X0.925Y-3.155
X1.1125Y-2.405
X1.2312Y-0.905
X1.325Y-1.655
X1.325Y-3.155
X1.5125Y-2.405
X1.5813Y-0.905
X1.7688Y-1.655
X1.9812Y-0.905
X2.1437Y-2.405
X2.1687Y-1.655
X2.3312Y-0.905
X2.425Y-3.155
X2.5187Y-1.655
X2.5437Y-2.405
X2.7312Y-0.905
X2.825Y-3.155
X2.8937Y-2.405
X2.9187Y-1.655
X3.0812Y-0.905
X3.2687Y-1.655
X3.2687Y-3.155
X3.2937Y-2.405
X3.4812Y-0.905
X3.6437Y-2.405
X3.6687Y-1.655
X3.6687Y-3.155
X3.8312Y-0.905
X4.0187Y-1.655
X4.0438Y-2.405
X4.2313Y-0.905
X4.3937Y-2.405
X4.3937Y-3.155
X4.4188Y-1.655
X4.5812Y-0.905
X4.7687Y-1.655
X4.7938Y-2.405
X4.7938Y-3.155
X4.9813Y-0.905
X5.1437Y-2.405
X5.1688Y-1.655
X5.2375Y-3.155
X5.3312Y-0.905
X5.5187Y-1.655
X5.5438Y-2.405
X5.6375Y-3.155
X5.7313Y-0.905
X5.8937Y-2.405
X5.9188Y-1.655
X5.9875Y-3.155
X6.0812Y-0.905
X6.2687Y-1.655
X6.2938Y-2.405
X6.3875Y-3.155
X6.4813Y-0.905
X6.6437Y-2.405
X6.6688Y-1.655
X6.8312Y-0.905
X7.0187Y-1.655
X7.0438Y-2.405
X7.2062Y-3.155
X7.2313Y-0.905
X7.3937Y-2.405
X7.4188Y-1.655
X7.5812Y-0.905
X7.6063Y-3.155
X7.7687Y-1.655
X7.7938Y-2.405
X7.9813Y-0.905
X8.05Y-3.155
X8.1437Y-2.405
X8.1687Y-1.655
X8.3312Y-0.905
X8.45Y-3.155
X8.5187Y-1.655
X8.5437Y-2.405
X8.7312Y-0.905
X8.8937Y-2.405
X8.9187Y-1.655
X9.2937Y-2.405
X9.3625Y-0.905
X9.4562Y-1.655
X9.55Y-3.155
X9.6437Y-2.405
X9.7625Y-0.905
X9.8562Y-1.655
X9.95Y-3.155
X10.0437Y-2.405
T2
X3.469Y-3.43
X4.125Y-3.43
X5.0625Y-3.43
X5.7188Y-3.43
X6.6562Y-3.43
X7.406Y-3.43
T3
X1.0312Y-0.905
X1.125Y-1.655
X1.125Y-3.155
X1.3125Y-2.405
X1.7812Y-0.905
X1.9688Y-1.655
X2.3438Y-2.405
X2.5312Y-0.905
X2.625Y-3.155
X2.7188Y-1.655
X3.0938Y-2.405
X3.2812Y-0.905
X3.4688Y-1.655
X3.4688Y-3.155
X3.469Y-2.83
X3.8438Y-2.405
X4.0312Y-0.905
X4.125Y-2.83
X4.2188Y-1.655
X4.5938Y-2.405
X4.5938Y-3.155
X4.7812Y-0.905
X4.9688Y-1.655
X5.0625Y-2.83
X5.3438Y-2.405
X5.4375Y-3.155
X5.5312Y-0.905
X5.7188Y-1.655
X5.7188Y-2.83
X6.0938Y-2.405
X6.1875Y-3.155
X6.2812Y-0.905
X6.4688Y-1.655
X6.6562Y-2.83
X6.8438Y-2.405
X7.0312Y-0.905
X7.2188Y-1.655
X7.406Y-2.83
X7.4062Y-3.155
X7.5938Y-2.405
X7.7812Y-0.905
X7.9688Y-1.655
X8.25Y-3.155
X8.3438Y-2.405
X8.5312Y-0.905
X8.7188Y-1.655
X9.0938Y-2.405
X9.5625Y-0.905
X9.6562Y-1.655
X9.75Y-3.155
X9.8438Y-2.405
T0
M30
