M48
; DRILL file {KiCad 5.1.10-88a1d61d58~90~ubuntu20.04.1} date Sun Mar  6 19:10:04 2022
; FORMAT={-:-/ absolute / inch / decimal}
; #@! TF.CreationDate,2022-03-06T19:10:04-08:00
; #@! TF.GenerationSoftware,Kicad,Pcbnew,5.1.10-88a1d61d58~90~ubuntu20.04.1
; #@! TF.FileFunction,Plated,1,2,PTH
FMAT,2
INCH
T1C0.0157
T2C0.0394
T3C0.0579
T4C0.0591
%
G90
G05
T1
X1.36Y-3.31
X1.385Y-3.435
X1.4338Y-2.5089
X1.44Y-2.47
X1.475Y-2.83
X1.525Y-2.995
X1.6652Y-2.6748
X1.685Y-3.145
X1.7045Y-2.6665
X1.715Y-2.53
X1.74Y-3.31
X1.8Y-2.56
X1.8471Y-1.8121
X1.89Y-3.17
X2.02Y-2.9
X2.08Y-3.02
X2.1348Y-2.6548
X2.135Y-2.695
X2.135Y-2.53
X2.14Y-2.73
X2.59Y-1.8124
X3.34Y-1.815
X4.095Y-1.815
X4.84Y-1.815
X5.595Y-1.815
X6.355Y-1.815
X7.095Y-1.815
X7.84Y-1.815
X8.59Y-1.81
X8.6713Y-2.4625
X9.5425Y-1.8175
T2
X0.9313Y-0.6316
X0.9313Y-1.2025
X1.0297Y-1.2025
X1.1281Y-0.6316
X1.1281Y-1.2025
X9.7462Y-2.1316
X9.7462Y-2.7025
X9.8447Y-2.7025
X9.9431Y-2.1316
X9.9431Y-2.7025
T3
X0.8812Y-0.805
X0.975Y-1.555
X0.975Y-3.055
X1.1312Y-0.705
X1.1625Y-2.305
X1.225Y-1.455
X1.225Y-2.955
X1.4125Y-2.205
X1.6312Y-0.805
X1.8187Y-1.555
X1.8812Y-0.705
X2.0688Y-1.455
X2.1938Y-2.305
X2.3813Y-0.805
X2.4438Y-2.205
X2.475Y-3.055
X2.5688Y-1.555
X2.6313Y-0.705
X2.725Y-2.955
X2.8188Y-1.455
X2.9438Y-2.305
X3.1313Y-0.805
X3.1938Y-2.205
X3.3188Y-1.555
X3.3188Y-3.055
X3.3813Y-0.705
X3.5688Y-1.455
X3.5688Y-2.955
X3.6938Y-2.305
X3.8813Y-0.805
X3.9438Y-2.205
X4.0687Y-1.555
X4.1312Y-0.705
X4.3187Y-1.455
X4.4437Y-2.305
X4.4437Y-3.055
X4.6312Y-0.805
X4.6937Y-2.205
X4.6937Y-2.955
X4.8187Y-1.555
X4.8812Y-0.705
X5.0687Y-1.455
X5.1937Y-2.305
X5.2875Y-3.055
X5.3812Y-0.805
X5.4437Y-2.205
X5.5375Y-2.955
X5.5687Y-1.555
X5.6312Y-0.705
X5.8187Y-1.455
X5.9437Y-2.305
X6.0375Y-3.055
X6.1312Y-0.805
X6.1937Y-2.205
X6.2875Y-2.955
X6.3187Y-1.555
X6.3812Y-0.705
X6.5687Y-1.455
X6.6937Y-2.305
X6.8812Y-0.805
X6.9437Y-2.205
X7.0687Y-1.555
X7.1312Y-0.705
X7.2562Y-3.055
X7.3187Y-1.455
X7.4437Y-2.305
X7.5062Y-2.955
X7.6312Y-0.805
X7.6937Y-2.205
X7.8187Y-1.555
X7.8812Y-0.705
X8.0687Y-1.455
X8.1Y-3.055
X8.1937Y-2.305
X8.35Y-2.955
X8.3812Y-0.805
X8.4437Y-2.205
X8.5687Y-1.555
X8.6312Y-0.705
X8.8187Y-1.455
X8.9437Y-2.305
X9.1937Y-2.205
X9.4125Y-0.805
X9.5062Y-1.555
X9.6Y-3.055
X9.6625Y-0.705
X9.6937Y-2.305
X9.7562Y-1.455
X9.85Y-2.955
X9.9437Y-2.205
T4
G00X0.8092Y-0.9328
M15
G01X0.8092Y-0.8816
M16
G05
G00X1.2501Y-0.9328
M15
G01X1.2501Y-0.8816
M16
G05
G00X9.6242Y-2.4328
M15
G01X9.6242Y-2.3816
M16
G05
G00X10.0651Y-2.4328
M15
G01X10.0651Y-2.3816
M16
G05
T0
M30
