M48
; DRILL file {KiCad 5.1.8-db9833491~88~ubuntu20.04.1} date Sat Dec  5 17:58:15 2020
; FORMAT={-:-/ absolute / inch / decimal}
; #@! TF.CreationDate,2020-12-05T17:58:15-08:00
; #@! TF.GenerationSoftware,Kicad,Pcbnew,5.1.8-db9833491~88~ubuntu20.04.1
; #@! TF.FileFunction,Plated,1,2,PTH
FMAT,2
INCH
T1C0.0157
T2C0.0394
T3C0.0579
T4C0.0591
%
G90
G05
T1
X4.45Y-2.8136
X8.009Y-0.7139
X8.05Y-0.7139
X8.0836Y-0.7884
X8.21Y-0.701
X8.216Y-1.232
X8.267Y-0.8906
X8.42Y-1.13
X8.665Y-1.205
X8.72Y-1.19
X8.723Y-0.652
X8.765Y-1.19
X8.835Y-0.65
X8.842Y-1.232
T2
X4.4Y-2.3441
X4.4Y-2.915
X4.4984Y-2.915
X4.5969Y-2.3441
X4.5969Y-2.915
X0.2781Y-2.3491
X0.2781Y-2.92
X0.3766Y-2.92
X0.475Y-2.3491
X0.475Y-2.92
T3
X8.2875Y-2.525
X8.5375Y-2.425
X4.1625Y-1.025
X4.4125Y-0.925
X5.1937Y-2.525
X5.4437Y-2.425
X3.4125Y-1.025
X3.6625Y-0.925
X5.475Y-0.275
X5.725Y-0.175
X8.7562Y-0.275
X9.0062Y-0.175
X5.6625Y-2.525
X5.9125Y-2.425
X3.225Y-0.275
X3.475Y-0.175
X5.6625Y-1.025
X5.9125Y-0.925
X6.4125Y-1.025
X6.6625Y-0.925
X4.9125Y-1.025
X5.1625Y-0.925
X2.475Y-0.275
X2.725Y-0.175
X3.0375Y-1.775
X3.2875Y-1.675
X9.0375Y-2.525
X9.2875Y-2.425
X4.5375Y-1.775
X4.7875Y-1.675
X3.3188Y-2.525
X3.5688Y-2.425
X0.225Y-0.275
X0.475Y-0.175
X3.975Y-0.275
X4.225Y-0.175
X4.35Y-2.525
X4.6Y-2.425
X0.5062Y-1.775
X0.7562Y-1.675
X1.9125Y-2.525
X2.1625Y-2.425
X7.5375Y-1.775
X7.7875Y-1.675
X1.725Y-0.275
X1.975Y-0.175
X0.975Y-0.275
X1.225Y-0.175
X6.225Y-0.275
X6.475Y-0.175
X1.5375Y-1.775
X1.7875Y-1.675
X3.7875Y-1.775
X4.0375Y-1.675
X8.2875Y-1.775
X8.5375Y-1.675
X6.7875Y-1.775
X7.0375Y-1.675
X1.725Y-2.525
X1.975Y-2.425
X9.0375Y-1.775
X9.2875Y-1.675
X4.4437Y-2.525
X4.6937Y-2.425
X5.7562Y-2.525
X6.0062Y-2.425
X6.0375Y-1.775
X6.2875Y-1.675
X2.6625Y-1.025
X2.9125Y-0.925
X2.2875Y-1.775
X2.5375Y-1.675
X5.2875Y-1.775
X5.5375Y-1.675
X0.225Y-2.525
X0.475Y-2.425
X7.9125Y-1.025
X8.1625Y-0.925
X1.1625Y-1.025
X1.4125Y-0.925
X6.975Y-0.275
X7.225Y-0.175
X7.725Y-0.275
X7.975Y-0.175
X0.975Y-2.525
X1.225Y-2.425
X7.5375Y-2.525
X7.7875Y-2.425
X6.4125Y-2.525
X6.6625Y-2.425
X1.0687Y-2.525
X1.3187Y-2.425
X4.725Y-0.275
X4.975Y-0.175
X0.3187Y-1.025
X0.5687Y-0.925
X3.4125Y-2.525
X3.6625Y-2.425
X8.85Y-1.025
X9.1Y-0.925
X7.1625Y-1.025
X7.4125Y-0.925
X3.1313Y-2.525
X3.3813Y-2.425
X1.9125Y-1.025
X2.1625Y-0.925
T4
G00X4.278Y-2.6453
M15
G01X4.278Y-2.5941
M16
G05
G00X4.7189Y-2.6453
M15
G01X4.7189Y-2.5941
M16
G05
G00X0.1561Y-2.6503
M15
G01X0.1561Y-2.5991
M16
G05
G00X0.597Y-2.6503
M15
G01X0.597Y-2.5991
M16
G05
T0
M30
