G04 #@! TF.GenerationSoftware,KiCad,Pcbnew,5.1.8-db9833491~88~ubuntu20.04.1*
G04 #@! TF.CreationDate,2020-12-05T17:58:13-08:00*
G04 #@! TF.ProjectId,MB44,4d423434-2e6b-4696-9361-645f70636258,rev?*
G04 #@! TF.SameCoordinates,Original*
G04 #@! TF.FileFunction,Soldermask,Bot*
G04 #@! TF.FilePolarity,Negative*
%FSLAX46Y46*%
G04 Gerber Fmt 4.6, Leading zero omitted, Abs format (unit mm)*
G04 Created by KiCad (PCBNEW 5.1.8-db9833491~88~ubuntu20.04.1) date 2020-12-05 17:58:13*
%MOMM*%
%LPD*%
G01*
G04 APERTURE LIST*
%ADD10C,0.150000*%
%ADD11C,0.500000*%
%ADD12C,2.102000*%
%ADD13C,2.352000*%
%ADD14C,4.089800*%
%ADD15C,1.852000*%
%ADD16C,3.150000*%
%ADD17C,0.020000*%
G04 APERTURE END LIST*
D10*
X186395666Y-61904571D02*
X186252809Y-61952190D01*
X186205190Y-61999809D01*
X186157571Y-62095047D01*
X186157571Y-62237904D01*
X186205190Y-62333142D01*
X186252809Y-62380761D01*
X186348047Y-62428380D01*
X186729000Y-62428380D01*
X186729000Y-61428380D01*
X186395666Y-61428380D01*
X186300428Y-61476000D01*
X186252809Y-61523619D01*
X186205190Y-61618857D01*
X186205190Y-61714095D01*
X186252809Y-61809333D01*
X186300428Y-61856952D01*
X186395666Y-61904571D01*
X186729000Y-61904571D01*
X185538523Y-61952190D02*
X185538523Y-62428380D01*
X185871857Y-61428380D02*
X185538523Y-61952190D01*
X185205190Y-61428380D01*
X184109952Y-62428380D02*
X184109952Y-61428380D01*
X183776619Y-62142666D01*
X183443285Y-61428380D01*
X183443285Y-62428380D01*
X182967095Y-61904571D02*
X182633761Y-61904571D01*
X182490904Y-62428380D02*
X182967095Y-62428380D01*
X182967095Y-61428380D01*
X182490904Y-61428380D01*
X181586142Y-62428380D02*
X182062333Y-62428380D01*
X182062333Y-61428380D01*
X181062333Y-61428380D02*
X180871857Y-61428380D01*
X180776619Y-61476000D01*
X180681380Y-61571238D01*
X180633761Y-61761714D01*
X180633761Y-62095047D01*
X180681380Y-62285523D01*
X180776619Y-62380761D01*
X180871857Y-62428380D01*
X181062333Y-62428380D01*
X181157571Y-62380761D01*
X181252809Y-62285523D01*
X181300428Y-62095047D01*
X181300428Y-61761714D01*
X181252809Y-61571238D01*
X181157571Y-61476000D01*
X181062333Y-61428380D01*
X180205190Y-62428380D02*
X180205190Y-61428380D01*
X179633761Y-62428380D01*
X179633761Y-61428380D01*
X178824238Y-61904571D02*
X178681380Y-61952190D01*
X178633761Y-61999809D01*
X178586142Y-62095047D01*
X178586142Y-62237904D01*
X178633761Y-62333142D01*
X178681380Y-62380761D01*
X178776619Y-62428380D01*
X179157571Y-62428380D01*
X179157571Y-61428380D01*
X178824238Y-61428380D01*
X178729000Y-61476000D01*
X178681380Y-61523619D01*
X178633761Y-61618857D01*
X178633761Y-61714095D01*
X178681380Y-61809333D01*
X178729000Y-61856952D01*
X178824238Y-61904571D01*
X179157571Y-61904571D01*
X177586142Y-62428380D02*
X177919476Y-61952190D01*
X178157571Y-62428380D02*
X178157571Y-61428380D01*
X177776619Y-61428380D01*
X177681380Y-61476000D01*
X177633761Y-61523619D01*
X177586142Y-61618857D01*
X177586142Y-61761714D01*
X177633761Y-61856952D01*
X177681380Y-61904571D01*
X177776619Y-61952190D01*
X178157571Y-61952190D01*
X177157571Y-61904571D02*
X176824238Y-61904571D01*
X176681380Y-62428380D02*
X177157571Y-62428380D01*
X177157571Y-61428380D01*
X176681380Y-61428380D01*
X176252809Y-62428380D02*
X176252809Y-61428380D01*
X176014714Y-61428380D01*
X175871857Y-61476000D01*
X175776619Y-61571238D01*
X175729000Y-61666476D01*
X175681380Y-61856952D01*
X175681380Y-61999809D01*
X175729000Y-62190285D01*
X175776619Y-62285523D01*
X175871857Y-62380761D01*
X176014714Y-62428380D01*
X176252809Y-62428380D01*
D11*
X188541898Y-59665904D02*
X187916898Y-54665904D01*
X187363327Y-58237333D01*
X185916898Y-54665904D01*
X186541898Y-59665904D01*
X183785946Y-57046857D02*
X183387136Y-57284952D01*
X183274041Y-57523047D01*
X183190708Y-57999238D01*
X183279994Y-58713523D01*
X183482375Y-59189714D01*
X183654994Y-59427809D01*
X183970470Y-59665904D01*
X185113327Y-59665904D01*
X184488327Y-54665904D01*
X183488327Y-54665904D01*
X183232375Y-54904000D01*
X183119279Y-55142095D01*
X183035946Y-55618285D01*
X183095470Y-56094476D01*
X183297851Y-56570666D01*
X183470470Y-56808761D01*
X183785946Y-57046857D01*
X184785946Y-57046857D01*
X181875232Y-57761142D02*
X179589517Y-57761142D01*
X176696660Y-56332571D02*
X177113327Y-59665904D01*
X177172851Y-54427809D02*
X178333565Y-57999238D01*
X176476422Y-57999238D01*
X173839517Y-56332571D02*
X174256184Y-59665904D01*
X174315708Y-54427809D02*
X175476422Y-57999238D01*
X173619279Y-57999238D01*
D10*
X186395666Y-61904571D02*
X186252809Y-61952190D01*
X186205190Y-61999809D01*
X186157571Y-62095047D01*
X186157571Y-62237904D01*
X186205190Y-62333142D01*
X186252809Y-62380761D01*
X186348047Y-62428380D01*
X186729000Y-62428380D01*
X186729000Y-61428380D01*
X186395666Y-61428380D01*
X186300428Y-61476000D01*
X186252809Y-61523619D01*
X186205190Y-61618857D01*
X186205190Y-61714095D01*
X186252809Y-61809333D01*
X186300428Y-61856952D01*
X186395666Y-61904571D01*
X186729000Y-61904571D01*
X185538523Y-61952190D02*
X185538523Y-62428380D01*
X185871857Y-61428380D02*
X185538523Y-61952190D01*
X185205190Y-61428380D01*
X184109952Y-62428380D02*
X184109952Y-61428380D01*
X183776619Y-62142666D01*
X183443285Y-61428380D01*
X183443285Y-62428380D01*
X182967095Y-61904571D02*
X182633761Y-61904571D01*
X182490904Y-62428380D02*
X182967095Y-62428380D01*
X182967095Y-61428380D01*
X182490904Y-61428380D01*
X181586142Y-62428380D02*
X182062333Y-62428380D01*
X182062333Y-61428380D01*
X181062333Y-61428380D02*
X180871857Y-61428380D01*
X180776619Y-61476000D01*
X180681380Y-61571238D01*
X180633761Y-61761714D01*
X180633761Y-62095047D01*
X180681380Y-62285523D01*
X180776619Y-62380761D01*
X180871857Y-62428380D01*
X181062333Y-62428380D01*
X181157571Y-62380761D01*
X181252809Y-62285523D01*
X181300428Y-62095047D01*
X181300428Y-61761714D01*
X181252809Y-61571238D01*
X181157571Y-61476000D01*
X181062333Y-61428380D01*
X180205190Y-62428380D02*
X180205190Y-61428380D01*
X179633761Y-62428380D01*
X179633761Y-61428380D01*
X178824238Y-61904571D02*
X178681380Y-61952190D01*
X178633761Y-61999809D01*
X178586142Y-62095047D01*
X178586142Y-62237904D01*
X178633761Y-62333142D01*
X178681380Y-62380761D01*
X178776619Y-62428380D01*
X179157571Y-62428380D01*
X179157571Y-61428380D01*
X178824238Y-61428380D01*
X178729000Y-61476000D01*
X178681380Y-61523619D01*
X178633761Y-61618857D01*
X178633761Y-61714095D01*
X178681380Y-61809333D01*
X178729000Y-61856952D01*
X178824238Y-61904571D01*
X179157571Y-61904571D01*
X177586142Y-62428380D02*
X177919476Y-61952190D01*
X178157571Y-62428380D02*
X178157571Y-61428380D01*
X177776619Y-61428380D01*
X177681380Y-61476000D01*
X177633761Y-61523619D01*
X177586142Y-61618857D01*
X177586142Y-61761714D01*
X177633761Y-61856952D01*
X177681380Y-61904571D01*
X177776619Y-61952190D01*
X178157571Y-61952190D01*
X177157571Y-61904571D02*
X176824238Y-61904571D01*
X176681380Y-62428380D02*
X177157571Y-62428380D01*
X177157571Y-61428380D01*
X176681380Y-61428380D01*
X176252809Y-62428380D02*
X176252809Y-61428380D01*
X176014714Y-61428380D01*
X175871857Y-61476000D01*
X175776619Y-61571238D01*
X175729000Y-61666476D01*
X175681380Y-61856952D01*
X175681380Y-61999809D01*
X175729000Y-62190285D01*
X175776619Y-62285523D01*
X175871857Y-62380761D01*
X176014714Y-62428380D01*
X176252809Y-62428380D01*
D11*
X188541898Y-59665904D02*
X187916898Y-54665904D01*
X187363327Y-58237333D01*
X185916898Y-54665904D01*
X186541898Y-59665904D01*
X183785946Y-57046857D02*
X183387136Y-57284952D01*
X183274041Y-57523047D01*
X183190708Y-57999238D01*
X183279994Y-58713523D01*
X183482375Y-59189714D01*
X183654994Y-59427809D01*
X183970470Y-59665904D01*
X185113327Y-59665904D01*
X184488327Y-54665904D01*
X183488327Y-54665904D01*
X183232375Y-54904000D01*
X183119279Y-55142095D01*
X183035946Y-55618285D01*
X183095470Y-56094476D01*
X183297851Y-56570666D01*
X183470470Y-56808761D01*
X183785946Y-57046857D01*
X184785946Y-57046857D01*
X181875232Y-57761142D02*
X179589517Y-57761142D01*
X176696660Y-56332571D02*
X177113327Y-59665904D01*
X177172851Y-54427809D02*
X178333565Y-57999238D01*
X176476422Y-57999238D01*
X173839517Y-56332571D02*
X174256184Y-59665904D01*
X174315708Y-54427809D02*
X175476422Y-57999238D01*
X173619279Y-57999238D01*
G36*
G01*
X8065000Y-75219000D02*
X6065000Y-75219000D01*
G75*
G02*
X6014000Y-75168000I0J51000D01*
G01*
X6014000Y-73168000D01*
G75*
G02*
X6065000Y-73117000I51000J0D01*
G01*
X8065000Y-73117000D01*
G75*
G02*
X8116000Y-73168000I0J-51000D01*
G01*
X8116000Y-75168000D01*
G75*
G02*
X8065000Y-75219000I-51000J0D01*
G01*
G37*
D12*
X9565000Y-74168000D03*
X12065000Y-74168000D03*
G36*
G01*
X4965000Y-68319000D02*
X2965000Y-68319000D01*
G75*
G02*
X2914000Y-68268000I0J51000D01*
G01*
X2914000Y-65068000D01*
G75*
G02*
X2965000Y-65017000I51000J0D01*
G01*
X4965000Y-65017000D01*
G75*
G02*
X5016000Y-65068000I0J-51000D01*
G01*
X5016000Y-68268000D01*
G75*
G02*
X4965000Y-68319000I-51000J0D01*
G01*
G37*
G36*
G01*
X16165000Y-68319000D02*
X14165000Y-68319000D01*
G75*
G02*
X14114000Y-68268000I0J51000D01*
G01*
X14114000Y-65068000D01*
G75*
G02*
X14165000Y-65017000I51000J0D01*
G01*
X16165000Y-65017000D01*
G75*
G02*
X16216000Y-65068000I0J-51000D01*
G01*
X16216000Y-68268000D01*
G75*
G02*
X16165000Y-68319000I-51000J0D01*
G01*
G37*
X7065000Y-59668000D03*
X12065000Y-59668000D03*
D13*
X235902500Y-42545000D03*
D14*
X233362500Y-47625000D03*
D13*
X229552500Y-45085000D03*
D15*
X228282500Y-47625000D03*
X238442500Y-47625000D03*
G36*
G01*
X175733000Y-66669000D02*
X174533000Y-66669000D01*
G75*
G02*
X174482000Y-66618000I0J51000D01*
G01*
X174482000Y-65718000D01*
G75*
G02*
X174533000Y-65667000I51000J0D01*
G01*
X175733000Y-65667000D01*
G75*
G02*
X175784000Y-65718000I0J-51000D01*
G01*
X175784000Y-66618000D01*
G75*
G02*
X175733000Y-66669000I-51000J0D01*
G01*
G37*
G36*
G01*
X175733000Y-69969000D02*
X174533000Y-69969000D01*
G75*
G02*
X174482000Y-69918000I0J51000D01*
G01*
X174482000Y-69018000D01*
G75*
G02*
X174533000Y-68967000I51000J0D01*
G01*
X175733000Y-68967000D01*
G75*
G02*
X175784000Y-69018000I0J-51000D01*
G01*
X175784000Y-69918000D01*
G75*
G02*
X175733000Y-69969000I-51000J0D01*
G01*
G37*
G36*
G01*
X112760000Y-75092000D02*
X110760000Y-75092000D01*
G75*
G02*
X110709000Y-75041000I0J51000D01*
G01*
X110709000Y-73041000D01*
G75*
G02*
X110760000Y-72990000I51000J0D01*
G01*
X112760000Y-72990000D01*
G75*
G02*
X112811000Y-73041000I0J-51000D01*
G01*
X112811000Y-75041000D01*
G75*
G02*
X112760000Y-75092000I-51000J0D01*
G01*
G37*
D12*
X114260000Y-74041000D03*
X116760000Y-74041000D03*
G36*
G01*
X109660000Y-68192000D02*
X107660000Y-68192000D01*
G75*
G02*
X107609000Y-68141000I0J51000D01*
G01*
X107609000Y-64941000D01*
G75*
G02*
X107660000Y-64890000I51000J0D01*
G01*
X109660000Y-64890000D01*
G75*
G02*
X109711000Y-64941000I0J-51000D01*
G01*
X109711000Y-68141000D01*
G75*
G02*
X109660000Y-68192000I-51000J0D01*
G01*
G37*
G36*
G01*
X120860000Y-68192000D02*
X118860000Y-68192000D01*
G75*
G02*
X118809000Y-68141000I0J51000D01*
G01*
X118809000Y-64941000D01*
G75*
G02*
X118860000Y-64890000I51000J0D01*
G01*
X120860000Y-64890000D01*
G75*
G02*
X120911000Y-64941000I0J-51000D01*
G01*
X120911000Y-68141000D01*
G75*
G02*
X120860000Y-68192000I-51000J0D01*
G01*
G37*
X111760000Y-59541000D03*
X116760000Y-59541000D03*
D15*
X171767500Y-66675000D03*
X161607500Y-66675000D03*
D13*
X162877500Y-64135000D03*
D14*
X166687500Y-66675000D03*
D13*
X169227500Y-61595000D03*
D14*
X147637500Y-58420000D03*
X123825000Y-58420000D03*
D16*
X147637500Y-73660000D03*
X123825000Y-73660000D03*
D15*
X140811250Y-66675000D03*
X130651250Y-66675000D03*
D13*
X131921250Y-64135000D03*
D14*
X135731250Y-66675000D03*
D13*
X138271250Y-61595000D03*
D14*
X100012500Y-58420000D03*
X76200000Y-58420000D03*
D16*
X100012500Y-73660000D03*
X76200000Y-73660000D03*
D15*
X93186250Y-66675000D03*
X83026250Y-66675000D03*
D13*
X84296250Y-64135000D03*
D14*
X88106250Y-66675000D03*
D13*
X90646250Y-61595000D03*
G36*
G01*
X198810500Y-17049876D02*
X198810500Y-18002124D01*
G75*
G02*
X198535624Y-18277000I-274876J0D01*
G01*
X197958376Y-18277000D01*
G75*
G02*
X197683500Y-18002124I0J274876D01*
G01*
X197683500Y-17049876D01*
G75*
G02*
X197958376Y-16775000I274876J0D01*
G01*
X198535624Y-16775000D01*
G75*
G02*
X198810500Y-17049876I0J-274876D01*
G01*
G37*
G36*
G01*
X200635500Y-17049876D02*
X200635500Y-18002124D01*
G75*
G02*
X200360624Y-18277000I-274876J0D01*
G01*
X199783376Y-18277000D01*
G75*
G02*
X199508500Y-18002124I0J274876D01*
G01*
X199508500Y-17049876D01*
G75*
G02*
X199783376Y-16775000I274876J0D01*
G01*
X200360624Y-16775000D01*
G75*
G02*
X200635500Y-17049876I0J-274876D01*
G01*
G37*
G36*
G01*
X198763500Y-15017876D02*
X198763500Y-15970124D01*
G75*
G02*
X198488624Y-16245000I-274876J0D01*
G01*
X197911376Y-16245000D01*
G75*
G02*
X197636500Y-15970124I0J274876D01*
G01*
X197636500Y-15017876D01*
G75*
G02*
X197911376Y-14743000I274876J0D01*
G01*
X198488624Y-14743000D01*
G75*
G02*
X198763500Y-15017876I0J-274876D01*
G01*
G37*
G36*
G01*
X200588500Y-15017876D02*
X200588500Y-15970124D01*
G75*
G02*
X200313624Y-16245000I-274876J0D01*
G01*
X199736376Y-16245000D01*
G75*
G02*
X199461500Y-15970124I0J274876D01*
G01*
X199461500Y-15017876D01*
G75*
G02*
X199736376Y-14743000I274876J0D01*
G01*
X200313624Y-14743000D01*
G75*
G02*
X200588500Y-15017876I0J-274876D01*
G01*
G37*
X235902500Y-61595000D03*
D14*
X233362500Y-66675000D03*
D13*
X229552500Y-64135000D03*
D15*
X228282500Y-66675000D03*
X238442500Y-66675000D03*
G36*
G01*
X223154800Y-66642600D02*
X221954800Y-66642600D01*
G75*
G02*
X221903800Y-66591600I0J51000D01*
G01*
X221903800Y-65691600D01*
G75*
G02*
X221954800Y-65640600I51000J0D01*
G01*
X223154800Y-65640600D01*
G75*
G02*
X223205800Y-65691600I0J-51000D01*
G01*
X223205800Y-66591600D01*
G75*
G02*
X223154800Y-66642600I-51000J0D01*
G01*
G37*
G36*
G01*
X223154800Y-69942600D02*
X221954800Y-69942600D01*
G75*
G02*
X221903800Y-69891600I0J51000D01*
G01*
X221903800Y-68991600D01*
G75*
G02*
X221954800Y-68940600I51000J0D01*
G01*
X223154800Y-68940600D01*
G75*
G02*
X223205800Y-68991600I0J-51000D01*
G01*
X223205800Y-69891600D01*
G75*
G02*
X223154800Y-69942600I-51000J0D01*
G01*
G37*
D13*
X150177500Y-61595000D03*
X143827500Y-64135000D03*
D14*
X147637500Y-66675000D03*
D15*
X142557500Y-66675000D03*
X152717500Y-66675000D03*
D16*
X128587500Y-73660000D03*
X166687500Y-73660000D03*
D14*
X128587500Y-58420000D03*
X166687500Y-58420000D03*
D13*
X93027500Y-61595000D03*
X86677500Y-64135000D03*
D14*
X90487500Y-66675000D03*
D15*
X85407500Y-66675000D03*
X95567500Y-66675000D03*
D16*
X71437500Y-73660000D03*
X109537500Y-73660000D03*
D14*
X71437500Y-58420000D03*
X109537500Y-58420000D03*
D13*
X152558750Y-61595000D03*
D14*
X150018750Y-66675000D03*
D13*
X146208750Y-64135000D03*
D15*
X144938750Y-66675000D03*
X155098750Y-66675000D03*
D16*
X138112500Y-73660000D03*
X161925000Y-73660000D03*
D14*
X138112500Y-58420000D03*
X161925000Y-58420000D03*
D13*
X116840000Y-61595000D03*
D14*
X114300000Y-66675000D03*
D13*
X110490000Y-64135000D03*
D15*
X109220000Y-66675000D03*
X119380000Y-66675000D03*
D13*
X85883750Y-61595000D03*
D14*
X83343750Y-66675000D03*
D13*
X79533750Y-64135000D03*
D15*
X78263750Y-66675000D03*
X88423750Y-66675000D03*
D16*
X71437500Y-73660000D03*
X95250000Y-73660000D03*
D14*
X71437500Y-58420000D03*
X95250000Y-58420000D03*
D13*
X54927500Y-61595000D03*
D14*
X52387500Y-66675000D03*
D13*
X48577500Y-64135000D03*
D15*
X47307500Y-66675000D03*
X57467500Y-66675000D03*
D13*
X33496250Y-61595000D03*
D14*
X30956250Y-66675000D03*
D13*
X27146250Y-64135000D03*
D15*
X25876250Y-66675000D03*
X36036250Y-66675000D03*
D13*
X216852500Y-61595000D03*
D14*
X214312500Y-66675000D03*
D13*
X210502500Y-64135000D03*
D15*
X209232500Y-66675000D03*
X219392500Y-66675000D03*
D13*
X197802500Y-61595000D03*
D14*
X195262500Y-66675000D03*
D13*
X191452500Y-64135000D03*
D15*
X190182500Y-66675000D03*
X200342500Y-66675000D03*
D13*
X119221250Y-61595000D03*
D14*
X116681250Y-66675000D03*
D13*
X112871250Y-64135000D03*
D15*
X111601250Y-66675000D03*
X121761250Y-66675000D03*
D16*
X66681350Y-73660000D03*
X166681150Y-73660000D03*
D14*
X66681350Y-58420000D03*
X166681150Y-58420000D03*
D13*
X50165000Y-61595000D03*
D14*
X47625000Y-66675000D03*
D13*
X43815000Y-64135000D03*
D15*
X42545000Y-66675000D03*
X52705000Y-66675000D03*
D13*
X31115000Y-61595000D03*
D14*
X28575000Y-66675000D03*
D13*
X24765000Y-64135000D03*
D15*
X23495000Y-66675000D03*
X33655000Y-66675000D03*
D13*
X12065000Y-61595000D03*
D14*
X9525000Y-66675000D03*
D13*
X5715000Y-64135000D03*
D15*
X4445000Y-66675000D03*
X14605000Y-66675000D03*
G36*
G01*
X158842000Y-66642600D02*
X157642000Y-66642600D01*
G75*
G02*
X157591000Y-66591600I0J51000D01*
G01*
X157591000Y-65691600D01*
G75*
G02*
X157642000Y-65640600I51000J0D01*
G01*
X158842000Y-65640600D01*
G75*
G02*
X158893000Y-65691600I0J-51000D01*
G01*
X158893000Y-66591600D01*
G75*
G02*
X158842000Y-66642600I-51000J0D01*
G01*
G37*
G36*
G01*
X158842000Y-69942600D02*
X157642000Y-69942600D01*
G75*
G02*
X157591000Y-69891600I0J51000D01*
G01*
X157591000Y-68991600D01*
G75*
G02*
X157642000Y-68940600I51000J0D01*
G01*
X158842000Y-68940600D01*
G75*
G02*
X158893000Y-68991600I0J-51000D01*
G01*
X158893000Y-69891600D01*
G75*
G02*
X158842000Y-69942600I-51000J0D01*
G01*
G37*
G36*
G01*
X211880900Y-19692200D02*
X213181900Y-19692200D01*
G75*
G02*
X213332400Y-19842700I0J-150500D01*
G01*
X213332400Y-20143700D01*
G75*
G02*
X213181900Y-20294200I-150500J0D01*
G01*
X211880900Y-20294200D01*
G75*
G02*
X211730400Y-20143700I0J150500D01*
G01*
X211730400Y-19842700D01*
G75*
G02*
X211880900Y-19692200I150500J0D01*
G01*
G37*
G36*
G01*
X211880900Y-20492200D02*
X213181900Y-20492200D01*
G75*
G02*
X213332400Y-20642700I0J-150500D01*
G01*
X213332400Y-20943700D01*
G75*
G02*
X213181900Y-21094200I-150500J0D01*
G01*
X211880900Y-21094200D01*
G75*
G02*
X211730400Y-20943700I0J150500D01*
G01*
X211730400Y-20642700D01*
G75*
G02*
X211880900Y-20492200I150500J0D01*
G01*
G37*
G36*
G01*
X211880900Y-21292200D02*
X213181900Y-21292200D01*
G75*
G02*
X213332400Y-21442700I0J-150500D01*
G01*
X213332400Y-21743700D01*
G75*
G02*
X213181900Y-21894200I-150500J0D01*
G01*
X211880900Y-21894200D01*
G75*
G02*
X211730400Y-21743700I0J150500D01*
G01*
X211730400Y-21442700D01*
G75*
G02*
X211880900Y-21292200I150500J0D01*
G01*
G37*
G36*
G01*
X211880900Y-22092200D02*
X213181900Y-22092200D01*
G75*
G02*
X213332400Y-22242700I0J-150500D01*
G01*
X213332400Y-22543700D01*
G75*
G02*
X213181900Y-22694200I-150500J0D01*
G01*
X211880900Y-22694200D01*
G75*
G02*
X211730400Y-22543700I0J150500D01*
G01*
X211730400Y-22242700D01*
G75*
G02*
X211880900Y-22092200I150500J0D01*
G01*
G37*
G36*
G01*
X211880900Y-22892200D02*
X213181900Y-22892200D01*
G75*
G02*
X213332400Y-23042700I0J-150500D01*
G01*
X213332400Y-23343700D01*
G75*
G02*
X213181900Y-23494200I-150500J0D01*
G01*
X211880900Y-23494200D01*
G75*
G02*
X211730400Y-23343700I0J150500D01*
G01*
X211730400Y-23042700D01*
G75*
G02*
X211880900Y-22892200I150500J0D01*
G01*
G37*
G36*
G01*
X211880900Y-23692200D02*
X213181900Y-23692200D01*
G75*
G02*
X213332400Y-23842700I0J-150500D01*
G01*
X213332400Y-24143700D01*
G75*
G02*
X213181900Y-24294200I-150500J0D01*
G01*
X211880900Y-24294200D01*
G75*
G02*
X211730400Y-24143700I0J150500D01*
G01*
X211730400Y-23842700D01*
G75*
G02*
X211880900Y-23692200I150500J0D01*
G01*
G37*
G36*
G01*
X211880900Y-24492200D02*
X213181900Y-24492200D01*
G75*
G02*
X213332400Y-24642700I0J-150500D01*
G01*
X213332400Y-24943700D01*
G75*
G02*
X213181900Y-25094200I-150500J0D01*
G01*
X211880900Y-25094200D01*
G75*
G02*
X211730400Y-24943700I0J150500D01*
G01*
X211730400Y-24642700D01*
G75*
G02*
X211880900Y-24492200I150500J0D01*
G01*
G37*
G36*
G01*
X211880900Y-25292200D02*
X213181900Y-25292200D01*
G75*
G02*
X213332400Y-25442700I0J-150500D01*
G01*
X213332400Y-25743700D01*
G75*
G02*
X213181900Y-25894200I-150500J0D01*
G01*
X211880900Y-25894200D01*
G75*
G02*
X211730400Y-25743700I0J150500D01*
G01*
X211730400Y-25442700D01*
G75*
G02*
X211880900Y-25292200I150500J0D01*
G01*
G37*
G36*
G01*
X213755900Y-26167200D02*
X214056900Y-26167200D01*
G75*
G02*
X214207400Y-26317700I0J-150500D01*
G01*
X214207400Y-27618700D01*
G75*
G02*
X214056900Y-27769200I-150500J0D01*
G01*
X213755900Y-27769200D01*
G75*
G02*
X213605400Y-27618700I0J150500D01*
G01*
X213605400Y-26317700D01*
G75*
G02*
X213755900Y-26167200I150500J0D01*
G01*
G37*
G36*
G01*
X214555900Y-26167200D02*
X214856900Y-26167200D01*
G75*
G02*
X215007400Y-26317700I0J-150500D01*
G01*
X215007400Y-27618700D01*
G75*
G02*
X214856900Y-27769200I-150500J0D01*
G01*
X214555900Y-27769200D01*
G75*
G02*
X214405400Y-27618700I0J150500D01*
G01*
X214405400Y-26317700D01*
G75*
G02*
X214555900Y-26167200I150500J0D01*
G01*
G37*
G36*
G01*
X215355900Y-26167200D02*
X215656900Y-26167200D01*
G75*
G02*
X215807400Y-26317700I0J-150500D01*
G01*
X215807400Y-27618700D01*
G75*
G02*
X215656900Y-27769200I-150500J0D01*
G01*
X215355900Y-27769200D01*
G75*
G02*
X215205400Y-27618700I0J150500D01*
G01*
X215205400Y-26317700D01*
G75*
G02*
X215355900Y-26167200I150500J0D01*
G01*
G37*
G36*
G01*
X216155900Y-26167200D02*
X216456900Y-26167200D01*
G75*
G02*
X216607400Y-26317700I0J-150500D01*
G01*
X216607400Y-27618700D01*
G75*
G02*
X216456900Y-27769200I-150500J0D01*
G01*
X216155900Y-27769200D01*
G75*
G02*
X216005400Y-27618700I0J150500D01*
G01*
X216005400Y-26317700D01*
G75*
G02*
X216155900Y-26167200I150500J0D01*
G01*
G37*
G36*
G01*
X216955900Y-26167200D02*
X217256900Y-26167200D01*
G75*
G02*
X217407400Y-26317700I0J-150500D01*
G01*
X217407400Y-27618700D01*
G75*
G02*
X217256900Y-27769200I-150500J0D01*
G01*
X216955900Y-27769200D01*
G75*
G02*
X216805400Y-27618700I0J150500D01*
G01*
X216805400Y-26317700D01*
G75*
G02*
X216955900Y-26167200I150500J0D01*
G01*
G37*
G36*
G01*
X217755900Y-26167200D02*
X218056900Y-26167200D01*
G75*
G02*
X218207400Y-26317700I0J-150500D01*
G01*
X218207400Y-27618700D01*
G75*
G02*
X218056900Y-27769200I-150500J0D01*
G01*
X217755900Y-27769200D01*
G75*
G02*
X217605400Y-27618700I0J150500D01*
G01*
X217605400Y-26317700D01*
G75*
G02*
X217755900Y-26167200I150500J0D01*
G01*
G37*
G36*
G01*
X218555900Y-26167200D02*
X218856900Y-26167200D01*
G75*
G02*
X219007400Y-26317700I0J-150500D01*
G01*
X219007400Y-27618700D01*
G75*
G02*
X218856900Y-27769200I-150500J0D01*
G01*
X218555900Y-27769200D01*
G75*
G02*
X218405400Y-27618700I0J150500D01*
G01*
X218405400Y-26317700D01*
G75*
G02*
X218555900Y-26167200I150500J0D01*
G01*
G37*
G36*
G01*
X219355900Y-26167200D02*
X219656900Y-26167200D01*
G75*
G02*
X219807400Y-26317700I0J-150500D01*
G01*
X219807400Y-27618700D01*
G75*
G02*
X219656900Y-27769200I-150500J0D01*
G01*
X219355900Y-27769200D01*
G75*
G02*
X219205400Y-27618700I0J150500D01*
G01*
X219205400Y-26317700D01*
G75*
G02*
X219355900Y-26167200I150500J0D01*
G01*
G37*
G36*
G01*
X220230900Y-25292200D02*
X221531900Y-25292200D01*
G75*
G02*
X221682400Y-25442700I0J-150500D01*
G01*
X221682400Y-25743700D01*
G75*
G02*
X221531900Y-25894200I-150500J0D01*
G01*
X220230900Y-25894200D01*
G75*
G02*
X220080400Y-25743700I0J150500D01*
G01*
X220080400Y-25442700D01*
G75*
G02*
X220230900Y-25292200I150500J0D01*
G01*
G37*
G36*
G01*
X220230900Y-24492200D02*
X221531900Y-24492200D01*
G75*
G02*
X221682400Y-24642700I0J-150500D01*
G01*
X221682400Y-24943700D01*
G75*
G02*
X221531900Y-25094200I-150500J0D01*
G01*
X220230900Y-25094200D01*
G75*
G02*
X220080400Y-24943700I0J150500D01*
G01*
X220080400Y-24642700D01*
G75*
G02*
X220230900Y-24492200I150500J0D01*
G01*
G37*
G36*
G01*
X220230900Y-23692200D02*
X221531900Y-23692200D01*
G75*
G02*
X221682400Y-23842700I0J-150500D01*
G01*
X221682400Y-24143700D01*
G75*
G02*
X221531900Y-24294200I-150500J0D01*
G01*
X220230900Y-24294200D01*
G75*
G02*
X220080400Y-24143700I0J150500D01*
G01*
X220080400Y-23842700D01*
G75*
G02*
X220230900Y-23692200I150500J0D01*
G01*
G37*
G36*
G01*
X220230900Y-22892200D02*
X221531900Y-22892200D01*
G75*
G02*
X221682400Y-23042700I0J-150500D01*
G01*
X221682400Y-23343700D01*
G75*
G02*
X221531900Y-23494200I-150500J0D01*
G01*
X220230900Y-23494200D01*
G75*
G02*
X220080400Y-23343700I0J150500D01*
G01*
X220080400Y-23042700D01*
G75*
G02*
X220230900Y-22892200I150500J0D01*
G01*
G37*
G36*
G01*
X220230900Y-22092200D02*
X221531900Y-22092200D01*
G75*
G02*
X221682400Y-22242700I0J-150500D01*
G01*
X221682400Y-22543700D01*
G75*
G02*
X221531900Y-22694200I-150500J0D01*
G01*
X220230900Y-22694200D01*
G75*
G02*
X220080400Y-22543700I0J150500D01*
G01*
X220080400Y-22242700D01*
G75*
G02*
X220230900Y-22092200I150500J0D01*
G01*
G37*
G36*
G01*
X220230900Y-21292200D02*
X221531900Y-21292200D01*
G75*
G02*
X221682400Y-21442700I0J-150500D01*
G01*
X221682400Y-21743700D01*
G75*
G02*
X221531900Y-21894200I-150500J0D01*
G01*
X220230900Y-21894200D01*
G75*
G02*
X220080400Y-21743700I0J150500D01*
G01*
X220080400Y-21442700D01*
G75*
G02*
X220230900Y-21292200I150500J0D01*
G01*
G37*
G36*
G01*
X220230900Y-20492200D02*
X221531900Y-20492200D01*
G75*
G02*
X221682400Y-20642700I0J-150500D01*
G01*
X221682400Y-20943700D01*
G75*
G02*
X221531900Y-21094200I-150500J0D01*
G01*
X220230900Y-21094200D01*
G75*
G02*
X220080400Y-20943700I0J150500D01*
G01*
X220080400Y-20642700D01*
G75*
G02*
X220230900Y-20492200I150500J0D01*
G01*
G37*
G36*
G01*
X220230900Y-19692200D02*
X221531900Y-19692200D01*
G75*
G02*
X221682400Y-19842700I0J-150500D01*
G01*
X221682400Y-20143700D01*
G75*
G02*
X221531900Y-20294200I-150500J0D01*
G01*
X220230900Y-20294200D01*
G75*
G02*
X220080400Y-20143700I0J150500D01*
G01*
X220080400Y-19842700D01*
G75*
G02*
X220230900Y-19692200I150500J0D01*
G01*
G37*
G36*
G01*
X219355900Y-17817200D02*
X219656900Y-17817200D01*
G75*
G02*
X219807400Y-17967700I0J-150500D01*
G01*
X219807400Y-19268700D01*
G75*
G02*
X219656900Y-19419200I-150500J0D01*
G01*
X219355900Y-19419200D01*
G75*
G02*
X219205400Y-19268700I0J150500D01*
G01*
X219205400Y-17967700D01*
G75*
G02*
X219355900Y-17817200I150500J0D01*
G01*
G37*
G36*
G01*
X218555900Y-17817200D02*
X218856900Y-17817200D01*
G75*
G02*
X219007400Y-17967700I0J-150500D01*
G01*
X219007400Y-19268700D01*
G75*
G02*
X218856900Y-19419200I-150500J0D01*
G01*
X218555900Y-19419200D01*
G75*
G02*
X218405400Y-19268700I0J150500D01*
G01*
X218405400Y-17967700D01*
G75*
G02*
X218555900Y-17817200I150500J0D01*
G01*
G37*
G36*
G01*
X217755900Y-17817200D02*
X218056900Y-17817200D01*
G75*
G02*
X218207400Y-17967700I0J-150500D01*
G01*
X218207400Y-19268700D01*
G75*
G02*
X218056900Y-19419200I-150500J0D01*
G01*
X217755900Y-19419200D01*
G75*
G02*
X217605400Y-19268700I0J150500D01*
G01*
X217605400Y-17967700D01*
G75*
G02*
X217755900Y-17817200I150500J0D01*
G01*
G37*
G36*
G01*
X216955900Y-17817200D02*
X217256900Y-17817200D01*
G75*
G02*
X217407400Y-17967700I0J-150500D01*
G01*
X217407400Y-19268700D01*
G75*
G02*
X217256900Y-19419200I-150500J0D01*
G01*
X216955900Y-19419200D01*
G75*
G02*
X216805400Y-19268700I0J150500D01*
G01*
X216805400Y-17967700D01*
G75*
G02*
X216955900Y-17817200I150500J0D01*
G01*
G37*
G36*
G01*
X216155900Y-17817200D02*
X216456900Y-17817200D01*
G75*
G02*
X216607400Y-17967700I0J-150500D01*
G01*
X216607400Y-19268700D01*
G75*
G02*
X216456900Y-19419200I-150500J0D01*
G01*
X216155900Y-19419200D01*
G75*
G02*
X216005400Y-19268700I0J150500D01*
G01*
X216005400Y-17967700D01*
G75*
G02*
X216155900Y-17817200I150500J0D01*
G01*
G37*
G36*
G01*
X215355900Y-17817200D02*
X215656900Y-17817200D01*
G75*
G02*
X215807400Y-17967700I0J-150500D01*
G01*
X215807400Y-19268700D01*
G75*
G02*
X215656900Y-19419200I-150500J0D01*
G01*
X215355900Y-19419200D01*
G75*
G02*
X215205400Y-19268700I0J150500D01*
G01*
X215205400Y-17967700D01*
G75*
G02*
X215355900Y-17817200I150500J0D01*
G01*
G37*
G36*
G01*
X214555900Y-17817200D02*
X214856900Y-17817200D01*
G75*
G02*
X215007400Y-17967700I0J-150500D01*
G01*
X215007400Y-19268700D01*
G75*
G02*
X214856900Y-19419200I-150500J0D01*
G01*
X214555900Y-19419200D01*
G75*
G02*
X214405400Y-19268700I0J150500D01*
G01*
X214405400Y-17967700D01*
G75*
G02*
X214555900Y-17817200I150500J0D01*
G01*
G37*
G36*
G01*
X213755900Y-17817200D02*
X214056900Y-17817200D01*
G75*
G02*
X214207400Y-17967700I0J-150500D01*
G01*
X214207400Y-19268700D01*
G75*
G02*
X214056900Y-19419200I-150500J0D01*
G01*
X213755900Y-19419200D01*
G75*
G02*
X213605400Y-19268700I0J150500D01*
G01*
X213605400Y-17967700D01*
G75*
G02*
X213755900Y-17817200I150500J0D01*
G01*
G37*
D13*
X31115000Y-4445000D03*
D14*
X28575000Y-9525000D03*
D13*
X24765000Y-6985000D03*
D15*
X23495000Y-9525000D03*
X33655000Y-9525000D03*
D13*
X231140000Y-23495000D03*
D14*
X228600000Y-28575000D03*
D13*
X224790000Y-26035000D03*
D15*
X223520000Y-28575000D03*
X233680000Y-28575000D03*
G36*
G01*
X75466500Y-9520000D02*
X74266500Y-9520000D01*
G75*
G02*
X74215500Y-9469000I0J51000D01*
G01*
X74215500Y-8569000D01*
G75*
G02*
X74266500Y-8518000I51000J0D01*
G01*
X75466500Y-8518000D01*
G75*
G02*
X75517500Y-8569000I0J-51000D01*
G01*
X75517500Y-9469000D01*
G75*
G02*
X75466500Y-9520000I-51000J0D01*
G01*
G37*
G36*
G01*
X75466500Y-12820000D02*
X74266500Y-12820000D01*
G75*
G02*
X74215500Y-12769000I0J51000D01*
G01*
X74215500Y-11869000D01*
G75*
G02*
X74266500Y-11818000I51000J0D01*
G01*
X75466500Y-11818000D01*
G75*
G02*
X75517500Y-11869000I0J-51000D01*
G01*
X75517500Y-12769000D01*
G75*
G02*
X75466500Y-12820000I-51000J0D01*
G01*
G37*
D13*
X202565000Y-4445000D03*
D14*
X200025000Y-9525000D03*
D13*
X196215000Y-6985000D03*
D15*
X194945000Y-9525000D03*
X205105000Y-9525000D03*
D13*
X169227500Y-23495000D03*
D14*
X166687500Y-28575000D03*
D13*
X162877500Y-26035000D03*
D15*
X161607500Y-28575000D03*
X171767500Y-28575000D03*
D13*
X150177500Y-23495000D03*
D14*
X147637500Y-28575000D03*
D13*
X143827500Y-26035000D03*
D15*
X142557500Y-28575000D03*
X152717500Y-28575000D03*
D13*
X93027500Y-23495000D03*
D14*
X90487500Y-28575000D03*
D13*
X86677500Y-26035000D03*
D15*
X85407500Y-28575000D03*
X95567500Y-28575000D03*
D13*
X54927500Y-23495000D03*
D14*
X52387500Y-28575000D03*
D13*
X48577500Y-26035000D03*
D15*
X47307500Y-28575000D03*
X57467500Y-28575000D03*
D13*
X35877500Y-23495000D03*
D14*
X33337500Y-28575000D03*
D13*
X29527500Y-26035000D03*
D15*
X28257500Y-28575000D03*
X38417500Y-28575000D03*
G36*
G01*
X99456800Y-66644600D02*
X98256800Y-66644600D01*
G75*
G02*
X98205800Y-66593600I0J51000D01*
G01*
X98205800Y-65693600D01*
G75*
G02*
X98256800Y-65642600I51000J0D01*
G01*
X99456800Y-65642600D01*
G75*
G02*
X99507800Y-65693600I0J-51000D01*
G01*
X99507800Y-66593600D01*
G75*
G02*
X99456800Y-66644600I-51000J0D01*
G01*
G37*
G36*
G01*
X99456800Y-69944600D02*
X98256800Y-69944600D01*
G75*
G02*
X98205800Y-69893600I0J51000D01*
G01*
X98205800Y-68993600D01*
G75*
G02*
X98256800Y-68942600I51000J0D01*
G01*
X99456800Y-68942600D01*
G75*
G02*
X99507800Y-68993600I0J-51000D01*
G01*
X99507800Y-69893600D01*
G75*
G02*
X99456800Y-69944600I-51000J0D01*
G01*
G37*
G36*
G01*
X207644150Y-17535700D02*
X206680650Y-17535700D01*
G75*
G02*
X206411400Y-17266450I0J269250D01*
G01*
X206411400Y-16727950D01*
G75*
G02*
X206680650Y-16458700I269250J0D01*
G01*
X207644150Y-16458700D01*
G75*
G02*
X207913400Y-16727950I0J-269250D01*
G01*
X207913400Y-17266450D01*
G75*
G02*
X207644150Y-17535700I-269250J0D01*
G01*
G37*
G36*
G01*
X207644150Y-19410700D02*
X206680650Y-19410700D01*
G75*
G02*
X206411400Y-19141450I0J269250D01*
G01*
X206411400Y-18602950D01*
G75*
G02*
X206680650Y-18333700I269250J0D01*
G01*
X207644150Y-18333700D01*
G75*
G02*
X207913400Y-18602950I0J-269250D01*
G01*
X207913400Y-19141450D01*
G75*
G02*
X207644150Y-19410700I-269250J0D01*
G01*
G37*
D13*
X183515000Y-4445000D03*
D14*
X180975000Y-9525000D03*
D13*
X177165000Y-6985000D03*
D15*
X175895000Y-9525000D03*
X186055000Y-9525000D03*
D13*
X145415000Y-4445000D03*
D14*
X142875000Y-9525000D03*
D13*
X139065000Y-6985000D03*
D15*
X137795000Y-9525000D03*
X147955000Y-9525000D03*
D13*
X126365000Y-4445000D03*
D14*
X123825000Y-9525000D03*
D13*
X120015000Y-6985000D03*
D15*
X118745000Y-9525000D03*
X128905000Y-9525000D03*
D13*
X107315000Y-4445000D03*
D14*
X104775000Y-9525000D03*
D13*
X100965000Y-6985000D03*
D15*
X99695000Y-9525000D03*
X109855000Y-9525000D03*
D13*
X69215000Y-4445000D03*
D14*
X66675000Y-9525000D03*
D13*
X62865000Y-6985000D03*
D15*
X61595000Y-9525000D03*
X71755000Y-9525000D03*
D13*
X50165000Y-4445000D03*
D14*
X47625000Y-9525000D03*
D13*
X43815000Y-6985000D03*
D15*
X42545000Y-9525000D03*
X52705000Y-9525000D03*
D13*
X12065000Y-4445000D03*
D14*
X9525000Y-9525000D03*
D13*
X5715000Y-6985000D03*
D15*
X4445000Y-9525000D03*
X14605000Y-9525000D03*
G36*
G01*
X185061001Y-15250000D02*
X183260999Y-15250000D01*
G75*
G02*
X183210000Y-15199001I0J50999D01*
G01*
X183210000Y-13998999D01*
G75*
G02*
X183260999Y-13948000I50999J0D01*
G01*
X185061001Y-13948000D01*
G75*
G02*
X185112000Y-13998999I0J-50999D01*
G01*
X185112000Y-15199001D01*
G75*
G02*
X185061001Y-15250000I-50999J0D01*
G01*
G37*
G36*
G01*
X185061001Y-20850000D02*
X183260999Y-20850000D01*
G75*
G02*
X183210000Y-20799001I0J50999D01*
G01*
X183210000Y-19598999D01*
G75*
G02*
X183260999Y-19548000I50999J0D01*
G01*
X185061001Y-19548000D01*
G75*
G02*
X185112000Y-19598999I0J-50999D01*
G01*
X185112000Y-20799001D01*
G75*
G02*
X185061001Y-20850000I-50999J0D01*
G01*
G37*
G36*
G01*
X188811000Y-19250000D02*
X187261000Y-19250000D01*
G75*
G02*
X187210000Y-19199000I0J51000D01*
G01*
X187210000Y-18599000D01*
G75*
G02*
X187261000Y-18548000I51000J0D01*
G01*
X188811000Y-18548000D01*
G75*
G02*
X188862000Y-18599000I0J-51000D01*
G01*
X188862000Y-19199000D01*
G75*
G02*
X188811000Y-19250000I-51000J0D01*
G01*
G37*
G36*
G01*
X188811000Y-18250000D02*
X187261000Y-18250000D01*
G75*
G02*
X187210000Y-18199000I0J51000D01*
G01*
X187210000Y-17599000D01*
G75*
G02*
X187261000Y-17548000I51000J0D01*
G01*
X188811000Y-17548000D01*
G75*
G02*
X188862000Y-17599000I0J-51000D01*
G01*
X188862000Y-18199000D01*
G75*
G02*
X188811000Y-18250000I-51000J0D01*
G01*
G37*
G36*
G01*
X188811000Y-16250000D02*
X187261000Y-16250000D01*
G75*
G02*
X187210000Y-16199000I0J51000D01*
G01*
X187210000Y-15599000D01*
G75*
G02*
X187261000Y-15548000I51000J0D01*
G01*
X188811000Y-15548000D01*
G75*
G02*
X188862000Y-15599000I0J-51000D01*
G01*
X188862000Y-16199000D01*
G75*
G02*
X188811000Y-16250000I-51000J0D01*
G01*
G37*
G36*
G01*
X188811000Y-17250000D02*
X187261000Y-17250000D01*
G75*
G02*
X187210000Y-17199000I0J51000D01*
G01*
X187210000Y-16599000D01*
G75*
G02*
X187261000Y-16548000I51000J0D01*
G01*
X188811000Y-16548000D01*
G75*
G02*
X188862000Y-16599000I0J-51000D01*
G01*
X188862000Y-17199000D01*
G75*
G02*
X188811000Y-17250000I-51000J0D01*
G01*
G37*
D13*
X228758750Y-4445000D03*
D14*
X226218750Y-9525000D03*
D13*
X222408750Y-6985000D03*
D15*
X221138750Y-9525000D03*
X231298750Y-9525000D03*
D13*
X207327500Y-23495000D03*
D14*
X204787500Y-28575000D03*
D13*
X200977500Y-26035000D03*
D15*
X199707500Y-28575000D03*
X209867500Y-28575000D03*
G36*
G01*
X201253900Y-20092250D02*
X201253900Y-21055750D01*
G75*
G02*
X200984650Y-21325000I-269250J0D01*
G01*
X200446150Y-21325000D01*
G75*
G02*
X200176900Y-21055750I0J269250D01*
G01*
X200176900Y-20092250D01*
G75*
G02*
X200446150Y-19823000I269250J0D01*
G01*
X200984650Y-19823000D01*
G75*
G02*
X201253900Y-20092250I0J-269250D01*
G01*
G37*
G36*
G01*
X203128900Y-20092250D02*
X203128900Y-21055750D01*
G75*
G02*
X202859650Y-21325000I-269250J0D01*
G01*
X202321150Y-21325000D01*
G75*
G02*
X202051900Y-21055750I0J269250D01*
G01*
X202051900Y-20092250D01*
G75*
G02*
X202321150Y-19823000I269250J0D01*
G01*
X202859650Y-19823000D01*
G75*
G02*
X203128900Y-20092250I0J-269250D01*
G01*
G37*
G36*
G01*
X214260000Y-15713001D02*
X214260000Y-14512999D01*
G75*
G02*
X214310999Y-14462000I50999J0D01*
G01*
X215711001Y-14462000D01*
G75*
G02*
X215762000Y-14512999I0J-50999D01*
G01*
X215762000Y-15713001D01*
G75*
G02*
X215711001Y-15764000I-50999J0D01*
G01*
X214310999Y-15764000D01*
G75*
G02*
X214260000Y-15713001I0J50999D01*
G01*
G37*
G36*
G01*
X216460000Y-15713001D02*
X216460000Y-14512999D01*
G75*
G02*
X216510999Y-14462000I50999J0D01*
G01*
X217911001Y-14462000D01*
G75*
G02*
X217962000Y-14512999I0J-50999D01*
G01*
X217962000Y-15713001D01*
G75*
G02*
X217911001Y-15764000I-50999J0D01*
G01*
X216510999Y-15764000D01*
G75*
G02*
X216460000Y-15713001I0J50999D01*
G01*
G37*
G36*
G01*
X216460000Y-14013001D02*
X216460000Y-12812999D01*
G75*
G02*
X216510999Y-12762000I50999J0D01*
G01*
X217911001Y-12762000D01*
G75*
G02*
X217962000Y-12812999I0J-50999D01*
G01*
X217962000Y-14013001D01*
G75*
G02*
X217911001Y-14064000I-50999J0D01*
G01*
X216510999Y-14064000D01*
G75*
G02*
X216460000Y-14013001I0J50999D01*
G01*
G37*
G36*
G01*
X214260000Y-14013001D02*
X214260000Y-12812999D01*
G75*
G02*
X214310999Y-12762000I50999J0D01*
G01*
X215711001Y-12762000D01*
G75*
G02*
X215762000Y-12812999I0J-50999D01*
G01*
X215762000Y-14013001D01*
G75*
G02*
X215711001Y-14064000I-50999J0D01*
G01*
X214310999Y-14064000D01*
G75*
G02*
X214260000Y-14013001I0J50999D01*
G01*
G37*
G36*
G01*
X166081000Y-47618000D02*
X164881000Y-47618000D01*
G75*
G02*
X164830000Y-47567000I0J51000D01*
G01*
X164830000Y-46667000D01*
G75*
G02*
X164881000Y-46616000I51000J0D01*
G01*
X166081000Y-46616000D01*
G75*
G02*
X166132000Y-46667000I0J-51000D01*
G01*
X166132000Y-47567000D01*
G75*
G02*
X166081000Y-47618000I-51000J0D01*
G01*
G37*
G36*
G01*
X166081000Y-50918000D02*
X164881000Y-50918000D01*
G75*
G02*
X164830000Y-50867000I0J51000D01*
G01*
X164830000Y-49967000D01*
G75*
G02*
X164881000Y-49916000I51000J0D01*
G01*
X166081000Y-49916000D01*
G75*
G02*
X166132000Y-49967000I0J-51000D01*
G01*
X166132000Y-50867000D01*
G75*
G02*
X166081000Y-50918000I-51000J0D01*
G01*
G37*
G36*
G01*
X225612250Y-47620000D02*
X224412250Y-47620000D01*
G75*
G02*
X224361250Y-47569000I0J51000D01*
G01*
X224361250Y-46669000D01*
G75*
G02*
X224412250Y-46618000I51000J0D01*
G01*
X225612250Y-46618000D01*
G75*
G02*
X225663250Y-46669000I0J-51000D01*
G01*
X225663250Y-47569000D01*
G75*
G02*
X225612250Y-47620000I-51000J0D01*
G01*
G37*
G36*
G01*
X225612250Y-50920000D02*
X224412250Y-50920000D01*
G75*
G02*
X224361250Y-50869000I0J51000D01*
G01*
X224361250Y-49969000D01*
G75*
G02*
X224412250Y-49918000I51000J0D01*
G01*
X225612250Y-49918000D01*
G75*
G02*
X225663250Y-49969000I0J-51000D01*
G01*
X225663250Y-50869000D01*
G75*
G02*
X225612250Y-50920000I-51000J0D01*
G01*
G37*
G36*
G01*
X223231000Y-47618000D02*
X222031000Y-47618000D01*
G75*
G02*
X221980000Y-47567000I0J51000D01*
G01*
X221980000Y-46667000D01*
G75*
G02*
X222031000Y-46616000I51000J0D01*
G01*
X223231000Y-46616000D01*
G75*
G02*
X223282000Y-46667000I0J-51000D01*
G01*
X223282000Y-47567000D01*
G75*
G02*
X223231000Y-47618000I-51000J0D01*
G01*
G37*
G36*
G01*
X223231000Y-50918000D02*
X222031000Y-50918000D01*
G75*
G02*
X221980000Y-50867000I0J51000D01*
G01*
X221980000Y-49967000D01*
G75*
G02*
X222031000Y-49916000I51000J0D01*
G01*
X223231000Y-49916000D01*
G75*
G02*
X223282000Y-49967000I0J-51000D01*
G01*
X223282000Y-50867000D01*
G75*
G02*
X223231000Y-50918000I-51000J0D01*
G01*
G37*
G36*
G01*
X204181000Y-47620000D02*
X202981000Y-47620000D01*
G75*
G02*
X202930000Y-47569000I0J51000D01*
G01*
X202930000Y-46669000D01*
G75*
G02*
X202981000Y-46618000I51000J0D01*
G01*
X204181000Y-46618000D01*
G75*
G02*
X204232000Y-46669000I0J-51000D01*
G01*
X204232000Y-47569000D01*
G75*
G02*
X204181000Y-47620000I-51000J0D01*
G01*
G37*
G36*
G01*
X204181000Y-50920000D02*
X202981000Y-50920000D01*
G75*
G02*
X202930000Y-50869000I0J51000D01*
G01*
X202930000Y-49969000D01*
G75*
G02*
X202981000Y-49918000I51000J0D01*
G01*
X204181000Y-49918000D01*
G75*
G02*
X204232000Y-49969000I0J-51000D01*
G01*
X204232000Y-50869000D01*
G75*
G02*
X204181000Y-50920000I-51000J0D01*
G01*
G37*
G36*
G01*
X185131000Y-47618000D02*
X183931000Y-47618000D01*
G75*
G02*
X183880000Y-47567000I0J51000D01*
G01*
X183880000Y-46667000D01*
G75*
G02*
X183931000Y-46616000I51000J0D01*
G01*
X185131000Y-46616000D01*
G75*
G02*
X185182000Y-46667000I0J-51000D01*
G01*
X185182000Y-47567000D01*
G75*
G02*
X185131000Y-47618000I-51000J0D01*
G01*
G37*
G36*
G01*
X185131000Y-50918000D02*
X183931000Y-50918000D01*
G75*
G02*
X183880000Y-50867000I0J51000D01*
G01*
X183880000Y-49967000D01*
G75*
G02*
X183931000Y-49916000I51000J0D01*
G01*
X185131000Y-49916000D01*
G75*
G02*
X185182000Y-49967000I0J-51000D01*
G01*
X185182000Y-50867000D01*
G75*
G02*
X185131000Y-50918000I-51000J0D01*
G01*
G37*
G36*
G01*
X146999250Y-47619000D02*
X145799250Y-47619000D01*
G75*
G02*
X145748250Y-47568000I0J51000D01*
G01*
X145748250Y-46668000D01*
G75*
G02*
X145799250Y-46617000I51000J0D01*
G01*
X146999250Y-46617000D01*
G75*
G02*
X147050250Y-46668000I0J-51000D01*
G01*
X147050250Y-47568000D01*
G75*
G02*
X146999250Y-47619000I-51000J0D01*
G01*
G37*
G36*
G01*
X146999250Y-50919000D02*
X145799250Y-50919000D01*
G75*
G02*
X145748250Y-50868000I0J51000D01*
G01*
X145748250Y-49968000D01*
G75*
G02*
X145799250Y-49917000I51000J0D01*
G01*
X146999250Y-49917000D01*
G75*
G02*
X147050250Y-49968000I0J-51000D01*
G01*
X147050250Y-50868000D01*
G75*
G02*
X146999250Y-50919000I-51000J0D01*
G01*
G37*
G36*
G01*
X127981000Y-47618000D02*
X126781000Y-47618000D01*
G75*
G02*
X126730000Y-47567000I0J51000D01*
G01*
X126730000Y-46667000D01*
G75*
G02*
X126781000Y-46616000I51000J0D01*
G01*
X127981000Y-46616000D01*
G75*
G02*
X128032000Y-46667000I0J-51000D01*
G01*
X128032000Y-47567000D01*
G75*
G02*
X127981000Y-47618000I-51000J0D01*
G01*
G37*
G36*
G01*
X127981000Y-50918000D02*
X126781000Y-50918000D01*
G75*
G02*
X126730000Y-50867000I0J51000D01*
G01*
X126730000Y-49967000D01*
G75*
G02*
X126781000Y-49916000I51000J0D01*
G01*
X127981000Y-49916000D01*
G75*
G02*
X128032000Y-49967000I0J-51000D01*
G01*
X128032000Y-50867000D01*
G75*
G02*
X127981000Y-50918000I-51000J0D01*
G01*
G37*
G36*
G01*
X108772250Y-47619000D02*
X107572250Y-47619000D01*
G75*
G02*
X107521250Y-47568000I0J51000D01*
G01*
X107521250Y-46668000D01*
G75*
G02*
X107572250Y-46617000I51000J0D01*
G01*
X108772250Y-46617000D01*
G75*
G02*
X108823250Y-46668000I0J-51000D01*
G01*
X108823250Y-47568000D01*
G75*
G02*
X108772250Y-47619000I-51000J0D01*
G01*
G37*
G36*
G01*
X108772250Y-50919000D02*
X107572250Y-50919000D01*
G75*
G02*
X107521250Y-50868000I0J51000D01*
G01*
X107521250Y-49968000D01*
G75*
G02*
X107572250Y-49917000I51000J0D01*
G01*
X108772250Y-49917000D01*
G75*
G02*
X108823250Y-49968000I0J-51000D01*
G01*
X108823250Y-50868000D01*
G75*
G02*
X108772250Y-50919000I-51000J0D01*
G01*
G37*
G36*
G01*
X89881000Y-47620000D02*
X88681000Y-47620000D01*
G75*
G02*
X88630000Y-47569000I0J51000D01*
G01*
X88630000Y-46669000D01*
G75*
G02*
X88681000Y-46618000I51000J0D01*
G01*
X89881000Y-46618000D01*
G75*
G02*
X89932000Y-46669000I0J-51000D01*
G01*
X89932000Y-47569000D01*
G75*
G02*
X89881000Y-47620000I-51000J0D01*
G01*
G37*
G36*
G01*
X89881000Y-50920000D02*
X88681000Y-50920000D01*
G75*
G02*
X88630000Y-50869000I0J51000D01*
G01*
X88630000Y-49969000D01*
G75*
G02*
X88681000Y-49918000I51000J0D01*
G01*
X89881000Y-49918000D01*
G75*
G02*
X89932000Y-49969000I0J-51000D01*
G01*
X89932000Y-50869000D01*
G75*
G02*
X89881000Y-50920000I-51000J0D01*
G01*
G37*
G36*
G01*
X70672250Y-47619000D02*
X69472250Y-47619000D01*
G75*
G02*
X69421250Y-47568000I0J51000D01*
G01*
X69421250Y-46668000D01*
G75*
G02*
X69472250Y-46617000I51000J0D01*
G01*
X70672250Y-46617000D01*
G75*
G02*
X70723250Y-46668000I0J-51000D01*
G01*
X70723250Y-47568000D01*
G75*
G02*
X70672250Y-47619000I-51000J0D01*
G01*
G37*
G36*
G01*
X70672250Y-50919000D02*
X69472250Y-50919000D01*
G75*
G02*
X69421250Y-50868000I0J51000D01*
G01*
X69421250Y-49968000D01*
G75*
G02*
X69472250Y-49917000I51000J0D01*
G01*
X70672250Y-49917000D01*
G75*
G02*
X70723250Y-49968000I0J-51000D01*
G01*
X70723250Y-50868000D01*
G75*
G02*
X70672250Y-50919000I-51000J0D01*
G01*
G37*
G36*
G01*
X51749250Y-47618000D02*
X50549250Y-47618000D01*
G75*
G02*
X50498250Y-47567000I0J51000D01*
G01*
X50498250Y-46667000D01*
G75*
G02*
X50549250Y-46616000I51000J0D01*
G01*
X51749250Y-46616000D01*
G75*
G02*
X51800250Y-46667000I0J-51000D01*
G01*
X51800250Y-47567000D01*
G75*
G02*
X51749250Y-47618000I-51000J0D01*
G01*
G37*
G36*
G01*
X51749250Y-50918000D02*
X50549250Y-50918000D01*
G75*
G02*
X50498250Y-50867000I0J51000D01*
G01*
X50498250Y-49967000D01*
G75*
G02*
X50549250Y-49916000I51000J0D01*
G01*
X51749250Y-49916000D01*
G75*
G02*
X51800250Y-49967000I0J-51000D01*
G01*
X51800250Y-50867000D01*
G75*
G02*
X51749250Y-50918000I-51000J0D01*
G01*
G37*
G36*
G01*
X25384050Y-47620000D02*
X24184050Y-47620000D01*
G75*
G02*
X24133050Y-47569000I0J51000D01*
G01*
X24133050Y-46669000D01*
G75*
G02*
X24184050Y-46618000I51000J0D01*
G01*
X25384050Y-46618000D01*
G75*
G02*
X25435050Y-46669000I0J-51000D01*
G01*
X25435050Y-47569000D01*
G75*
G02*
X25384050Y-47620000I-51000J0D01*
G01*
G37*
G36*
G01*
X25384050Y-50920000D02*
X24184050Y-50920000D01*
G75*
G02*
X24133050Y-50869000I0J51000D01*
G01*
X24133050Y-49969000D01*
G75*
G02*
X24184050Y-49918000I51000J0D01*
G01*
X25384050Y-49918000D01*
G75*
G02*
X25435050Y-49969000I0J-51000D01*
G01*
X25435050Y-50869000D01*
G75*
G02*
X25384050Y-50920000I-51000J0D01*
G01*
G37*
G36*
G01*
X137455200Y-28531900D02*
X136255200Y-28531900D01*
G75*
G02*
X136204200Y-28480900I0J51000D01*
G01*
X136204200Y-27580900D01*
G75*
G02*
X136255200Y-27529900I51000J0D01*
G01*
X137455200Y-27529900D01*
G75*
G02*
X137506200Y-27580900I0J-51000D01*
G01*
X137506200Y-28480900D01*
G75*
G02*
X137455200Y-28531900I-51000J0D01*
G01*
G37*
G36*
G01*
X137455200Y-31831900D02*
X136255200Y-31831900D01*
G75*
G02*
X136204200Y-31780900I0J51000D01*
G01*
X136204200Y-30880900D01*
G75*
G02*
X136255200Y-30829900I51000J0D01*
G01*
X137455200Y-30829900D01*
G75*
G02*
X137506200Y-30880900I0J-51000D01*
G01*
X137506200Y-31780900D01*
G75*
G02*
X137455200Y-31831900I-51000J0D01*
G01*
G37*
D13*
X102552500Y-42545000D03*
D14*
X100012500Y-47625000D03*
D13*
X96202500Y-45085000D03*
D15*
X94932500Y-47625000D03*
X105092500Y-47625000D03*
G36*
G01*
X237429600Y-28519200D02*
X236229600Y-28519200D01*
G75*
G02*
X236178600Y-28468200I0J51000D01*
G01*
X236178600Y-27568200D01*
G75*
G02*
X236229600Y-27517200I51000J0D01*
G01*
X237429600Y-27517200D01*
G75*
G02*
X237480600Y-27568200I0J-51000D01*
G01*
X237480600Y-28468200D01*
G75*
G02*
X237429600Y-28519200I-51000J0D01*
G01*
G37*
G36*
G01*
X237429600Y-31819200D02*
X236229600Y-31819200D01*
G75*
G02*
X236178600Y-31768200I0J51000D01*
G01*
X236178600Y-30868200D01*
G75*
G02*
X236229600Y-30817200I51000J0D01*
G01*
X237429600Y-30817200D01*
G75*
G02*
X237480600Y-30868200I0J-51000D01*
G01*
X237480600Y-31768200D01*
G75*
G02*
X237429600Y-31819200I-51000J0D01*
G01*
G37*
G36*
G01*
X197196000Y-28519200D02*
X195996000Y-28519200D01*
G75*
G02*
X195945000Y-28468200I0J51000D01*
G01*
X195945000Y-27568200D01*
G75*
G02*
X195996000Y-27517200I51000J0D01*
G01*
X197196000Y-27517200D01*
G75*
G02*
X197247000Y-27568200I0J-51000D01*
G01*
X197247000Y-28468200D01*
G75*
G02*
X197196000Y-28519200I-51000J0D01*
G01*
G37*
G36*
G01*
X197196000Y-31819200D02*
X195996000Y-31819200D01*
G75*
G02*
X195945000Y-31768200I0J51000D01*
G01*
X195945000Y-30868200D01*
G75*
G02*
X195996000Y-30817200I51000J0D01*
G01*
X197196000Y-30817200D01*
G75*
G02*
X197247000Y-30868200I0J-51000D01*
G01*
X197247000Y-31768200D01*
G75*
G02*
X197196000Y-31819200I-51000J0D01*
G01*
G37*
G36*
G01*
X194592500Y-28493800D02*
X193392500Y-28493800D01*
G75*
G02*
X193341500Y-28442800I0J51000D01*
G01*
X193341500Y-27542800D01*
G75*
G02*
X193392500Y-27491800I51000J0D01*
G01*
X194592500Y-27491800D01*
G75*
G02*
X194643500Y-27542800I0J-51000D01*
G01*
X194643500Y-28442800D01*
G75*
G02*
X194592500Y-28493800I-51000J0D01*
G01*
G37*
G36*
G01*
X194592500Y-31793800D02*
X193392500Y-31793800D01*
G75*
G02*
X193341500Y-31742800I0J51000D01*
G01*
X193341500Y-30842800D01*
G75*
G02*
X193392500Y-30791800I51000J0D01*
G01*
X194592500Y-30791800D01*
G75*
G02*
X194643500Y-30842800I0J-51000D01*
G01*
X194643500Y-31742800D01*
G75*
G02*
X194592500Y-31793800I-51000J0D01*
G01*
G37*
G36*
G01*
X175555200Y-28506500D02*
X174355200Y-28506500D01*
G75*
G02*
X174304200Y-28455500I0J51000D01*
G01*
X174304200Y-27555500D01*
G75*
G02*
X174355200Y-27504500I51000J0D01*
G01*
X175555200Y-27504500D01*
G75*
G02*
X175606200Y-27555500I0J-51000D01*
G01*
X175606200Y-28455500D01*
G75*
G02*
X175555200Y-28506500I-51000J0D01*
G01*
G37*
G36*
G01*
X175555200Y-31806500D02*
X174355200Y-31806500D01*
G75*
G02*
X174304200Y-31755500I0J51000D01*
G01*
X174304200Y-30855500D01*
G75*
G02*
X174355200Y-30804500I51000J0D01*
G01*
X175555200Y-30804500D01*
G75*
G02*
X175606200Y-30855500I0J-51000D01*
G01*
X175606200Y-31755500D01*
G75*
G02*
X175555200Y-31806500I-51000J0D01*
G01*
G37*
G36*
G01*
X156492500Y-28493800D02*
X155292500Y-28493800D01*
G75*
G02*
X155241500Y-28442800I0J51000D01*
G01*
X155241500Y-27542800D01*
G75*
G02*
X155292500Y-27491800I51000J0D01*
G01*
X156492500Y-27491800D01*
G75*
G02*
X156543500Y-27542800I0J-51000D01*
G01*
X156543500Y-28442800D01*
G75*
G02*
X156492500Y-28493800I-51000J0D01*
G01*
G37*
G36*
G01*
X156492500Y-31793800D02*
X155292500Y-31793800D01*
G75*
G02*
X155241500Y-31742800I0J51000D01*
G01*
X155241500Y-30842800D01*
G75*
G02*
X155292500Y-30791800I51000J0D01*
G01*
X156492500Y-30791800D01*
G75*
G02*
X156543500Y-30842800I0J-51000D01*
G01*
X156543500Y-31742800D01*
G75*
G02*
X156492500Y-31793800I-51000J0D01*
G01*
G37*
G36*
G01*
X118379800Y-28519200D02*
X117179800Y-28519200D01*
G75*
G02*
X117128800Y-28468200I0J51000D01*
G01*
X117128800Y-27568200D01*
G75*
G02*
X117179800Y-27517200I51000J0D01*
G01*
X118379800Y-27517200D01*
G75*
G02*
X118430800Y-27568200I0J-51000D01*
G01*
X118430800Y-28468200D01*
G75*
G02*
X118379800Y-28519200I-51000J0D01*
G01*
G37*
G36*
G01*
X118379800Y-31819200D02*
X117179800Y-31819200D01*
G75*
G02*
X117128800Y-31768200I0J51000D01*
G01*
X117128800Y-30868200D01*
G75*
G02*
X117179800Y-30817200I51000J0D01*
G01*
X118379800Y-30817200D01*
G75*
G02*
X118430800Y-30868200I0J-51000D01*
G01*
X118430800Y-31768200D01*
G75*
G02*
X118379800Y-31819200I-51000J0D01*
G01*
G37*
G36*
G01*
X99329800Y-28519200D02*
X98129800Y-28519200D01*
G75*
G02*
X98078800Y-28468200I0J51000D01*
G01*
X98078800Y-27568200D01*
G75*
G02*
X98129800Y-27517200I51000J0D01*
G01*
X99329800Y-27517200D01*
G75*
G02*
X99380800Y-27568200I0J-51000D01*
G01*
X99380800Y-28468200D01*
G75*
G02*
X99329800Y-28519200I-51000J0D01*
G01*
G37*
G36*
G01*
X99329800Y-31819200D02*
X98129800Y-31819200D01*
G75*
G02*
X98078800Y-31768200I0J51000D01*
G01*
X98078800Y-30868200D01*
G75*
G02*
X98129800Y-30817200I51000J0D01*
G01*
X99329800Y-30817200D01*
G75*
G02*
X99380800Y-30868200I0J-51000D01*
G01*
X99380800Y-31768200D01*
G75*
G02*
X99329800Y-31819200I-51000J0D01*
G01*
G37*
G36*
G01*
X80279800Y-28519200D02*
X79079800Y-28519200D01*
G75*
G02*
X79028800Y-28468200I0J51000D01*
G01*
X79028800Y-27568200D01*
G75*
G02*
X79079800Y-27517200I51000J0D01*
G01*
X80279800Y-27517200D01*
G75*
G02*
X80330800Y-27568200I0J-51000D01*
G01*
X80330800Y-28468200D01*
G75*
G02*
X80279800Y-28519200I-51000J0D01*
G01*
G37*
G36*
G01*
X80279800Y-31819200D02*
X79079800Y-31819200D01*
G75*
G02*
X79028800Y-31768200I0J51000D01*
G01*
X79028800Y-30868200D01*
G75*
G02*
X79079800Y-30817200I51000J0D01*
G01*
X80279800Y-30817200D01*
G75*
G02*
X80330800Y-30868200I0J-51000D01*
G01*
X80330800Y-31768200D01*
G75*
G02*
X80279800Y-31819200I-51000J0D01*
G01*
G37*
G36*
G01*
X61229800Y-28519200D02*
X60029800Y-28519200D01*
G75*
G02*
X59978800Y-28468200I0J51000D01*
G01*
X59978800Y-27568200D01*
G75*
G02*
X60029800Y-27517200I51000J0D01*
G01*
X61229800Y-27517200D01*
G75*
G02*
X61280800Y-27568200I0J-51000D01*
G01*
X61280800Y-28468200D01*
G75*
G02*
X61229800Y-28519200I-51000J0D01*
G01*
G37*
G36*
G01*
X61229800Y-31819200D02*
X60029800Y-31819200D01*
G75*
G02*
X59978800Y-31768200I0J51000D01*
G01*
X59978800Y-30868200D01*
G75*
G02*
X60029800Y-30817200I51000J0D01*
G01*
X61229800Y-30817200D01*
G75*
G02*
X61280800Y-30868200I0J-51000D01*
G01*
X61280800Y-31768200D01*
G75*
G02*
X61229800Y-31819200I-51000J0D01*
G01*
G37*
G36*
G01*
X42129000Y-28519200D02*
X40929000Y-28519200D01*
G75*
G02*
X40878000Y-28468200I0J51000D01*
G01*
X40878000Y-27568200D01*
G75*
G02*
X40929000Y-27517200I51000J0D01*
G01*
X42129000Y-27517200D01*
G75*
G02*
X42180000Y-27568200I0J-51000D01*
G01*
X42180000Y-28468200D01*
G75*
G02*
X42129000Y-28519200I-51000J0D01*
G01*
G37*
G36*
G01*
X42129000Y-31819200D02*
X40929000Y-31819200D01*
G75*
G02*
X40878000Y-31768200I0J51000D01*
G01*
X40878000Y-30868200D01*
G75*
G02*
X40929000Y-30817200I51000J0D01*
G01*
X42129000Y-30817200D01*
G75*
G02*
X42180000Y-30868200I0J-51000D01*
G01*
X42180000Y-31768200D01*
G75*
G02*
X42129000Y-31819200I-51000J0D01*
G01*
G37*
G36*
G01*
X21199400Y-28517200D02*
X19999400Y-28517200D01*
G75*
G02*
X19948400Y-28466200I0J51000D01*
G01*
X19948400Y-27566200D01*
G75*
G02*
X19999400Y-27515200I51000J0D01*
G01*
X21199400Y-27515200D01*
G75*
G02*
X21250400Y-27566200I0J-51000D01*
G01*
X21250400Y-28466200D01*
G75*
G02*
X21199400Y-28517200I-51000J0D01*
G01*
G37*
G36*
G01*
X21199400Y-31817200D02*
X19999400Y-31817200D01*
G75*
G02*
X19948400Y-31766200I0J51000D01*
G01*
X19948400Y-30866200D01*
G75*
G02*
X19999400Y-30815200I51000J0D01*
G01*
X21199400Y-30815200D01*
G75*
G02*
X21250400Y-30866200I0J-51000D01*
G01*
X21250400Y-31766200D01*
G75*
G02*
X21199400Y-31817200I-51000J0D01*
G01*
G37*
G36*
G01*
X220013950Y-13827300D02*
X219050450Y-13827300D01*
G75*
G02*
X218781200Y-13558050I0J269250D01*
G01*
X218781200Y-13019550D01*
G75*
G02*
X219050450Y-12750300I269250J0D01*
G01*
X220013950Y-12750300D01*
G75*
G02*
X220283200Y-13019550I0J-269250D01*
G01*
X220283200Y-13558050D01*
G75*
G02*
X220013950Y-13827300I-269250J0D01*
G01*
G37*
G36*
G01*
X220013950Y-15702300D02*
X219050450Y-15702300D01*
G75*
G02*
X218781200Y-15433050I0J269250D01*
G01*
X218781200Y-14894550D01*
G75*
G02*
X219050450Y-14625300I269250J0D01*
G01*
X220013950Y-14625300D01*
G75*
G02*
X220283200Y-14894550I0J-269250D01*
G01*
X220283200Y-15433050D01*
G75*
G02*
X220013950Y-15702300I-269250J0D01*
G01*
G37*
G36*
G01*
X211862250Y-14747700D02*
X212825750Y-14747700D01*
G75*
G02*
X213095000Y-15016950I0J-269250D01*
G01*
X213095000Y-15555450D01*
G75*
G02*
X212825750Y-15824700I-269250J0D01*
G01*
X211862250Y-15824700D01*
G75*
G02*
X211593000Y-15555450I0J269250D01*
G01*
X211593000Y-15016950D01*
G75*
G02*
X211862250Y-14747700I269250J0D01*
G01*
G37*
G36*
G01*
X211862250Y-12872700D02*
X212825750Y-12872700D01*
G75*
G02*
X213095000Y-13141950I0J-269250D01*
G01*
X213095000Y-13680450D01*
G75*
G02*
X212825750Y-13949700I-269250J0D01*
G01*
X211862250Y-13949700D01*
G75*
G02*
X211593000Y-13680450I0J269250D01*
G01*
X211593000Y-13141950D01*
G75*
G02*
X211862250Y-12872700I269250J0D01*
G01*
G37*
G36*
G01*
X37430000Y-9520000D02*
X36230000Y-9520000D01*
G75*
G02*
X36179000Y-9469000I0J51000D01*
G01*
X36179000Y-8569000D01*
G75*
G02*
X36230000Y-8518000I51000J0D01*
G01*
X37430000Y-8518000D01*
G75*
G02*
X37481000Y-8569000I0J-51000D01*
G01*
X37481000Y-9469000D01*
G75*
G02*
X37430000Y-9520000I-51000J0D01*
G01*
G37*
G36*
G01*
X37430000Y-12820000D02*
X36230000Y-12820000D01*
G75*
G02*
X36179000Y-12769000I0J51000D01*
G01*
X36179000Y-11869000D01*
G75*
G02*
X36230000Y-11818000I51000J0D01*
G01*
X37430000Y-11818000D01*
G75*
G02*
X37481000Y-11869000I0J-51000D01*
G01*
X37481000Y-12769000D01*
G75*
G02*
X37430000Y-12820000I-51000J0D01*
G01*
G37*
D13*
X88265000Y-4445000D03*
D14*
X85725000Y-9525000D03*
D13*
X81915000Y-6985000D03*
D15*
X80645000Y-9525000D03*
X90805000Y-9525000D03*
G36*
G01*
X151730000Y-9518000D02*
X150530000Y-9518000D01*
G75*
G02*
X150479000Y-9467000I0J51000D01*
G01*
X150479000Y-8567000D01*
G75*
G02*
X150530000Y-8516000I51000J0D01*
G01*
X151730000Y-8516000D01*
G75*
G02*
X151781000Y-8567000I0J-51000D01*
G01*
X151781000Y-9467000D01*
G75*
G02*
X151730000Y-9518000I-51000J0D01*
G01*
G37*
G36*
G01*
X151730000Y-12818000D02*
X150530000Y-12818000D01*
G75*
G02*
X150479000Y-12767000I0J51000D01*
G01*
X150479000Y-11867000D01*
G75*
G02*
X150530000Y-11816000I51000J0D01*
G01*
X151730000Y-11816000D01*
G75*
G02*
X151781000Y-11867000I0J-51000D01*
G01*
X151781000Y-12767000D01*
G75*
G02*
X151730000Y-12818000I-51000J0D01*
G01*
G37*
G36*
G01*
X189804600Y-9518000D02*
X188604600Y-9518000D01*
G75*
G02*
X188553600Y-9467000I0J51000D01*
G01*
X188553600Y-8567000D01*
G75*
G02*
X188604600Y-8516000I51000J0D01*
G01*
X189804600Y-8516000D01*
G75*
G02*
X189855600Y-8567000I0J-51000D01*
G01*
X189855600Y-9467000D01*
G75*
G02*
X189804600Y-9518000I-51000J0D01*
G01*
G37*
G36*
G01*
X189804600Y-12818000D02*
X188604600Y-12818000D01*
G75*
G02*
X188553600Y-12767000I0J51000D01*
G01*
X188553600Y-11867000D01*
G75*
G02*
X188604600Y-11816000I51000J0D01*
G01*
X189804600Y-11816000D01*
G75*
G02*
X189855600Y-11867000I0J-51000D01*
G01*
X189855600Y-12767000D01*
G75*
G02*
X189804600Y-12818000I-51000J0D01*
G01*
G37*
D13*
X64452500Y-42545000D03*
D14*
X61912500Y-47625000D03*
D13*
X58102500Y-45085000D03*
D15*
X56832500Y-47625000D03*
X66992500Y-47625000D03*
D13*
X45402500Y-42545000D03*
D14*
X42862500Y-47625000D03*
D13*
X39052500Y-45085000D03*
D15*
X37782500Y-47625000D03*
X47942500Y-47625000D03*
D13*
X14446250Y-23495000D03*
D14*
X11906250Y-28575000D03*
D13*
X8096250Y-26035000D03*
D15*
X6826250Y-28575000D03*
X16986250Y-28575000D03*
G36*
G01*
X224013800Y-37770200D02*
X224013800Y-38870200D01*
G75*
G02*
X223962800Y-38921200I-51000J0D01*
G01*
X222162800Y-38921200D01*
G75*
G02*
X222111800Y-38870200I0J51000D01*
G01*
X222111800Y-37770200D01*
G75*
G02*
X222162800Y-37719200I51000J0D01*
G01*
X223962800Y-37719200D01*
G75*
G02*
X224013800Y-37770200I0J-51000D01*
G01*
G37*
G36*
G01*
X217813800Y-34070200D02*
X217813800Y-35170200D01*
G75*
G02*
X217762800Y-35221200I-51000J0D01*
G01*
X215962800Y-35221200D01*
G75*
G02*
X215911800Y-35170200I0J51000D01*
G01*
X215911800Y-34070200D01*
G75*
G02*
X215962800Y-34019200I51000J0D01*
G01*
X217762800Y-34019200D01*
G75*
G02*
X217813800Y-34070200I0J-51000D01*
G01*
G37*
G36*
G01*
X224013800Y-34070200D02*
X224013800Y-35170200D01*
G75*
G02*
X223962800Y-35221200I-51000J0D01*
G01*
X222162800Y-35221200D01*
G75*
G02*
X222111800Y-35170200I0J51000D01*
G01*
X222111800Y-34070200D01*
G75*
G02*
X222162800Y-34019200I51000J0D01*
G01*
X223962800Y-34019200D01*
G75*
G02*
X224013800Y-34070200I0J-51000D01*
G01*
G37*
G36*
G01*
X217813800Y-37770200D02*
X217813800Y-38870200D01*
G75*
G02*
X217762800Y-38921200I-51000J0D01*
G01*
X215962800Y-38921200D01*
G75*
G02*
X215911800Y-38870200I0J51000D01*
G01*
X215911800Y-37770200D01*
G75*
G02*
X215962800Y-37719200I51000J0D01*
G01*
X217762800Y-37719200D01*
G75*
G02*
X217813800Y-37770200I0J-51000D01*
G01*
G37*
G36*
G01*
X224820500Y-21235250D02*
X224820500Y-22198750D01*
G75*
G02*
X224551250Y-22468000I-269250J0D01*
G01*
X224012750Y-22468000D01*
G75*
G02*
X223743500Y-22198750I0J269250D01*
G01*
X223743500Y-21235250D01*
G75*
G02*
X224012750Y-20966000I269250J0D01*
G01*
X224551250Y-20966000D01*
G75*
G02*
X224820500Y-21235250I0J-269250D01*
G01*
G37*
G36*
G01*
X226695500Y-21235250D02*
X226695500Y-22198750D01*
G75*
G02*
X226426250Y-22468000I-269250J0D01*
G01*
X225887750Y-22468000D01*
G75*
G02*
X225618500Y-22198750I0J269250D01*
G01*
X225618500Y-21235250D01*
G75*
G02*
X225887750Y-20966000I269250J0D01*
G01*
X226426250Y-20966000D01*
G75*
G02*
X226695500Y-21235250I0J-269250D01*
G01*
G37*
G36*
G01*
X222519700Y-33120750D02*
X222519700Y-32157250D01*
G75*
G02*
X222788950Y-31888000I269250J0D01*
G01*
X223327450Y-31888000D01*
G75*
G02*
X223596700Y-32157250I0J-269250D01*
G01*
X223596700Y-33120750D01*
G75*
G02*
X223327450Y-33390000I-269250J0D01*
G01*
X222788950Y-33390000D01*
G75*
G02*
X222519700Y-33120750I0J269250D01*
G01*
G37*
G36*
G01*
X220644700Y-33120750D02*
X220644700Y-32157250D01*
G75*
G02*
X220913950Y-31888000I269250J0D01*
G01*
X221452450Y-31888000D01*
G75*
G02*
X221721700Y-32157250I0J-269250D01*
G01*
X221721700Y-33120750D01*
G75*
G02*
X221452450Y-33390000I-269250J0D01*
G01*
X220913950Y-33390000D01*
G75*
G02*
X220644700Y-33120750I0J269250D01*
G01*
G37*
D13*
X216852500Y-42545000D03*
D14*
X214312500Y-47625000D03*
D13*
X210502500Y-45085000D03*
D15*
X209232500Y-47625000D03*
X219392500Y-47625000D03*
D13*
X197802500Y-42545000D03*
D14*
X195262500Y-47625000D03*
D13*
X191452500Y-45085000D03*
D15*
X190182500Y-47625000D03*
X200342500Y-47625000D03*
D13*
X178752500Y-42545000D03*
D14*
X176212500Y-47625000D03*
D13*
X172402500Y-45085000D03*
D15*
X171132500Y-47625000D03*
X181292500Y-47625000D03*
D13*
X159702500Y-42545000D03*
D14*
X157162500Y-47625000D03*
D13*
X153352500Y-45085000D03*
D15*
X152082500Y-47625000D03*
X162242500Y-47625000D03*
D13*
X140652500Y-42545000D03*
D14*
X138112500Y-47625000D03*
D13*
X134302500Y-45085000D03*
D15*
X133032500Y-47625000D03*
X143192500Y-47625000D03*
D13*
X121602500Y-42545000D03*
D14*
X119062500Y-47625000D03*
D13*
X115252500Y-45085000D03*
D15*
X113982500Y-47625000D03*
X124142500Y-47625000D03*
D13*
X83502500Y-42545000D03*
D14*
X80962500Y-47625000D03*
D13*
X77152500Y-45085000D03*
D15*
X75882500Y-47625000D03*
X86042500Y-47625000D03*
D13*
X19208750Y-42545000D03*
D14*
X16668750Y-47625000D03*
D13*
X12858750Y-45085000D03*
D15*
X11588750Y-47625000D03*
X21748750Y-47625000D03*
D13*
X188277500Y-23495000D03*
D14*
X185737500Y-28575000D03*
D13*
X181927500Y-26035000D03*
D15*
X180657500Y-28575000D03*
X190817500Y-28575000D03*
D13*
X131127500Y-23495000D03*
D14*
X128587500Y-28575000D03*
D13*
X124777500Y-26035000D03*
D15*
X123507500Y-28575000D03*
X133667500Y-28575000D03*
D13*
X112077500Y-23495000D03*
D14*
X109537500Y-28575000D03*
D13*
X105727500Y-26035000D03*
D15*
X104457500Y-28575000D03*
X114617500Y-28575000D03*
D13*
X73977500Y-23495000D03*
D14*
X71437500Y-28575000D03*
D13*
X67627500Y-26035000D03*
D15*
X66357500Y-28575000D03*
X76517500Y-28575000D03*
D13*
X164465000Y-4445000D03*
D14*
X161925000Y-9525000D03*
D13*
X158115000Y-6985000D03*
D15*
X156845000Y-9525000D03*
X167005000Y-9525000D03*
G36*
G01*
X192697000Y-18267400D02*
X192697000Y-19578600D01*
G75*
G02*
X192426600Y-19849000I-270400J0D01*
G01*
X191615400Y-19849000D01*
G75*
G02*
X191345000Y-19578600I0J270400D01*
G01*
X191345000Y-18267400D01*
G75*
G02*
X191615400Y-17997000I270400J0D01*
G01*
X192426600Y-17997000D01*
G75*
G02*
X192697000Y-18267400I0J-270400D01*
G01*
G37*
G36*
G01*
X195497000Y-18267400D02*
X195497000Y-19578600D01*
G75*
G02*
X195226600Y-19849000I-270400J0D01*
G01*
X194415400Y-19849000D01*
G75*
G02*
X194145000Y-19578600I0J270400D01*
G01*
X194145000Y-18267400D01*
G75*
G02*
X194415400Y-17997000I270400J0D01*
G01*
X195226600Y-17997000D01*
G75*
G02*
X195497000Y-18267400I0J-270400D01*
G01*
G37*
G36*
G01*
X225720200Y-66642600D02*
X224520200Y-66642600D01*
G75*
G02*
X224469200Y-66591600I0J51000D01*
G01*
X224469200Y-65691600D01*
G75*
G02*
X224520200Y-65640600I51000J0D01*
G01*
X225720200Y-65640600D01*
G75*
G02*
X225771200Y-65691600I0J-51000D01*
G01*
X225771200Y-66591600D01*
G75*
G02*
X225720200Y-66642600I-51000J0D01*
G01*
G37*
G36*
G01*
X225720200Y-69942600D02*
X224520200Y-69942600D01*
G75*
G02*
X224469200Y-69891600I0J51000D01*
G01*
X224469200Y-68991600D01*
G75*
G02*
X224520200Y-68940600I51000J0D01*
G01*
X225720200Y-68940600D01*
G75*
G02*
X225771200Y-68991600I0J-51000D01*
G01*
X225771200Y-69891600D01*
G75*
G02*
X225720200Y-69942600I-51000J0D01*
G01*
G37*
G36*
G01*
X204104800Y-66644600D02*
X202904800Y-66644600D01*
G75*
G02*
X202853800Y-66593600I0J51000D01*
G01*
X202853800Y-65693600D01*
G75*
G02*
X202904800Y-65642600I51000J0D01*
G01*
X204104800Y-65642600D01*
G75*
G02*
X204155800Y-65693600I0J-51000D01*
G01*
X204155800Y-66593600D01*
G75*
G02*
X204104800Y-66644600I-51000J0D01*
G01*
G37*
G36*
G01*
X204104800Y-69944600D02*
X202904800Y-69944600D01*
G75*
G02*
X202853800Y-69893600I0J51000D01*
G01*
X202853800Y-68993600D01*
G75*
G02*
X202904800Y-68942600I51000J0D01*
G01*
X204104800Y-68942600D01*
G75*
G02*
X204155800Y-68993600I0J-51000D01*
G01*
X204155800Y-69893600D01*
G75*
G02*
X204104800Y-69944600I-51000J0D01*
G01*
G37*
G36*
G01*
X125466400Y-66591800D02*
X124266400Y-66591800D01*
G75*
G02*
X124215400Y-66540800I0J51000D01*
G01*
X124215400Y-65640800D01*
G75*
G02*
X124266400Y-65589800I51000J0D01*
G01*
X125466400Y-65589800D01*
G75*
G02*
X125517400Y-65640800I0J-51000D01*
G01*
X125517400Y-66540800D01*
G75*
G02*
X125466400Y-66591800I-51000J0D01*
G01*
G37*
G36*
G01*
X125466400Y-69891800D02*
X124266400Y-69891800D01*
G75*
G02*
X124215400Y-69840800I0J51000D01*
G01*
X124215400Y-68940800D01*
G75*
G02*
X124266400Y-68889800I51000J0D01*
G01*
X125466400Y-68889800D01*
G75*
G02*
X125517400Y-68940800I0J-51000D01*
G01*
X125517400Y-69840800D01*
G75*
G02*
X125466400Y-69891800I-51000J0D01*
G01*
G37*
G36*
G01*
X61102800Y-66644600D02*
X59902800Y-66644600D01*
G75*
G02*
X59851800Y-66593600I0J51000D01*
G01*
X59851800Y-65693600D01*
G75*
G02*
X59902800Y-65642600I51000J0D01*
G01*
X61102800Y-65642600D01*
G75*
G02*
X61153800Y-65693600I0J-51000D01*
G01*
X61153800Y-66593600D01*
G75*
G02*
X61102800Y-66644600I-51000J0D01*
G01*
G37*
G36*
G01*
X61102800Y-69944600D02*
X59902800Y-69944600D01*
G75*
G02*
X59851800Y-69893600I0J51000D01*
G01*
X59851800Y-68993600D01*
G75*
G02*
X59902800Y-68942600I51000J0D01*
G01*
X61102800Y-68942600D01*
G75*
G02*
X61153800Y-68993600I0J-51000D01*
G01*
X61153800Y-69893600D01*
G75*
G02*
X61102800Y-69944600I-51000J0D01*
G01*
G37*
G36*
G01*
X39462000Y-66642600D02*
X38262000Y-66642600D01*
G75*
G02*
X38211000Y-66591600I0J51000D01*
G01*
X38211000Y-65691600D01*
G75*
G02*
X38262000Y-65640600I51000J0D01*
G01*
X39462000Y-65640600D01*
G75*
G02*
X39513000Y-65691600I0J-51000D01*
G01*
X39513000Y-66591600D01*
G75*
G02*
X39462000Y-66642600I-51000J0D01*
G01*
G37*
G36*
G01*
X39462000Y-69942600D02*
X38262000Y-69942600D01*
G75*
G02*
X38211000Y-69891600I0J51000D01*
G01*
X38211000Y-68991600D01*
G75*
G02*
X38262000Y-68940600I51000J0D01*
G01*
X39462000Y-68940600D01*
G75*
G02*
X39513000Y-68991600I0J-51000D01*
G01*
X39513000Y-69891600D01*
G75*
G02*
X39462000Y-69942600I-51000J0D01*
G01*
G37*
G36*
G01*
X18380000Y-66695400D02*
X17180000Y-66695400D01*
G75*
G02*
X17129000Y-66644400I0J51000D01*
G01*
X17129000Y-65744400D01*
G75*
G02*
X17180000Y-65693400I51000J0D01*
G01*
X18380000Y-65693400D01*
G75*
G02*
X18431000Y-65744400I0J-51000D01*
G01*
X18431000Y-66644400D01*
G75*
G02*
X18380000Y-66695400I-51000J0D01*
G01*
G37*
G36*
G01*
X18380000Y-69995400D02*
X17180000Y-69995400D01*
G75*
G02*
X17129000Y-69944400I0J51000D01*
G01*
X17129000Y-69044400D01*
G75*
G02*
X17180000Y-68993400I51000J0D01*
G01*
X18380000Y-68993400D01*
G75*
G02*
X18431000Y-69044400I0J-51000D01*
G01*
X18431000Y-69944400D01*
G75*
G02*
X18380000Y-69995400I-51000J0D01*
G01*
G37*
G36*
G01*
X235296000Y-9520000D02*
X234096000Y-9520000D01*
G75*
G02*
X234045000Y-9469000I0J51000D01*
G01*
X234045000Y-8569000D01*
G75*
G02*
X234096000Y-8518000I51000J0D01*
G01*
X235296000Y-8518000D01*
G75*
G02*
X235347000Y-8569000I0J-51000D01*
G01*
X235347000Y-9469000D01*
G75*
G02*
X235296000Y-9520000I-51000J0D01*
G01*
G37*
G36*
G01*
X235296000Y-12820000D02*
X234096000Y-12820000D01*
G75*
G02*
X234045000Y-12769000I0J51000D01*
G01*
X234045000Y-11869000D01*
G75*
G02*
X234096000Y-11818000I51000J0D01*
G01*
X235296000Y-11818000D01*
G75*
G02*
X235347000Y-11869000I0J-51000D01*
G01*
X235347000Y-12769000D01*
G75*
G02*
X235296000Y-12820000I-51000J0D01*
G01*
G37*
G36*
G01*
X208880000Y-9520000D02*
X207680000Y-9520000D01*
G75*
G02*
X207629000Y-9469000I0J51000D01*
G01*
X207629000Y-8569000D01*
G75*
G02*
X207680000Y-8518000I51000J0D01*
G01*
X208880000Y-8518000D01*
G75*
G02*
X208931000Y-8569000I0J-51000D01*
G01*
X208931000Y-9469000D01*
G75*
G02*
X208880000Y-9520000I-51000J0D01*
G01*
G37*
G36*
G01*
X208880000Y-12820000D02*
X207680000Y-12820000D01*
G75*
G02*
X207629000Y-12769000I0J51000D01*
G01*
X207629000Y-11869000D01*
G75*
G02*
X207680000Y-11818000I51000J0D01*
G01*
X208880000Y-11818000D01*
G75*
G02*
X208931000Y-11869000I0J-51000D01*
G01*
X208931000Y-12769000D01*
G75*
G02*
X208880000Y-12820000I-51000J0D01*
G01*
G37*
G36*
G01*
X170780000Y-9518000D02*
X169580000Y-9518000D01*
G75*
G02*
X169529000Y-9467000I0J51000D01*
G01*
X169529000Y-8567000D01*
G75*
G02*
X169580000Y-8516000I51000J0D01*
G01*
X170780000Y-8516000D01*
G75*
G02*
X170831000Y-8567000I0J-51000D01*
G01*
X170831000Y-9467000D01*
G75*
G02*
X170780000Y-9518000I-51000J0D01*
G01*
G37*
G36*
G01*
X170780000Y-12818000D02*
X169580000Y-12818000D01*
G75*
G02*
X169529000Y-12767000I0J51000D01*
G01*
X169529000Y-11867000D01*
G75*
G02*
X169580000Y-11816000I51000J0D01*
G01*
X170780000Y-11816000D01*
G75*
G02*
X170831000Y-11867000I0J-51000D01*
G01*
X170831000Y-12767000D01*
G75*
G02*
X170780000Y-12818000I-51000J0D01*
G01*
G37*
G36*
G01*
X132680000Y-9520000D02*
X131480000Y-9520000D01*
G75*
G02*
X131429000Y-9469000I0J51000D01*
G01*
X131429000Y-8569000D01*
G75*
G02*
X131480000Y-8518000I51000J0D01*
G01*
X132680000Y-8518000D01*
G75*
G02*
X132731000Y-8569000I0J-51000D01*
G01*
X132731000Y-9469000D01*
G75*
G02*
X132680000Y-9520000I-51000J0D01*
G01*
G37*
G36*
G01*
X132680000Y-12820000D02*
X131480000Y-12820000D01*
G75*
G02*
X131429000Y-12769000I0J51000D01*
G01*
X131429000Y-11869000D01*
G75*
G02*
X131480000Y-11818000I51000J0D01*
G01*
X132680000Y-11818000D01*
G75*
G02*
X132731000Y-11869000I0J-51000D01*
G01*
X132731000Y-12769000D01*
G75*
G02*
X132680000Y-12820000I-51000J0D01*
G01*
G37*
G36*
G01*
X113630000Y-9518000D02*
X112430000Y-9518000D01*
G75*
G02*
X112379000Y-9467000I0J51000D01*
G01*
X112379000Y-8567000D01*
G75*
G02*
X112430000Y-8516000I51000J0D01*
G01*
X113630000Y-8516000D01*
G75*
G02*
X113681000Y-8567000I0J-51000D01*
G01*
X113681000Y-9467000D01*
G75*
G02*
X113630000Y-9518000I-51000J0D01*
G01*
G37*
G36*
G01*
X113630000Y-12818000D02*
X112430000Y-12818000D01*
G75*
G02*
X112379000Y-12767000I0J51000D01*
G01*
X112379000Y-11867000D01*
G75*
G02*
X112430000Y-11816000I51000J0D01*
G01*
X113630000Y-11816000D01*
G75*
G02*
X113681000Y-11867000I0J-51000D01*
G01*
X113681000Y-12767000D01*
G75*
G02*
X113630000Y-12818000I-51000J0D01*
G01*
G37*
G36*
G01*
X94516500Y-9520000D02*
X93316500Y-9520000D01*
G75*
G02*
X93265500Y-9469000I0J51000D01*
G01*
X93265500Y-8569000D01*
G75*
G02*
X93316500Y-8518000I51000J0D01*
G01*
X94516500Y-8518000D01*
G75*
G02*
X94567500Y-8569000I0J-51000D01*
G01*
X94567500Y-9469000D01*
G75*
G02*
X94516500Y-9520000I-51000J0D01*
G01*
G37*
G36*
G01*
X94516500Y-12820000D02*
X93316500Y-12820000D01*
G75*
G02*
X93265500Y-12769000I0J51000D01*
G01*
X93265500Y-11869000D01*
G75*
G02*
X93316500Y-11818000I51000J0D01*
G01*
X94516500Y-11818000D01*
G75*
G02*
X94567500Y-11869000I0J-51000D01*
G01*
X94567500Y-12769000D01*
G75*
G02*
X94516500Y-12820000I-51000J0D01*
G01*
G37*
G36*
G01*
X56480000Y-9518000D02*
X55280000Y-9518000D01*
G75*
G02*
X55229000Y-9467000I0J51000D01*
G01*
X55229000Y-8567000D01*
G75*
G02*
X55280000Y-8516000I51000J0D01*
G01*
X56480000Y-8516000D01*
G75*
G02*
X56531000Y-8567000I0J-51000D01*
G01*
X56531000Y-9467000D01*
G75*
G02*
X56480000Y-9518000I-51000J0D01*
G01*
G37*
G36*
G01*
X56480000Y-12818000D02*
X55280000Y-12818000D01*
G75*
G02*
X55229000Y-12767000I0J51000D01*
G01*
X55229000Y-11867000D01*
G75*
G02*
X55280000Y-11816000I51000J0D01*
G01*
X56480000Y-11816000D01*
G75*
G02*
X56531000Y-11867000I0J-51000D01*
G01*
X56531000Y-12767000D01*
G75*
G02*
X56480000Y-12818000I-51000J0D01*
G01*
G37*
G36*
G01*
X18380000Y-9520000D02*
X17180000Y-9520000D01*
G75*
G02*
X17129000Y-9469000I0J51000D01*
G01*
X17129000Y-8569000D01*
G75*
G02*
X17180000Y-8518000I51000J0D01*
G01*
X18380000Y-8518000D01*
G75*
G02*
X18431000Y-8569000I0J-51000D01*
G01*
X18431000Y-9469000D01*
G75*
G02*
X18380000Y-9520000I-51000J0D01*
G01*
G37*
G36*
G01*
X18380000Y-12820000D02*
X17180000Y-12820000D01*
G75*
G02*
X17129000Y-12769000I0J51000D01*
G01*
X17129000Y-11869000D01*
G75*
G02*
X17180000Y-11818000I51000J0D01*
G01*
X18380000Y-11818000D01*
G75*
G02*
X18431000Y-11869000I0J-51000D01*
G01*
X18431000Y-12769000D01*
G75*
G02*
X18380000Y-12820000I-51000J0D01*
G01*
G37*
G36*
G01*
X222350750Y-13873500D02*
X221387250Y-13873500D01*
G75*
G02*
X221118000Y-13604250I0J269250D01*
G01*
X221118000Y-13065750D01*
G75*
G02*
X221387250Y-12796500I269250J0D01*
G01*
X222350750Y-12796500D01*
G75*
G02*
X222620000Y-13065750I0J-269250D01*
G01*
X222620000Y-13604250D01*
G75*
G02*
X222350750Y-13873500I-269250J0D01*
G01*
G37*
G36*
G01*
X222350750Y-15748500D02*
X221387250Y-15748500D01*
G75*
G02*
X221118000Y-15479250I0J269250D01*
G01*
X221118000Y-14940750D01*
G75*
G02*
X221387250Y-14671500I269250J0D01*
G01*
X222350750Y-14671500D01*
G75*
G02*
X222620000Y-14940750I0J-269250D01*
G01*
X222620000Y-15479250D01*
G75*
G02*
X222350750Y-15748500I-269250J0D01*
G01*
G37*
G36*
G01*
X210565150Y-17535700D02*
X209601650Y-17535700D01*
G75*
G02*
X209332400Y-17266450I0J269250D01*
G01*
X209332400Y-16727950D01*
G75*
G02*
X209601650Y-16458700I269250J0D01*
G01*
X210565150Y-16458700D01*
G75*
G02*
X210834400Y-16727950I0J-269250D01*
G01*
X210834400Y-17266450D01*
G75*
G02*
X210565150Y-17535700I-269250J0D01*
G01*
G37*
G36*
G01*
X210565150Y-19410700D02*
X209601650Y-19410700D01*
G75*
G02*
X209332400Y-19141450I0J269250D01*
G01*
X209332400Y-18602950D01*
G75*
G02*
X209601650Y-18333700I269250J0D01*
G01*
X210565150Y-18333700D01*
G75*
G02*
X210834400Y-18602950I0J-269250D01*
G01*
X210834400Y-19141450D01*
G75*
G02*
X210565150Y-19410700I-269250J0D01*
G01*
G37*
D17*
G36*
X110711000Y-74705160D02*
G01*
X110711000Y-74995477D01*
X110710000Y-74997209D01*
X110708000Y-74997209D01*
X110707010Y-74995673D01*
X110704628Y-74971486D01*
X110697628Y-74948411D01*
X110686263Y-74927147D01*
X110670968Y-74908510D01*
X110652331Y-74893215D01*
X110631067Y-74881850D01*
X110607992Y-74874850D01*
X110584001Y-74872487D01*
X110560010Y-74874850D01*
X110536935Y-74881850D01*
X110520908Y-74890417D01*
X110518909Y-74890351D01*
X110517966Y-74888588D01*
X110518854Y-74886990D01*
X110535395Y-74875937D01*
X110707586Y-74703746D01*
X110709518Y-74703228D01*
X110711000Y-74705160D01*
G37*
G36*
X118646690Y-67232654D02*
G01*
X118665746Y-67261174D01*
X118793826Y-67389254D01*
X118810111Y-67400135D01*
X118811000Y-67401798D01*
X118811000Y-67482847D01*
X118810000Y-67484579D01*
X118808000Y-67484579D01*
X118807010Y-67483043D01*
X118804628Y-67458856D01*
X118797628Y-67435781D01*
X118786263Y-67414517D01*
X118770968Y-67395880D01*
X118752331Y-67380585D01*
X118731067Y-67369220D01*
X118707992Y-67362220D01*
X118684001Y-67359857D01*
X118660010Y-67362220D01*
X118636935Y-67369220D01*
X118615671Y-67380585D01*
X118597034Y-67395880D01*
X118581739Y-67414517D01*
X118573175Y-67430540D01*
X118571476Y-67431596D01*
X118569713Y-67430653D01*
X118569563Y-67428832D01*
X118636173Y-67268021D01*
X118643065Y-67233375D01*
X118644384Y-67231871D01*
X118646690Y-67232654D01*
G37*
G36*
X120912848Y-67029653D02*
G01*
X120946364Y-67110566D01*
X121046996Y-67261174D01*
X121121050Y-67335228D01*
X121121568Y-67337160D01*
X121120154Y-67338574D01*
X121118367Y-67338188D01*
X121104329Y-67326667D01*
X121083065Y-67315302D01*
X121059990Y-67308302D01*
X121035999Y-67305939D01*
X121012008Y-67308302D01*
X120988933Y-67315302D01*
X120967669Y-67326667D01*
X120949032Y-67341962D01*
X120933737Y-67360599D01*
X120922372Y-67381863D01*
X120915372Y-67404938D01*
X120912990Y-67429125D01*
X120911825Y-67430751D01*
X120909835Y-67430555D01*
X120909000Y-67428929D01*
X120909000Y-67030418D01*
X120910000Y-67028686D01*
X120912000Y-67028686D01*
X120912848Y-67029653D01*
G37*
G36*
X141686223Y-66974428D02*
G01*
X141742614Y-67110566D01*
X141786074Y-67175609D01*
X141786205Y-67177605D01*
X141784542Y-67178716D01*
X141782865Y-67177989D01*
X141771342Y-67163948D01*
X141752705Y-67148652D01*
X141731442Y-67137287D01*
X141708367Y-67130287D01*
X141684376Y-67127924D01*
X141660385Y-67130287D01*
X141637310Y-67137287D01*
X141616046Y-67148652D01*
X141597409Y-67163947D01*
X141585885Y-67177989D01*
X141584013Y-67178693D01*
X141582467Y-67177424D01*
X141582676Y-67175609D01*
X141626136Y-67110566D01*
X141682527Y-66974428D01*
X141684114Y-66973210D01*
X141686223Y-66974428D01*
G37*
G36*
X141585885Y-66172011D02*
G01*
X141597408Y-66186052D01*
X141616045Y-66201348D01*
X141637308Y-66212713D01*
X141660383Y-66219713D01*
X141684374Y-66222076D01*
X141708365Y-66219713D01*
X141731440Y-66212713D01*
X141752704Y-66201348D01*
X141771341Y-66186053D01*
X141782865Y-66172011D01*
X141784737Y-66171307D01*
X141786283Y-66172576D01*
X141786074Y-66174391D01*
X141742614Y-66239434D01*
X141686223Y-66375572D01*
X141684636Y-66376790D01*
X141682527Y-66375572D01*
X141626136Y-66239434D01*
X141582676Y-66174391D01*
X141582545Y-66172395D01*
X141584208Y-66171284D01*
X141585885Y-66172011D01*
G37*
G36*
X120912990Y-65920875D02*
G01*
X120915372Y-65945062D01*
X120922372Y-65968137D01*
X120933737Y-65989401D01*
X120949032Y-66008038D01*
X120967669Y-66023333D01*
X120988933Y-66034698D01*
X121012008Y-66041698D01*
X121035999Y-66044061D01*
X121059990Y-66041698D01*
X121083065Y-66034698D01*
X121104329Y-66023333D01*
X121118367Y-66011812D01*
X121120341Y-66011486D01*
X121121609Y-66013032D01*
X121121050Y-66014772D01*
X121046996Y-66088826D01*
X120946364Y-66239434D01*
X120912848Y-66320347D01*
X120911261Y-66321565D01*
X120909413Y-66320800D01*
X120909000Y-66319582D01*
X120909000Y-65921071D01*
X120910000Y-65919339D01*
X120912000Y-65919339D01*
X120912990Y-65920875D01*
G37*
G36*
X118810165Y-65865527D02*
G01*
X118811000Y-65867153D01*
X118811000Y-65948202D01*
X118810111Y-65949865D01*
X118793826Y-65960746D01*
X118665746Y-66088826D01*
X118646690Y-66117346D01*
X118644896Y-66118231D01*
X118643065Y-66116625D01*
X118636173Y-66081979D01*
X118569563Y-65921168D01*
X118569824Y-65919185D01*
X118571672Y-65918420D01*
X118573175Y-65919460D01*
X118581739Y-65935483D01*
X118597034Y-65954120D01*
X118615671Y-65969415D01*
X118636935Y-65980780D01*
X118660010Y-65987780D01*
X118684001Y-65990143D01*
X118707992Y-65987780D01*
X118731067Y-65980780D01*
X118752331Y-65969415D01*
X118770968Y-65954120D01*
X118786263Y-65935483D01*
X118797628Y-65914219D01*
X118804628Y-65891144D01*
X118807010Y-65866957D01*
X118808175Y-65865331D01*
X118810165Y-65865527D01*
G37*
G36*
X27031181Y-65303337D02*
G01*
X27066663Y-65303337D01*
X27068395Y-65304337D01*
X27068077Y-65306751D01*
X26995825Y-65379003D01*
X26942899Y-65458212D01*
X26941105Y-65459097D01*
X26939442Y-65457986D01*
X26939472Y-65456158D01*
X26948036Y-65440136D01*
X26955036Y-65417061D01*
X26957399Y-65393070D01*
X26955036Y-65369079D01*
X26948036Y-65346004D01*
X26936671Y-65324740D01*
X26921375Y-65306103D01*
X26902739Y-65290808D01*
X26881475Y-65279443D01*
X26864096Y-65274171D01*
X26862729Y-65272711D01*
X26863310Y-65270797D01*
X26865067Y-65270295D01*
X27031181Y-65303337D01*
G37*
G36*
X146093681Y-65303337D02*
G01*
X146129163Y-65303337D01*
X146130895Y-65304337D01*
X146130577Y-65306751D01*
X146058325Y-65379003D01*
X146005399Y-65458212D01*
X146003605Y-65459097D01*
X146001942Y-65457986D01*
X146001972Y-65456158D01*
X146010536Y-65440136D01*
X146017536Y-65417061D01*
X146019899Y-65393070D01*
X146017536Y-65369079D01*
X146010536Y-65346004D01*
X145999171Y-65324740D01*
X145983875Y-65306103D01*
X145965239Y-65290808D01*
X145943975Y-65279443D01*
X145926596Y-65274171D01*
X145925229Y-65272711D01*
X145925810Y-65270797D01*
X145927567Y-65270295D01*
X146093681Y-65303337D01*
G37*
G36*
X112756181Y-65303337D02*
G01*
X112791663Y-65303337D01*
X112793395Y-65304337D01*
X112793077Y-65306751D01*
X112720825Y-65379003D01*
X112667899Y-65458212D01*
X112666105Y-65459097D01*
X112664442Y-65457986D01*
X112664472Y-65456158D01*
X112673036Y-65440136D01*
X112680036Y-65417061D01*
X112682399Y-65393070D01*
X112680036Y-65369079D01*
X112673036Y-65346004D01*
X112661671Y-65324740D01*
X112646375Y-65306103D01*
X112627739Y-65290808D01*
X112606475Y-65279443D01*
X112589096Y-65274171D01*
X112587729Y-65272711D01*
X112588310Y-65270797D01*
X112590067Y-65270295D01*
X112756181Y-65303337D01*
G37*
G36*
X86562431Y-65303337D02*
G01*
X86597913Y-65303337D01*
X86599645Y-65304337D01*
X86599327Y-65306751D01*
X86527075Y-65379003D01*
X86474149Y-65458212D01*
X86472355Y-65459097D01*
X86470692Y-65457986D01*
X86470722Y-65456158D01*
X86479286Y-65440136D01*
X86486286Y-65417061D01*
X86488649Y-65393070D01*
X86486286Y-65369079D01*
X86479286Y-65346004D01*
X86467921Y-65324740D01*
X86452625Y-65306103D01*
X86433989Y-65290808D01*
X86412725Y-65279443D01*
X86395346Y-65274171D01*
X86393979Y-65272711D01*
X86394560Y-65270797D01*
X86396317Y-65270295D01*
X86562431Y-65303337D01*
G37*
G36*
X5017111Y-65073833D02*
G01*
X5161584Y-65170366D01*
X5183733Y-65179541D01*
X5184951Y-65181128D01*
X5184186Y-65182976D01*
X5182387Y-65183303D01*
X5164990Y-65178025D01*
X5140998Y-65175662D01*
X5117007Y-65178025D01*
X5093932Y-65185025D01*
X5072669Y-65196390D01*
X5054032Y-65211686D01*
X5038737Y-65230323D01*
X5027372Y-65251587D01*
X5020372Y-65274661D01*
X5017990Y-65298848D01*
X5016825Y-65300474D01*
X5014835Y-65300278D01*
X5014000Y-65298652D01*
X5014000Y-65075496D01*
X5015000Y-65073764D01*
X5017111Y-65073833D01*
G37*
G36*
X109712414Y-65009693D02*
G01*
X109745227Y-65042506D01*
X109901148Y-65146689D01*
X109902033Y-65148483D01*
X109900922Y-65150146D01*
X109899094Y-65150116D01*
X109883065Y-65141548D01*
X109859990Y-65134548D01*
X109835999Y-65132185D01*
X109812007Y-65134548D01*
X109788933Y-65141548D01*
X109767669Y-65152913D01*
X109749032Y-65168209D01*
X109733737Y-65186846D01*
X109722372Y-65208109D01*
X109715372Y-65231184D01*
X109712990Y-65255371D01*
X109711825Y-65256997D01*
X109709835Y-65256801D01*
X109709000Y-65255175D01*
X109709000Y-65011107D01*
X109710000Y-65009375D01*
X109712414Y-65009693D01*
G37*
G36*
X4772139Y-64826860D02*
G01*
X4807494Y-64879773D01*
X4943307Y-65015586D01*
X4943825Y-65017518D01*
X4941893Y-65019000D01*
X4663648Y-65019000D01*
X4661916Y-65018000D01*
X4661916Y-65016000D01*
X4663452Y-65015010D01*
X4687639Y-65012628D01*
X4710714Y-65005628D01*
X4731978Y-64994263D01*
X4750615Y-64978968D01*
X4765910Y-64960331D01*
X4777275Y-64939067D01*
X4784275Y-64915992D01*
X4786638Y-64892000D01*
X4784275Y-64868010D01*
X4777275Y-64844935D01*
X4768712Y-64828914D01*
X4768778Y-64826915D01*
X4770541Y-64825972D01*
X4772139Y-64826860D01*
G37*
G36*
X109462278Y-64699857D02*
G01*
X109582494Y-64879773D01*
X109591307Y-64888586D01*
X109591825Y-64890518D01*
X109589893Y-64892000D01*
X109353789Y-64892000D01*
X109352057Y-64891000D01*
X109352057Y-64889000D01*
X109353593Y-64888010D01*
X109377780Y-64885628D01*
X109400855Y-64878628D01*
X109422119Y-64867263D01*
X109440756Y-64851968D01*
X109456051Y-64833331D01*
X109467416Y-64812067D01*
X109474416Y-64788992D01*
X109476779Y-64765001D01*
X109474416Y-64741010D01*
X109467416Y-64717935D01*
X109458851Y-64701911D01*
X109458917Y-64699912D01*
X109460680Y-64698969D01*
X109462278Y-64699857D01*
G37*
G36*
X87803267Y-64478012D02*
G01*
X87803642Y-64479620D01*
X87802453Y-64485595D01*
X87802405Y-64485785D01*
X87800654Y-64491561D01*
X87798291Y-64515553D01*
X87800654Y-64539544D01*
X87807655Y-64562619D01*
X87819021Y-64583882D01*
X87834316Y-64602519D01*
X87852954Y-64617812D01*
X87874218Y-64629178D01*
X87897293Y-64636178D01*
X87915363Y-64637957D01*
X87916989Y-64639122D01*
X87916793Y-64641112D01*
X87915167Y-64641947D01*
X87906014Y-64641947D01*
X87720170Y-64678914D01*
X87718276Y-64678271D01*
X87717932Y-64676187D01*
X87799832Y-64478465D01*
X87801419Y-64477247D01*
X87803267Y-64478012D01*
G37*
G36*
X113997017Y-64478012D02*
G01*
X113997392Y-64479620D01*
X113996203Y-64485595D01*
X113996155Y-64485785D01*
X113994404Y-64491561D01*
X113992041Y-64515553D01*
X113994404Y-64539544D01*
X114001405Y-64562619D01*
X114012771Y-64583882D01*
X114028066Y-64602519D01*
X114046704Y-64617812D01*
X114067968Y-64629178D01*
X114091043Y-64636178D01*
X114109113Y-64637957D01*
X114110739Y-64639122D01*
X114110543Y-64641112D01*
X114108917Y-64641947D01*
X114099764Y-64641947D01*
X113913920Y-64678914D01*
X113912026Y-64678271D01*
X113911682Y-64676187D01*
X113993582Y-64478465D01*
X113995169Y-64477247D01*
X113997017Y-64478012D01*
G37*
G36*
X147334517Y-64478012D02*
G01*
X147334892Y-64479620D01*
X147333703Y-64485595D01*
X147333655Y-64485785D01*
X147331904Y-64491561D01*
X147329541Y-64515553D01*
X147331904Y-64539544D01*
X147338905Y-64562619D01*
X147350271Y-64583882D01*
X147365566Y-64602519D01*
X147384204Y-64617812D01*
X147405468Y-64629178D01*
X147428543Y-64636178D01*
X147446613Y-64637957D01*
X147448239Y-64639122D01*
X147448043Y-64641112D01*
X147446417Y-64641947D01*
X147437264Y-64641947D01*
X147251420Y-64678914D01*
X147249526Y-64678271D01*
X147249182Y-64676187D01*
X147331082Y-64478465D01*
X147332669Y-64477247D01*
X147334517Y-64478012D01*
G37*
G36*
X28272017Y-64478012D02*
G01*
X28272392Y-64479620D01*
X28271203Y-64485595D01*
X28271155Y-64485785D01*
X28269404Y-64491561D01*
X28267041Y-64515553D01*
X28269404Y-64539544D01*
X28276405Y-64562619D01*
X28287771Y-64583882D01*
X28303066Y-64602519D01*
X28321704Y-64617812D01*
X28342968Y-64629178D01*
X28366043Y-64636178D01*
X28384113Y-64637957D01*
X28385739Y-64639122D01*
X28385543Y-64641112D01*
X28383917Y-64641947D01*
X28374764Y-64641947D01*
X28188920Y-64678914D01*
X28187026Y-64678271D01*
X28186682Y-64676187D01*
X28268582Y-64478465D01*
X28270169Y-64477247D01*
X28272017Y-64478012D01*
G37*
G36*
X85601162Y-63678313D02*
G01*
X85601312Y-63680134D01*
X85554062Y-63794207D01*
X85509163Y-64019931D01*
X85509163Y-64250069D01*
X85554062Y-64475793D01*
X85601313Y-64589867D01*
X85601052Y-64591850D01*
X85599204Y-64592615D01*
X85597701Y-64591575D01*
X85589137Y-64575552D01*
X85573842Y-64556915D01*
X85555205Y-64541619D01*
X85533941Y-64530254D01*
X85510866Y-64523254D01*
X85486875Y-64520891D01*
X85462884Y-64523254D01*
X85439809Y-64530254D01*
X85418546Y-64541619D01*
X85399909Y-64556914D01*
X85384613Y-64575551D01*
X85376050Y-64591574D01*
X85374352Y-64592630D01*
X85372588Y-64591687D01*
X85372438Y-64589866D01*
X85419688Y-64475793D01*
X85464587Y-64250069D01*
X85464587Y-64019931D01*
X85419688Y-63794207D01*
X85372437Y-63680133D01*
X85372698Y-63678150D01*
X85374546Y-63677385D01*
X85376049Y-63678425D01*
X85384613Y-63694448D01*
X85399908Y-63713085D01*
X85418545Y-63728381D01*
X85439809Y-63739746D01*
X85462884Y-63746746D01*
X85486875Y-63749109D01*
X85510866Y-63746746D01*
X85533941Y-63739746D01*
X85555204Y-63728381D01*
X85573841Y-63713086D01*
X85589137Y-63694449D01*
X85597700Y-63678426D01*
X85599398Y-63677370D01*
X85601162Y-63678313D01*
G37*
G36*
X111794912Y-63678313D02*
G01*
X111795062Y-63680134D01*
X111747812Y-63794207D01*
X111702913Y-64019931D01*
X111702913Y-64250069D01*
X111747812Y-64475793D01*
X111795063Y-64589867D01*
X111794802Y-64591850D01*
X111792954Y-64592615D01*
X111791451Y-64591575D01*
X111782887Y-64575552D01*
X111767592Y-64556915D01*
X111748955Y-64541619D01*
X111727691Y-64530254D01*
X111704616Y-64523254D01*
X111680625Y-64520891D01*
X111656634Y-64523254D01*
X111633559Y-64530254D01*
X111612296Y-64541619D01*
X111593659Y-64556914D01*
X111578363Y-64575551D01*
X111569800Y-64591574D01*
X111568102Y-64592630D01*
X111566338Y-64591687D01*
X111566188Y-64589866D01*
X111613438Y-64475793D01*
X111658337Y-64250069D01*
X111658337Y-64019931D01*
X111613438Y-63794207D01*
X111566187Y-63680133D01*
X111566448Y-63678150D01*
X111568296Y-63677385D01*
X111569799Y-63678425D01*
X111578363Y-63694448D01*
X111593658Y-63713085D01*
X111612295Y-63728381D01*
X111633559Y-63739746D01*
X111656634Y-63746746D01*
X111680625Y-63749109D01*
X111704616Y-63746746D01*
X111727691Y-63739746D01*
X111748954Y-63728381D01*
X111767591Y-63713086D01*
X111782887Y-63694449D01*
X111791450Y-63678426D01*
X111793148Y-63677370D01*
X111794912Y-63678313D01*
G37*
G36*
X26069912Y-63678313D02*
G01*
X26070062Y-63680134D01*
X26022812Y-63794207D01*
X25977913Y-64019931D01*
X25977913Y-64250069D01*
X26022812Y-64475793D01*
X26070063Y-64589867D01*
X26069802Y-64591850D01*
X26067954Y-64592615D01*
X26066451Y-64591575D01*
X26057887Y-64575552D01*
X26042592Y-64556915D01*
X26023955Y-64541619D01*
X26002691Y-64530254D01*
X25979616Y-64523254D01*
X25955625Y-64520891D01*
X25931634Y-64523254D01*
X25908559Y-64530254D01*
X25887296Y-64541619D01*
X25868659Y-64556914D01*
X25853363Y-64575551D01*
X25844800Y-64591574D01*
X25843102Y-64592630D01*
X25841338Y-64591687D01*
X25841188Y-64589866D01*
X25888438Y-64475793D01*
X25933337Y-64250069D01*
X25933337Y-64019931D01*
X25888438Y-63794207D01*
X25841187Y-63680133D01*
X25841448Y-63678150D01*
X25843296Y-63677385D01*
X25844799Y-63678425D01*
X25853363Y-63694448D01*
X25868658Y-63713085D01*
X25887295Y-63728381D01*
X25908559Y-63739746D01*
X25931634Y-63746746D01*
X25955625Y-63749109D01*
X25979616Y-63746746D01*
X26002691Y-63739746D01*
X26023954Y-63728381D01*
X26042591Y-63713086D01*
X26057887Y-63694449D01*
X26066450Y-63678426D01*
X26068148Y-63677370D01*
X26069912Y-63678313D01*
G37*
G36*
X145132412Y-63678313D02*
G01*
X145132562Y-63680134D01*
X145085312Y-63794207D01*
X145040413Y-64019931D01*
X145040413Y-64250069D01*
X145085312Y-64475793D01*
X145132563Y-64589867D01*
X145132302Y-64591850D01*
X145130454Y-64592615D01*
X145128951Y-64591575D01*
X145120387Y-64575552D01*
X145105092Y-64556915D01*
X145086455Y-64541619D01*
X145065191Y-64530254D01*
X145042116Y-64523254D01*
X145018125Y-64520891D01*
X144994134Y-64523254D01*
X144971059Y-64530254D01*
X144949796Y-64541619D01*
X144931159Y-64556914D01*
X144915863Y-64575551D01*
X144907300Y-64591574D01*
X144905602Y-64592630D01*
X144903838Y-64591687D01*
X144903688Y-64589866D01*
X144950938Y-64475793D01*
X144995837Y-64250069D01*
X144995837Y-64019931D01*
X144950938Y-63794207D01*
X144903687Y-63680133D01*
X144903948Y-63678150D01*
X144905796Y-63677385D01*
X144907299Y-63678425D01*
X144915863Y-63694448D01*
X144931158Y-63713085D01*
X144949795Y-63728381D01*
X144971059Y-63739746D01*
X144994134Y-63746746D01*
X145018125Y-63749109D01*
X145042116Y-63746746D01*
X145065191Y-63739746D01*
X145086454Y-63728381D01*
X145105091Y-63713086D01*
X145120387Y-63694449D01*
X145128950Y-63678426D01*
X145130648Y-63677370D01*
X145132412Y-63678313D01*
G37*
G36*
X32419912Y-61138313D02*
G01*
X32420062Y-61140134D01*
X32372812Y-61254207D01*
X32327913Y-61479931D01*
X32327913Y-61710069D01*
X32372812Y-61935793D01*
X32420063Y-62049867D01*
X32419802Y-62051850D01*
X32417954Y-62052615D01*
X32416451Y-62051575D01*
X32407887Y-62035552D01*
X32392592Y-62016915D01*
X32373955Y-62001619D01*
X32352691Y-61990254D01*
X32329616Y-61983254D01*
X32305625Y-61980891D01*
X32281634Y-61983254D01*
X32258559Y-61990254D01*
X32237296Y-62001619D01*
X32218659Y-62016914D01*
X32203363Y-62035551D01*
X32194800Y-62051574D01*
X32193102Y-62052630D01*
X32191338Y-62051687D01*
X32191188Y-62049866D01*
X32238438Y-61935793D01*
X32283337Y-61710069D01*
X32283337Y-61479931D01*
X32238438Y-61254207D01*
X32191187Y-61140133D01*
X32191448Y-61138150D01*
X32193296Y-61137385D01*
X32194799Y-61138425D01*
X32203363Y-61154448D01*
X32218658Y-61173085D01*
X32237295Y-61188381D01*
X32258559Y-61199746D01*
X32281634Y-61206746D01*
X32305625Y-61209109D01*
X32329616Y-61206746D01*
X32352691Y-61199746D01*
X32373954Y-61188381D01*
X32392591Y-61173086D01*
X32407887Y-61154449D01*
X32416450Y-61138426D01*
X32418148Y-61137370D01*
X32419912Y-61138313D01*
G37*
G36*
X151482412Y-61138313D02*
G01*
X151482562Y-61140134D01*
X151435312Y-61254207D01*
X151390413Y-61479931D01*
X151390413Y-61710069D01*
X151435312Y-61935793D01*
X151482563Y-62049867D01*
X151482302Y-62051850D01*
X151480454Y-62052615D01*
X151478951Y-62051575D01*
X151470387Y-62035552D01*
X151455092Y-62016915D01*
X151436455Y-62001619D01*
X151415191Y-61990254D01*
X151392116Y-61983254D01*
X151368125Y-61980891D01*
X151344134Y-61983254D01*
X151321059Y-61990254D01*
X151299796Y-62001619D01*
X151281159Y-62016914D01*
X151265863Y-62035551D01*
X151257300Y-62051574D01*
X151255602Y-62052630D01*
X151253838Y-62051687D01*
X151253688Y-62049866D01*
X151300938Y-61935793D01*
X151345837Y-61710069D01*
X151345837Y-61479931D01*
X151300938Y-61254207D01*
X151253687Y-61140133D01*
X151253948Y-61138150D01*
X151255796Y-61137385D01*
X151257299Y-61138425D01*
X151265863Y-61154448D01*
X151281158Y-61173085D01*
X151299795Y-61188381D01*
X151321059Y-61199746D01*
X151344134Y-61206746D01*
X151368125Y-61209109D01*
X151392116Y-61206746D01*
X151415191Y-61199746D01*
X151436454Y-61188381D01*
X151455091Y-61173086D01*
X151470387Y-61154449D01*
X151478950Y-61138426D01*
X151480648Y-61137370D01*
X151482412Y-61138313D01*
G37*
G36*
X91951162Y-61138313D02*
G01*
X91951312Y-61140134D01*
X91904062Y-61254207D01*
X91859163Y-61479931D01*
X91859163Y-61710069D01*
X91904062Y-61935793D01*
X91951313Y-62049867D01*
X91951052Y-62051850D01*
X91949204Y-62052615D01*
X91947701Y-62051575D01*
X91939137Y-62035552D01*
X91923842Y-62016915D01*
X91905205Y-62001619D01*
X91883941Y-61990254D01*
X91860866Y-61983254D01*
X91836875Y-61980891D01*
X91812884Y-61983254D01*
X91789809Y-61990254D01*
X91768546Y-62001619D01*
X91749909Y-62016914D01*
X91734613Y-62035551D01*
X91726050Y-62051574D01*
X91724352Y-62052630D01*
X91722588Y-62051687D01*
X91722438Y-62049866D01*
X91769688Y-61935793D01*
X91814587Y-61710069D01*
X91814587Y-61479931D01*
X91769688Y-61254207D01*
X91722437Y-61140133D01*
X91722698Y-61138150D01*
X91724546Y-61137385D01*
X91726049Y-61138425D01*
X91734613Y-61154448D01*
X91749908Y-61173085D01*
X91768545Y-61188381D01*
X91789809Y-61199746D01*
X91812884Y-61206746D01*
X91836875Y-61209109D01*
X91860866Y-61206746D01*
X91883941Y-61199746D01*
X91905204Y-61188381D01*
X91923841Y-61173086D01*
X91939137Y-61154449D01*
X91947700Y-61138426D01*
X91949398Y-61137370D01*
X91951162Y-61138313D01*
G37*
G36*
X118144912Y-61138313D02*
G01*
X118145062Y-61140134D01*
X118097812Y-61254207D01*
X118052913Y-61479931D01*
X118052913Y-61710069D01*
X118097812Y-61935793D01*
X118145063Y-62049867D01*
X118144802Y-62051850D01*
X118142954Y-62052615D01*
X118141451Y-62051575D01*
X118132887Y-62035552D01*
X118117592Y-62016915D01*
X118098955Y-62001619D01*
X118077691Y-61990254D01*
X118054616Y-61983254D01*
X118030625Y-61980891D01*
X118006634Y-61983254D01*
X117983559Y-61990254D01*
X117962296Y-62001619D01*
X117943659Y-62016914D01*
X117928363Y-62035551D01*
X117919800Y-62051574D01*
X117918102Y-62052630D01*
X117916338Y-62051687D01*
X117916188Y-62049866D01*
X117963438Y-61935793D01*
X118008337Y-61710069D01*
X118008337Y-61479931D01*
X117963438Y-61254207D01*
X117916187Y-61140133D01*
X117916448Y-61138150D01*
X117918296Y-61137385D01*
X117919799Y-61138425D01*
X117928363Y-61154448D01*
X117943658Y-61173085D01*
X117962295Y-61188381D01*
X117983559Y-61199746D01*
X118006634Y-61206746D01*
X118030625Y-61209109D01*
X118054616Y-61206746D01*
X118077691Y-61199746D01*
X118098954Y-61188381D01*
X118117591Y-61173086D01*
X118132887Y-61154449D01*
X118141450Y-61138426D01*
X118143148Y-61137370D01*
X118144912Y-61138313D01*
G37*
G36*
X116193809Y-60418218D02*
G01*
X116265509Y-60466126D01*
X116384458Y-60515397D01*
X116385676Y-60516984D01*
X116384458Y-60519093D01*
X116286584Y-60559634D01*
X116193814Y-60621620D01*
X116191818Y-60621751D01*
X116190707Y-60620088D01*
X116191434Y-60618411D01*
X116205476Y-60606888D01*
X116220771Y-60588251D01*
X116232136Y-60566987D01*
X116239136Y-60543912D01*
X116241499Y-60519921D01*
X116239136Y-60495930D01*
X116232136Y-60472855D01*
X116220771Y-60451591D01*
X116205476Y-60432954D01*
X116191429Y-60421427D01*
X116190725Y-60419555D01*
X116191993Y-60418009D01*
X116193809Y-60418218D01*
G37*
G36*
X137912264Y-60453053D02*
G01*
X138003200Y-60453053D01*
X138004932Y-60454053D01*
X138004932Y-60456053D01*
X138003590Y-60457015D01*
X137930457Y-60471562D01*
X137717834Y-60559634D01*
X137636709Y-60613839D01*
X137634713Y-60613970D01*
X137633602Y-60612307D01*
X137634329Y-60610630D01*
X137648375Y-60599103D01*
X137663670Y-60580466D01*
X137675035Y-60559203D01*
X137682035Y-60536128D01*
X137684398Y-60512137D01*
X137682035Y-60488146D01*
X137675035Y-60465071D01*
X137663670Y-60443807D01*
X137648374Y-60425170D01*
X137629737Y-60409875D01*
X137608474Y-60398510D01*
X137591087Y-60393236D01*
X137589720Y-60391776D01*
X137590301Y-60389862D01*
X137592058Y-60389360D01*
X137912264Y-60453053D01*
G37*
G36*
X117409304Y-60366292D02*
G01*
X117408577Y-60367969D01*
X117394524Y-60379502D01*
X117379229Y-60398139D01*
X117367864Y-60419403D01*
X117360864Y-60442478D01*
X117358502Y-60466469D01*
X117360865Y-60490460D01*
X117367866Y-60513535D01*
X117379231Y-60534798D01*
X117394527Y-60553435D01*
X117408571Y-60564960D01*
X117409275Y-60566832D01*
X117408007Y-60568378D01*
X117406191Y-60568169D01*
X117393416Y-60559634D01*
X117215542Y-60485955D01*
X117214324Y-60484368D01*
X117215542Y-60482259D01*
X117254491Y-60466126D01*
X117406197Y-60364760D01*
X117408193Y-60364629D01*
X117409304Y-60366292D01*
G37*
G36*
X138820384Y-60328428D02*
G01*
X138821149Y-60330276D01*
X138820109Y-60331779D01*
X138804091Y-60340340D01*
X138785454Y-60355635D01*
X138770159Y-60374272D01*
X138758794Y-60395536D01*
X138751794Y-60418611D01*
X138749431Y-60442602D01*
X138751794Y-60466593D01*
X138758794Y-60489668D01*
X138770159Y-60510932D01*
X138785454Y-60529569D01*
X138804091Y-60544864D01*
X138820118Y-60553430D01*
X138821174Y-60555129D01*
X138820231Y-60556892D01*
X138818410Y-60557042D01*
X138612043Y-60471562D01*
X138425727Y-60434502D01*
X138424223Y-60433183D01*
X138424613Y-60431221D01*
X138425727Y-60430578D01*
X138705521Y-60374923D01*
X138818401Y-60328167D01*
X138820384Y-60328428D01*
G37*
G36*
X214113455Y-26165210D02*
G01*
X214136647Y-26167494D01*
X214137032Y-26167570D01*
X214153424Y-26172543D01*
X214153786Y-26172693D01*
X214168898Y-26180770D01*
X214169224Y-26180988D01*
X214182467Y-26191856D01*
X214182744Y-26192133D01*
X214193613Y-26205378D01*
X214193831Y-26205704D01*
X214197880Y-26213279D01*
X214211328Y-26233406D01*
X214228375Y-26250453D01*
X214248423Y-26263848D01*
X214270696Y-26273074D01*
X214294347Y-26277779D01*
X214318453Y-26277779D01*
X214342103Y-26273075D01*
X214364377Y-26263848D01*
X214384424Y-26250454D01*
X214401471Y-26233407D01*
X214414920Y-26213279D01*
X214418969Y-26205704D01*
X214419187Y-26205378D01*
X214430056Y-26192133D01*
X214430333Y-26191856D01*
X214443576Y-26180988D01*
X214443902Y-26180770D01*
X214459014Y-26172693D01*
X214459376Y-26172543D01*
X214475768Y-26167570D01*
X214476153Y-26167494D01*
X214499345Y-26165210D01*
X214499541Y-26165200D01*
X214555900Y-26165200D01*
X214557632Y-26166200D01*
X214557632Y-26168200D01*
X214556096Y-26169190D01*
X214526934Y-26172062D01*
X214499075Y-26180513D01*
X214473403Y-26194235D01*
X214450901Y-26212701D01*
X214432435Y-26235203D01*
X214418713Y-26260875D01*
X214410262Y-26288734D01*
X214407400Y-26317794D01*
X214407400Y-27618606D01*
X214410262Y-27647666D01*
X214418713Y-27675525D01*
X214432435Y-27701197D01*
X214450901Y-27723699D01*
X214473403Y-27742165D01*
X214499075Y-27755887D01*
X214526934Y-27764338D01*
X214556096Y-27767210D01*
X214557722Y-27768375D01*
X214557526Y-27770365D01*
X214555900Y-27771200D01*
X214499541Y-27771200D01*
X214499345Y-27771190D01*
X214476153Y-27768906D01*
X214475768Y-27768830D01*
X214459376Y-27763857D01*
X214459014Y-27763707D01*
X214443902Y-27755630D01*
X214443576Y-27755412D01*
X214430333Y-27744544D01*
X214430056Y-27744267D01*
X214419187Y-27731022D01*
X214418969Y-27730696D01*
X214414920Y-27723121D01*
X214401472Y-27702994D01*
X214384425Y-27685947D01*
X214364377Y-27672552D01*
X214342104Y-27663326D01*
X214318453Y-27658621D01*
X214294347Y-27658621D01*
X214270697Y-27663325D01*
X214248423Y-27672552D01*
X214228376Y-27685946D01*
X214211329Y-27702993D01*
X214197880Y-27723121D01*
X214193831Y-27730696D01*
X214193613Y-27731022D01*
X214182744Y-27744267D01*
X214182467Y-27744544D01*
X214169224Y-27755412D01*
X214168898Y-27755630D01*
X214153786Y-27763707D01*
X214153424Y-27763857D01*
X214137032Y-27768830D01*
X214136647Y-27768906D01*
X214113455Y-27771190D01*
X214113259Y-27771200D01*
X214056900Y-27771200D01*
X214055168Y-27770200D01*
X214055168Y-27768200D01*
X214056704Y-27767210D01*
X214085866Y-27764338D01*
X214113725Y-27755887D01*
X214139397Y-27742165D01*
X214161899Y-27723699D01*
X214180365Y-27701197D01*
X214194087Y-27675525D01*
X214202538Y-27647666D01*
X214205400Y-27618606D01*
X214205400Y-26317794D01*
X214202538Y-26288734D01*
X214194087Y-26260875D01*
X214180365Y-26235203D01*
X214161899Y-26212701D01*
X214139397Y-26194235D01*
X214113725Y-26180513D01*
X214085866Y-26172062D01*
X214056704Y-26169190D01*
X214055078Y-26168025D01*
X214055274Y-26166035D01*
X214056900Y-26165200D01*
X214113259Y-26165200D01*
X214113455Y-26165210D01*
G37*
G36*
X216513455Y-26165210D02*
G01*
X216536647Y-26167494D01*
X216537032Y-26167570D01*
X216553424Y-26172543D01*
X216553786Y-26172693D01*
X216568898Y-26180770D01*
X216569224Y-26180988D01*
X216582467Y-26191856D01*
X216582744Y-26192133D01*
X216593613Y-26205378D01*
X216593831Y-26205704D01*
X216597880Y-26213279D01*
X216611328Y-26233406D01*
X216628375Y-26250453D01*
X216648423Y-26263848D01*
X216670696Y-26273074D01*
X216694347Y-26277779D01*
X216718453Y-26277779D01*
X216742103Y-26273075D01*
X216764377Y-26263848D01*
X216784424Y-26250454D01*
X216801471Y-26233407D01*
X216814920Y-26213279D01*
X216818969Y-26205704D01*
X216819187Y-26205378D01*
X216830056Y-26192133D01*
X216830333Y-26191856D01*
X216843576Y-26180988D01*
X216843902Y-26180770D01*
X216859014Y-26172693D01*
X216859376Y-26172543D01*
X216875768Y-26167570D01*
X216876153Y-26167494D01*
X216899345Y-26165210D01*
X216899541Y-26165200D01*
X216955900Y-26165200D01*
X216957632Y-26166200D01*
X216957632Y-26168200D01*
X216956096Y-26169190D01*
X216926934Y-26172062D01*
X216899075Y-26180513D01*
X216873403Y-26194235D01*
X216850901Y-26212701D01*
X216832435Y-26235203D01*
X216818713Y-26260875D01*
X216810262Y-26288734D01*
X216807400Y-26317794D01*
X216807400Y-27618606D01*
X216810262Y-27647666D01*
X216818713Y-27675525D01*
X216832435Y-27701197D01*
X216850901Y-27723699D01*
X216873403Y-27742165D01*
X216899075Y-27755887D01*
X216926934Y-27764338D01*
X216956096Y-27767210D01*
X216957722Y-27768375D01*
X216957526Y-27770365D01*
X216955900Y-27771200D01*
X216899541Y-27771200D01*
X216899345Y-27771190D01*
X216876153Y-27768906D01*
X216875768Y-27768830D01*
X216859376Y-27763857D01*
X216859014Y-27763707D01*
X216843902Y-27755630D01*
X216843576Y-27755412D01*
X216830333Y-27744544D01*
X216830056Y-27744267D01*
X216819187Y-27731022D01*
X216818969Y-27730696D01*
X216814920Y-27723121D01*
X216801472Y-27702994D01*
X216784425Y-27685947D01*
X216764377Y-27672552D01*
X216742104Y-27663326D01*
X216718453Y-27658621D01*
X216694347Y-27658621D01*
X216670697Y-27663325D01*
X216648423Y-27672552D01*
X216628376Y-27685946D01*
X216611329Y-27702993D01*
X216597880Y-27723121D01*
X216593831Y-27730696D01*
X216593613Y-27731022D01*
X216582744Y-27744267D01*
X216582467Y-27744544D01*
X216569224Y-27755412D01*
X216568898Y-27755630D01*
X216553786Y-27763707D01*
X216553424Y-27763857D01*
X216537032Y-27768830D01*
X216536647Y-27768906D01*
X216513455Y-27771190D01*
X216513259Y-27771200D01*
X216456900Y-27771200D01*
X216455168Y-27770200D01*
X216455168Y-27768200D01*
X216456704Y-27767210D01*
X216485866Y-27764338D01*
X216513725Y-27755887D01*
X216539397Y-27742165D01*
X216561899Y-27723699D01*
X216580365Y-27701197D01*
X216594087Y-27675525D01*
X216602538Y-27647666D01*
X216605400Y-27618606D01*
X216605400Y-26317794D01*
X216602538Y-26288734D01*
X216594087Y-26260875D01*
X216580365Y-26235203D01*
X216561899Y-26212701D01*
X216539397Y-26194235D01*
X216513725Y-26180513D01*
X216485866Y-26172062D01*
X216456704Y-26169190D01*
X216455078Y-26168025D01*
X216455274Y-26166035D01*
X216456900Y-26165200D01*
X216513259Y-26165200D01*
X216513455Y-26165210D01*
G37*
G36*
X214913455Y-26165210D02*
G01*
X214936647Y-26167494D01*
X214937032Y-26167570D01*
X214953424Y-26172543D01*
X214953786Y-26172693D01*
X214968898Y-26180770D01*
X214969224Y-26180988D01*
X214982467Y-26191856D01*
X214982744Y-26192133D01*
X214993613Y-26205378D01*
X214993831Y-26205704D01*
X214997880Y-26213279D01*
X215011328Y-26233406D01*
X215028375Y-26250453D01*
X215048423Y-26263848D01*
X215070696Y-26273074D01*
X215094347Y-26277779D01*
X215118453Y-26277779D01*
X215142103Y-26273075D01*
X215164377Y-26263848D01*
X215184424Y-26250454D01*
X215201471Y-26233407D01*
X215214920Y-26213279D01*
X215218969Y-26205704D01*
X215219187Y-26205378D01*
X215230056Y-26192133D01*
X215230333Y-26191856D01*
X215243576Y-26180988D01*
X215243902Y-26180770D01*
X215259014Y-26172693D01*
X215259376Y-26172543D01*
X215275768Y-26167570D01*
X215276153Y-26167494D01*
X215299345Y-26165210D01*
X215299541Y-26165200D01*
X215355900Y-26165200D01*
X215357632Y-26166200D01*
X215357632Y-26168200D01*
X215356096Y-26169190D01*
X215326934Y-26172062D01*
X215299075Y-26180513D01*
X215273403Y-26194235D01*
X215250901Y-26212701D01*
X215232435Y-26235203D01*
X215218713Y-26260875D01*
X215210262Y-26288734D01*
X215207400Y-26317794D01*
X215207400Y-27618606D01*
X215210262Y-27647666D01*
X215218713Y-27675525D01*
X215232435Y-27701197D01*
X215250901Y-27723699D01*
X215273403Y-27742165D01*
X215299075Y-27755887D01*
X215326934Y-27764338D01*
X215356096Y-27767210D01*
X215357722Y-27768375D01*
X215357526Y-27770365D01*
X215355900Y-27771200D01*
X215299541Y-27771200D01*
X215299345Y-27771190D01*
X215276153Y-27768906D01*
X215275768Y-27768830D01*
X215259376Y-27763857D01*
X215259014Y-27763707D01*
X215243902Y-27755630D01*
X215243576Y-27755412D01*
X215230333Y-27744544D01*
X215230056Y-27744267D01*
X215219187Y-27731022D01*
X215218969Y-27730696D01*
X215214920Y-27723121D01*
X215201472Y-27702994D01*
X215184425Y-27685947D01*
X215164377Y-27672552D01*
X215142104Y-27663326D01*
X215118453Y-27658621D01*
X215094347Y-27658621D01*
X215070697Y-27663325D01*
X215048423Y-27672552D01*
X215028376Y-27685946D01*
X215011329Y-27702993D01*
X214997880Y-27723121D01*
X214993831Y-27730696D01*
X214993613Y-27731022D01*
X214982744Y-27744267D01*
X214982467Y-27744544D01*
X214969224Y-27755412D01*
X214968898Y-27755630D01*
X214953786Y-27763707D01*
X214953424Y-27763857D01*
X214937032Y-27768830D01*
X214936647Y-27768906D01*
X214913455Y-27771190D01*
X214913259Y-27771200D01*
X214856900Y-27771200D01*
X214855168Y-27770200D01*
X214855168Y-27768200D01*
X214856704Y-27767210D01*
X214885866Y-27764338D01*
X214913725Y-27755887D01*
X214939397Y-27742165D01*
X214961899Y-27723699D01*
X214980365Y-27701197D01*
X214994087Y-27675525D01*
X215002538Y-27647666D01*
X215005400Y-27618606D01*
X215005400Y-26317794D01*
X215002538Y-26288734D01*
X214994087Y-26260875D01*
X214980365Y-26235203D01*
X214961899Y-26212701D01*
X214939397Y-26194235D01*
X214913725Y-26180513D01*
X214885866Y-26172062D01*
X214856704Y-26169190D01*
X214855078Y-26168025D01*
X214855274Y-26166035D01*
X214856900Y-26165200D01*
X214913259Y-26165200D01*
X214913455Y-26165210D01*
G37*
G36*
X215713455Y-26165210D02*
G01*
X215736647Y-26167494D01*
X215737032Y-26167570D01*
X215753424Y-26172543D01*
X215753786Y-26172693D01*
X215768898Y-26180770D01*
X215769224Y-26180988D01*
X215782467Y-26191856D01*
X215782744Y-26192133D01*
X215793613Y-26205378D01*
X215793831Y-26205704D01*
X215797880Y-26213279D01*
X215811328Y-26233406D01*
X215828375Y-26250453D01*
X215848423Y-26263848D01*
X215870696Y-26273074D01*
X215894347Y-26277779D01*
X215918453Y-26277779D01*
X215942103Y-26273075D01*
X215964377Y-26263848D01*
X215984424Y-26250454D01*
X216001471Y-26233407D01*
X216014920Y-26213279D01*
X216018969Y-26205704D01*
X216019187Y-26205378D01*
X216030056Y-26192133D01*
X216030333Y-26191856D01*
X216043576Y-26180988D01*
X216043902Y-26180770D01*
X216059014Y-26172693D01*
X216059376Y-26172543D01*
X216075768Y-26167570D01*
X216076153Y-26167494D01*
X216099345Y-26165210D01*
X216099541Y-26165200D01*
X216155900Y-26165200D01*
X216157632Y-26166200D01*
X216157632Y-26168200D01*
X216156096Y-26169190D01*
X216126934Y-26172062D01*
X216099075Y-26180513D01*
X216073403Y-26194235D01*
X216050901Y-26212701D01*
X216032435Y-26235203D01*
X216018713Y-26260875D01*
X216010262Y-26288734D01*
X216007400Y-26317794D01*
X216007400Y-27618606D01*
X216010262Y-27647666D01*
X216018713Y-27675525D01*
X216032435Y-27701197D01*
X216050901Y-27723699D01*
X216073403Y-27742165D01*
X216099075Y-27755887D01*
X216126934Y-27764338D01*
X216156096Y-27767210D01*
X216157722Y-27768375D01*
X216157526Y-27770365D01*
X216155900Y-27771200D01*
X216099541Y-27771200D01*
X216099345Y-27771190D01*
X216076153Y-27768906D01*
X216075768Y-27768830D01*
X216059376Y-27763857D01*
X216059014Y-27763707D01*
X216043902Y-27755630D01*
X216043576Y-27755412D01*
X216030333Y-27744544D01*
X216030056Y-27744267D01*
X216019187Y-27731022D01*
X216018969Y-27730696D01*
X216014920Y-27723121D01*
X216001472Y-27702994D01*
X215984425Y-27685947D01*
X215964377Y-27672552D01*
X215942104Y-27663326D01*
X215918453Y-27658621D01*
X215894347Y-27658621D01*
X215870697Y-27663325D01*
X215848423Y-27672552D01*
X215828376Y-27685946D01*
X215811329Y-27702993D01*
X215797880Y-27723121D01*
X215793831Y-27730696D01*
X215793613Y-27731022D01*
X215782744Y-27744267D01*
X215782467Y-27744544D01*
X215769224Y-27755412D01*
X215768898Y-27755630D01*
X215753786Y-27763707D01*
X215753424Y-27763857D01*
X215737032Y-27768830D01*
X215736647Y-27768906D01*
X215713455Y-27771190D01*
X215713259Y-27771200D01*
X215656900Y-27771200D01*
X215655168Y-27770200D01*
X215655168Y-27768200D01*
X215656704Y-27767210D01*
X215685866Y-27764338D01*
X215713725Y-27755887D01*
X215739397Y-27742165D01*
X215761899Y-27723699D01*
X215780365Y-27701197D01*
X215794087Y-27675525D01*
X215802538Y-27647666D01*
X215805400Y-27618606D01*
X215805400Y-26317794D01*
X215802538Y-26288734D01*
X215794087Y-26260875D01*
X215780365Y-26235203D01*
X215761899Y-26212701D01*
X215739397Y-26194235D01*
X215713725Y-26180513D01*
X215685866Y-26172062D01*
X215656704Y-26169190D01*
X215655078Y-26168025D01*
X215655274Y-26166035D01*
X215656900Y-26165200D01*
X215713259Y-26165200D01*
X215713455Y-26165210D01*
G37*
G36*
X218113455Y-26165210D02*
G01*
X218136647Y-26167494D01*
X218137032Y-26167570D01*
X218153424Y-26172543D01*
X218153786Y-26172693D01*
X218168898Y-26180770D01*
X218169224Y-26180988D01*
X218182467Y-26191856D01*
X218182744Y-26192133D01*
X218193613Y-26205378D01*
X218193831Y-26205704D01*
X218197880Y-26213279D01*
X218211328Y-26233406D01*
X218228375Y-26250453D01*
X218248423Y-26263848D01*
X218270696Y-26273074D01*
X218294347Y-26277779D01*
X218318453Y-26277779D01*
X218342103Y-26273075D01*
X218364377Y-26263848D01*
X218384424Y-26250454D01*
X218401471Y-26233407D01*
X218414920Y-26213279D01*
X218418969Y-26205704D01*
X218419187Y-26205378D01*
X218430056Y-26192133D01*
X218430333Y-26191856D01*
X218443576Y-26180988D01*
X218443902Y-26180770D01*
X218459014Y-26172693D01*
X218459376Y-26172543D01*
X218475768Y-26167570D01*
X218476153Y-26167494D01*
X218499345Y-26165210D01*
X218499541Y-26165200D01*
X218555900Y-26165200D01*
X218557632Y-26166200D01*
X218557632Y-26168200D01*
X218556096Y-26169190D01*
X218526934Y-26172062D01*
X218499075Y-26180513D01*
X218473403Y-26194235D01*
X218450901Y-26212701D01*
X218432435Y-26235203D01*
X218418713Y-26260875D01*
X218410262Y-26288734D01*
X218407400Y-26317794D01*
X218407400Y-27618606D01*
X218410262Y-27647666D01*
X218418713Y-27675525D01*
X218432435Y-27701197D01*
X218450901Y-27723699D01*
X218473403Y-27742165D01*
X218499075Y-27755887D01*
X218526934Y-27764338D01*
X218556096Y-27767210D01*
X218557722Y-27768375D01*
X218557526Y-27770365D01*
X218555900Y-27771200D01*
X218499541Y-27771200D01*
X218499345Y-27771190D01*
X218476153Y-27768906D01*
X218475768Y-27768830D01*
X218459376Y-27763857D01*
X218459014Y-27763707D01*
X218443902Y-27755630D01*
X218443576Y-27755412D01*
X218430333Y-27744544D01*
X218430056Y-27744267D01*
X218419187Y-27731022D01*
X218418969Y-27730696D01*
X218414920Y-27723121D01*
X218401472Y-27702994D01*
X218384425Y-27685947D01*
X218364377Y-27672552D01*
X218342104Y-27663326D01*
X218318453Y-27658621D01*
X218294347Y-27658621D01*
X218270697Y-27663325D01*
X218248423Y-27672552D01*
X218228376Y-27685946D01*
X218211329Y-27702993D01*
X218197880Y-27723121D01*
X218193831Y-27730696D01*
X218193613Y-27731022D01*
X218182744Y-27744267D01*
X218182467Y-27744544D01*
X218169224Y-27755412D01*
X218168898Y-27755630D01*
X218153786Y-27763707D01*
X218153424Y-27763857D01*
X218137032Y-27768830D01*
X218136647Y-27768906D01*
X218113455Y-27771190D01*
X218113259Y-27771200D01*
X218056900Y-27771200D01*
X218055168Y-27770200D01*
X218055168Y-27768200D01*
X218056704Y-27767210D01*
X218085866Y-27764338D01*
X218113725Y-27755887D01*
X218139397Y-27742165D01*
X218161899Y-27723699D01*
X218180365Y-27701197D01*
X218194087Y-27675525D01*
X218202538Y-27647666D01*
X218205400Y-27618606D01*
X218205400Y-26317794D01*
X218202538Y-26288734D01*
X218194087Y-26260875D01*
X218180365Y-26235203D01*
X218161899Y-26212701D01*
X218139397Y-26194235D01*
X218113725Y-26180513D01*
X218085866Y-26172062D01*
X218056704Y-26169190D01*
X218055078Y-26168025D01*
X218055274Y-26166035D01*
X218056900Y-26165200D01*
X218113259Y-26165200D01*
X218113455Y-26165210D01*
G37*
G36*
X218913455Y-26165210D02*
G01*
X218936647Y-26167494D01*
X218937032Y-26167570D01*
X218953424Y-26172543D01*
X218953786Y-26172693D01*
X218968898Y-26180770D01*
X218969224Y-26180988D01*
X218982467Y-26191856D01*
X218982744Y-26192133D01*
X218993613Y-26205378D01*
X218993831Y-26205704D01*
X218997880Y-26213279D01*
X219011328Y-26233406D01*
X219028375Y-26250453D01*
X219048423Y-26263848D01*
X219070696Y-26273074D01*
X219094347Y-26277779D01*
X219118453Y-26277779D01*
X219142103Y-26273075D01*
X219164377Y-26263848D01*
X219184424Y-26250454D01*
X219201471Y-26233407D01*
X219214920Y-26213279D01*
X219218969Y-26205704D01*
X219219187Y-26205378D01*
X219230056Y-26192133D01*
X219230333Y-26191856D01*
X219243576Y-26180988D01*
X219243902Y-26180770D01*
X219259014Y-26172693D01*
X219259376Y-26172543D01*
X219275768Y-26167570D01*
X219276153Y-26167494D01*
X219299345Y-26165210D01*
X219299541Y-26165200D01*
X219355900Y-26165200D01*
X219357632Y-26166200D01*
X219357632Y-26168200D01*
X219356096Y-26169190D01*
X219326934Y-26172062D01*
X219299075Y-26180513D01*
X219273403Y-26194235D01*
X219250901Y-26212701D01*
X219232435Y-26235203D01*
X219218713Y-26260875D01*
X219210262Y-26288734D01*
X219207400Y-26317794D01*
X219207400Y-27618606D01*
X219210262Y-27647666D01*
X219218713Y-27675525D01*
X219232435Y-27701197D01*
X219250901Y-27723699D01*
X219273403Y-27742165D01*
X219299075Y-27755887D01*
X219326934Y-27764338D01*
X219356096Y-27767210D01*
X219357722Y-27768375D01*
X219357526Y-27770365D01*
X219355900Y-27771200D01*
X219299541Y-27771200D01*
X219299345Y-27771190D01*
X219276153Y-27768906D01*
X219275768Y-27768830D01*
X219259376Y-27763857D01*
X219259014Y-27763707D01*
X219243902Y-27755630D01*
X219243576Y-27755412D01*
X219230333Y-27744544D01*
X219230056Y-27744267D01*
X219219187Y-27731022D01*
X219218969Y-27730696D01*
X219214920Y-27723121D01*
X219201472Y-27702994D01*
X219184425Y-27685947D01*
X219164377Y-27672552D01*
X219142104Y-27663326D01*
X219118453Y-27658621D01*
X219094347Y-27658621D01*
X219070697Y-27663325D01*
X219048423Y-27672552D01*
X219028376Y-27685946D01*
X219011329Y-27702993D01*
X218997880Y-27723121D01*
X218993831Y-27730696D01*
X218993613Y-27731022D01*
X218982744Y-27744267D01*
X218982467Y-27744544D01*
X218969224Y-27755412D01*
X218968898Y-27755630D01*
X218953786Y-27763707D01*
X218953424Y-27763857D01*
X218937032Y-27768830D01*
X218936647Y-27768906D01*
X218913455Y-27771190D01*
X218913259Y-27771200D01*
X218856900Y-27771200D01*
X218855168Y-27770200D01*
X218855168Y-27768200D01*
X218856704Y-27767210D01*
X218885866Y-27764338D01*
X218913725Y-27755887D01*
X218939397Y-27742165D01*
X218961899Y-27723699D01*
X218980365Y-27701197D01*
X218994087Y-27675525D01*
X219002538Y-27647666D01*
X219005400Y-27618606D01*
X219005400Y-26317794D01*
X219002538Y-26288734D01*
X218994087Y-26260875D01*
X218980365Y-26235203D01*
X218961899Y-26212701D01*
X218939397Y-26194235D01*
X218913725Y-26180513D01*
X218885866Y-26172062D01*
X218856704Y-26169190D01*
X218855078Y-26168025D01*
X218855274Y-26166035D01*
X218856900Y-26165200D01*
X218913259Y-26165200D01*
X218913455Y-26165210D01*
G37*
G36*
X217313455Y-26165210D02*
G01*
X217336647Y-26167494D01*
X217337032Y-26167570D01*
X217353424Y-26172543D01*
X217353786Y-26172693D01*
X217368898Y-26180770D01*
X217369224Y-26180988D01*
X217382467Y-26191856D01*
X217382744Y-26192133D01*
X217393613Y-26205378D01*
X217393831Y-26205704D01*
X217397880Y-26213279D01*
X217411328Y-26233406D01*
X217428375Y-26250453D01*
X217448423Y-26263848D01*
X217470696Y-26273074D01*
X217494347Y-26277779D01*
X217518453Y-26277779D01*
X217542103Y-26273075D01*
X217564377Y-26263848D01*
X217584424Y-26250454D01*
X217601471Y-26233407D01*
X217614920Y-26213279D01*
X217618969Y-26205704D01*
X217619187Y-26205378D01*
X217630056Y-26192133D01*
X217630333Y-26191856D01*
X217643576Y-26180988D01*
X217643902Y-26180770D01*
X217659014Y-26172693D01*
X217659376Y-26172543D01*
X217675768Y-26167570D01*
X217676153Y-26167494D01*
X217699345Y-26165210D01*
X217699541Y-26165200D01*
X217755900Y-26165200D01*
X217757632Y-26166200D01*
X217757632Y-26168200D01*
X217756096Y-26169190D01*
X217726934Y-26172062D01*
X217699075Y-26180513D01*
X217673403Y-26194235D01*
X217650901Y-26212701D01*
X217632435Y-26235203D01*
X217618713Y-26260875D01*
X217610262Y-26288734D01*
X217607400Y-26317794D01*
X217607400Y-27618606D01*
X217610262Y-27647666D01*
X217618713Y-27675525D01*
X217632435Y-27701197D01*
X217650901Y-27723699D01*
X217673403Y-27742165D01*
X217699075Y-27755887D01*
X217726934Y-27764338D01*
X217756096Y-27767210D01*
X217757722Y-27768375D01*
X217757526Y-27770365D01*
X217755900Y-27771200D01*
X217699541Y-27771200D01*
X217699345Y-27771190D01*
X217676153Y-27768906D01*
X217675768Y-27768830D01*
X217659376Y-27763857D01*
X217659014Y-27763707D01*
X217643902Y-27755630D01*
X217643576Y-27755412D01*
X217630333Y-27744544D01*
X217630056Y-27744267D01*
X217619187Y-27731022D01*
X217618969Y-27730696D01*
X217614920Y-27723121D01*
X217601472Y-27702994D01*
X217584425Y-27685947D01*
X217564377Y-27672552D01*
X217542104Y-27663326D01*
X217518453Y-27658621D01*
X217494347Y-27658621D01*
X217470697Y-27663325D01*
X217448423Y-27672552D01*
X217428376Y-27685946D01*
X217411329Y-27702993D01*
X217397880Y-27723121D01*
X217393831Y-27730696D01*
X217393613Y-27731022D01*
X217382744Y-27744267D01*
X217382467Y-27744544D01*
X217369224Y-27755412D01*
X217368898Y-27755630D01*
X217353786Y-27763707D01*
X217353424Y-27763857D01*
X217337032Y-27768830D01*
X217336647Y-27768906D01*
X217313455Y-27771190D01*
X217313259Y-27771200D01*
X217256900Y-27771200D01*
X217255168Y-27770200D01*
X217255168Y-27768200D01*
X217256704Y-27767210D01*
X217285866Y-27764338D01*
X217313725Y-27755887D01*
X217339397Y-27742165D01*
X217361899Y-27723699D01*
X217380365Y-27701197D01*
X217394087Y-27675525D01*
X217402538Y-27647666D01*
X217405400Y-27618606D01*
X217405400Y-26317794D01*
X217402538Y-26288734D01*
X217394087Y-26260875D01*
X217380365Y-26235203D01*
X217361899Y-26212701D01*
X217339397Y-26194235D01*
X217313725Y-26180513D01*
X217285866Y-26172062D01*
X217256704Y-26169190D01*
X217255078Y-26168025D01*
X217255274Y-26166035D01*
X217256900Y-26165200D01*
X217313259Y-26165200D01*
X217313455Y-26165210D01*
G37*
G36*
X213333565Y-24942074D02*
G01*
X213334400Y-24943700D01*
X213334400Y-25000059D01*
X213334390Y-25000255D01*
X213332106Y-25023447D01*
X213332030Y-25023832D01*
X213327057Y-25040224D01*
X213326907Y-25040586D01*
X213318830Y-25055698D01*
X213318612Y-25056024D01*
X213307744Y-25069267D01*
X213307467Y-25069544D01*
X213294222Y-25080413D01*
X213293896Y-25080631D01*
X213286321Y-25084680D01*
X213266194Y-25098128D01*
X213249147Y-25115175D01*
X213235752Y-25135223D01*
X213226526Y-25157496D01*
X213221821Y-25181147D01*
X213221821Y-25205253D01*
X213226525Y-25228903D01*
X213235752Y-25251177D01*
X213249146Y-25271224D01*
X213266193Y-25288271D01*
X213286321Y-25301720D01*
X213293896Y-25305769D01*
X213294222Y-25305987D01*
X213307467Y-25316856D01*
X213307744Y-25317133D01*
X213318612Y-25330376D01*
X213318830Y-25330702D01*
X213326907Y-25345814D01*
X213327057Y-25346176D01*
X213332030Y-25362568D01*
X213332106Y-25362953D01*
X213334390Y-25386145D01*
X213334400Y-25386341D01*
X213334400Y-25442700D01*
X213333400Y-25444432D01*
X213331400Y-25444432D01*
X213330410Y-25442896D01*
X213327538Y-25413734D01*
X213319087Y-25385875D01*
X213305365Y-25360203D01*
X213286899Y-25337701D01*
X213264397Y-25319235D01*
X213238725Y-25305513D01*
X213210866Y-25297062D01*
X213181806Y-25294200D01*
X211880994Y-25294200D01*
X211851934Y-25297062D01*
X211824075Y-25305513D01*
X211798403Y-25319235D01*
X211775901Y-25337701D01*
X211757435Y-25360203D01*
X211743713Y-25385875D01*
X211735262Y-25413734D01*
X211732390Y-25442896D01*
X211731225Y-25444522D01*
X211729235Y-25444326D01*
X211728400Y-25442700D01*
X211728400Y-25386341D01*
X211728410Y-25386145D01*
X211730694Y-25362953D01*
X211730770Y-25362568D01*
X211735743Y-25346176D01*
X211735893Y-25345814D01*
X211743970Y-25330702D01*
X211744188Y-25330376D01*
X211755056Y-25317133D01*
X211755333Y-25316856D01*
X211768578Y-25305987D01*
X211768904Y-25305769D01*
X211776479Y-25301720D01*
X211796606Y-25288272D01*
X211813653Y-25271225D01*
X211827048Y-25251177D01*
X211836274Y-25228904D01*
X211840979Y-25205253D01*
X211840979Y-25181147D01*
X211836275Y-25157497D01*
X211827048Y-25135223D01*
X211813654Y-25115176D01*
X211796607Y-25098129D01*
X211776479Y-25084680D01*
X211768904Y-25080631D01*
X211768578Y-25080413D01*
X211755333Y-25069544D01*
X211755056Y-25069267D01*
X211744188Y-25056024D01*
X211743970Y-25055698D01*
X211735893Y-25040586D01*
X211735743Y-25040224D01*
X211730770Y-25023832D01*
X211730694Y-25023447D01*
X211728410Y-25000255D01*
X211728400Y-25000059D01*
X211728400Y-24943700D01*
X211729400Y-24941968D01*
X211731400Y-24941968D01*
X211732390Y-24943504D01*
X211735262Y-24972666D01*
X211743713Y-25000525D01*
X211757435Y-25026197D01*
X211775901Y-25048699D01*
X211798403Y-25067165D01*
X211824075Y-25080887D01*
X211851934Y-25089338D01*
X211880994Y-25092200D01*
X213181806Y-25092200D01*
X213210866Y-25089338D01*
X213238725Y-25080887D01*
X213264397Y-25067165D01*
X213286899Y-25048699D01*
X213305365Y-25026197D01*
X213319087Y-25000525D01*
X213327538Y-24972666D01*
X213330410Y-24943504D01*
X213331575Y-24941878D01*
X213333565Y-24942074D01*
G37*
G36*
X221683565Y-24942074D02*
G01*
X221684400Y-24943700D01*
X221684400Y-25000059D01*
X221684390Y-25000255D01*
X221682106Y-25023447D01*
X221682030Y-25023832D01*
X221677057Y-25040224D01*
X221676907Y-25040586D01*
X221668830Y-25055698D01*
X221668612Y-25056024D01*
X221657744Y-25069267D01*
X221657467Y-25069544D01*
X221644222Y-25080413D01*
X221643896Y-25080631D01*
X221636321Y-25084680D01*
X221616194Y-25098128D01*
X221599147Y-25115175D01*
X221585752Y-25135223D01*
X221576526Y-25157496D01*
X221571821Y-25181147D01*
X221571821Y-25205253D01*
X221576525Y-25228903D01*
X221585752Y-25251177D01*
X221599146Y-25271224D01*
X221616193Y-25288271D01*
X221636321Y-25301720D01*
X221643896Y-25305769D01*
X221644222Y-25305987D01*
X221657467Y-25316856D01*
X221657744Y-25317133D01*
X221668612Y-25330376D01*
X221668830Y-25330702D01*
X221676907Y-25345814D01*
X221677057Y-25346176D01*
X221682030Y-25362568D01*
X221682106Y-25362953D01*
X221684390Y-25386145D01*
X221684400Y-25386341D01*
X221684400Y-25442700D01*
X221683400Y-25444432D01*
X221681400Y-25444432D01*
X221680410Y-25442896D01*
X221677538Y-25413734D01*
X221669087Y-25385875D01*
X221655365Y-25360203D01*
X221636899Y-25337701D01*
X221614397Y-25319235D01*
X221588725Y-25305513D01*
X221560866Y-25297062D01*
X221531806Y-25294200D01*
X220230994Y-25294200D01*
X220201934Y-25297062D01*
X220174075Y-25305513D01*
X220148403Y-25319235D01*
X220125901Y-25337701D01*
X220107435Y-25360203D01*
X220093713Y-25385875D01*
X220085262Y-25413734D01*
X220082390Y-25442896D01*
X220081225Y-25444522D01*
X220079235Y-25444326D01*
X220078400Y-25442700D01*
X220078400Y-25386341D01*
X220078410Y-25386145D01*
X220080694Y-25362953D01*
X220080770Y-25362568D01*
X220085743Y-25346176D01*
X220085893Y-25345814D01*
X220093970Y-25330702D01*
X220094188Y-25330376D01*
X220105056Y-25317133D01*
X220105333Y-25316856D01*
X220118578Y-25305987D01*
X220118904Y-25305769D01*
X220126479Y-25301720D01*
X220146606Y-25288272D01*
X220163653Y-25271225D01*
X220177048Y-25251177D01*
X220186274Y-25228904D01*
X220190979Y-25205253D01*
X220190979Y-25181147D01*
X220186275Y-25157497D01*
X220177048Y-25135223D01*
X220163654Y-25115176D01*
X220146607Y-25098129D01*
X220126479Y-25084680D01*
X220118904Y-25080631D01*
X220118578Y-25080413D01*
X220105333Y-25069544D01*
X220105056Y-25069267D01*
X220094188Y-25056024D01*
X220093970Y-25055698D01*
X220085893Y-25040586D01*
X220085743Y-25040224D01*
X220080770Y-25023832D01*
X220080694Y-25023447D01*
X220078410Y-25000255D01*
X220078400Y-25000059D01*
X220078400Y-24943700D01*
X220079400Y-24941968D01*
X220081400Y-24941968D01*
X220082390Y-24943504D01*
X220085262Y-24972666D01*
X220093713Y-25000525D01*
X220107435Y-25026197D01*
X220125901Y-25048699D01*
X220148403Y-25067165D01*
X220174075Y-25080887D01*
X220201934Y-25089338D01*
X220230994Y-25092200D01*
X221531806Y-25092200D01*
X221560866Y-25089338D01*
X221588725Y-25080887D01*
X221614397Y-25067165D01*
X221636899Y-25048699D01*
X221655365Y-25026197D01*
X221669087Y-25000525D01*
X221677538Y-24972666D01*
X221680410Y-24943504D01*
X221681575Y-24941878D01*
X221683565Y-24942074D01*
G37*
G36*
X221683565Y-24142074D02*
G01*
X221684400Y-24143700D01*
X221684400Y-24200059D01*
X221684390Y-24200255D01*
X221682106Y-24223447D01*
X221682030Y-24223832D01*
X221677057Y-24240224D01*
X221676907Y-24240586D01*
X221668830Y-24255698D01*
X221668612Y-24256024D01*
X221657744Y-24269267D01*
X221657467Y-24269544D01*
X221644222Y-24280413D01*
X221643896Y-24280631D01*
X221636321Y-24284680D01*
X221616194Y-24298128D01*
X221599147Y-24315175D01*
X221585752Y-24335223D01*
X221576526Y-24357496D01*
X221571821Y-24381147D01*
X221571821Y-24405253D01*
X221576525Y-24428903D01*
X221585752Y-24451177D01*
X221599146Y-24471224D01*
X221616193Y-24488271D01*
X221636321Y-24501720D01*
X221643896Y-24505769D01*
X221644222Y-24505987D01*
X221657467Y-24516856D01*
X221657744Y-24517133D01*
X221668612Y-24530376D01*
X221668830Y-24530702D01*
X221676907Y-24545814D01*
X221677057Y-24546176D01*
X221682030Y-24562568D01*
X221682106Y-24562953D01*
X221684390Y-24586145D01*
X221684400Y-24586341D01*
X221684400Y-24642700D01*
X221683400Y-24644432D01*
X221681400Y-24644432D01*
X221680410Y-24642896D01*
X221677538Y-24613734D01*
X221669087Y-24585875D01*
X221655365Y-24560203D01*
X221636899Y-24537701D01*
X221614397Y-24519235D01*
X221588725Y-24505513D01*
X221560866Y-24497062D01*
X221531806Y-24494200D01*
X220230994Y-24494200D01*
X220201934Y-24497062D01*
X220174075Y-24505513D01*
X220148403Y-24519235D01*
X220125901Y-24537701D01*
X220107435Y-24560203D01*
X220093713Y-24585875D01*
X220085262Y-24613734D01*
X220082390Y-24642896D01*
X220081225Y-24644522D01*
X220079235Y-24644326D01*
X220078400Y-24642700D01*
X220078400Y-24586341D01*
X220078410Y-24586145D01*
X220080694Y-24562953D01*
X220080770Y-24562568D01*
X220085743Y-24546176D01*
X220085893Y-24545814D01*
X220093970Y-24530702D01*
X220094188Y-24530376D01*
X220105056Y-24517133D01*
X220105333Y-24516856D01*
X220118578Y-24505987D01*
X220118904Y-24505769D01*
X220126479Y-24501720D01*
X220146606Y-24488272D01*
X220163653Y-24471225D01*
X220177048Y-24451177D01*
X220186274Y-24428904D01*
X220190979Y-24405253D01*
X220190979Y-24381147D01*
X220186275Y-24357497D01*
X220177048Y-24335223D01*
X220163654Y-24315176D01*
X220146607Y-24298129D01*
X220126479Y-24284680D01*
X220118904Y-24280631D01*
X220118578Y-24280413D01*
X220105333Y-24269544D01*
X220105056Y-24269267D01*
X220094188Y-24256024D01*
X220093970Y-24255698D01*
X220085893Y-24240586D01*
X220085743Y-24240224D01*
X220080770Y-24223832D01*
X220080694Y-24223447D01*
X220078410Y-24200255D01*
X220078400Y-24200059D01*
X220078400Y-24143700D01*
X220079400Y-24141968D01*
X220081400Y-24141968D01*
X220082390Y-24143504D01*
X220085262Y-24172666D01*
X220093713Y-24200525D01*
X220107435Y-24226197D01*
X220125901Y-24248699D01*
X220148403Y-24267165D01*
X220174075Y-24280887D01*
X220201934Y-24289338D01*
X220230994Y-24292200D01*
X221531806Y-24292200D01*
X221560866Y-24289338D01*
X221588725Y-24280887D01*
X221614397Y-24267165D01*
X221636899Y-24248699D01*
X221655365Y-24226197D01*
X221669087Y-24200525D01*
X221677538Y-24172666D01*
X221680410Y-24143504D01*
X221681575Y-24141878D01*
X221683565Y-24142074D01*
G37*
G36*
X213333565Y-24142074D02*
G01*
X213334400Y-24143700D01*
X213334400Y-24200059D01*
X213334390Y-24200255D01*
X213332106Y-24223447D01*
X213332030Y-24223832D01*
X213327057Y-24240224D01*
X213326907Y-24240586D01*
X213318830Y-24255698D01*
X213318612Y-24256024D01*
X213307744Y-24269267D01*
X213307467Y-24269544D01*
X213294222Y-24280413D01*
X213293896Y-24280631D01*
X213286321Y-24284680D01*
X213266194Y-24298128D01*
X213249147Y-24315175D01*
X213235752Y-24335223D01*
X213226526Y-24357496D01*
X213221821Y-24381147D01*
X213221821Y-24405253D01*
X213226525Y-24428903D01*
X213235752Y-24451177D01*
X213249146Y-24471224D01*
X213266193Y-24488271D01*
X213286321Y-24501720D01*
X213293896Y-24505769D01*
X213294222Y-24505987D01*
X213307467Y-24516856D01*
X213307744Y-24517133D01*
X213318612Y-24530376D01*
X213318830Y-24530702D01*
X213326907Y-24545814D01*
X213327057Y-24546176D01*
X213332030Y-24562568D01*
X213332106Y-24562953D01*
X213334390Y-24586145D01*
X213334400Y-24586341D01*
X213334400Y-24642700D01*
X213333400Y-24644432D01*
X213331400Y-24644432D01*
X213330410Y-24642896D01*
X213327538Y-24613734D01*
X213319087Y-24585875D01*
X213305365Y-24560203D01*
X213286899Y-24537701D01*
X213264397Y-24519235D01*
X213238725Y-24505513D01*
X213210866Y-24497062D01*
X213181806Y-24494200D01*
X211880994Y-24494200D01*
X211851934Y-24497062D01*
X211824075Y-24505513D01*
X211798403Y-24519235D01*
X211775901Y-24537701D01*
X211757435Y-24560203D01*
X211743713Y-24585875D01*
X211735262Y-24613734D01*
X211732390Y-24642896D01*
X211731225Y-24644522D01*
X211729235Y-24644326D01*
X211728400Y-24642700D01*
X211728400Y-24586341D01*
X211728410Y-24586145D01*
X211730694Y-24562953D01*
X211730770Y-24562568D01*
X211735743Y-24546176D01*
X211735893Y-24545814D01*
X211743970Y-24530702D01*
X211744188Y-24530376D01*
X211755056Y-24517133D01*
X211755333Y-24516856D01*
X211768578Y-24505987D01*
X211768904Y-24505769D01*
X211776479Y-24501720D01*
X211796606Y-24488272D01*
X211813653Y-24471225D01*
X211827048Y-24451177D01*
X211836274Y-24428904D01*
X211840979Y-24405253D01*
X211840979Y-24381147D01*
X211836275Y-24357497D01*
X211827048Y-24335223D01*
X211813654Y-24315176D01*
X211796607Y-24298129D01*
X211776479Y-24284680D01*
X211768904Y-24280631D01*
X211768578Y-24280413D01*
X211755333Y-24269544D01*
X211755056Y-24269267D01*
X211744188Y-24256024D01*
X211743970Y-24255698D01*
X211735893Y-24240586D01*
X211735743Y-24240224D01*
X211730770Y-24223832D01*
X211730694Y-24223447D01*
X211728410Y-24200255D01*
X211728400Y-24200059D01*
X211728400Y-24143700D01*
X211729400Y-24141968D01*
X211731400Y-24141968D01*
X211732390Y-24143504D01*
X211735262Y-24172666D01*
X211743713Y-24200525D01*
X211757435Y-24226197D01*
X211775901Y-24248699D01*
X211798403Y-24267165D01*
X211824075Y-24280887D01*
X211851934Y-24289338D01*
X211880994Y-24292200D01*
X213181806Y-24292200D01*
X213210866Y-24289338D01*
X213238725Y-24280887D01*
X213264397Y-24267165D01*
X213286899Y-24248699D01*
X213305365Y-24226197D01*
X213319087Y-24200525D01*
X213327538Y-24172666D01*
X213330410Y-24143504D01*
X213331575Y-24141878D01*
X213333565Y-24142074D01*
G37*
G36*
X221683565Y-23342074D02*
G01*
X221684400Y-23343700D01*
X221684400Y-23400059D01*
X221684390Y-23400255D01*
X221682106Y-23423447D01*
X221682030Y-23423832D01*
X221677057Y-23440224D01*
X221676907Y-23440586D01*
X221668830Y-23455698D01*
X221668612Y-23456024D01*
X221657744Y-23469267D01*
X221657467Y-23469544D01*
X221644222Y-23480413D01*
X221643896Y-23480631D01*
X221636321Y-23484680D01*
X221616194Y-23498128D01*
X221599147Y-23515175D01*
X221585752Y-23535223D01*
X221576526Y-23557496D01*
X221571821Y-23581147D01*
X221571821Y-23605253D01*
X221576525Y-23628903D01*
X221585752Y-23651177D01*
X221599146Y-23671224D01*
X221616193Y-23688271D01*
X221636321Y-23701720D01*
X221643896Y-23705769D01*
X221644222Y-23705987D01*
X221657467Y-23716856D01*
X221657744Y-23717133D01*
X221668612Y-23730376D01*
X221668830Y-23730702D01*
X221676907Y-23745814D01*
X221677057Y-23746176D01*
X221682030Y-23762568D01*
X221682106Y-23762953D01*
X221684390Y-23786145D01*
X221684400Y-23786341D01*
X221684400Y-23842700D01*
X221683400Y-23844432D01*
X221681400Y-23844432D01*
X221680410Y-23842896D01*
X221677538Y-23813734D01*
X221669087Y-23785875D01*
X221655365Y-23760203D01*
X221636899Y-23737701D01*
X221614397Y-23719235D01*
X221588725Y-23705513D01*
X221560866Y-23697062D01*
X221531806Y-23694200D01*
X220230994Y-23694200D01*
X220201934Y-23697062D01*
X220174075Y-23705513D01*
X220148403Y-23719235D01*
X220125901Y-23737701D01*
X220107435Y-23760203D01*
X220093713Y-23785875D01*
X220085262Y-23813734D01*
X220082390Y-23842896D01*
X220081225Y-23844522D01*
X220079235Y-23844326D01*
X220078400Y-23842700D01*
X220078400Y-23786341D01*
X220078410Y-23786145D01*
X220080694Y-23762953D01*
X220080770Y-23762568D01*
X220085743Y-23746176D01*
X220085893Y-23745814D01*
X220093970Y-23730702D01*
X220094188Y-23730376D01*
X220105056Y-23717133D01*
X220105333Y-23716856D01*
X220118578Y-23705987D01*
X220118904Y-23705769D01*
X220126479Y-23701720D01*
X220146606Y-23688272D01*
X220163653Y-23671225D01*
X220177048Y-23651177D01*
X220186274Y-23628904D01*
X220190979Y-23605253D01*
X220190979Y-23581147D01*
X220186275Y-23557497D01*
X220177048Y-23535223D01*
X220163654Y-23515176D01*
X220146607Y-23498129D01*
X220126479Y-23484680D01*
X220118904Y-23480631D01*
X220118578Y-23480413D01*
X220105333Y-23469544D01*
X220105056Y-23469267D01*
X220094188Y-23456024D01*
X220093970Y-23455698D01*
X220085893Y-23440586D01*
X220085743Y-23440224D01*
X220080770Y-23423832D01*
X220080694Y-23423447D01*
X220078410Y-23400255D01*
X220078400Y-23400059D01*
X220078400Y-23343700D01*
X220079400Y-23341968D01*
X220081400Y-23341968D01*
X220082390Y-23343504D01*
X220085262Y-23372666D01*
X220093713Y-23400525D01*
X220107435Y-23426197D01*
X220125901Y-23448699D01*
X220148403Y-23467165D01*
X220174075Y-23480887D01*
X220201934Y-23489338D01*
X220230994Y-23492200D01*
X221531806Y-23492200D01*
X221560866Y-23489338D01*
X221588725Y-23480887D01*
X221614397Y-23467165D01*
X221636899Y-23448699D01*
X221655365Y-23426197D01*
X221669087Y-23400525D01*
X221677538Y-23372666D01*
X221680410Y-23343504D01*
X221681575Y-23341878D01*
X221683565Y-23342074D01*
G37*
G36*
X213333565Y-23342074D02*
G01*
X213334400Y-23343700D01*
X213334400Y-23400059D01*
X213334390Y-23400255D01*
X213332106Y-23423447D01*
X213332030Y-23423832D01*
X213327057Y-23440224D01*
X213326907Y-23440586D01*
X213318830Y-23455698D01*
X213318612Y-23456024D01*
X213307744Y-23469267D01*
X213307467Y-23469544D01*
X213294222Y-23480413D01*
X213293896Y-23480631D01*
X213286321Y-23484680D01*
X213266194Y-23498128D01*
X213249147Y-23515175D01*
X213235752Y-23535223D01*
X213226526Y-23557496D01*
X213221821Y-23581147D01*
X213221821Y-23605253D01*
X213226525Y-23628903D01*
X213235752Y-23651177D01*
X213249146Y-23671224D01*
X213266193Y-23688271D01*
X213286321Y-23701720D01*
X213293896Y-23705769D01*
X213294222Y-23705987D01*
X213307467Y-23716856D01*
X213307744Y-23717133D01*
X213318612Y-23730376D01*
X213318830Y-23730702D01*
X213326907Y-23745814D01*
X213327057Y-23746176D01*
X213332030Y-23762568D01*
X213332106Y-23762953D01*
X213334390Y-23786145D01*
X213334400Y-23786341D01*
X213334400Y-23842700D01*
X213333400Y-23844432D01*
X213331400Y-23844432D01*
X213330410Y-23842896D01*
X213327538Y-23813734D01*
X213319087Y-23785875D01*
X213305365Y-23760203D01*
X213286899Y-23737701D01*
X213264397Y-23719235D01*
X213238725Y-23705513D01*
X213210866Y-23697062D01*
X213181806Y-23694200D01*
X211880994Y-23694200D01*
X211851934Y-23697062D01*
X211824075Y-23705513D01*
X211798403Y-23719235D01*
X211775901Y-23737701D01*
X211757435Y-23760203D01*
X211743713Y-23785875D01*
X211735262Y-23813734D01*
X211732390Y-23842896D01*
X211731225Y-23844522D01*
X211729235Y-23844326D01*
X211728400Y-23842700D01*
X211728400Y-23786341D01*
X211728410Y-23786145D01*
X211730694Y-23762953D01*
X211730770Y-23762568D01*
X211735743Y-23746176D01*
X211735893Y-23745814D01*
X211743970Y-23730702D01*
X211744188Y-23730376D01*
X211755056Y-23717133D01*
X211755333Y-23716856D01*
X211768578Y-23705987D01*
X211768904Y-23705769D01*
X211776479Y-23701720D01*
X211796606Y-23688272D01*
X211813653Y-23671225D01*
X211827048Y-23651177D01*
X211836274Y-23628904D01*
X211840979Y-23605253D01*
X211840979Y-23581147D01*
X211836275Y-23557497D01*
X211827048Y-23535223D01*
X211813654Y-23515176D01*
X211796607Y-23498129D01*
X211776479Y-23484680D01*
X211768904Y-23480631D01*
X211768578Y-23480413D01*
X211755333Y-23469544D01*
X211755056Y-23469267D01*
X211744188Y-23456024D01*
X211743970Y-23455698D01*
X211735893Y-23440586D01*
X211735743Y-23440224D01*
X211730770Y-23423832D01*
X211730694Y-23423447D01*
X211728410Y-23400255D01*
X211728400Y-23400059D01*
X211728400Y-23343700D01*
X211729400Y-23341968D01*
X211731400Y-23341968D01*
X211732390Y-23343504D01*
X211735262Y-23372666D01*
X211743713Y-23400525D01*
X211757435Y-23426197D01*
X211775901Y-23448699D01*
X211798403Y-23467165D01*
X211824075Y-23480887D01*
X211851934Y-23489338D01*
X211880994Y-23492200D01*
X213181806Y-23492200D01*
X213210866Y-23489338D01*
X213238725Y-23480887D01*
X213264397Y-23467165D01*
X213286899Y-23448699D01*
X213305365Y-23426197D01*
X213319087Y-23400525D01*
X213327538Y-23372666D01*
X213330410Y-23343504D01*
X213331575Y-23341878D01*
X213333565Y-23342074D01*
G37*
G36*
X221683565Y-22542074D02*
G01*
X221684400Y-22543700D01*
X221684400Y-22600059D01*
X221684390Y-22600255D01*
X221682106Y-22623447D01*
X221682030Y-22623832D01*
X221677057Y-22640224D01*
X221676907Y-22640586D01*
X221668830Y-22655698D01*
X221668612Y-22656024D01*
X221657744Y-22669267D01*
X221657467Y-22669544D01*
X221644222Y-22680413D01*
X221643896Y-22680631D01*
X221636321Y-22684680D01*
X221616194Y-22698128D01*
X221599147Y-22715175D01*
X221585752Y-22735223D01*
X221576526Y-22757496D01*
X221571821Y-22781147D01*
X221571821Y-22805253D01*
X221576525Y-22828903D01*
X221585752Y-22851177D01*
X221599146Y-22871224D01*
X221616193Y-22888271D01*
X221636321Y-22901720D01*
X221643896Y-22905769D01*
X221644222Y-22905987D01*
X221657467Y-22916856D01*
X221657744Y-22917133D01*
X221668612Y-22930376D01*
X221668830Y-22930702D01*
X221676907Y-22945814D01*
X221677057Y-22946176D01*
X221682030Y-22962568D01*
X221682106Y-22962953D01*
X221684390Y-22986145D01*
X221684400Y-22986341D01*
X221684400Y-23042700D01*
X221683400Y-23044432D01*
X221681400Y-23044432D01*
X221680410Y-23042896D01*
X221677538Y-23013734D01*
X221669087Y-22985875D01*
X221655365Y-22960203D01*
X221636899Y-22937701D01*
X221614397Y-22919235D01*
X221588725Y-22905513D01*
X221560866Y-22897062D01*
X221531806Y-22894200D01*
X220230994Y-22894200D01*
X220201934Y-22897062D01*
X220174075Y-22905513D01*
X220148403Y-22919235D01*
X220125901Y-22937701D01*
X220107435Y-22960203D01*
X220093713Y-22985875D01*
X220085262Y-23013734D01*
X220082390Y-23042896D01*
X220081225Y-23044522D01*
X220079235Y-23044326D01*
X220078400Y-23042700D01*
X220078400Y-22986341D01*
X220078410Y-22986145D01*
X220080694Y-22962953D01*
X220080770Y-22962568D01*
X220085743Y-22946176D01*
X220085893Y-22945814D01*
X220093970Y-22930702D01*
X220094188Y-22930376D01*
X220105056Y-22917133D01*
X220105333Y-22916856D01*
X220118578Y-22905987D01*
X220118904Y-22905769D01*
X220126479Y-22901720D01*
X220146606Y-22888272D01*
X220163653Y-22871225D01*
X220177048Y-22851177D01*
X220186274Y-22828904D01*
X220190979Y-22805253D01*
X220190979Y-22781147D01*
X220186275Y-22757497D01*
X220177048Y-22735223D01*
X220163654Y-22715176D01*
X220146607Y-22698129D01*
X220126479Y-22684680D01*
X220118904Y-22680631D01*
X220118578Y-22680413D01*
X220105333Y-22669544D01*
X220105056Y-22669267D01*
X220094188Y-22656024D01*
X220093970Y-22655698D01*
X220085893Y-22640586D01*
X220085743Y-22640224D01*
X220080770Y-22623832D01*
X220080694Y-22623447D01*
X220078410Y-22600255D01*
X220078400Y-22600059D01*
X220078400Y-22543700D01*
X220079400Y-22541968D01*
X220081400Y-22541968D01*
X220082390Y-22543504D01*
X220085262Y-22572666D01*
X220093713Y-22600525D01*
X220107435Y-22626197D01*
X220125901Y-22648699D01*
X220148403Y-22667165D01*
X220174075Y-22680887D01*
X220201934Y-22689338D01*
X220230994Y-22692200D01*
X221531806Y-22692200D01*
X221560866Y-22689338D01*
X221588725Y-22680887D01*
X221614397Y-22667165D01*
X221636899Y-22648699D01*
X221655365Y-22626197D01*
X221669087Y-22600525D01*
X221677538Y-22572666D01*
X221680410Y-22543504D01*
X221681575Y-22541878D01*
X221683565Y-22542074D01*
G37*
G36*
X213333565Y-22542074D02*
G01*
X213334400Y-22543700D01*
X213334400Y-22600059D01*
X213334390Y-22600255D01*
X213332106Y-22623447D01*
X213332030Y-22623832D01*
X213327057Y-22640224D01*
X213326907Y-22640586D01*
X213318830Y-22655698D01*
X213318612Y-22656024D01*
X213307744Y-22669267D01*
X213307467Y-22669544D01*
X213294222Y-22680413D01*
X213293896Y-22680631D01*
X213286321Y-22684680D01*
X213266194Y-22698128D01*
X213249147Y-22715175D01*
X213235752Y-22735223D01*
X213226526Y-22757496D01*
X213221821Y-22781147D01*
X213221821Y-22805253D01*
X213226525Y-22828903D01*
X213235752Y-22851177D01*
X213249146Y-22871224D01*
X213266193Y-22888271D01*
X213286321Y-22901720D01*
X213293896Y-22905769D01*
X213294222Y-22905987D01*
X213307467Y-22916856D01*
X213307744Y-22917133D01*
X213318612Y-22930376D01*
X213318830Y-22930702D01*
X213326907Y-22945814D01*
X213327057Y-22946176D01*
X213332030Y-22962568D01*
X213332106Y-22962953D01*
X213334390Y-22986145D01*
X213334400Y-22986341D01*
X213334400Y-23042700D01*
X213333400Y-23044432D01*
X213331400Y-23044432D01*
X213330410Y-23042896D01*
X213327538Y-23013734D01*
X213319087Y-22985875D01*
X213305365Y-22960203D01*
X213286899Y-22937701D01*
X213264397Y-22919235D01*
X213238725Y-22905513D01*
X213210866Y-22897062D01*
X213181806Y-22894200D01*
X211880994Y-22894200D01*
X211851934Y-22897062D01*
X211824075Y-22905513D01*
X211798403Y-22919235D01*
X211775901Y-22937701D01*
X211757435Y-22960203D01*
X211743713Y-22985875D01*
X211735262Y-23013734D01*
X211732390Y-23042896D01*
X211731225Y-23044522D01*
X211729235Y-23044326D01*
X211728400Y-23042700D01*
X211728400Y-22986341D01*
X211728410Y-22986145D01*
X211730694Y-22962953D01*
X211730770Y-22962568D01*
X211735743Y-22946176D01*
X211735893Y-22945814D01*
X211743970Y-22930702D01*
X211744188Y-22930376D01*
X211755056Y-22917133D01*
X211755333Y-22916856D01*
X211768578Y-22905987D01*
X211768904Y-22905769D01*
X211776479Y-22901720D01*
X211796606Y-22888272D01*
X211813653Y-22871225D01*
X211827048Y-22851177D01*
X211836274Y-22828904D01*
X211840979Y-22805253D01*
X211840979Y-22781147D01*
X211836275Y-22757497D01*
X211827048Y-22735223D01*
X211813654Y-22715176D01*
X211796607Y-22698129D01*
X211776479Y-22684680D01*
X211768904Y-22680631D01*
X211768578Y-22680413D01*
X211755333Y-22669544D01*
X211755056Y-22669267D01*
X211744188Y-22656024D01*
X211743970Y-22655698D01*
X211735893Y-22640586D01*
X211735743Y-22640224D01*
X211730770Y-22623832D01*
X211730694Y-22623447D01*
X211728410Y-22600255D01*
X211728400Y-22600059D01*
X211728400Y-22543700D01*
X211729400Y-22541968D01*
X211731400Y-22541968D01*
X211732390Y-22543504D01*
X211735262Y-22572666D01*
X211743713Y-22600525D01*
X211757435Y-22626197D01*
X211775901Y-22648699D01*
X211798403Y-22667165D01*
X211824075Y-22680887D01*
X211851934Y-22689338D01*
X211880994Y-22692200D01*
X213181806Y-22692200D01*
X213210866Y-22689338D01*
X213238725Y-22680887D01*
X213264397Y-22667165D01*
X213286899Y-22648699D01*
X213305365Y-22626197D01*
X213319087Y-22600525D01*
X213327538Y-22572666D01*
X213330410Y-22543504D01*
X213331575Y-22541878D01*
X213333565Y-22542074D01*
G37*
G36*
X213333565Y-21742074D02*
G01*
X213334400Y-21743700D01*
X213334400Y-21800059D01*
X213334390Y-21800255D01*
X213332106Y-21823447D01*
X213332030Y-21823832D01*
X213327057Y-21840224D01*
X213326907Y-21840586D01*
X213318830Y-21855698D01*
X213318612Y-21856024D01*
X213307744Y-21869267D01*
X213307467Y-21869544D01*
X213294222Y-21880413D01*
X213293896Y-21880631D01*
X213286321Y-21884680D01*
X213266194Y-21898128D01*
X213249147Y-21915175D01*
X213235752Y-21935223D01*
X213226526Y-21957496D01*
X213221821Y-21981147D01*
X213221821Y-22005253D01*
X213226525Y-22028903D01*
X213235752Y-22051177D01*
X213249146Y-22071224D01*
X213266193Y-22088271D01*
X213286321Y-22101720D01*
X213293896Y-22105769D01*
X213294222Y-22105987D01*
X213307467Y-22116856D01*
X213307744Y-22117133D01*
X213318612Y-22130376D01*
X213318830Y-22130702D01*
X213326907Y-22145814D01*
X213327057Y-22146176D01*
X213332030Y-22162568D01*
X213332106Y-22162953D01*
X213334390Y-22186145D01*
X213334400Y-22186341D01*
X213334400Y-22242700D01*
X213333400Y-22244432D01*
X213331400Y-22244432D01*
X213330410Y-22242896D01*
X213327538Y-22213734D01*
X213319087Y-22185875D01*
X213305365Y-22160203D01*
X213286899Y-22137701D01*
X213264397Y-22119235D01*
X213238725Y-22105513D01*
X213210866Y-22097062D01*
X213181806Y-22094200D01*
X211880994Y-22094200D01*
X211851934Y-22097062D01*
X211824075Y-22105513D01*
X211798403Y-22119235D01*
X211775901Y-22137701D01*
X211757435Y-22160203D01*
X211743713Y-22185875D01*
X211735262Y-22213734D01*
X211732390Y-22242896D01*
X211731225Y-22244522D01*
X211729235Y-22244326D01*
X211728400Y-22242700D01*
X211728400Y-22186341D01*
X211728410Y-22186145D01*
X211730694Y-22162953D01*
X211730770Y-22162568D01*
X211735743Y-22146176D01*
X211735893Y-22145814D01*
X211743970Y-22130702D01*
X211744188Y-22130376D01*
X211755056Y-22117133D01*
X211755333Y-22116856D01*
X211768578Y-22105987D01*
X211768904Y-22105769D01*
X211776479Y-22101720D01*
X211796606Y-22088272D01*
X211813653Y-22071225D01*
X211827048Y-22051177D01*
X211836274Y-22028904D01*
X211840979Y-22005253D01*
X211840979Y-21981147D01*
X211836275Y-21957497D01*
X211827048Y-21935223D01*
X211813654Y-21915176D01*
X211796607Y-21898129D01*
X211776479Y-21884680D01*
X211768904Y-21880631D01*
X211768578Y-21880413D01*
X211755333Y-21869544D01*
X211755056Y-21869267D01*
X211744188Y-21856024D01*
X211743970Y-21855698D01*
X211735893Y-21840586D01*
X211735743Y-21840224D01*
X211730770Y-21823832D01*
X211730694Y-21823447D01*
X211728410Y-21800255D01*
X211728400Y-21800059D01*
X211728400Y-21743700D01*
X211729400Y-21741968D01*
X211731400Y-21741968D01*
X211732390Y-21743504D01*
X211735262Y-21772666D01*
X211743713Y-21800525D01*
X211757435Y-21826197D01*
X211775901Y-21848699D01*
X211798403Y-21867165D01*
X211824075Y-21880887D01*
X211851934Y-21889338D01*
X211880994Y-21892200D01*
X213181806Y-21892200D01*
X213210866Y-21889338D01*
X213238725Y-21880887D01*
X213264397Y-21867165D01*
X213286899Y-21848699D01*
X213305365Y-21826197D01*
X213319087Y-21800525D01*
X213327538Y-21772666D01*
X213330410Y-21743504D01*
X213331575Y-21741878D01*
X213333565Y-21742074D01*
G37*
G36*
X221683565Y-21742074D02*
G01*
X221684400Y-21743700D01*
X221684400Y-21800059D01*
X221684390Y-21800255D01*
X221682106Y-21823447D01*
X221682030Y-21823832D01*
X221677057Y-21840224D01*
X221676907Y-21840586D01*
X221668830Y-21855698D01*
X221668612Y-21856024D01*
X221657744Y-21869267D01*
X221657467Y-21869544D01*
X221644222Y-21880413D01*
X221643896Y-21880631D01*
X221636321Y-21884680D01*
X221616194Y-21898128D01*
X221599147Y-21915175D01*
X221585752Y-21935223D01*
X221576526Y-21957496D01*
X221571821Y-21981147D01*
X221571821Y-22005253D01*
X221576525Y-22028903D01*
X221585752Y-22051177D01*
X221599146Y-22071224D01*
X221616193Y-22088271D01*
X221636321Y-22101720D01*
X221643896Y-22105769D01*
X221644222Y-22105987D01*
X221657467Y-22116856D01*
X221657744Y-22117133D01*
X221668612Y-22130376D01*
X221668830Y-22130702D01*
X221676907Y-22145814D01*
X221677057Y-22146176D01*
X221682030Y-22162568D01*
X221682106Y-22162953D01*
X221684390Y-22186145D01*
X221684400Y-22186341D01*
X221684400Y-22242700D01*
X221683400Y-22244432D01*
X221681400Y-22244432D01*
X221680410Y-22242896D01*
X221677538Y-22213734D01*
X221669087Y-22185875D01*
X221655365Y-22160203D01*
X221636899Y-22137701D01*
X221614397Y-22119235D01*
X221588725Y-22105513D01*
X221560866Y-22097062D01*
X221531806Y-22094200D01*
X220230994Y-22094200D01*
X220201934Y-22097062D01*
X220174075Y-22105513D01*
X220148403Y-22119235D01*
X220125901Y-22137701D01*
X220107435Y-22160203D01*
X220093713Y-22185875D01*
X220085262Y-22213734D01*
X220082390Y-22242896D01*
X220081225Y-22244522D01*
X220079235Y-22244326D01*
X220078400Y-22242700D01*
X220078400Y-22186341D01*
X220078410Y-22186145D01*
X220080694Y-22162953D01*
X220080770Y-22162568D01*
X220085743Y-22146176D01*
X220085893Y-22145814D01*
X220093970Y-22130702D01*
X220094188Y-22130376D01*
X220105056Y-22117133D01*
X220105333Y-22116856D01*
X220118578Y-22105987D01*
X220118904Y-22105769D01*
X220126479Y-22101720D01*
X220146606Y-22088272D01*
X220163653Y-22071225D01*
X220177048Y-22051177D01*
X220186274Y-22028904D01*
X220190979Y-22005253D01*
X220190979Y-21981147D01*
X220186275Y-21957497D01*
X220177048Y-21935223D01*
X220163654Y-21915176D01*
X220146607Y-21898129D01*
X220126479Y-21884680D01*
X220118904Y-21880631D01*
X220118578Y-21880413D01*
X220105333Y-21869544D01*
X220105056Y-21869267D01*
X220094188Y-21856024D01*
X220093970Y-21855698D01*
X220085893Y-21840586D01*
X220085743Y-21840224D01*
X220080770Y-21823832D01*
X220080694Y-21823447D01*
X220078410Y-21800255D01*
X220078400Y-21800059D01*
X220078400Y-21743700D01*
X220079400Y-21741968D01*
X220081400Y-21741968D01*
X220082390Y-21743504D01*
X220085262Y-21772666D01*
X220093713Y-21800525D01*
X220107435Y-21826197D01*
X220125901Y-21848699D01*
X220148403Y-21867165D01*
X220174075Y-21880887D01*
X220201934Y-21889338D01*
X220230994Y-21892200D01*
X221531806Y-21892200D01*
X221560866Y-21889338D01*
X221588725Y-21880887D01*
X221614397Y-21867165D01*
X221636899Y-21848699D01*
X221655365Y-21826197D01*
X221669087Y-21800525D01*
X221677538Y-21772666D01*
X221680410Y-21743504D01*
X221681575Y-21741878D01*
X221683565Y-21742074D01*
G37*
G36*
X213333565Y-20942074D02*
G01*
X213334400Y-20943700D01*
X213334400Y-21000059D01*
X213334390Y-21000255D01*
X213332106Y-21023447D01*
X213332030Y-21023832D01*
X213327057Y-21040224D01*
X213326907Y-21040586D01*
X213318830Y-21055698D01*
X213318612Y-21056024D01*
X213307744Y-21069267D01*
X213307467Y-21069544D01*
X213294222Y-21080413D01*
X213293896Y-21080631D01*
X213286321Y-21084680D01*
X213266194Y-21098128D01*
X213249147Y-21115175D01*
X213235752Y-21135223D01*
X213226526Y-21157496D01*
X213221821Y-21181147D01*
X213221821Y-21205253D01*
X213226525Y-21228903D01*
X213235752Y-21251177D01*
X213249146Y-21271224D01*
X213266193Y-21288271D01*
X213286321Y-21301720D01*
X213293896Y-21305769D01*
X213294222Y-21305987D01*
X213307467Y-21316856D01*
X213307744Y-21317133D01*
X213318612Y-21330376D01*
X213318830Y-21330702D01*
X213326907Y-21345814D01*
X213327057Y-21346176D01*
X213332030Y-21362568D01*
X213332106Y-21362953D01*
X213334390Y-21386145D01*
X213334400Y-21386341D01*
X213334400Y-21442700D01*
X213333400Y-21444432D01*
X213331400Y-21444432D01*
X213330410Y-21442896D01*
X213327538Y-21413734D01*
X213319087Y-21385875D01*
X213305365Y-21360203D01*
X213286899Y-21337701D01*
X213264397Y-21319235D01*
X213238725Y-21305513D01*
X213210866Y-21297062D01*
X213181806Y-21294200D01*
X211880994Y-21294200D01*
X211851934Y-21297062D01*
X211824075Y-21305513D01*
X211798403Y-21319235D01*
X211775901Y-21337701D01*
X211757435Y-21360203D01*
X211743713Y-21385875D01*
X211735262Y-21413734D01*
X211732390Y-21442896D01*
X211731225Y-21444522D01*
X211729235Y-21444326D01*
X211728400Y-21442700D01*
X211728400Y-21386341D01*
X211728410Y-21386145D01*
X211730694Y-21362953D01*
X211730770Y-21362568D01*
X211735743Y-21346176D01*
X211735893Y-21345814D01*
X211743970Y-21330702D01*
X211744188Y-21330376D01*
X211755056Y-21317133D01*
X211755333Y-21316856D01*
X211768578Y-21305987D01*
X211768904Y-21305769D01*
X211776479Y-21301720D01*
X211796606Y-21288272D01*
X211813653Y-21271225D01*
X211827048Y-21251177D01*
X211836274Y-21228904D01*
X211840979Y-21205253D01*
X211840979Y-21181147D01*
X211836275Y-21157497D01*
X211827048Y-21135223D01*
X211813654Y-21115176D01*
X211796607Y-21098129D01*
X211776479Y-21084680D01*
X211768904Y-21080631D01*
X211768578Y-21080413D01*
X211755333Y-21069544D01*
X211755056Y-21069267D01*
X211744188Y-21056024D01*
X211743970Y-21055698D01*
X211735893Y-21040586D01*
X211735743Y-21040224D01*
X211730770Y-21023832D01*
X211730694Y-21023447D01*
X211728410Y-21000255D01*
X211728400Y-21000059D01*
X211728400Y-20943700D01*
X211729400Y-20941968D01*
X211731400Y-20941968D01*
X211732390Y-20943504D01*
X211735262Y-20972666D01*
X211743713Y-21000525D01*
X211757435Y-21026197D01*
X211775901Y-21048699D01*
X211798403Y-21067165D01*
X211824075Y-21080887D01*
X211851934Y-21089338D01*
X211880994Y-21092200D01*
X213181806Y-21092200D01*
X213210866Y-21089338D01*
X213238725Y-21080887D01*
X213264397Y-21067165D01*
X213286899Y-21048699D01*
X213305365Y-21026197D01*
X213319087Y-21000525D01*
X213327538Y-20972666D01*
X213330410Y-20943504D01*
X213331575Y-20941878D01*
X213333565Y-20942074D01*
G37*
G36*
X221683565Y-20942074D02*
G01*
X221684400Y-20943700D01*
X221684400Y-21000059D01*
X221684390Y-21000255D01*
X221682106Y-21023447D01*
X221682030Y-21023832D01*
X221677057Y-21040224D01*
X221676907Y-21040586D01*
X221668830Y-21055698D01*
X221668612Y-21056024D01*
X221657744Y-21069267D01*
X221657467Y-21069544D01*
X221644222Y-21080413D01*
X221643896Y-21080631D01*
X221636321Y-21084680D01*
X221616194Y-21098128D01*
X221599147Y-21115175D01*
X221585752Y-21135223D01*
X221576526Y-21157496D01*
X221571821Y-21181147D01*
X221571821Y-21205253D01*
X221576525Y-21228903D01*
X221585752Y-21251177D01*
X221599146Y-21271224D01*
X221616193Y-21288271D01*
X221636321Y-21301720D01*
X221643896Y-21305769D01*
X221644222Y-21305987D01*
X221657467Y-21316856D01*
X221657744Y-21317133D01*
X221668612Y-21330376D01*
X221668830Y-21330702D01*
X221676907Y-21345814D01*
X221677057Y-21346176D01*
X221682030Y-21362568D01*
X221682106Y-21362953D01*
X221684390Y-21386145D01*
X221684400Y-21386341D01*
X221684400Y-21442700D01*
X221683400Y-21444432D01*
X221681400Y-21444432D01*
X221680410Y-21442896D01*
X221677538Y-21413734D01*
X221669087Y-21385875D01*
X221655365Y-21360203D01*
X221636899Y-21337701D01*
X221614397Y-21319235D01*
X221588725Y-21305513D01*
X221560866Y-21297062D01*
X221531806Y-21294200D01*
X220230994Y-21294200D01*
X220201934Y-21297062D01*
X220174075Y-21305513D01*
X220148403Y-21319235D01*
X220125901Y-21337701D01*
X220107435Y-21360203D01*
X220093713Y-21385875D01*
X220085262Y-21413734D01*
X220082390Y-21442896D01*
X220081225Y-21444522D01*
X220079235Y-21444326D01*
X220078400Y-21442700D01*
X220078400Y-21386341D01*
X220078410Y-21386145D01*
X220080694Y-21362953D01*
X220080770Y-21362568D01*
X220085743Y-21346176D01*
X220085893Y-21345814D01*
X220093970Y-21330702D01*
X220094188Y-21330376D01*
X220105056Y-21317133D01*
X220105333Y-21316856D01*
X220118578Y-21305987D01*
X220118904Y-21305769D01*
X220126479Y-21301720D01*
X220146606Y-21288272D01*
X220163653Y-21271225D01*
X220177048Y-21251177D01*
X220186274Y-21228904D01*
X220190979Y-21205253D01*
X220190979Y-21181147D01*
X220186275Y-21157497D01*
X220177048Y-21135223D01*
X220163654Y-21115176D01*
X220146607Y-21098129D01*
X220126479Y-21084680D01*
X220118904Y-21080631D01*
X220118578Y-21080413D01*
X220105333Y-21069544D01*
X220105056Y-21069267D01*
X220094188Y-21056024D01*
X220093970Y-21055698D01*
X220085893Y-21040586D01*
X220085743Y-21040224D01*
X220080770Y-21023832D01*
X220080694Y-21023447D01*
X220078410Y-21000255D01*
X220078400Y-21000059D01*
X220078400Y-20943700D01*
X220079400Y-20941968D01*
X220081400Y-20941968D01*
X220082390Y-20943504D01*
X220085262Y-20972666D01*
X220093713Y-21000525D01*
X220107435Y-21026197D01*
X220125901Y-21048699D01*
X220148403Y-21067165D01*
X220174075Y-21080887D01*
X220201934Y-21089338D01*
X220230994Y-21092200D01*
X221531806Y-21092200D01*
X221560866Y-21089338D01*
X221588725Y-21080887D01*
X221614397Y-21067165D01*
X221636899Y-21048699D01*
X221655365Y-21026197D01*
X221669087Y-21000525D01*
X221677538Y-20972666D01*
X221680410Y-20943504D01*
X221681575Y-20941878D01*
X221683565Y-20942074D01*
G37*
G36*
X213333565Y-20142074D02*
G01*
X213334400Y-20143700D01*
X213334400Y-20200059D01*
X213334390Y-20200255D01*
X213332106Y-20223447D01*
X213332030Y-20223832D01*
X213327057Y-20240224D01*
X213326907Y-20240586D01*
X213318830Y-20255698D01*
X213318612Y-20256024D01*
X213307744Y-20269267D01*
X213307467Y-20269544D01*
X213294222Y-20280413D01*
X213293896Y-20280631D01*
X213286321Y-20284680D01*
X213266194Y-20298128D01*
X213249147Y-20315175D01*
X213235752Y-20335223D01*
X213226526Y-20357496D01*
X213221821Y-20381147D01*
X213221821Y-20405253D01*
X213226525Y-20428903D01*
X213235752Y-20451177D01*
X213249146Y-20471224D01*
X213266193Y-20488271D01*
X213286321Y-20501720D01*
X213293896Y-20505769D01*
X213294222Y-20505987D01*
X213307467Y-20516856D01*
X213307744Y-20517133D01*
X213318612Y-20530376D01*
X213318830Y-20530702D01*
X213326907Y-20545814D01*
X213327057Y-20546176D01*
X213332030Y-20562568D01*
X213332106Y-20562953D01*
X213334390Y-20586145D01*
X213334400Y-20586341D01*
X213334400Y-20642700D01*
X213333400Y-20644432D01*
X213331400Y-20644432D01*
X213330410Y-20642896D01*
X213327538Y-20613734D01*
X213319087Y-20585875D01*
X213305365Y-20560203D01*
X213286899Y-20537701D01*
X213264397Y-20519235D01*
X213238725Y-20505513D01*
X213210866Y-20497062D01*
X213181806Y-20494200D01*
X211880994Y-20494200D01*
X211851934Y-20497062D01*
X211824075Y-20505513D01*
X211798403Y-20519235D01*
X211775901Y-20537701D01*
X211757435Y-20560203D01*
X211743713Y-20585875D01*
X211735262Y-20613734D01*
X211732390Y-20642896D01*
X211731225Y-20644522D01*
X211729235Y-20644326D01*
X211728400Y-20642700D01*
X211728400Y-20586341D01*
X211728410Y-20586145D01*
X211730694Y-20562953D01*
X211730770Y-20562568D01*
X211735743Y-20546176D01*
X211735893Y-20545814D01*
X211743970Y-20530702D01*
X211744188Y-20530376D01*
X211755056Y-20517133D01*
X211755333Y-20516856D01*
X211768578Y-20505987D01*
X211768904Y-20505769D01*
X211776479Y-20501720D01*
X211796606Y-20488272D01*
X211813653Y-20471225D01*
X211827048Y-20451177D01*
X211836274Y-20428904D01*
X211840979Y-20405253D01*
X211840979Y-20381147D01*
X211836275Y-20357497D01*
X211827048Y-20335223D01*
X211813654Y-20315176D01*
X211796607Y-20298129D01*
X211776479Y-20284680D01*
X211768904Y-20280631D01*
X211768578Y-20280413D01*
X211755333Y-20269544D01*
X211755056Y-20269267D01*
X211744188Y-20256024D01*
X211743970Y-20255698D01*
X211735893Y-20240586D01*
X211735743Y-20240224D01*
X211730770Y-20223832D01*
X211730694Y-20223447D01*
X211728410Y-20200255D01*
X211728400Y-20200059D01*
X211728400Y-20143700D01*
X211729400Y-20141968D01*
X211731400Y-20141968D01*
X211732390Y-20143504D01*
X211735262Y-20172666D01*
X211743713Y-20200525D01*
X211757435Y-20226197D01*
X211775901Y-20248699D01*
X211798403Y-20267165D01*
X211824075Y-20280887D01*
X211851934Y-20289338D01*
X211880994Y-20292200D01*
X213181806Y-20292200D01*
X213210866Y-20289338D01*
X213238725Y-20280887D01*
X213264397Y-20267165D01*
X213286899Y-20248699D01*
X213305365Y-20226197D01*
X213319087Y-20200525D01*
X213327538Y-20172666D01*
X213330410Y-20143504D01*
X213331575Y-20141878D01*
X213333565Y-20142074D01*
G37*
G36*
X221683565Y-20142074D02*
G01*
X221684400Y-20143700D01*
X221684400Y-20200059D01*
X221684390Y-20200255D01*
X221682106Y-20223447D01*
X221682030Y-20223832D01*
X221677057Y-20240224D01*
X221676907Y-20240586D01*
X221668830Y-20255698D01*
X221668612Y-20256024D01*
X221657744Y-20269267D01*
X221657467Y-20269544D01*
X221644222Y-20280413D01*
X221643896Y-20280631D01*
X221636321Y-20284680D01*
X221616194Y-20298128D01*
X221599147Y-20315175D01*
X221585752Y-20335223D01*
X221576526Y-20357496D01*
X221571821Y-20381147D01*
X221571821Y-20405253D01*
X221576525Y-20428903D01*
X221585752Y-20451177D01*
X221599146Y-20471224D01*
X221616193Y-20488271D01*
X221636321Y-20501720D01*
X221643896Y-20505769D01*
X221644222Y-20505987D01*
X221657467Y-20516856D01*
X221657744Y-20517133D01*
X221668612Y-20530376D01*
X221668830Y-20530702D01*
X221676907Y-20545814D01*
X221677057Y-20546176D01*
X221682030Y-20562568D01*
X221682106Y-20562953D01*
X221684390Y-20586145D01*
X221684400Y-20586341D01*
X221684400Y-20642700D01*
X221683400Y-20644432D01*
X221681400Y-20644432D01*
X221680410Y-20642896D01*
X221677538Y-20613734D01*
X221669087Y-20585875D01*
X221655365Y-20560203D01*
X221636899Y-20537701D01*
X221614397Y-20519235D01*
X221588725Y-20505513D01*
X221560866Y-20497062D01*
X221531806Y-20494200D01*
X220230994Y-20494200D01*
X220201934Y-20497062D01*
X220174075Y-20505513D01*
X220148403Y-20519235D01*
X220125901Y-20537701D01*
X220107435Y-20560203D01*
X220093713Y-20585875D01*
X220085262Y-20613734D01*
X220082390Y-20642896D01*
X220081225Y-20644522D01*
X220079235Y-20644326D01*
X220078400Y-20642700D01*
X220078400Y-20586341D01*
X220078410Y-20586145D01*
X220080694Y-20562953D01*
X220080770Y-20562568D01*
X220085743Y-20546176D01*
X220085893Y-20545814D01*
X220093970Y-20530702D01*
X220094188Y-20530376D01*
X220105056Y-20517133D01*
X220105333Y-20516856D01*
X220118578Y-20505987D01*
X220118904Y-20505769D01*
X220126479Y-20501720D01*
X220146606Y-20488272D01*
X220163653Y-20471225D01*
X220177048Y-20451177D01*
X220186274Y-20428904D01*
X220190979Y-20405253D01*
X220190979Y-20381147D01*
X220186275Y-20357497D01*
X220177048Y-20335223D01*
X220163654Y-20315176D01*
X220146607Y-20298129D01*
X220126479Y-20284680D01*
X220118904Y-20280631D01*
X220118578Y-20280413D01*
X220105333Y-20269544D01*
X220105056Y-20269267D01*
X220094188Y-20256024D01*
X220093970Y-20255698D01*
X220085893Y-20240586D01*
X220085743Y-20240224D01*
X220080770Y-20223832D01*
X220080694Y-20223447D01*
X220078410Y-20200255D01*
X220078400Y-20200059D01*
X220078400Y-20143700D01*
X220079400Y-20141968D01*
X220081400Y-20141968D01*
X220082390Y-20143504D01*
X220085262Y-20172666D01*
X220093713Y-20200525D01*
X220107435Y-20226197D01*
X220125901Y-20248699D01*
X220148403Y-20267165D01*
X220174075Y-20280887D01*
X220201934Y-20289338D01*
X220230994Y-20292200D01*
X221531806Y-20292200D01*
X221560866Y-20289338D01*
X221588725Y-20280887D01*
X221614397Y-20267165D01*
X221636899Y-20248699D01*
X221655365Y-20226197D01*
X221669087Y-20200525D01*
X221677538Y-20172666D01*
X221680410Y-20143504D01*
X221681575Y-20141878D01*
X221683565Y-20142074D01*
G37*
G36*
X217313455Y-17815210D02*
G01*
X217336647Y-17817494D01*
X217337032Y-17817570D01*
X217353424Y-17822543D01*
X217353786Y-17822693D01*
X217368898Y-17830770D01*
X217369224Y-17830988D01*
X217382467Y-17841856D01*
X217382744Y-17842133D01*
X217393613Y-17855378D01*
X217393831Y-17855704D01*
X217397880Y-17863279D01*
X217411328Y-17883406D01*
X217428375Y-17900453D01*
X217448423Y-17913848D01*
X217470696Y-17923074D01*
X217494347Y-17927779D01*
X217518453Y-17927779D01*
X217542103Y-17923075D01*
X217564377Y-17913848D01*
X217584424Y-17900454D01*
X217601471Y-17883407D01*
X217614920Y-17863279D01*
X217618969Y-17855704D01*
X217619187Y-17855378D01*
X217630056Y-17842133D01*
X217630333Y-17841856D01*
X217643576Y-17830988D01*
X217643902Y-17830770D01*
X217659014Y-17822693D01*
X217659376Y-17822543D01*
X217675768Y-17817570D01*
X217676153Y-17817494D01*
X217699345Y-17815210D01*
X217699541Y-17815200D01*
X217755900Y-17815200D01*
X217757632Y-17816200D01*
X217757632Y-17818200D01*
X217756096Y-17819190D01*
X217726934Y-17822062D01*
X217699075Y-17830513D01*
X217673403Y-17844235D01*
X217650901Y-17862701D01*
X217632435Y-17885203D01*
X217618713Y-17910875D01*
X217610262Y-17938734D01*
X217607400Y-17967794D01*
X217607400Y-19268606D01*
X217610262Y-19297666D01*
X217618713Y-19325525D01*
X217632435Y-19351197D01*
X217650901Y-19373699D01*
X217673403Y-19392165D01*
X217699075Y-19405887D01*
X217726934Y-19414338D01*
X217756096Y-19417210D01*
X217757722Y-19418375D01*
X217757526Y-19420365D01*
X217755900Y-19421200D01*
X217699541Y-19421200D01*
X217699345Y-19421190D01*
X217676153Y-19418906D01*
X217675768Y-19418830D01*
X217659376Y-19413857D01*
X217659014Y-19413707D01*
X217643902Y-19405630D01*
X217643576Y-19405412D01*
X217630333Y-19394544D01*
X217630056Y-19394267D01*
X217619187Y-19381022D01*
X217618969Y-19380696D01*
X217614920Y-19373121D01*
X217601472Y-19352994D01*
X217584425Y-19335947D01*
X217564377Y-19322552D01*
X217542104Y-19313326D01*
X217518453Y-19308621D01*
X217494347Y-19308621D01*
X217470697Y-19313325D01*
X217448423Y-19322552D01*
X217428376Y-19335946D01*
X217411329Y-19352993D01*
X217397880Y-19373121D01*
X217393831Y-19380696D01*
X217393613Y-19381022D01*
X217382744Y-19394267D01*
X217382467Y-19394544D01*
X217369224Y-19405412D01*
X217368898Y-19405630D01*
X217353786Y-19413707D01*
X217353424Y-19413857D01*
X217337032Y-19418830D01*
X217336647Y-19418906D01*
X217313455Y-19421190D01*
X217313259Y-19421200D01*
X217256900Y-19421200D01*
X217255168Y-19420200D01*
X217255168Y-19418200D01*
X217256704Y-19417210D01*
X217285866Y-19414338D01*
X217313725Y-19405887D01*
X217339397Y-19392165D01*
X217361899Y-19373699D01*
X217380365Y-19351197D01*
X217394087Y-19325525D01*
X217402538Y-19297666D01*
X217405400Y-19268606D01*
X217405400Y-17967794D01*
X217402538Y-17938734D01*
X217394087Y-17910875D01*
X217380365Y-17885203D01*
X217361899Y-17862701D01*
X217339397Y-17844235D01*
X217313725Y-17830513D01*
X217285866Y-17822062D01*
X217256704Y-17819190D01*
X217255078Y-17818025D01*
X217255274Y-17816035D01*
X217256900Y-17815200D01*
X217313259Y-17815200D01*
X217313455Y-17815210D01*
G37*
G36*
X216513455Y-17815210D02*
G01*
X216536647Y-17817494D01*
X216537032Y-17817570D01*
X216553424Y-17822543D01*
X216553786Y-17822693D01*
X216568898Y-17830770D01*
X216569224Y-17830988D01*
X216582467Y-17841856D01*
X216582744Y-17842133D01*
X216593613Y-17855378D01*
X216593831Y-17855704D01*
X216597880Y-17863279D01*
X216611328Y-17883406D01*
X216628375Y-17900453D01*
X216648423Y-17913848D01*
X216670696Y-17923074D01*
X216694347Y-17927779D01*
X216718453Y-17927779D01*
X216742103Y-17923075D01*
X216764377Y-17913848D01*
X216784424Y-17900454D01*
X216801471Y-17883407D01*
X216814920Y-17863279D01*
X216818969Y-17855704D01*
X216819187Y-17855378D01*
X216830056Y-17842133D01*
X216830333Y-17841856D01*
X216843576Y-17830988D01*
X216843902Y-17830770D01*
X216859014Y-17822693D01*
X216859376Y-17822543D01*
X216875768Y-17817570D01*
X216876153Y-17817494D01*
X216899345Y-17815210D01*
X216899541Y-17815200D01*
X216955900Y-17815200D01*
X216957632Y-17816200D01*
X216957632Y-17818200D01*
X216956096Y-17819190D01*
X216926934Y-17822062D01*
X216899075Y-17830513D01*
X216873403Y-17844235D01*
X216850901Y-17862701D01*
X216832435Y-17885203D01*
X216818713Y-17910875D01*
X216810262Y-17938734D01*
X216807400Y-17967794D01*
X216807400Y-19268606D01*
X216810262Y-19297666D01*
X216818713Y-19325525D01*
X216832435Y-19351197D01*
X216850901Y-19373699D01*
X216873403Y-19392165D01*
X216899075Y-19405887D01*
X216926934Y-19414338D01*
X216956096Y-19417210D01*
X216957722Y-19418375D01*
X216957526Y-19420365D01*
X216955900Y-19421200D01*
X216899541Y-19421200D01*
X216899345Y-19421190D01*
X216876153Y-19418906D01*
X216875768Y-19418830D01*
X216859376Y-19413857D01*
X216859014Y-19413707D01*
X216843902Y-19405630D01*
X216843576Y-19405412D01*
X216830333Y-19394544D01*
X216830056Y-19394267D01*
X216819187Y-19381022D01*
X216818969Y-19380696D01*
X216814920Y-19373121D01*
X216801472Y-19352994D01*
X216784425Y-19335947D01*
X216764377Y-19322552D01*
X216742104Y-19313326D01*
X216718453Y-19308621D01*
X216694347Y-19308621D01*
X216670697Y-19313325D01*
X216648423Y-19322552D01*
X216628376Y-19335946D01*
X216611329Y-19352993D01*
X216597880Y-19373121D01*
X216593831Y-19380696D01*
X216593613Y-19381022D01*
X216582744Y-19394267D01*
X216582467Y-19394544D01*
X216569224Y-19405412D01*
X216568898Y-19405630D01*
X216553786Y-19413707D01*
X216553424Y-19413857D01*
X216537032Y-19418830D01*
X216536647Y-19418906D01*
X216513455Y-19421190D01*
X216513259Y-19421200D01*
X216456900Y-19421200D01*
X216455168Y-19420200D01*
X216455168Y-19418200D01*
X216456704Y-19417210D01*
X216485866Y-19414338D01*
X216513725Y-19405887D01*
X216539397Y-19392165D01*
X216561899Y-19373699D01*
X216580365Y-19351197D01*
X216594087Y-19325525D01*
X216602538Y-19297666D01*
X216605400Y-19268606D01*
X216605400Y-17967794D01*
X216602538Y-17938734D01*
X216594087Y-17910875D01*
X216580365Y-17885203D01*
X216561899Y-17862701D01*
X216539397Y-17844235D01*
X216513725Y-17830513D01*
X216485866Y-17822062D01*
X216456704Y-17819190D01*
X216455078Y-17818025D01*
X216455274Y-17816035D01*
X216456900Y-17815200D01*
X216513259Y-17815200D01*
X216513455Y-17815210D01*
G37*
G36*
X215713455Y-17815210D02*
G01*
X215736647Y-17817494D01*
X215737032Y-17817570D01*
X215753424Y-17822543D01*
X215753786Y-17822693D01*
X215768898Y-17830770D01*
X215769224Y-17830988D01*
X215782467Y-17841856D01*
X215782744Y-17842133D01*
X215793613Y-17855378D01*
X215793831Y-17855704D01*
X215797880Y-17863279D01*
X215811328Y-17883406D01*
X215828375Y-17900453D01*
X215848423Y-17913848D01*
X215870696Y-17923074D01*
X215894347Y-17927779D01*
X215918453Y-17927779D01*
X215942103Y-17923075D01*
X215964377Y-17913848D01*
X215984424Y-17900454D01*
X216001471Y-17883407D01*
X216014920Y-17863279D01*
X216018969Y-17855704D01*
X216019187Y-17855378D01*
X216030056Y-17842133D01*
X216030333Y-17841856D01*
X216043576Y-17830988D01*
X216043902Y-17830770D01*
X216059014Y-17822693D01*
X216059376Y-17822543D01*
X216075768Y-17817570D01*
X216076153Y-17817494D01*
X216099345Y-17815210D01*
X216099541Y-17815200D01*
X216155900Y-17815200D01*
X216157632Y-17816200D01*
X216157632Y-17818200D01*
X216156096Y-17819190D01*
X216126934Y-17822062D01*
X216099075Y-17830513D01*
X216073403Y-17844235D01*
X216050901Y-17862701D01*
X216032435Y-17885203D01*
X216018713Y-17910875D01*
X216010262Y-17938734D01*
X216007400Y-17967794D01*
X216007400Y-19268606D01*
X216010262Y-19297666D01*
X216018713Y-19325525D01*
X216032435Y-19351197D01*
X216050901Y-19373699D01*
X216073403Y-19392165D01*
X216099075Y-19405887D01*
X216126934Y-19414338D01*
X216156096Y-19417210D01*
X216157722Y-19418375D01*
X216157526Y-19420365D01*
X216155900Y-19421200D01*
X216099541Y-19421200D01*
X216099345Y-19421190D01*
X216076153Y-19418906D01*
X216075768Y-19418830D01*
X216059376Y-19413857D01*
X216059014Y-19413707D01*
X216043902Y-19405630D01*
X216043576Y-19405412D01*
X216030333Y-19394544D01*
X216030056Y-19394267D01*
X216019187Y-19381022D01*
X216018969Y-19380696D01*
X216014920Y-19373121D01*
X216001472Y-19352994D01*
X215984425Y-19335947D01*
X215964377Y-19322552D01*
X215942104Y-19313326D01*
X215918453Y-19308621D01*
X215894347Y-19308621D01*
X215870697Y-19313325D01*
X215848423Y-19322552D01*
X215828376Y-19335946D01*
X215811329Y-19352993D01*
X215797880Y-19373121D01*
X215793831Y-19380696D01*
X215793613Y-19381022D01*
X215782744Y-19394267D01*
X215782467Y-19394544D01*
X215769224Y-19405412D01*
X215768898Y-19405630D01*
X215753786Y-19413707D01*
X215753424Y-19413857D01*
X215737032Y-19418830D01*
X215736647Y-19418906D01*
X215713455Y-19421190D01*
X215713259Y-19421200D01*
X215656900Y-19421200D01*
X215655168Y-19420200D01*
X215655168Y-19418200D01*
X215656704Y-19417210D01*
X215685866Y-19414338D01*
X215713725Y-19405887D01*
X215739397Y-19392165D01*
X215761899Y-19373699D01*
X215780365Y-19351197D01*
X215794087Y-19325525D01*
X215802538Y-19297666D01*
X215805400Y-19268606D01*
X215805400Y-17967794D01*
X215802538Y-17938734D01*
X215794087Y-17910875D01*
X215780365Y-17885203D01*
X215761899Y-17862701D01*
X215739397Y-17844235D01*
X215713725Y-17830513D01*
X215685866Y-17822062D01*
X215656704Y-17819190D01*
X215655078Y-17818025D01*
X215655274Y-17816035D01*
X215656900Y-17815200D01*
X215713259Y-17815200D01*
X215713455Y-17815210D01*
G37*
G36*
X218113455Y-17815210D02*
G01*
X218136647Y-17817494D01*
X218137032Y-17817570D01*
X218153424Y-17822543D01*
X218153786Y-17822693D01*
X218168898Y-17830770D01*
X218169224Y-17830988D01*
X218182467Y-17841856D01*
X218182744Y-17842133D01*
X218193613Y-17855378D01*
X218193831Y-17855704D01*
X218197880Y-17863279D01*
X218211328Y-17883406D01*
X218228375Y-17900453D01*
X218248423Y-17913848D01*
X218270696Y-17923074D01*
X218294347Y-17927779D01*
X218318453Y-17927779D01*
X218342103Y-17923075D01*
X218364377Y-17913848D01*
X218384424Y-17900454D01*
X218401471Y-17883407D01*
X218414920Y-17863279D01*
X218418969Y-17855704D01*
X218419187Y-17855378D01*
X218430056Y-17842133D01*
X218430333Y-17841856D01*
X218443576Y-17830988D01*
X218443902Y-17830770D01*
X218459014Y-17822693D01*
X218459376Y-17822543D01*
X218475768Y-17817570D01*
X218476153Y-17817494D01*
X218499345Y-17815210D01*
X218499541Y-17815200D01*
X218555900Y-17815200D01*
X218557632Y-17816200D01*
X218557632Y-17818200D01*
X218556096Y-17819190D01*
X218526934Y-17822062D01*
X218499075Y-17830513D01*
X218473403Y-17844235D01*
X218450901Y-17862701D01*
X218432435Y-17885203D01*
X218418713Y-17910875D01*
X218410262Y-17938734D01*
X218407400Y-17967794D01*
X218407400Y-19268606D01*
X218410262Y-19297666D01*
X218418713Y-19325525D01*
X218432435Y-19351197D01*
X218450901Y-19373699D01*
X218473403Y-19392165D01*
X218499075Y-19405887D01*
X218526934Y-19414338D01*
X218556096Y-19417210D01*
X218557722Y-19418375D01*
X218557526Y-19420365D01*
X218555900Y-19421200D01*
X218499541Y-19421200D01*
X218499345Y-19421190D01*
X218476153Y-19418906D01*
X218475768Y-19418830D01*
X218459376Y-19413857D01*
X218459014Y-19413707D01*
X218443902Y-19405630D01*
X218443576Y-19405412D01*
X218430333Y-19394544D01*
X218430056Y-19394267D01*
X218419187Y-19381022D01*
X218418969Y-19380696D01*
X218414920Y-19373121D01*
X218401472Y-19352994D01*
X218384425Y-19335947D01*
X218364377Y-19322552D01*
X218342104Y-19313326D01*
X218318453Y-19308621D01*
X218294347Y-19308621D01*
X218270697Y-19313325D01*
X218248423Y-19322552D01*
X218228376Y-19335946D01*
X218211329Y-19352993D01*
X218197880Y-19373121D01*
X218193831Y-19380696D01*
X218193613Y-19381022D01*
X218182744Y-19394267D01*
X218182467Y-19394544D01*
X218169224Y-19405412D01*
X218168898Y-19405630D01*
X218153786Y-19413707D01*
X218153424Y-19413857D01*
X218137032Y-19418830D01*
X218136647Y-19418906D01*
X218113455Y-19421190D01*
X218113259Y-19421200D01*
X218056900Y-19421200D01*
X218055168Y-19420200D01*
X218055168Y-19418200D01*
X218056704Y-19417210D01*
X218085866Y-19414338D01*
X218113725Y-19405887D01*
X218139397Y-19392165D01*
X218161899Y-19373699D01*
X218180365Y-19351197D01*
X218194087Y-19325525D01*
X218202538Y-19297666D01*
X218205400Y-19268606D01*
X218205400Y-17967794D01*
X218202538Y-17938734D01*
X218194087Y-17910875D01*
X218180365Y-17885203D01*
X218161899Y-17862701D01*
X218139397Y-17844235D01*
X218113725Y-17830513D01*
X218085866Y-17822062D01*
X218056704Y-17819190D01*
X218055078Y-17818025D01*
X218055274Y-17816035D01*
X218056900Y-17815200D01*
X218113259Y-17815200D01*
X218113455Y-17815210D01*
G37*
G36*
X214913455Y-17815210D02*
G01*
X214936647Y-17817494D01*
X214937032Y-17817570D01*
X214953424Y-17822543D01*
X214953786Y-17822693D01*
X214968898Y-17830770D01*
X214969224Y-17830988D01*
X214982467Y-17841856D01*
X214982744Y-17842133D01*
X214993613Y-17855378D01*
X214993831Y-17855704D01*
X214997880Y-17863279D01*
X215011328Y-17883406D01*
X215028375Y-17900453D01*
X215048423Y-17913848D01*
X215070696Y-17923074D01*
X215094347Y-17927779D01*
X215118453Y-17927779D01*
X215142103Y-17923075D01*
X215164377Y-17913848D01*
X215184424Y-17900454D01*
X215201471Y-17883407D01*
X215214920Y-17863279D01*
X215218969Y-17855704D01*
X215219187Y-17855378D01*
X215230056Y-17842133D01*
X215230333Y-17841856D01*
X215243576Y-17830988D01*
X215243902Y-17830770D01*
X215259014Y-17822693D01*
X215259376Y-17822543D01*
X215275768Y-17817570D01*
X215276153Y-17817494D01*
X215299345Y-17815210D01*
X215299541Y-17815200D01*
X215355900Y-17815200D01*
X215357632Y-17816200D01*
X215357632Y-17818200D01*
X215356096Y-17819190D01*
X215326934Y-17822062D01*
X215299075Y-17830513D01*
X215273403Y-17844235D01*
X215250901Y-17862701D01*
X215232435Y-17885203D01*
X215218713Y-17910875D01*
X215210262Y-17938734D01*
X215207400Y-17967794D01*
X215207400Y-19268606D01*
X215210262Y-19297666D01*
X215218713Y-19325525D01*
X215232435Y-19351197D01*
X215250901Y-19373699D01*
X215273403Y-19392165D01*
X215299075Y-19405887D01*
X215326934Y-19414338D01*
X215356096Y-19417210D01*
X215357722Y-19418375D01*
X215357526Y-19420365D01*
X215355900Y-19421200D01*
X215299541Y-19421200D01*
X215299345Y-19421190D01*
X215276153Y-19418906D01*
X215275768Y-19418830D01*
X215259376Y-19413857D01*
X215259014Y-19413707D01*
X215243902Y-19405630D01*
X215243576Y-19405412D01*
X215230333Y-19394544D01*
X215230056Y-19394267D01*
X215219187Y-19381022D01*
X215218969Y-19380696D01*
X215214920Y-19373121D01*
X215201472Y-19352994D01*
X215184425Y-19335947D01*
X215164377Y-19322552D01*
X215142104Y-19313326D01*
X215118453Y-19308621D01*
X215094347Y-19308621D01*
X215070697Y-19313325D01*
X215048423Y-19322552D01*
X215028376Y-19335946D01*
X215011329Y-19352993D01*
X214997880Y-19373121D01*
X214993831Y-19380696D01*
X214993613Y-19381022D01*
X214982744Y-19394267D01*
X214982467Y-19394544D01*
X214969224Y-19405412D01*
X214968898Y-19405630D01*
X214953786Y-19413707D01*
X214953424Y-19413857D01*
X214937032Y-19418830D01*
X214936647Y-19418906D01*
X214913455Y-19421190D01*
X214913259Y-19421200D01*
X214856900Y-19421200D01*
X214855168Y-19420200D01*
X214855168Y-19418200D01*
X214856704Y-19417210D01*
X214885866Y-19414338D01*
X214913725Y-19405887D01*
X214939397Y-19392165D01*
X214961899Y-19373699D01*
X214980365Y-19351197D01*
X214994087Y-19325525D01*
X215002538Y-19297666D01*
X215005400Y-19268606D01*
X215005400Y-17967794D01*
X215002538Y-17938734D01*
X214994087Y-17910875D01*
X214980365Y-17885203D01*
X214961899Y-17862701D01*
X214939397Y-17844235D01*
X214913725Y-17830513D01*
X214885866Y-17822062D01*
X214856704Y-17819190D01*
X214855078Y-17818025D01*
X214855274Y-17816035D01*
X214856900Y-17815200D01*
X214913259Y-17815200D01*
X214913455Y-17815210D01*
G37*
G36*
X214113455Y-17815210D02*
G01*
X214136647Y-17817494D01*
X214137032Y-17817570D01*
X214153424Y-17822543D01*
X214153786Y-17822693D01*
X214168898Y-17830770D01*
X214169224Y-17830988D01*
X214182467Y-17841856D01*
X214182744Y-17842133D01*
X214193613Y-17855378D01*
X214193831Y-17855704D01*
X214197880Y-17863279D01*
X214211328Y-17883406D01*
X214228375Y-17900453D01*
X214248423Y-17913848D01*
X214270696Y-17923074D01*
X214294347Y-17927779D01*
X214318453Y-17927779D01*
X214342103Y-17923075D01*
X214364377Y-17913848D01*
X214384424Y-17900454D01*
X214401471Y-17883407D01*
X214414920Y-17863279D01*
X214418969Y-17855704D01*
X214419187Y-17855378D01*
X214430056Y-17842133D01*
X214430333Y-17841856D01*
X214443576Y-17830988D01*
X214443902Y-17830770D01*
X214459014Y-17822693D01*
X214459376Y-17822543D01*
X214475768Y-17817570D01*
X214476153Y-17817494D01*
X214499345Y-17815210D01*
X214499541Y-17815200D01*
X214555900Y-17815200D01*
X214557632Y-17816200D01*
X214557632Y-17818200D01*
X214556096Y-17819190D01*
X214526934Y-17822062D01*
X214499075Y-17830513D01*
X214473403Y-17844235D01*
X214450901Y-17862701D01*
X214432435Y-17885203D01*
X214418713Y-17910875D01*
X214410262Y-17938734D01*
X214407400Y-17967794D01*
X214407400Y-19268606D01*
X214410262Y-19297666D01*
X214418713Y-19325525D01*
X214432435Y-19351197D01*
X214450901Y-19373699D01*
X214473403Y-19392165D01*
X214499075Y-19405887D01*
X214526934Y-19414338D01*
X214556096Y-19417210D01*
X214557722Y-19418375D01*
X214557526Y-19420365D01*
X214555900Y-19421200D01*
X214499541Y-19421200D01*
X214499345Y-19421190D01*
X214476153Y-19418906D01*
X214475768Y-19418830D01*
X214459376Y-19413857D01*
X214459014Y-19413707D01*
X214443902Y-19405630D01*
X214443576Y-19405412D01*
X214430333Y-19394544D01*
X214430056Y-19394267D01*
X214419187Y-19381022D01*
X214418969Y-19380696D01*
X214414920Y-19373121D01*
X214401472Y-19352994D01*
X214384425Y-19335947D01*
X214364377Y-19322552D01*
X214342104Y-19313326D01*
X214318453Y-19308621D01*
X214294347Y-19308621D01*
X214270697Y-19313325D01*
X214248423Y-19322552D01*
X214228376Y-19335946D01*
X214211329Y-19352993D01*
X214197880Y-19373121D01*
X214193831Y-19380696D01*
X214193613Y-19381022D01*
X214182744Y-19394267D01*
X214182467Y-19394544D01*
X214169224Y-19405412D01*
X214168898Y-19405630D01*
X214153786Y-19413707D01*
X214153424Y-19413857D01*
X214137032Y-19418830D01*
X214136647Y-19418906D01*
X214113455Y-19421190D01*
X214113259Y-19421200D01*
X214056900Y-19421200D01*
X214055168Y-19420200D01*
X214055168Y-19418200D01*
X214056704Y-19417210D01*
X214085866Y-19414338D01*
X214113725Y-19405887D01*
X214139397Y-19392165D01*
X214161899Y-19373699D01*
X214180365Y-19351197D01*
X214194087Y-19325525D01*
X214202538Y-19297666D01*
X214205400Y-19268606D01*
X214205400Y-17967794D01*
X214202538Y-17938734D01*
X214194087Y-17910875D01*
X214180365Y-17885203D01*
X214161899Y-17862701D01*
X214139397Y-17844235D01*
X214113725Y-17830513D01*
X214085866Y-17822062D01*
X214056704Y-17819190D01*
X214055078Y-17818025D01*
X214055274Y-17816035D01*
X214056900Y-17815200D01*
X214113259Y-17815200D01*
X214113455Y-17815210D01*
G37*
G36*
X218913455Y-17815210D02*
G01*
X218936647Y-17817494D01*
X218937032Y-17817570D01*
X218953424Y-17822543D01*
X218953786Y-17822693D01*
X218968898Y-17830770D01*
X218969224Y-17830988D01*
X218982467Y-17841856D01*
X218982744Y-17842133D01*
X218993613Y-17855378D01*
X218993831Y-17855704D01*
X218997880Y-17863279D01*
X219011328Y-17883406D01*
X219028375Y-17900453D01*
X219048423Y-17913848D01*
X219070696Y-17923074D01*
X219094347Y-17927779D01*
X219118453Y-17927779D01*
X219142103Y-17923075D01*
X219164377Y-17913848D01*
X219184424Y-17900454D01*
X219201471Y-17883407D01*
X219214920Y-17863279D01*
X219218969Y-17855704D01*
X219219187Y-17855378D01*
X219230056Y-17842133D01*
X219230333Y-17841856D01*
X219243576Y-17830988D01*
X219243902Y-17830770D01*
X219259014Y-17822693D01*
X219259376Y-17822543D01*
X219275768Y-17817570D01*
X219276153Y-17817494D01*
X219299345Y-17815210D01*
X219299541Y-17815200D01*
X219355900Y-17815200D01*
X219357632Y-17816200D01*
X219357632Y-17818200D01*
X219356096Y-17819190D01*
X219326934Y-17822062D01*
X219299075Y-17830513D01*
X219273403Y-17844235D01*
X219250901Y-17862701D01*
X219232435Y-17885203D01*
X219218713Y-17910875D01*
X219210262Y-17938734D01*
X219207400Y-17967794D01*
X219207400Y-19268606D01*
X219210262Y-19297666D01*
X219218713Y-19325525D01*
X219232435Y-19351197D01*
X219250901Y-19373699D01*
X219273403Y-19392165D01*
X219299075Y-19405887D01*
X219326934Y-19414338D01*
X219356096Y-19417210D01*
X219357722Y-19418375D01*
X219357526Y-19420365D01*
X219355900Y-19421200D01*
X219299541Y-19421200D01*
X219299345Y-19421190D01*
X219276153Y-19418906D01*
X219275768Y-19418830D01*
X219259376Y-19413857D01*
X219259014Y-19413707D01*
X219243902Y-19405630D01*
X219243576Y-19405412D01*
X219230333Y-19394544D01*
X219230056Y-19394267D01*
X219219187Y-19381022D01*
X219218969Y-19380696D01*
X219214920Y-19373121D01*
X219201472Y-19352994D01*
X219184425Y-19335947D01*
X219164377Y-19322552D01*
X219142104Y-19313326D01*
X219118453Y-19308621D01*
X219094347Y-19308621D01*
X219070697Y-19313325D01*
X219048423Y-19322552D01*
X219028376Y-19335946D01*
X219011329Y-19352993D01*
X218997880Y-19373121D01*
X218993831Y-19380696D01*
X218993613Y-19381022D01*
X218982744Y-19394267D01*
X218982467Y-19394544D01*
X218969224Y-19405412D01*
X218968898Y-19405630D01*
X218953786Y-19413707D01*
X218953424Y-19413857D01*
X218937032Y-19418830D01*
X218936647Y-19418906D01*
X218913455Y-19421190D01*
X218913259Y-19421200D01*
X218856900Y-19421200D01*
X218855168Y-19420200D01*
X218855168Y-19418200D01*
X218856704Y-19417210D01*
X218885866Y-19414338D01*
X218913725Y-19405887D01*
X218939397Y-19392165D01*
X218961899Y-19373699D01*
X218980365Y-19351197D01*
X218994087Y-19325525D01*
X219002538Y-19297666D01*
X219005400Y-19268606D01*
X219005400Y-17967794D01*
X219002538Y-17938734D01*
X218994087Y-17910875D01*
X218980365Y-17885203D01*
X218961899Y-17862701D01*
X218939397Y-17844235D01*
X218913725Y-17830513D01*
X218885866Y-17822062D01*
X218856704Y-17819190D01*
X218855078Y-17818025D01*
X218855274Y-17816035D01*
X218856900Y-17815200D01*
X218913259Y-17815200D01*
X218913455Y-17815210D01*
G37*
M02*
