G04 #@! TF.GenerationSoftware,KiCad,Pcbnew,5.1.8-db9833491~88~ubuntu20.04.1*
G04 #@! TF.CreationDate,2020-12-05T17:58:13-08:00*
G04 #@! TF.ProjectId,MB44,4d423434-2e6b-4696-9361-645f70636258,rev?*
G04 #@! TF.SameCoordinates,Original*
G04 #@! TF.FileFunction,Soldermask,Top*
G04 #@! TF.FilePolarity,Negative*
%FSLAX46Y46*%
G04 Gerber Fmt 4.6, Leading zero omitted, Abs format (unit mm)*
G04 Created by KiCad (PCBNEW 5.1.8-db9833491~88~ubuntu20.04.1) date 2020-12-05 17:58:13*
%MOMM*%
%LPD*%
G01*
G04 APERTURE LIST*
%ADD10C,2.102000*%
%ADD11C,4.089800*%
%ADD12C,1.852000*%
%ADD13C,3.150000*%
%ADD14C,0.020000*%
G04 APERTURE END LIST*
G36*
G01*
X8065000Y-75219000D02*
X6065000Y-75219000D01*
G75*
G02*
X6014000Y-75168000I0J51000D01*
G01*
X6014000Y-73168000D01*
G75*
G02*
X6065000Y-73117000I51000J0D01*
G01*
X8065000Y-73117000D01*
G75*
G02*
X8116000Y-73168000I0J-51000D01*
G01*
X8116000Y-75168000D01*
G75*
G02*
X8065000Y-75219000I-51000J0D01*
G01*
G37*
D10*
X9565000Y-74168000D03*
X12065000Y-74168000D03*
G36*
G01*
X4965000Y-68319000D02*
X2965000Y-68319000D01*
G75*
G02*
X2914000Y-68268000I0J51000D01*
G01*
X2914000Y-65068000D01*
G75*
G02*
X2965000Y-65017000I51000J0D01*
G01*
X4965000Y-65017000D01*
G75*
G02*
X5016000Y-65068000I0J-51000D01*
G01*
X5016000Y-68268000D01*
G75*
G02*
X4965000Y-68319000I-51000J0D01*
G01*
G37*
G36*
G01*
X16165000Y-68319000D02*
X14165000Y-68319000D01*
G75*
G02*
X14114000Y-68268000I0J51000D01*
G01*
X14114000Y-65068000D01*
G75*
G02*
X14165000Y-65017000I51000J0D01*
G01*
X16165000Y-65017000D01*
G75*
G02*
X16216000Y-65068000I0J-51000D01*
G01*
X16216000Y-68268000D01*
G75*
G02*
X16165000Y-68319000I-51000J0D01*
G01*
G37*
X7065000Y-59668000D03*
X12065000Y-59668000D03*
D11*
X233362500Y-47625000D03*
D12*
X228282500Y-47625000D03*
X238442500Y-47625000D03*
G36*
G01*
X112760000Y-75092000D02*
X110760000Y-75092000D01*
G75*
G02*
X110709000Y-75041000I0J51000D01*
G01*
X110709000Y-73041000D01*
G75*
G02*
X110760000Y-72990000I51000J0D01*
G01*
X112760000Y-72990000D01*
G75*
G02*
X112811000Y-73041000I0J-51000D01*
G01*
X112811000Y-75041000D01*
G75*
G02*
X112760000Y-75092000I-51000J0D01*
G01*
G37*
D10*
X114260000Y-74041000D03*
X116760000Y-74041000D03*
G36*
G01*
X109660000Y-68192000D02*
X107660000Y-68192000D01*
G75*
G02*
X107609000Y-68141000I0J51000D01*
G01*
X107609000Y-64941000D01*
G75*
G02*
X107660000Y-64890000I51000J0D01*
G01*
X109660000Y-64890000D01*
G75*
G02*
X109711000Y-64941000I0J-51000D01*
G01*
X109711000Y-68141000D01*
G75*
G02*
X109660000Y-68192000I-51000J0D01*
G01*
G37*
G36*
G01*
X120860000Y-68192000D02*
X118860000Y-68192000D01*
G75*
G02*
X118809000Y-68141000I0J51000D01*
G01*
X118809000Y-64941000D01*
G75*
G02*
X118860000Y-64890000I51000J0D01*
G01*
X120860000Y-64890000D01*
G75*
G02*
X120911000Y-64941000I0J-51000D01*
G01*
X120911000Y-68141000D01*
G75*
G02*
X120860000Y-68192000I-51000J0D01*
G01*
G37*
X111760000Y-59541000D03*
X116760000Y-59541000D03*
D12*
X171767500Y-66675000D03*
X161607500Y-66675000D03*
D11*
X166687500Y-66675000D03*
X147637500Y-58420000D03*
X123825000Y-58420000D03*
D13*
X147637500Y-73660000D03*
X123825000Y-73660000D03*
D12*
X140811250Y-66675000D03*
X130651250Y-66675000D03*
D11*
X135731250Y-66675000D03*
X100012500Y-58420000D03*
X76200000Y-58420000D03*
D13*
X100012500Y-73660000D03*
X76200000Y-73660000D03*
D12*
X93186250Y-66675000D03*
X83026250Y-66675000D03*
D11*
X88106250Y-66675000D03*
X233362500Y-66675000D03*
D12*
X228282500Y-66675000D03*
X238442500Y-66675000D03*
D11*
X147637500Y-66675000D03*
D12*
X142557500Y-66675000D03*
X152717500Y-66675000D03*
D13*
X128587500Y-73660000D03*
X166687500Y-73660000D03*
D11*
X128587500Y-58420000D03*
X166687500Y-58420000D03*
X90487500Y-66675000D03*
D12*
X85407500Y-66675000D03*
X95567500Y-66675000D03*
D13*
X71437500Y-73660000D03*
X109537500Y-73660000D03*
D11*
X71437500Y-58420000D03*
X109537500Y-58420000D03*
X150018750Y-66675000D03*
D12*
X144938750Y-66675000D03*
X155098750Y-66675000D03*
D13*
X138112500Y-73660000D03*
X161925000Y-73660000D03*
D11*
X138112500Y-58420000D03*
X161925000Y-58420000D03*
X114300000Y-66675000D03*
D12*
X109220000Y-66675000D03*
X119380000Y-66675000D03*
D11*
X83343750Y-66675000D03*
D12*
X78263750Y-66675000D03*
X88423750Y-66675000D03*
D13*
X71437500Y-73660000D03*
X95250000Y-73660000D03*
D11*
X71437500Y-58420000D03*
X95250000Y-58420000D03*
X52387500Y-66675000D03*
D12*
X47307500Y-66675000D03*
X57467500Y-66675000D03*
D11*
X30956250Y-66675000D03*
D12*
X25876250Y-66675000D03*
X36036250Y-66675000D03*
D11*
X214312500Y-66675000D03*
D12*
X209232500Y-66675000D03*
X219392500Y-66675000D03*
D11*
X195262500Y-66675000D03*
D12*
X190182500Y-66675000D03*
X200342500Y-66675000D03*
D11*
X116681250Y-66675000D03*
D12*
X111601250Y-66675000D03*
X121761250Y-66675000D03*
D13*
X66681350Y-73660000D03*
X166681150Y-73660000D03*
D11*
X66681350Y-58420000D03*
X166681150Y-58420000D03*
X47625000Y-66675000D03*
D12*
X42545000Y-66675000D03*
X52705000Y-66675000D03*
D11*
X28575000Y-66675000D03*
D12*
X23495000Y-66675000D03*
X33655000Y-66675000D03*
D11*
X9525000Y-66675000D03*
D12*
X4445000Y-66675000D03*
X14605000Y-66675000D03*
D11*
X28575000Y-9525000D03*
D12*
X23495000Y-9525000D03*
X33655000Y-9525000D03*
D11*
X228600000Y-28575000D03*
D12*
X223520000Y-28575000D03*
X233680000Y-28575000D03*
D11*
X200025000Y-9525000D03*
D12*
X194945000Y-9525000D03*
X205105000Y-9525000D03*
D11*
X166687500Y-28575000D03*
D12*
X161607500Y-28575000D03*
X171767500Y-28575000D03*
D11*
X147637500Y-28575000D03*
D12*
X142557500Y-28575000D03*
X152717500Y-28575000D03*
D11*
X90487500Y-28575000D03*
D12*
X85407500Y-28575000D03*
X95567500Y-28575000D03*
D11*
X52387500Y-28575000D03*
D12*
X47307500Y-28575000D03*
X57467500Y-28575000D03*
D11*
X33337500Y-28575000D03*
D12*
X28257500Y-28575000D03*
X38417500Y-28575000D03*
D11*
X180975000Y-9525000D03*
D12*
X175895000Y-9525000D03*
X186055000Y-9525000D03*
D11*
X142875000Y-9525000D03*
D12*
X137795000Y-9525000D03*
X147955000Y-9525000D03*
D11*
X123825000Y-9525000D03*
D12*
X118745000Y-9525000D03*
X128905000Y-9525000D03*
D11*
X104775000Y-9525000D03*
D12*
X99695000Y-9525000D03*
X109855000Y-9525000D03*
D11*
X66675000Y-9525000D03*
D12*
X61595000Y-9525000D03*
X71755000Y-9525000D03*
D11*
X47625000Y-9525000D03*
D12*
X42545000Y-9525000D03*
X52705000Y-9525000D03*
D11*
X9525000Y-9525000D03*
D12*
X4445000Y-9525000D03*
X14605000Y-9525000D03*
D11*
X226218750Y-9525000D03*
D12*
X221138750Y-9525000D03*
X231298750Y-9525000D03*
D11*
X204787500Y-28575000D03*
D12*
X199707500Y-28575000D03*
X209867500Y-28575000D03*
D11*
X100012500Y-47625000D03*
D12*
X94932500Y-47625000D03*
X105092500Y-47625000D03*
D11*
X85725000Y-9525000D03*
D12*
X80645000Y-9525000D03*
X90805000Y-9525000D03*
D11*
X61912500Y-47625000D03*
D12*
X56832500Y-47625000D03*
X66992500Y-47625000D03*
D11*
X42862500Y-47625000D03*
D12*
X37782500Y-47625000D03*
X47942500Y-47625000D03*
D11*
X11906250Y-28575000D03*
D12*
X6826250Y-28575000D03*
X16986250Y-28575000D03*
D11*
X214312500Y-47625000D03*
D12*
X209232500Y-47625000D03*
X219392500Y-47625000D03*
D11*
X195262500Y-47625000D03*
D12*
X190182500Y-47625000D03*
X200342500Y-47625000D03*
D11*
X176212500Y-47625000D03*
D12*
X171132500Y-47625000D03*
X181292500Y-47625000D03*
D11*
X157162500Y-47625000D03*
D12*
X152082500Y-47625000D03*
X162242500Y-47625000D03*
D11*
X138112500Y-47625000D03*
D12*
X133032500Y-47625000D03*
X143192500Y-47625000D03*
D11*
X119062500Y-47625000D03*
D12*
X113982500Y-47625000D03*
X124142500Y-47625000D03*
D11*
X80962500Y-47625000D03*
D12*
X75882500Y-47625000D03*
X86042500Y-47625000D03*
D11*
X16668750Y-47625000D03*
D12*
X11588750Y-47625000D03*
X21748750Y-47625000D03*
D11*
X185737500Y-28575000D03*
D12*
X180657500Y-28575000D03*
X190817500Y-28575000D03*
D11*
X128587500Y-28575000D03*
D12*
X123507500Y-28575000D03*
X133667500Y-28575000D03*
D11*
X109537500Y-28575000D03*
D12*
X104457500Y-28575000D03*
X114617500Y-28575000D03*
D11*
X71437500Y-28575000D03*
D12*
X66357500Y-28575000D03*
X76517500Y-28575000D03*
D11*
X161925000Y-9525000D03*
D12*
X156845000Y-9525000D03*
X167005000Y-9525000D03*
D14*
G36*
X110711000Y-74705160D02*
G01*
X110711000Y-74995477D01*
X110710000Y-74997209D01*
X110708000Y-74997209D01*
X110707010Y-74995673D01*
X110704628Y-74971486D01*
X110697628Y-74948411D01*
X110686263Y-74927147D01*
X110670968Y-74908510D01*
X110652331Y-74893215D01*
X110631067Y-74881850D01*
X110607992Y-74874850D01*
X110584001Y-74872487D01*
X110560010Y-74874850D01*
X110536935Y-74881850D01*
X110520908Y-74890417D01*
X110518909Y-74890351D01*
X110517966Y-74888588D01*
X110518854Y-74886990D01*
X110535395Y-74875937D01*
X110707586Y-74703746D01*
X110709518Y-74703228D01*
X110711000Y-74705160D01*
G37*
G36*
X118646690Y-67232654D02*
G01*
X118665746Y-67261174D01*
X118793826Y-67389254D01*
X118810111Y-67400135D01*
X118811000Y-67401798D01*
X118811000Y-67482847D01*
X118810000Y-67484579D01*
X118808000Y-67484579D01*
X118807010Y-67483043D01*
X118804628Y-67458856D01*
X118797628Y-67435781D01*
X118786263Y-67414517D01*
X118770968Y-67395880D01*
X118752331Y-67380585D01*
X118731067Y-67369220D01*
X118707992Y-67362220D01*
X118684001Y-67359857D01*
X118660010Y-67362220D01*
X118636935Y-67369220D01*
X118615671Y-67380585D01*
X118597034Y-67395880D01*
X118581739Y-67414517D01*
X118573175Y-67430540D01*
X118571476Y-67431596D01*
X118569713Y-67430653D01*
X118569563Y-67428832D01*
X118636173Y-67268021D01*
X118643065Y-67233375D01*
X118644384Y-67231871D01*
X118646690Y-67232654D01*
G37*
G36*
X120912848Y-67029653D02*
G01*
X120946364Y-67110566D01*
X121046996Y-67261174D01*
X121121050Y-67335228D01*
X121121568Y-67337160D01*
X121120154Y-67338574D01*
X121118367Y-67338188D01*
X121104329Y-67326667D01*
X121083065Y-67315302D01*
X121059990Y-67308302D01*
X121035999Y-67305939D01*
X121012008Y-67308302D01*
X120988933Y-67315302D01*
X120967669Y-67326667D01*
X120949032Y-67341962D01*
X120933737Y-67360599D01*
X120922372Y-67381863D01*
X120915372Y-67404938D01*
X120912990Y-67429125D01*
X120911825Y-67430751D01*
X120909835Y-67430555D01*
X120909000Y-67428929D01*
X120909000Y-67030418D01*
X120910000Y-67028686D01*
X120912000Y-67028686D01*
X120912848Y-67029653D01*
G37*
G36*
X141686223Y-66974428D02*
G01*
X141742614Y-67110566D01*
X141786074Y-67175609D01*
X141786205Y-67177605D01*
X141784542Y-67178716D01*
X141782865Y-67177989D01*
X141771342Y-67163948D01*
X141752705Y-67148652D01*
X141731442Y-67137287D01*
X141708367Y-67130287D01*
X141684376Y-67127924D01*
X141660385Y-67130287D01*
X141637310Y-67137287D01*
X141616046Y-67148652D01*
X141597409Y-67163947D01*
X141585885Y-67177989D01*
X141584013Y-67178693D01*
X141582467Y-67177424D01*
X141582676Y-67175609D01*
X141626136Y-67110566D01*
X141682527Y-66974428D01*
X141684114Y-66973210D01*
X141686223Y-66974428D01*
G37*
G36*
X141585885Y-66172011D02*
G01*
X141597408Y-66186052D01*
X141616045Y-66201348D01*
X141637308Y-66212713D01*
X141660383Y-66219713D01*
X141684374Y-66222076D01*
X141708365Y-66219713D01*
X141731440Y-66212713D01*
X141752704Y-66201348D01*
X141771341Y-66186053D01*
X141782865Y-66172011D01*
X141784737Y-66171307D01*
X141786283Y-66172576D01*
X141786074Y-66174391D01*
X141742614Y-66239434D01*
X141686223Y-66375572D01*
X141684636Y-66376790D01*
X141682527Y-66375572D01*
X141626136Y-66239434D01*
X141582676Y-66174391D01*
X141582545Y-66172395D01*
X141584208Y-66171284D01*
X141585885Y-66172011D01*
G37*
G36*
X120912990Y-65920875D02*
G01*
X120915372Y-65945062D01*
X120922372Y-65968137D01*
X120933737Y-65989401D01*
X120949032Y-66008038D01*
X120967669Y-66023333D01*
X120988933Y-66034698D01*
X121012008Y-66041698D01*
X121035999Y-66044061D01*
X121059990Y-66041698D01*
X121083065Y-66034698D01*
X121104329Y-66023333D01*
X121118367Y-66011812D01*
X121120341Y-66011486D01*
X121121609Y-66013032D01*
X121121050Y-66014772D01*
X121046996Y-66088826D01*
X120946364Y-66239434D01*
X120912848Y-66320347D01*
X120911261Y-66321565D01*
X120909413Y-66320800D01*
X120909000Y-66319582D01*
X120909000Y-65921071D01*
X120910000Y-65919339D01*
X120912000Y-65919339D01*
X120912990Y-65920875D01*
G37*
G36*
X118810165Y-65865527D02*
G01*
X118811000Y-65867153D01*
X118811000Y-65948202D01*
X118810111Y-65949865D01*
X118793826Y-65960746D01*
X118665746Y-66088826D01*
X118646690Y-66117346D01*
X118644896Y-66118231D01*
X118643065Y-66116625D01*
X118636173Y-66081979D01*
X118569563Y-65921168D01*
X118569824Y-65919185D01*
X118571672Y-65918420D01*
X118573175Y-65919460D01*
X118581739Y-65935483D01*
X118597034Y-65954120D01*
X118615671Y-65969415D01*
X118636935Y-65980780D01*
X118660010Y-65987780D01*
X118684001Y-65990143D01*
X118707992Y-65987780D01*
X118731067Y-65980780D01*
X118752331Y-65969415D01*
X118770968Y-65954120D01*
X118786263Y-65935483D01*
X118797628Y-65914219D01*
X118804628Y-65891144D01*
X118807010Y-65866957D01*
X118808175Y-65865331D01*
X118810165Y-65865527D01*
G37*
M02*
