0
SECTION
2
HEADER
9
$INSUNITS
70
4
9
$ACADVER
1
AC1014
9
$HANDSEED
5
FFFF
0
ENDSEC
0
SECTION
2
TABLES
0
TABLE
2
VPORT
5
8
100
AcDbSymbolTable
0
ENDTAB
0
TABLE
2
LTYPE
5
5
100
AcDbSymbolTable
0
LTYPE
5
14
100
AcDbSymbolTableRecord
100
AcDbLinetypeTableRecord
2
BYBLOCK
70
0
0
LTYPE
5
15
100
AcDbSymbolTableRecord
100
AcDbLinetypeTableRecord
2
BYLAYER
70
0
0
ENDTAB
0
TABLE
2
LAYER
5
2
100
AcDbSymbolTable
70
2
0
LAYER
5
50
100
AcDbSymbolTableRecord
100
AcDbLayerTableRecord
2
0
70
0
6
CONTINUOUS
0
ENDTAB
0
TABLE
2
STYLE
5
3
100
AcDbSymbolTable
70
1
0
STYLE
5
11
100
AcDbSymbolTableRecord
100
AcDbTextStyleTableRecord
2
STANDARD
70
0
0
ENDTAB
0
TABLE
2
VIEW
5
6
100
AcDbSymbolTable
70
0
0
ENDTAB
0
TABLE
2
UCS
5
7
100
AcDbSymbolTable
70
0
0
ENDTAB
0
TABLE
2
APPID
5
9
100
AcDbSymbolTable
70
2
0
APPID
5
12
100
AcDbSymbolTableRecord
100
AcDbRegAppTableRecord
2
ACAD
70
0
0
ENDTAB
0
TABLE
2
DIMSTYLE
5
A
100
AcDbSymbolTable
70
1
0
ENDTAB
0
TABLE
2
BLOCK_RECORD
5
1
100
AcDbSymbolTable
70
1
0
BLOCK_RECORD
5
1F
100
AcDbSymbolTableRecord
100
AcDbBlockTableRecord
2
*MODEL_SPACE
0
BLOCK_RECORD
5
1B
100
AcDbSymbolTableRecord
100
AcDbBlockTableRecord
2
*PAPER_SPACE
0
ENDTAB
0
ENDSEC
0
SECTION
2
BLOCKS
0
BLOCK
5
20
100
AcDbEntity
100
AcDbBlockBegin
2
*MODEL_SPACE
0
ENDBLK
5
21
100
AcDbEntity
100
AcDbBlockEnd
0
BLOCK
5
1C
100
AcDbEntity
100
AcDbBlockBegin
2
*PAPER_SPACE
0
ENDBLK
5
1D
100
AcDbEntity
100
AcDbBlockEnd
0
ENDSEC
0
SECTION
2
ENTITIES
0
LWPOLYLINE
5
100
100
AcDbEntity
8
0
100
AcDbPolyline
90
6
70
1
43
0.0
10
-47.134386643001775
20
-45.908325000000005
10
-44.825000000000003
20
-47.241650000000007
10
-42.515613356998223
20
-45.908325000000019
10
-42.515613356998223
20
-43.241675000000022
10
-44.825000000000003
20
-41.908350000000013
10
-47.134386643001775
20
-43.241675000000008
0
LWPOLYLINE
5
101
100
AcDbEntity
8
0
100
AcDbPolyline
90
6
70
1
43
0.0
10
44.825000000000003
20
41.908350000000013
10
47.134386643001775
20
43.241675000000008
10
47.134386643001775
20
45.908325000000005
10
44.825000000000003
20
47.241650000000007
10
42.515613356998223
20
45.908325000000019
10
42.515613356998223
20
43.241675000000022
0
LWPOLYLINE
5
102
100
AcDbEntity
8
0
100
AcDbPolyline
90
6
70
1
43
0.0
10
-42.515613356998223
20
45.908325000000019
10
-44.825000000000003
20
47.241650000000007
10
-47.134386643001775
20
45.908325000000005
10
-47.134386643001775
20
43.241675000000008
10
-44.825000000000003
20
41.908350000000013
10
-42.515613356998223
20
43.241675000000022
0
LWPOLYLINE
5
103
100
AcDbEntity
8
0
100
AcDbPolyline
90
6
70
1
43
0.0
10
44.825000000000003
20
-41.908350000000013
10
42.515613356998223
20
-43.241675000000022
10
42.515613356998223
20
-45.908325000000019
10
44.825000000000003
20
-47.241650000000007
10
47.134386643001775
20
-45.908325000000005
10
47.134386643001775
20
-43.241675000000008
0
LWPOLYLINE
5
104
100
AcDbEntity
8
0
100
AcDbPolyline
90
6
70
1
43
0.0
10
-137.51574326080879
20
-45.908250000000024
10
-137.51574326080879
20
-43.241750000000025
10
-139.82499999999999
20
-41.908500000000011
10
-142.13425673919122
20
-43.24175000000001
10
-142.13425673919122
20
-45.90825000000001
10
-139.82499999999999
20
-47.241500000000016
0
LWPOLYLINE
5
105
100
AcDbEntity
8
0
100
AcDbPolyline
90
6
70
1
43
0.0
10
139.82499999999999
20
41.908500000000011
10
142.13425673919122
20
43.24175000000001
10
142.13425673919122
20
45.90825000000001
10
139.82499999999999
20
47.241500000000016
10
137.51574326080879
20
45.908250000000024
10
137.51574326080879
20
43.241750000000025
0
LWPOLYLINE
5
106
100
AcDbEntity
8
0
100
AcDbPolyline
90
6
70
1
43
0.0
10
-137.51574326080879
20
43.241750000000025
10
-137.51574326080879
20
45.908250000000024
10
-139.82499999999999
20
47.241500000000016
10
-142.13425673919122
20
45.90825000000001
10
-142.13425673919122
20
43.24175000000001
10
-139.82499999999999
20
41.908500000000011
0
LWPOLYLINE
5
107
100
AcDbEntity
8
0
100
AcDbPolyline
90
6
70
1
43
0.0
10
139.82499999999999
20
-41.908500000000011
10
137.51574326080879
20
-43.241750000000025
10
137.51574326080879
20
-45.908250000000024
10
139.82499999999999
20
-47.241500000000016
10
142.13425673919122
20
-45.90825000000001
10
142.13425673919122
20
-43.24175000000001
0
LWPOLYLINE
5
108
100
AcDbEntity
8
0
100
AcDbPolyline
90
24
70
1
43
0.0
10
94.705000000000027
20
-42.575000000000003
42
-0.41421356237309936
10
97.705000000000055
20
-39.575000000000003
10
132.82499999999999
20
-39.575000000000003
42
0.41421356237309698
10
134.82499999999999
20
-37.57500000000001
10
134.82499999999999
20
37.574999999999996
42
0.41421356237309825
10
132.82499999999999
20
39.575000000000003
10
-132.82499999999999
20
39.575000000000003
42
0.41421356237309698
10
-134.82499999999999
20
37.57500000000001
10
-134.82499999999999
20
-37.574999999999996
42
0.41421356237309309
10
-132.82500000000002
20
-39.575000000000003
10
73.705000000000013
20
-39.575000000000017
42
-0.41421356237309681
10
76.705000000000013
20
-42.575000000000003
10
76.705000000000027
20
-47.575000000000003
42
-0.41421356237309503
10
73.705000000000041
20
-50.57500000000001
10
-140.82499999999999
20
-50.575000000000003
42
-0.41421356237309453
10
-145.82499999999999
20
-45.57500000000001
10
-145.82499999999999
20
45.57500000000001
42
-0.41421356237309453
10
-140.82499999999999
20
50.57500000000001
10
140.82499999999999
20
50.575000000000003
42
-0.41421356237309453
10
145.82499999999999
20
45.57500000000001
10
145.82499999999999
20
-45.57500000000001
42
-0.41421356237309453
10
140.82499999999999
20
-50.57500000000001
10
97.705000000000013
20
-50.57500000000001
42
-0.4142135623730942
10
94.705000000000013
20
-47.57500000000001
0
ENDSEC
0
SECTION
2
OBJECTS
0
DICTIONARY
5
C
100
AcDbDictionary
3
ACAD_GROUP
350
D
3
ACAD_MLINESTYLE
350
17
0
DICTIONARY
5
D
100
AcDbDictionary
0
DICTIONARY
5
1A
330
C
100
AcDbDictionary
0
DICTIONARY
5
17
100
AcDbDictionary
0
ENDSEC
0
EOF
