M48
; DRILL file {KiCad 5.1.9-73d0e3b20d~88~ubuntu20.04.1} date Sun Feb 21 13:43:46 2021
; FORMAT={-:-/ absolute / inch / decimal}
; #@! TF.CreationDate,2021-02-21T13:43:46-08:00
; #@! TF.GenerationSoftware,Kicad,Pcbnew,5.1.9-73d0e3b20d~88~ubuntu20.04.1
; #@! TF.FileFunction,NonPlated,1,2,NPTH
FMAT,2
INCH
T1C0.0256
T2C0.0689
T3C0.1200
T4C0.1570
%
G90
G05
T1
X1.73Y11.0977
X1.9575Y11.0977
T2
X0.1437Y10.875
X0.1437Y10.125
X0.1437Y9.375
X0.1437Y8.625
X0.5437Y10.875
X0.5437Y10.125
X0.5437Y9.375
X0.5437Y8.625
X1.2688Y10.875
X1.3625Y10.125
X1.3625Y8.625
X1.55Y9.375
X1.6687Y10.875
X1.7625Y10.125
X1.7625Y8.625
X1.95Y9.375
X2.0187Y10.875
X2.2062Y10.125
X2.4187Y10.875
X2.5812Y9.375
X2.6062Y10.125
X2.7687Y10.875
X2.8625Y8.625
X2.9562Y10.125
X2.9812Y9.375
X3.1687Y10.875
X3.2625Y8.625
X3.3312Y9.375
X3.3562Y10.125
X3.5187Y10.875
X3.7062Y10.125
X3.7062Y8.625
X3.7312Y9.375
X3.9187Y10.875
X4.0812Y9.375
X4.1063Y10.125
X4.1063Y8.625
X4.2687Y10.875
X4.4562Y10.125
X4.4562Y8.625
X4.4813Y9.375
X4.6688Y10.875
X4.8312Y9.375
X4.8312Y8.625
X4.8563Y10.125
X4.8563Y8.625
X5.0187Y10.875
X5.2062Y10.125
X5.2313Y9.375
X5.2313Y8.625
X5.4188Y10.875
X5.5812Y9.375
X5.5812Y8.625
X5.6063Y10.125
X5.7687Y10.875
X5.9562Y10.125
X5.9813Y9.375
X5.9813Y8.625
X6.1688Y10.875
X6.3312Y9.375
X6.3312Y8.625
X6.3563Y10.125
X6.5187Y10.875
X6.7062Y10.125
X6.7062Y8.625
X6.7313Y9.375
X6.7313Y8.625
X6.9188Y10.875
X7.0812Y9.375
X7.1063Y10.125
X7.1063Y8.625
X7.2687Y10.875
X7.4562Y10.125
X7.4562Y8.625
X7.4813Y9.375
X7.6688Y10.875
X7.8312Y9.375
X7.8563Y10.125
X7.8563Y8.625
X8.0187Y10.875
X8.2062Y10.125
X8.2312Y9.375
X8.3Y8.625
X8.4187Y10.875
X8.5812Y9.375
X8.6062Y10.125
X8.7Y8.625
X8.7687Y10.875
X8.9562Y10.125
X8.9812Y9.375
X9.1687Y10.875
X9.3562Y10.125
X9.6125Y9.375
X9.7062Y10.875
X9.8Y10.125
X9.8Y8.625
X10.0125Y9.375
X10.1062Y10.875
X10.2Y10.125
X10.2Y8.625
T3
X3.9062Y8.35
X3.9062Y8.35
X4.5625Y8.35
X5.4062Y8.35
X5.5Y8.35
X6.0625Y8.35
X6.1562Y8.35
X7.0Y8.35
X7.6562Y8.35
X7.6562Y8.35
T4
X0.3438Y10.875
X0.3438Y10.125
X0.3438Y9.375
X0.3438Y8.625
X1.4688Y10.875
X1.5625Y10.125
X1.5625Y8.625
X1.75Y9.375
X2.2188Y10.875
X2.4062Y10.125
X2.7812Y9.375
X2.9688Y10.875
X3.0625Y8.625
X3.1562Y10.125
X3.5312Y9.375
X3.7188Y10.875
X3.9062Y10.125
X3.9062Y8.95
X3.9062Y8.95
X3.9062Y8.625
X4.2812Y9.375
X4.4688Y10.875
X4.5625Y8.95
X4.6562Y10.125
X4.6562Y8.625
X5.0312Y9.375
X5.0312Y8.625
X5.2188Y10.875
X5.4062Y10.125
X5.4062Y8.95
X5.5Y8.95
X5.7812Y9.375
X5.7812Y8.625
X5.9688Y10.875
X6.0625Y8.95
X6.1562Y10.125
X6.1562Y8.95
X6.5312Y9.375
X6.5312Y8.625
X6.7188Y10.875
X6.9062Y10.125
X6.9062Y8.625
X7.0Y8.95
X7.2812Y9.375
X7.4688Y10.875
X7.6562Y10.125
X7.6562Y8.95
X7.6562Y8.95
X7.6562Y8.625
X8.0312Y9.375
X8.2188Y10.875
X8.4062Y10.125
X8.5Y8.625
X8.7812Y9.375
X8.9688Y10.875
X9.1562Y10.125
X9.8125Y9.375
X9.9062Y10.875
X10.0Y10.125
X10.0Y8.625
T0
M30
