%TF.GenerationSoftware,KiCad,Pcbnew,5.1.9-73d0e3b20d~88~ubuntu20.04.1*%
%TF.CreationDate,2021-02-21T13:43:44-08:00*%
%TF.ProjectId,KB_Lightbar_1,4b425f4c-6967-4687-9462-61725f312e6b,rev?*%
%TF.SameCoordinates,Original*%
%TF.FileFunction,Soldermask,Bot*%
%TF.FilePolarity,Negative*%
%FSLAX46Y46*%
G04 Gerber Fmt 4.6, Leading zero omitted, Abs format (unit mm)*
G04 Created by KiCad (PCBNEW 5.1.9-73d0e3b20d~88~ubuntu20.04.1) date 2021-02-21 13:43:44*
%MOMM*%
%LPD*%
G01*
G04 APERTURE LIST*
%ADD10C,0.010000*%
%ADD11C,0.650000*%
%ADD12R,0.300000X2.450000*%
%ADD13R,0.600000X2.450000*%
%ADD14C,1.750000*%
%ADD15C,2.250000*%
%ADD16C,3.987800*%
%ADD17O,1.700000X1.700000*%
%ADD18R,1.700000X1.700000*%
%ADD19R,0.700000X0.600000*%
%ADD20R,0.700000X1.000000*%
%ADD21R,1.200000X0.900000*%
%ADD22R,0.900000X0.800000*%
%ADD23R,1.800000X1.100000*%
%ADD24R,0.900000X1.200000*%
%ADD25C,3.048000*%
%ADD26C,2.000000*%
%ADD27R,2.000000X3.200000*%
%ADD28R,2.000000X2.000000*%
G04 APERTURE END LIST*
D10*
%TO.C,G\u002A\u002A\u002A*%
G36*
X60408280Y226209699D02*
G01*
X60528615Y226199955D01*
X60626757Y226182773D01*
X60655200Y226174300D01*
X60742736Y226152950D01*
X60851285Y226139124D01*
X60919441Y226136200D01*
X61017866Y226130392D01*
X61095596Y226115006D01*
X61125798Y226101704D01*
X61183805Y226074391D01*
X61261964Y226051657D01*
X61276202Y226048805D01*
X61355233Y226027660D01*
X61420075Y225999414D01*
X61427904Y225994402D01*
X61485708Y225965889D01*
X61522999Y225958400D01*
X61568567Y225946044D01*
X61636519Y225915794D01*
X61706936Y225877883D01*
X61759896Y225842540D01*
X61772800Y225830106D01*
X61802471Y225807219D01*
X61851215Y225778172D01*
X61946042Y225721867D01*
X62050067Y225652615D01*
X62148240Y225581150D01*
X62225513Y225518203D01*
X62253477Y225491291D01*
X62285297Y225460498D01*
X62319399Y225441079D01*
X62367824Y225430427D01*
X62442612Y225425936D01*
X62555804Y225425001D01*
X62559772Y225425001D01*
X62694360Y225421998D01*
X62785930Y225412358D01*
X62841947Y225395136D01*
X62853795Y225387708D01*
X62917733Y225358380D01*
X62971450Y225349608D01*
X63027826Y225340334D01*
X63055737Y225323016D01*
X63087952Y225295303D01*
X63145358Y225261999D01*
X63152486Y225258515D01*
X63230945Y225219792D01*
X63316717Y225175922D01*
X63327150Y225170459D01*
X63392713Y225126409D01*
X63479481Y225054855D01*
X63578546Y224964691D01*
X63680998Y224864809D01*
X63777928Y224764104D01*
X63860428Y224671469D01*
X63919589Y224595796D01*
X63943385Y224555285D01*
X63973575Y224492656D01*
X64000082Y224453068D01*
X64004735Y224449118D01*
X64024411Y224416682D01*
X64042351Y224355982D01*
X64044170Y224346854D01*
X64067194Y224262360D01*
X64097693Y224187823D01*
X64120470Y224110510D01*
X64132773Y223988656D01*
X64134843Y223897710D01*
X64134999Y223678520D01*
X64255650Y223582132D01*
X64332130Y223517579D01*
X64400467Y223454102D01*
X64432648Y223420322D01*
X64483095Y223362737D01*
X64524680Y223316800D01*
X64563188Y223259311D01*
X64576525Y223227900D01*
X64603059Y223177690D01*
X64650055Y223113094D01*
X64668643Y223091109D01*
X64715129Y223029165D01*
X64741974Y222975358D01*
X64744600Y222960869D01*
X64762902Y222906692D01*
X64779229Y222887880D01*
X64801629Y222847656D01*
X64821401Y222775822D01*
X64829831Y222723247D01*
X64847540Y222622573D01*
X64873938Y222524464D01*
X64886905Y222488982D01*
X64914680Y222383633D01*
X64912651Y222259993D01*
X64912282Y222256805D01*
X64905001Y222178905D01*
X64908912Y222138880D01*
X64927055Y222124463D01*
X64945461Y222123000D01*
X64991041Y222137319D01*
X65004918Y222154750D01*
X65030760Y222171097D01*
X65098269Y222183249D01*
X65210965Y222191694D01*
X65296640Y222195032D01*
X65442909Y222196537D01*
X65556942Y222187773D01*
X65655170Y222164096D01*
X65754022Y222120864D01*
X65869926Y222053433D01*
X65927805Y222016676D01*
X66009190Y221954062D01*
X66090962Y221874310D01*
X66163503Y221788956D01*
X66217194Y221709538D01*
X66242417Y221647593D01*
X66243200Y221638344D01*
X66261435Y221586966D01*
X66281300Y221564201D01*
X66313030Y221513853D01*
X66319556Y221478540D01*
X66332059Y221418984D01*
X66362023Y221350075D01*
X66363024Y221348300D01*
X66388534Y221275667D01*
X66404262Y221174776D01*
X66410188Y221060714D01*
X66406291Y220948568D01*
X66392551Y220853426D01*
X66368948Y220790375D01*
X66363782Y220783743D01*
X66328901Y220720373D01*
X66319400Y220669961D01*
X66305252Y220607967D01*
X66281300Y220573600D01*
X66249016Y220530224D01*
X66243200Y220506742D01*
X66225379Y220464734D01*
X66192400Y220428007D01*
X66154258Y220388229D01*
X66141600Y220363649D01*
X66122236Y220323402D01*
X66071155Y220263865D01*
X65998869Y220193984D01*
X65915890Y220122705D01*
X65832730Y220058973D01*
X65759903Y220011734D01*
X65707921Y219989933D01*
X65701800Y219989400D01*
X65661401Y219978112D01*
X65598058Y219949918D01*
X65576165Y219938600D01*
X65531683Y219918025D01*
X65481599Y219903844D01*
X65415840Y219894956D01*
X65324335Y219890261D01*
X65197009Y219888656D01*
X65119342Y219888662D01*
X64968149Y219890052D01*
X64857513Y219894123D01*
X64777213Y219901975D01*
X64717030Y219914710D01*
X64666746Y219933427D01*
X64655700Y219938600D01*
X64588653Y219968763D01*
X64540197Y219986579D01*
X64530369Y219988539D01*
X64477842Y220003701D01*
X64402961Y220039907D01*
X64323533Y220087088D01*
X64257367Y220135178D01*
X64236388Y220154725D01*
X64162653Y220207575D01*
X64088556Y220209627D01*
X64014232Y220160884D01*
X64006829Y220153255D01*
X63948161Y220100802D01*
X63860499Y220033784D01*
X63758416Y219962167D01*
X63656486Y219895914D01*
X63569280Y219844991D01*
X63525400Y219824038D01*
X63479331Y219803020D01*
X63412205Y219769380D01*
X63393367Y219759541D01*
X63321905Y219727864D01*
X63261425Y219710900D01*
X63250427Y219710000D01*
X63193093Y219691499D01*
X63169800Y219671900D01*
X63121450Y219642346D01*
X63071439Y219632939D01*
X63006284Y219621288D01*
X62925898Y219593314D01*
X62903100Y219583000D01*
X62812493Y219550692D01*
X62717581Y219533163D01*
X62699900Y219532255D01*
X62621130Y219521967D01*
X62557271Y219498749D01*
X62548995Y219493293D01*
X62489160Y219469811D01*
X62385145Y219457857D01*
X62302232Y219456000D01*
X62178293Y219450091D01*
X62061521Y219434371D01*
X61986925Y219415989D01*
X61894531Y219393928D01*
X61774717Y219383009D01*
X61616532Y219382270D01*
X61605787Y219382523D01*
X61342498Y219389068D01*
X61253874Y219273001D01*
X61184626Y219190977D01*
X61102796Y219106978D01*
X61018269Y219029700D01*
X60940928Y218967838D01*
X60880658Y218930090D01*
X60855596Y218922600D01*
X60803778Y218904407D01*
X60785033Y218887915D01*
X60743761Y218863741D01*
X60673106Y218843106D01*
X60638436Y218837082D01*
X60559608Y218821119D01*
X60498993Y218799812D01*
X60484456Y218790916D01*
X60441098Y218775480D01*
X60361561Y218763507D01*
X60260392Y218755657D01*
X60152134Y218752593D01*
X60051332Y218754973D01*
X59972531Y218763461D01*
X59956700Y218766940D01*
X59881300Y218791721D01*
X59825019Y218816590D01*
X59760229Y218837626D01*
X59682236Y218846400D01*
X59682079Y218846400D01*
X59613326Y218856870D01*
X59564978Y218882293D01*
X59563000Y218884500D01*
X59515696Y218916974D01*
X59488856Y218922600D01*
X59434119Y218941627D01*
X59359583Y218992164D01*
X59274990Y219064393D01*
X59190086Y219148499D01*
X59114613Y219234666D01*
X59058316Y219313076D01*
X59030937Y219373915D01*
X59029753Y219385122D01*
X59020149Y219425508D01*
X58995329Y219493952D01*
X58973811Y219545420D01*
X58939018Y219618934D01*
X58908607Y219657210D01*
X58868025Y219672149D01*
X58814908Y219675383D01*
X58726157Y219681602D01*
X58644393Y219693605D01*
X58635900Y219695454D01*
X58567007Y219710908D01*
X59272685Y219710908D01*
X59287270Y219627691D01*
X59296680Y219590141D01*
X59356046Y219437636D01*
X59444297Y219313103D01*
X59554127Y219226663D01*
X59562132Y219222454D01*
X59625412Y219186807D01*
X59669825Y219155875D01*
X59673356Y219152604D01*
X59715284Y219134262D01*
X59782050Y219125092D01*
X59790330Y219124900D01*
X59872041Y219113752D01*
X59943212Y219088147D01*
X59944000Y219087700D01*
X60018658Y219063692D01*
X60123431Y219052559D01*
X60239288Y219054302D01*
X60347202Y219068919D01*
X60409982Y219087700D01*
X60488268Y219113287D01*
X60559457Y219125604D01*
X60566574Y219125800D01*
X60626187Y219142962D01*
X60705792Y219188450D01*
X60794886Y219253269D01*
X60882970Y219328424D01*
X60959541Y219404919D01*
X61014098Y219473760D01*
X61036139Y219525950D01*
X61036200Y219528070D01*
X61045992Y219563833D01*
X61070819Y219627154D01*
X61086442Y219662777D01*
X61130356Y219815295D01*
X61124881Y219966499D01*
X61087000Y220078300D01*
X61056065Y220154393D01*
X61038499Y220220860D01*
X61037061Y220235971D01*
X61019292Y220277293D01*
X60973666Y220340138D01*
X60910459Y220413648D01*
X60839950Y220486967D01*
X60772418Y220549235D01*
X60718139Y220589596D01*
X60693413Y220599000D01*
X60651610Y220616793D01*
X60629800Y220637100D01*
X60586781Y220657765D01*
X60508361Y220670632D01*
X60409337Y220675703D01*
X60304503Y220672976D01*
X60208658Y220662453D01*
X60136596Y220644133D01*
X60121800Y220637100D01*
X60055463Y220609389D01*
X60005086Y220599901D01*
X59948073Y220581118D01*
X59905900Y220548200D01*
X59863606Y220510302D01*
X59836119Y220497400D01*
X59797863Y220480264D01*
X59734520Y220434615D01*
X59655649Y220369092D01*
X59570809Y220292336D01*
X59489561Y220212985D01*
X59421462Y220139679D01*
X59376929Y220082390D01*
X59343647Y220015853D01*
X59310089Y219925459D01*
X59294702Y219873063D01*
X59275226Y219783570D01*
X59272685Y219710908D01*
X58567007Y219710908D01*
X58560262Y219712421D01*
X58503192Y219724564D01*
X58450448Y219754522D01*
X58411682Y219802850D01*
X58380794Y219844952D01*
X58358741Y219840627D01*
X58322265Y219818970D01*
X58272074Y219811600D01*
X58205127Y219799508D01*
X58125948Y219769564D01*
X58108565Y219760800D01*
X58068059Y219741775D01*
X58022758Y219728171D01*
X57963728Y219719131D01*
X57882033Y219713798D01*
X57768737Y219711313D01*
X57614905Y219710819D01*
X57588242Y219710862D01*
X57425546Y219711905D01*
X57304585Y219714850D01*
X57216304Y219720555D01*
X57151646Y219729878D01*
X57101558Y219743676D01*
X57061100Y219760800D01*
X56989244Y219791378D01*
X56931188Y219809068D01*
X56918160Y219810739D01*
X56867773Y219829720D01*
X56845200Y219849700D01*
X56803882Y219881880D01*
X56782242Y219887800D01*
X56746159Y219902297D01*
X56685765Y219939720D01*
X56634476Y219976700D01*
X56567331Y220025016D01*
X56515051Y220057303D01*
X56494120Y220065600D01*
X56461790Y220083425D01*
X56406613Y220130204D01*
X56338296Y220195895D01*
X56266551Y220270459D01*
X56201086Y220343854D01*
X56151610Y220406038D01*
X56129221Y220442973D01*
X56102369Y220510100D01*
X56072964Y220441477D01*
X56037275Y220378701D01*
X55988025Y220315045D01*
X55938062Y220265105D01*
X55900233Y220243479D01*
X55898628Y220243400D01*
X55864083Y220228992D01*
X55812731Y220194165D01*
X55810730Y220192600D01*
X55751889Y220156617D01*
X55701884Y220141800D01*
X55647696Y220123497D01*
X55628870Y220107159D01*
X55579903Y220079704D01*
X55491509Y220059070D01*
X55374598Y220045263D01*
X55240084Y220038286D01*
X55098878Y220038144D01*
X54961893Y220044843D01*
X54840041Y220058386D01*
X54744234Y220078779D01*
X54685386Y220106026D01*
X54684533Y220106751D01*
X54631197Y220136560D01*
X54565507Y220157049D01*
X54506025Y220178342D01*
X54472936Y220207611D01*
X54472720Y220208151D01*
X54439032Y220238012D01*
X54411925Y220243400D01*
X54367956Y220261012D01*
X54301416Y220307415D01*
X54222948Y220372964D01*
X54143194Y220448010D01*
X54072797Y220522907D01*
X54022398Y220588009D01*
X54011725Y220606167D01*
X53957598Y220750012D01*
X53925191Y220921210D01*
X53918503Y221071251D01*
X54218308Y221071251D01*
X54218977Y220950958D01*
X54223703Y220868335D01*
X54234816Y220810280D01*
X54254649Y220763692D01*
X54280285Y220723061D01*
X54343191Y220651742D01*
X54433315Y220573407D01*
X54533364Y220501153D01*
X54626045Y220448075D01*
X54663080Y220433177D01*
X54724784Y220403862D01*
X54756679Y220379749D01*
X54798014Y220363676D01*
X54877624Y220352036D01*
X54983842Y220344778D01*
X55104998Y220341851D01*
X55229425Y220343205D01*
X55345452Y220348788D01*
X55441413Y220358550D01*
X55505637Y220372439D01*
X55524400Y220383100D01*
X55565717Y220415280D01*
X55587357Y220421200D01*
X55623300Y220435701D01*
X55683793Y220473202D01*
X55737368Y220511814D01*
X55819246Y220565138D01*
X55901546Y220604384D01*
X55944220Y220616738D01*
X56006084Y220630601D01*
X56028097Y220653884D01*
X56015554Y220699798D01*
X55994456Y220742147D01*
X55973778Y220811676D01*
X55960982Y220915171D01*
X55956182Y221036394D01*
X55957026Y221067764D01*
X56235600Y221067764D01*
X56242352Y220903431D01*
X56266385Y220771427D01*
X56313359Y220654629D01*
X56388937Y220535913D01*
X56428680Y220483754D01*
X56512992Y220396093D01*
X56627809Y220303194D01*
X56762035Y220211536D01*
X56904569Y220127597D01*
X57044314Y220057857D01*
X57170170Y220008794D01*
X57271040Y219986886D01*
X57280714Y219986395D01*
X57370608Y219979673D01*
X57453188Y219966840D01*
X57467500Y219963462D01*
X57539464Y219952451D01*
X57594500Y219954676D01*
X57644097Y219962125D01*
X57727193Y219971320D01*
X57826616Y219980378D01*
X57835800Y219981124D01*
X57946600Y219995564D01*
X58042836Y220016918D01*
X58614957Y220016918D01*
X58676228Y219965904D01*
X58753331Y219925505D01*
X58842907Y219912089D01*
X58926797Y219925439D01*
X58986841Y219965337D01*
X58990059Y219969652D01*
X59020558Y220033196D01*
X59029600Y220080842D01*
X59045145Y220138902D01*
X59065207Y220165132D01*
X59099818Y220212822D01*
X59115624Y220253686D01*
X59138668Y220292596D01*
X59188581Y220352781D01*
X59255320Y220424286D01*
X59328844Y220497156D01*
X59399112Y220561435D01*
X59456082Y220607168D01*
X59489547Y220624400D01*
X59512449Y220636988D01*
X59502006Y220663412D01*
X59465241Y220686666D01*
X59463622Y220687195D01*
X59421811Y220712668D01*
X59359558Y220764362D01*
X59292821Y220828607D01*
X59227051Y220891862D01*
X59171613Y220937089D01*
X59138400Y220954598D01*
X59138199Y220954600D01*
X59108245Y220971276D01*
X59105800Y220981500D01*
X59090239Y220996669D01*
X59080400Y220992700D01*
X59067663Y220961152D01*
X59058548Y220893397D01*
X59055000Y220804003D01*
X59055000Y220802547D01*
X59051347Y220700450D01*
X59036459Y220618635D01*
X59004434Y220534242D01*
X58965253Y220454796D01*
X58918115Y220367910D01*
X58876097Y220297695D01*
X58847296Y220257566D01*
X58844603Y220254959D01*
X58810727Y220222423D01*
X58756386Y220166899D01*
X58714328Y220122667D01*
X58614957Y220016918D01*
X58042836Y220016918D01*
X58049556Y220018409D01*
X58120538Y220043715D01*
X58189902Y220073848D01*
X58245419Y220090088D01*
X58255117Y220091000D01*
X58290348Y220108595D01*
X58349336Y220155088D01*
X58422582Y220221043D01*
X58500586Y220297027D01*
X58573848Y220373603D01*
X58632870Y220441336D01*
X58668152Y220490790D01*
X58674000Y220507057D01*
X58690780Y220554286D01*
X58714181Y220584753D01*
X58740936Y220638271D01*
X58760643Y220730578D01*
X58773319Y220850156D01*
X58778978Y220985488D01*
X58777636Y221125057D01*
X58769308Y221257345D01*
X58754011Y221370835D01*
X58731760Y221454009D01*
X58712965Y221487044D01*
X58681320Y221540602D01*
X58674000Y221574545D01*
X58656850Y221607289D01*
X58609582Y221668133D01*
X58538464Y221749729D01*
X58449767Y221844729D01*
X58399365Y221896395D01*
X58124730Y222173800D01*
X57997819Y222173800D01*
X57908733Y222181480D01*
X57838630Y222201301D01*
X57821604Y222211093D01*
X57773819Y222228173D01*
X57689318Y222240753D01*
X57579735Y222248822D01*
X57456701Y222252366D01*
X57331850Y222251375D01*
X57216812Y222245836D01*
X57123220Y222235736D01*
X57062707Y222221063D01*
X57048399Y222211900D01*
X56999796Y222182303D01*
X56952170Y222173800D01*
X56917690Y222171797D01*
X56886106Y222161597D01*
X56848650Y222136919D01*
X56796556Y222091480D01*
X56721057Y222018997D01*
X56680100Y221978822D01*
X56571581Y221869058D01*
X56492808Y221780593D01*
X56434782Y221701872D01*
X56388502Y221621342D01*
X56367006Y221576900D01*
X56326294Y221490893D01*
X56287898Y221413135D01*
X56271958Y221382481D01*
X56250252Y221309941D01*
X56238286Y221190097D01*
X56235600Y221067764D01*
X55957026Y221067764D01*
X55959487Y221159110D01*
X55971011Y221267081D01*
X55990314Y221342766D01*
X56018360Y221424913D01*
X56041451Y221516730D01*
X56043263Y221526100D01*
X56064824Y221602576D01*
X56094159Y221662406D01*
X56100537Y221670550D01*
X56123817Y221719058D01*
X56108953Y221754483D01*
X56063148Y221761337D01*
X56058797Y221760302D01*
X56004322Y221763323D01*
X55953713Y221782589D01*
X55884877Y221806600D01*
X55804141Y221817288D01*
X55803101Y221817300D01*
X55723843Y221829551D01*
X55656900Y221857860D01*
X55655691Y221858694D01*
X55599189Y221879208D01*
X55505288Y221893824D01*
X55386945Y221902502D01*
X55257118Y221905208D01*
X55128764Y221901903D01*
X55014841Y221892551D01*
X54928306Y221877116D01*
X54888223Y221860876D01*
X54817877Y221828545D01*
X54758010Y221818200D01*
X54699529Y221807469D01*
X54668412Y221786215D01*
X54635724Y221753250D01*
X54577698Y221708381D01*
X54552275Y221690965D01*
X54487291Y221638106D01*
X54409752Y221560837D01*
X54337898Y221477651D01*
X54219345Y221327602D01*
X54218308Y221071251D01*
X53918503Y221071251D01*
X53917221Y221100002D01*
X53927509Y221218238D01*
X53944032Y221313370D01*
X53961395Y221391525D01*
X53975943Y221436334D01*
X53976414Y221437200D01*
X54000547Y221482363D01*
X54036127Y221551419D01*
X54051631Y221582045D01*
X54090315Y221642481D01*
X54150949Y221719286D01*
X54224606Y221803105D01*
X54302358Y221884582D01*
X54375276Y221954360D01*
X54434433Y222003085D01*
X54470897Y222021400D01*
X54512058Y222039163D01*
X54533799Y222059500D01*
X54581635Y222088179D01*
X54635399Y222097600D01*
X54698696Y222110436D01*
X54736442Y222135028D01*
X54781315Y222163882D01*
X54850269Y222185240D01*
X54860202Y222186976D01*
X54938965Y222200494D01*
X55039251Y222219223D01*
X55098949Y222230988D01*
X55244999Y222260479D01*
X55245001Y222261282D01*
X55532912Y222261282D01*
X55537575Y222221131D01*
X55550290Y222203591D01*
X55572609Y222199303D01*
X55582606Y222199200D01*
X55641044Y222187370D01*
X55715312Y222157993D01*
X55734234Y222148400D01*
X55803279Y222116318D01*
X55858973Y222098738D01*
X55869638Y222097600D01*
X55918962Y222086340D01*
X55984448Y222058925D01*
X55990380Y222055892D01*
X56055838Y222022319D01*
X56106220Y221997311D01*
X56108600Y221996180D01*
X56140086Y221959423D01*
X56154737Y221910889D01*
X56166151Y221860093D01*
X56186534Y221849758D01*
X56220337Y221881620D01*
X56271373Y221956405D01*
X56335323Y222046157D01*
X56410275Y222136096D01*
X56435188Y222162467D01*
X56516662Y222236106D01*
X56611979Y222309502D01*
X56709331Y222374927D01*
X56796910Y222424653D01*
X56862908Y222450954D01*
X56879444Y222453200D01*
X56945778Y222467780D01*
X56985598Y222488189D01*
X57026039Y222503130D01*
X57103690Y222515956D01*
X57222331Y222527059D01*
X57385744Y222536832D01*
X57505431Y222542163D01*
X57671581Y222549233D01*
X57794330Y222555760D01*
X57881052Y222562796D01*
X57939123Y222571392D01*
X57975915Y222582600D01*
X57998804Y222597472D01*
X58013431Y222614608D01*
X58048288Y222672447D01*
X58064400Y222709788D01*
X58092280Y222759595D01*
X58151309Y222837264D01*
X58235325Y222936186D01*
X58338161Y223049750D01*
X58453655Y223171346D01*
X58575641Y223294365D01*
X58697956Y223412197D01*
X58814436Y223518232D01*
X58835290Y223536406D01*
X58894744Y223592123D01*
X58930907Y223634680D01*
X58936204Y223654028D01*
X58899523Y223661646D01*
X58833323Y223665693D01*
X58808999Y223665909D01*
X58719580Y223677011D01*
X58661135Y223707037D01*
X58612833Y223740339D01*
X58582392Y223748600D01*
X58533203Y223761409D01*
X58488956Y223783704D01*
X58433021Y223805738D01*
X58348149Y223825528D01*
X58281972Y223835275D01*
X58194166Y223849205D01*
X58123907Y223868089D01*
X58093984Y223882722D01*
X58056174Y223895581D01*
X57975357Y223905932D01*
X57849327Y223913938D01*
X57675874Y223919764D01*
X57567696Y223921962D01*
X57391565Y223924315D01*
X57258555Y223924316D01*
X57161026Y223921522D01*
X57091334Y223915495D01*
X57041836Y223905793D01*
X57004892Y223891975D01*
X56999319Y223889189D01*
X56931819Y223865378D01*
X56836156Y223844755D01*
X56749233Y223833464D01*
X56652453Y223820719D01*
X56569316Y223802048D01*
X56522243Y223783687D01*
X56460402Y223756324D01*
X56418180Y223748600D01*
X56365011Y223732614D01*
X56311800Y223697800D01*
X56259816Y223661351D01*
X56220601Y223647000D01*
X56185030Y223628981D01*
X56126277Y223581209D01*
X56053496Y223513112D01*
X55975838Y223434117D01*
X55902457Y223353653D01*
X55842505Y223281147D01*
X55805135Y223226027D01*
X55799204Y223212937D01*
X55775135Y223161152D01*
X55752905Y223139012D01*
X55752533Y223139000D01*
X55732985Y223117159D01*
X55715303Y223064638D01*
X55715285Y223064556D01*
X55691569Y223000247D01*
X55662467Y222959845D01*
X55634651Y222912813D01*
X55626000Y222862142D01*
X55612934Y222790252D01*
X55591648Y222744602D01*
X55574370Y222696357D01*
X55558250Y222610182D01*
X55545454Y222498937D01*
X55541529Y222446850D01*
X55534747Y222333402D01*
X55532912Y222261282D01*
X55245001Y222261282D01*
X55245605Y222452090D01*
X55250292Y222587462D01*
X55265772Y222709073D01*
X55295564Y222830048D01*
X55343189Y222963514D01*
X55412167Y223122596D01*
X55443439Y223189800D01*
X55502820Y223304054D01*
X55573072Y223422288D01*
X55639239Y223519367D01*
X55640754Y223521362D01*
X55709815Y223603929D01*
X55789295Y223686789D01*
X55869316Y223760992D01*
X55939998Y223817584D01*
X55991461Y223847614D01*
X56003662Y223850200D01*
X56038908Y223869127D01*
X56050187Y223883373D01*
X56090050Y223919719D01*
X56159728Y223961510D01*
X56240421Y223999446D01*
X56313331Y224024226D01*
X56344332Y224028901D01*
X56409170Y224042243D01*
X56464200Y224066100D01*
X56533424Y224091066D01*
X56616755Y224103133D01*
X56624104Y224103300D01*
X56715442Y224123324D01*
X56742100Y224141140D01*
X57053807Y224141140D01*
X57053927Y224141007D01*
X57084623Y224139728D01*
X57145991Y224153285D01*
X57186579Y224165876D01*
X57264260Y224182773D01*
X57377713Y224195419D01*
X57515511Y224203771D01*
X57666223Y224207781D01*
X57818422Y224207407D01*
X57960679Y224202602D01*
X58081564Y224193322D01*
X58169650Y224179521D01*
X58200261Y224169861D01*
X58273976Y224146348D01*
X58369114Y224127917D01*
X58413907Y224122765D01*
X58500924Y224108376D01*
X58571015Y224084270D01*
X58593707Y224069804D01*
X58647718Y224036745D01*
X58684752Y224028000D01*
X58738904Y224008155D01*
X58805425Y223957593D01*
X58871602Y223889772D01*
X58924723Y223818154D01*
X58952076Y223756197D01*
X58953400Y223743555D01*
X58963249Y223686440D01*
X58992591Y223676226D01*
X59036330Y223708159D01*
X59102438Y223748826D01*
X59192244Y223775194D01*
X59280771Y223781615D01*
X59323861Y223773179D01*
X59371557Y223738658D01*
X59385199Y223675856D01*
X59385200Y223675499D01*
X59378336Y223630212D01*
X59351517Y223589715D01*
X59295396Y223543066D01*
X59239150Y223504509D01*
X59128286Y223422208D01*
X58988464Y223303410D01*
X58822798Y223151013D01*
X58634398Y222967918D01*
X58426378Y222757024D01*
X58336754Y222663836D01*
X58164608Y222483617D01*
X58242810Y222423959D01*
X58391542Y222304980D01*
X58532542Y222181961D01*
X58656971Y222063287D01*
X58755987Y221957342D01*
X58815167Y221881165D01*
X58865956Y221807561D01*
X58907875Y221752016D01*
X58930500Y221727755D01*
X58948535Y221693904D01*
X58953400Y221654712D01*
X58968958Y221594398D01*
X58991500Y221564200D01*
X59023802Y221524256D01*
X59029988Y221503940D01*
X59043012Y221457876D01*
X59051938Y221441285D01*
X59073571Y221430321D01*
X59111944Y221449767D01*
X59174476Y221503653D01*
X59184899Y221513524D01*
X59265917Y221585793D01*
X59365337Y221667585D01*
X59448700Y221731523D01*
X59528800Y221790893D01*
X59596344Y221842096D01*
X59637565Y221874687D01*
X59639200Y221876079D01*
X59681747Y221904928D01*
X59752702Y221945855D01*
X59817000Y221979851D01*
X59907036Y222027215D01*
X59990707Y222073913D01*
X60032900Y222099228D01*
X60105292Y222140806D01*
X60172493Y222172874D01*
X60172600Y222172916D01*
X60243244Y222204317D01*
X60308008Y222236794D01*
X60372271Y222264334D01*
X60423006Y222275400D01*
X60475787Y222289423D01*
X60522940Y222315216D01*
X60599402Y222346837D01*
X60666345Y222338077D01*
X60712704Y222296417D01*
X60727415Y222229338D01*
X60717724Y222183516D01*
X60671613Y222115336D01*
X60588954Y222050233D01*
X60502800Y222006736D01*
X60437406Y221977325D01*
X60346866Y221932736D01*
X60250280Y221882747D01*
X60166748Y221837134D01*
X60134500Y221818200D01*
X60069048Y221780376D01*
X59981165Y221732505D01*
X59918600Y221699765D01*
X59824908Y221645896D01*
X59716673Y221575177D01*
X59623100Y221507260D01*
X59546999Y221449946D01*
X59486195Y221407334D01*
X59451740Y221387092D01*
X59448880Y221386400D01*
X59413346Y221368124D01*
X59366981Y221325292D01*
X59326705Y221275900D01*
X59309438Y221238085D01*
X59326323Y221203633D01*
X59370707Y221148028D01*
X59423725Y221092569D01*
X59522444Y220980630D01*
X59573077Y220883535D01*
X59575471Y220801578D01*
X59574707Y220799073D01*
X59567328Y220745415D01*
X59591747Y220728436D01*
X59649223Y220748070D01*
X59721594Y220791240D01*
X59802649Y220838119D01*
X59876761Y220870082D01*
X59918020Y220879208D01*
X59988995Y220894800D01*
X60031404Y220917308D01*
X60087675Y220939934D01*
X60185364Y220952021D01*
X60286900Y220954600D01*
X60418303Y220949834D01*
X60504668Y220935055D01*
X60542395Y220917308D01*
X60597148Y220894549D01*
X60677369Y220880880D01*
X60712610Y220879208D01*
X60796275Y220871558D01*
X60871601Y220844593D01*
X60960176Y220790385D01*
X60966610Y220785936D01*
X61079700Y220702359D01*
X61166849Y220627777D01*
X61221841Y220567986D01*
X61238694Y220532261D01*
X61256979Y220493279D01*
X61276827Y220472558D01*
X61307168Y220427103D01*
X61329639Y220359304D01*
X61330454Y220355148D01*
X61346400Y220291929D01*
X61369186Y220273611D01*
X61410509Y220294528D01*
X61428404Y220307708D01*
X61491721Y220332239D01*
X61595359Y220344129D01*
X61638751Y220345000D01*
X61729129Y220347857D01*
X61786125Y220362043D01*
X61814329Y220395982D01*
X61818329Y220458101D01*
X61802714Y220556823D01*
X61789248Y220621317D01*
X61768825Y220726582D01*
X61753924Y220822883D01*
X61747468Y220891029D01*
X61747400Y220895944D01*
X61731902Y220976074D01*
X61688410Y221085004D01*
X61621423Y221212488D01*
X61574800Y221288984D01*
X61484314Y221426281D01*
X61399807Y221546775D01*
X61328232Y221640838D01*
X61284270Y221691287D01*
X61226845Y221756541D01*
X61180275Y221819476D01*
X61153573Y221870095D01*
X61157931Y221908244D01*
X61177744Y221940126D01*
X61219888Y221983255D01*
X61269051Y221991332D01*
X61336525Y221963995D01*
X61385954Y221933455D01*
X61508982Y221842530D01*
X61608883Y221743132D01*
X61703416Y221617053D01*
X61722000Y221588944D01*
X61766059Y221527624D01*
X61798200Y221488796D01*
X61843010Y221427003D01*
X61894299Y221337258D01*
X61945191Y221234270D01*
X61988811Y221132748D01*
X62018282Y221047401D01*
X62027074Y220999152D01*
X62034853Y220924469D01*
X62054186Y220831566D01*
X62065174Y220791814D01*
X62087682Y220703357D01*
X62101225Y220622610D01*
X62103000Y220594964D01*
X62103810Y220563457D01*
X62111205Y220541293D01*
X62132630Y220527089D01*
X62175532Y220519466D01*
X62247356Y220517041D01*
X62355548Y220518434D01*
X62496463Y220521974D01*
X62637858Y220527981D01*
X62739750Y220538514D01*
X62813356Y220555248D01*
X62864387Y220576828D01*
X62932239Y220607780D01*
X62987071Y220623791D01*
X62994863Y220624400D01*
X63045502Y220642602D01*
X63068200Y220662500D01*
X63123045Y220698024D01*
X63182634Y220692746D01*
X63234630Y220653706D01*
X63266695Y220587943D01*
X63271400Y220546546D01*
X63260540Y220490936D01*
X63221184Y220440190D01*
X63165989Y220395960D01*
X63094294Y220351422D01*
X63030332Y220323906D01*
X63006540Y220319600D01*
X62944800Y220305199D01*
X62894470Y220278953D01*
X62865910Y220263974D01*
X62824784Y220253539D01*
X62763333Y220247153D01*
X62673796Y220244319D01*
X62548413Y220244543D01*
X62394484Y220247027D01*
X62232186Y220249713D01*
X62113253Y220250064D01*
X62030285Y220247565D01*
X61975879Y220241696D01*
X61942633Y220231939D01*
X61923147Y220217778D01*
X61919815Y220213820D01*
X61857845Y220162975D01*
X61764361Y220117245D01*
X61658605Y220083816D01*
X61559819Y220069876D01*
X61535948Y220070449D01*
X61429900Y220078300D01*
X61422357Y219890178D01*
X61420458Y219793353D01*
X61422499Y219713963D01*
X61428030Y219667882D01*
X61428730Y219665788D01*
X61443092Y219650148D01*
X61477036Y219641359D01*
X61538994Y219638908D01*
X61637401Y219642283D01*
X61728373Y219647577D01*
X61850874Y219657989D01*
X61960696Y219672157D01*
X62044202Y219688045D01*
X62082688Y219700517D01*
X62144959Y219719030D01*
X62237525Y219731595D01*
X62324686Y219735400D01*
X62436731Y219741139D01*
X62518900Y219757013D01*
X62548198Y219770345D01*
X62602163Y219794069D01*
X62683396Y219815309D01*
X62730372Y219823353D01*
X62811443Y219840218D01*
X62873044Y219863402D01*
X62892232Y219877308D01*
X62941513Y219907869D01*
X62972141Y219913200D01*
X63031486Y219924819D01*
X63089680Y219948438D01*
X63163965Y219985160D01*
X63220600Y220010983D01*
X63328314Y220064707D01*
X63463900Y220143812D01*
X63616059Y220241334D01*
X63773491Y220350307D01*
X63787902Y220360706D01*
X63887571Y220428362D01*
X63982234Y220484733D01*
X64058520Y220522228D01*
X64090860Y220532692D01*
X64137425Y220537709D01*
X64180486Y220529509D01*
X64231873Y220502623D01*
X64303420Y220451585D01*
X64358464Y220409036D01*
X64443855Y220346128D01*
X64518925Y220297824D01*
X64571769Y220271514D01*
X64584371Y220268800D01*
X64635662Y220257187D01*
X64705683Y220228282D01*
X64725834Y220218000D01*
X64777979Y220194678D01*
X64838116Y220179580D01*
X64918373Y220171088D01*
X65030879Y220167586D01*
X65106834Y220167200D01*
X65241095Y220168732D01*
X65336749Y220174406D01*
X65405923Y220185839D01*
X65460745Y220204647D01*
X65487834Y220218000D01*
X65555703Y220249980D01*
X65609043Y220267604D01*
X65619151Y220268800D01*
X65654627Y220286327D01*
X65711720Y220331595D01*
X65779325Y220393638D01*
X65846336Y220461489D01*
X65901648Y220524181D01*
X65934156Y220570747D01*
X65938400Y220584071D01*
X65953901Y220625303D01*
X65989200Y220675200D01*
X66026593Y220734964D01*
X66040900Y220787037D01*
X66054136Y220849210D01*
X66078100Y220903800D01*
X66102545Y220972944D01*
X66113786Y221059528D01*
X66111642Y221144902D01*
X66095932Y221210414D01*
X66081269Y221231370D01*
X66054955Y221273941D01*
X66033598Y221343051D01*
X66030169Y221361480D01*
X66014921Y221424811D01*
X65996498Y221460027D01*
X65990917Y221462600D01*
X65969250Y221484343D01*
X65951866Y221532450D01*
X65925189Y221604509D01*
X65875474Y221669012D01*
X65794182Y221734679D01*
X65689251Y221800643D01*
X65602025Y221849149D01*
X65532911Y221877272D01*
X65460951Y221890490D01*
X65365187Y221894282D01*
X65330549Y221894400D01*
X65216211Y221891113D01*
X65143627Y221880292D01*
X65104120Y221860503D01*
X65100200Y221856300D01*
X65052896Y221823827D01*
X65026056Y221818200D01*
X64973113Y221803362D01*
X64933916Y221780100D01*
X64784027Y221669192D01*
X64664173Y221590610D01*
X64568244Y221540985D01*
X64490131Y221516947D01*
X64450421Y221513400D01*
X64412883Y221531936D01*
X64402802Y221580893D01*
X64416834Y221650294D01*
X64451634Y221730165D01*
X64503858Y221810530D01*
X64570161Y221881414D01*
X64575275Y221885789D01*
X64660950Y221957900D01*
X64640548Y222161300D01*
X64625600Y222272335D01*
X64605115Y222376360D01*
X64583238Y222452742D01*
X64580773Y222458934D01*
X64553905Y222550115D01*
X64541498Y222645220D01*
X64541400Y222652475D01*
X64531610Y222728965D01*
X64506627Y222780312D01*
X64503300Y222783401D01*
X64471120Y222824718D01*
X64465199Y222846358D01*
X64450703Y222882441D01*
X64413280Y222942835D01*
X64376299Y222994124D01*
X64328040Y223060607D01*
X64295686Y223111455D01*
X64287236Y223131127D01*
X64271775Y223159824D01*
X64231690Y223213969D01*
X64183659Y223272350D01*
X64123228Y223339227D01*
X64076822Y223375292D01*
X64027252Y223389815D01*
X63961573Y223392100D01*
X63874461Y223383713D01*
X63798450Y223363769D01*
X63779400Y223354900D01*
X63708325Y223328718D01*
X63627000Y223316839D01*
X63545825Y223304124D01*
X63456123Y223274814D01*
X63436500Y223266000D01*
X63359784Y223235014D01*
X63292084Y223217467D01*
X63276721Y223216062D01*
X63214655Y223199981D01*
X63147882Y223161630D01*
X63093455Y223113445D01*
X63068429Y223067863D01*
X63068200Y223063998D01*
X63079587Y223016432D01*
X63107714Y222949902D01*
X63115122Y222935424D01*
X63151376Y222841147D01*
X63174353Y222730089D01*
X63181794Y222621421D01*
X63171434Y222534314D01*
X63164660Y222515564D01*
X63121118Y222463380D01*
X63063398Y222456825D01*
X62997989Y222495122D01*
X62956914Y222540406D01*
X62914801Y222609739D01*
X62891830Y222675022D01*
X62890400Y222689696D01*
X62876333Y222750274D01*
X62853932Y222782045D01*
X62821670Y222828412D01*
X62801500Y222885001D01*
X62777659Y222948794D01*
X62749067Y222987956D01*
X62717987Y223037706D01*
X62712600Y223068289D01*
X62691145Y223115617D01*
X62664148Y223131027D01*
X62615916Y223161472D01*
X62600242Y223185799D01*
X62572343Y223243153D01*
X62526103Y223321831D01*
X62472682Y223404425D01*
X62423239Y223473527D01*
X62394149Y223507300D01*
X62364949Y223539862D01*
X62316279Y223598930D01*
X62268105Y223659700D01*
X62199652Y223742520D01*
X62128989Y223819905D01*
X62065586Y223882300D01*
X62018911Y223920147D01*
X62003175Y223927088D01*
X61978372Y223943186D01*
X61927324Y223984709D01*
X61861700Y224042121D01*
X61769535Y224118005D01*
X61666343Y224192630D01*
X61601886Y224233491D01*
X61528644Y224278349D01*
X61474507Y224315920D01*
X61454337Y224334358D01*
X61419211Y224354800D01*
X61393411Y224358200D01*
X61337759Y224376588D01*
X61317668Y224393808D01*
X61271503Y224426622D01*
X61219308Y224446491D01*
X61134948Y224483389D01*
X61074158Y224539979D01*
X61042209Y224605373D01*
X61044376Y224668683D01*
X61085931Y224719021D01*
X61087000Y224719695D01*
X61107756Y224746010D01*
X61327446Y224746010D01*
X61345855Y224706939D01*
X61391816Y224670633D01*
X61454703Y224648737D01*
X61522729Y224627820D01*
X61569711Y224599179D01*
X61571805Y224596843D01*
X61611444Y224566154D01*
X61629860Y224561229D01*
X61669104Y224546701D01*
X61738274Y224507908D01*
X61827110Y224451665D01*
X61925354Y224384784D01*
X62022747Y224314081D01*
X62109030Y224246370D01*
X62128310Y224230154D01*
X62258423Y224113755D01*
X62385715Y223990910D01*
X62503040Y223869329D01*
X62603253Y223756724D01*
X62679208Y223660805D01*
X62723763Y223589283D01*
X62725300Y223585894D01*
X62758446Y223527831D01*
X62806969Y223461183D01*
X62859568Y223399424D01*
X62904943Y223356030D01*
X62928500Y223343592D01*
X62966913Y223357823D01*
X63003204Y223381108D01*
X63059303Y223410746D01*
X63095344Y223418400D01*
X63147007Y223436649D01*
X63169800Y223456500D01*
X63218036Y223485659D01*
X63268536Y223494600D01*
X63334319Y223506657D01*
X63412836Y223536523D01*
X63430434Y223545400D01*
X63533963Y223582560D01*
X63645957Y223596589D01*
X63736889Y223600464D01*
X63794484Y223617601D01*
X63826139Y223657332D01*
X63839250Y223728992D01*
X63841213Y223841911D01*
X63841204Y223842970D01*
X63833112Y223985959D01*
X63811068Y224085633D01*
X63796910Y224116900D01*
X63767871Y224175157D01*
X63754289Y224214824D01*
X63754156Y224216831D01*
X63735040Y224280996D01*
X63683200Y224368543D01*
X63605916Y224471542D01*
X63510466Y224582061D01*
X63404128Y224692169D01*
X63294181Y224793936D01*
X63187903Y224879430D01*
X63092573Y224940722D01*
X63087250Y224943514D01*
X63019982Y224981132D01*
X62976184Y225011157D01*
X62966600Y225022674D01*
X62944234Y225037044D01*
X62888411Y225052334D01*
X62866462Y225056453D01*
X62794497Y225076036D01*
X62742864Y225103134D01*
X62736352Y225109486D01*
X62692262Y225134011D01*
X62623890Y225146409D01*
X62614239Y225146715D01*
X62527360Y225156588D01*
X62434199Y225179369D01*
X62421323Y225183722D01*
X62356306Y225201718D01*
X62313577Y225203989D01*
X62307023Y225200317D01*
X62263815Y225162733D01*
X62193284Y225121242D01*
X62116733Y225086645D01*
X62055462Y225069742D01*
X62048825Y225069400D01*
X61987519Y225057482D01*
X61911577Y225027915D01*
X61893165Y225018600D01*
X61818177Y224986009D01*
X61750641Y224968667D01*
X61737902Y224967800D01*
X61677137Y224952653D01*
X61645800Y224929700D01*
X61597823Y224897195D01*
X61570426Y224891600D01*
X61521232Y224873868D01*
X61480700Y224840800D01*
X61431051Y224802348D01*
X61392096Y224790000D01*
X61341292Y224777234D01*
X61327446Y224746010D01*
X61107756Y224746010D01*
X61128752Y224772628D01*
X61137800Y224820441D01*
X61156930Y224877517D01*
X61206647Y224950731D01*
X61275438Y225028383D01*
X61351791Y225098773D01*
X61424193Y225150203D01*
X61481132Y225170973D01*
X61482756Y225171000D01*
X61522602Y225188701D01*
X61544200Y225209100D01*
X61592433Y225238256D01*
X61642956Y225247200D01*
X61704460Y225258259D01*
X61777957Y225285654D01*
X61844937Y225320719D01*
X61886891Y225354785D01*
X61891921Y225363790D01*
X61876593Y225389844D01*
X61828457Y225428642D01*
X61760535Y225471010D01*
X61690250Y225505904D01*
X61652965Y225533879D01*
X61645800Y225551182D01*
X61625501Y225575027D01*
X61611125Y225577400D01*
X61568020Y225592142D01*
X61512571Y225627650D01*
X61511869Y225628201D01*
X61450926Y225664358D01*
X61397253Y225679001D01*
X61339322Y225697329D01*
X61315600Y225717100D01*
X61269045Y225744240D01*
X61203841Y225755200D01*
X61125917Y225768516D01*
X61064999Y225796318D01*
X61003211Y225820946D01*
X60892837Y225843037D01*
X60736050Y225862175D01*
X60710098Y225864633D01*
X60430012Y225883652D01*
X60183028Y225886628D01*
X59972938Y225873803D01*
X59803535Y225845418D01*
X59678612Y225801715D01*
X59672211Y225798398D01*
X59610873Y225769540D01*
X59567155Y225755469D01*
X59563601Y225755200D01*
X59529465Y225740930D01*
X59472245Y225704862D01*
X59405518Y225657112D01*
X59342860Y225607794D01*
X59297847Y225567026D01*
X59283600Y225546579D01*
X59307182Y225538101D01*
X59370677Y225531409D01*
X59463204Y225527378D01*
X59531626Y225526600D01*
X59659695Y225524362D01*
X59750784Y225516294D01*
X59818567Y225500371D01*
X59874434Y225475800D01*
X59944344Y225443643D01*
X60001765Y225426096D01*
X60012809Y225425000D01*
X60056320Y225412897D01*
X60138362Y225378354D01*
X60253299Y225324026D01*
X60395490Y225252567D01*
X60540250Y225176786D01*
X60588039Y225143797D01*
X60657847Y225086711D01*
X60735565Y225017141D01*
X60745022Y225008251D01*
X60820536Y224932997D01*
X60862001Y224880105D01*
X60875414Y224840681D01*
X60872381Y224819437D01*
X60868681Y224761565D01*
X60880659Y224684997D01*
X60885342Y224667868D01*
X60898861Y224575535D01*
X60882145Y224504489D01*
X60838827Y224464779D01*
X60810131Y224459800D01*
X60757954Y224444704D01*
X60699069Y224409000D01*
X60649013Y224373779D01*
X60616483Y224358238D01*
X60615709Y224358200D01*
X60587163Y224343308D01*
X60533546Y224304961D01*
X60488441Y224269300D01*
X60423858Y224220003D01*
X60373087Y224187722D01*
X60353782Y224180400D01*
X60326325Y224163786D01*
X60270462Y224118462D01*
X60194134Y224051210D01*
X60105281Y223968811D01*
X60098742Y223962598D01*
X59992793Y223864572D01*
X59914984Y223799803D01*
X59859328Y223763922D01*
X59819837Y223752557D01*
X59811684Y223753048D01*
X59763034Y223781163D01*
X59745285Y223841756D01*
X59759272Y223926361D01*
X59787870Y223994320D01*
X59822186Y224045178D01*
X59880206Y224115777D01*
X59953311Y224197230D01*
X60032881Y224280645D01*
X60110298Y224357133D01*
X60176941Y224417803D01*
X60224193Y224453765D01*
X60239168Y224459800D01*
X60270595Y224473516D01*
X60328676Y224509004D01*
X60382903Y224546000D01*
X60466772Y224597492D01*
X60550598Y224636231D01*
X60592931Y224648856D01*
X60649260Y224662254D01*
X60663025Y224678128D01*
X60643058Y224704171D01*
X60611646Y224745462D01*
X60604400Y224766415D01*
X60584613Y224788826D01*
X60575683Y224790000D01*
X60540440Y224803759D01*
X60479863Y224839223D01*
X60429633Y224872979D01*
X60351594Y224925800D01*
X60280083Y224970314D01*
X60248800Y224987599D01*
X60188162Y225019304D01*
X60108563Y225062731D01*
X60073354Y225082421D01*
X60000945Y225119202D01*
X59942168Y225141981D01*
X59922955Y225145600D01*
X59874940Y225161645D01*
X59838515Y225187216D01*
X59795159Y225210315D01*
X59719292Y225226875D01*
X59603211Y225238348D01*
X59549849Y225241524D01*
X59435002Y225248666D01*
X59359336Y225257621D01*
X59311243Y225271385D01*
X59279119Y225292956D01*
X59257842Y225316924D01*
X59225358Y225373264D01*
X59230867Y225420946D01*
X59234252Y225427715D01*
X59245629Y225459458D01*
X59226556Y225472994D01*
X59168498Y225475800D01*
X59059779Y225451275D01*
X58989861Y225409329D01*
X58921195Y225366008D01*
X58864159Y225355910D01*
X58832806Y225361600D01*
X58772153Y225372676D01*
X58680684Y225383614D01*
X58579520Y225391951D01*
X58469552Y225395441D01*
X58396189Y225388054D01*
X58346092Y225368214D01*
X58338918Y225363480D01*
X58273983Y225335920D01*
X58194089Y225323462D01*
X58188858Y225323400D01*
X58117739Y225313424D01*
X58067733Y225288847D01*
X58064399Y225285300D01*
X58020453Y225252988D01*
X57996472Y225247201D01*
X57924690Y225227593D01*
X57827595Y225171313D01*
X57710561Y225082171D01*
X57578959Y224963978D01*
X57531000Y224917000D01*
X57424295Y224806161D01*
X57343490Y224709630D01*
X57275450Y224609281D01*
X57207039Y224486993D01*
X57176985Y224428582D01*
X57124783Y224322082D01*
X57084201Y224232478D01*
X57059216Y224169066D01*
X57053807Y224141140D01*
X56742100Y224141140D01*
X56791289Y224174013D01*
X56837858Y224243941D01*
X56846007Y224287196D01*
X56862049Y224354656D01*
X56884107Y224394805D01*
X56914771Y224455719D01*
X56923087Y224496405D01*
X56936482Y224546559D01*
X56969184Y224620324D01*
X56999180Y224675700D01*
X57043165Y224752018D01*
X57077896Y224814496D01*
X57091542Y224840800D01*
X57137915Y224919850D01*
X57205649Y225011523D01*
X57286338Y225106946D01*
X57371574Y225197247D01*
X57452951Y225273554D01*
X57522062Y225326996D01*
X57570499Y225348699D01*
X57572908Y225348801D01*
X57614082Y225367747D01*
X57624987Y225380551D01*
X57662056Y225413887D01*
X57727457Y225455268D01*
X57802152Y225494390D01*
X57867101Y225520951D01*
X57894872Y225526601D01*
X57941538Y225544549D01*
X57959966Y225561286D01*
X58001238Y225585460D01*
X58071893Y225606095D01*
X58106563Y225612119D01*
X58185988Y225628478D01*
X58247724Y225650722D01*
X58262634Y225659984D01*
X58312200Y225677291D01*
X58409694Y225687951D01*
X58552645Y225691698D01*
X58557296Y225691700D01*
X58685128Y225689745D01*
X58773357Y225682849D01*
X58833069Y225669468D01*
X58875347Y225648061D01*
X58876501Y225647251D01*
X58936510Y225615583D01*
X58991483Y225603157D01*
X59025436Y225612386D01*
X59029600Y225624136D01*
X59047582Y225656133D01*
X59094418Y225710042D01*
X59159437Y225775862D01*
X59231969Y225843590D01*
X59301344Y225903223D01*
X59356894Y225944759D01*
X59386153Y225958400D01*
X59438541Y225976681D01*
X59461399Y225996500D01*
X59501507Y226028617D01*
X59522036Y226034600D01*
X59561189Y226045853D01*
X59623753Y226073966D01*
X59645834Y226085401D01*
X59732305Y226119168D01*
X59822420Y226136529D01*
X59835957Y226137101D01*
X59918540Y226147615D01*
X59990513Y226171961D01*
X59994800Y226174300D01*
X60059013Y226194307D01*
X60158991Y226206875D01*
X60280243Y226212006D01*
X60408280Y226209699D01*
G37*
X60408280Y226209699D02*
X60528615Y226199955D01*
X60626757Y226182773D01*
X60655200Y226174300D01*
X60742736Y226152950D01*
X60851285Y226139124D01*
X60919441Y226136200D01*
X61017866Y226130392D01*
X61095596Y226115006D01*
X61125798Y226101704D01*
X61183805Y226074391D01*
X61261964Y226051657D01*
X61276202Y226048805D01*
X61355233Y226027660D01*
X61420075Y225999414D01*
X61427904Y225994402D01*
X61485708Y225965889D01*
X61522999Y225958400D01*
X61568567Y225946044D01*
X61636519Y225915794D01*
X61706936Y225877883D01*
X61759896Y225842540D01*
X61772800Y225830106D01*
X61802471Y225807219D01*
X61851215Y225778172D01*
X61946042Y225721867D01*
X62050067Y225652615D01*
X62148240Y225581150D01*
X62225513Y225518203D01*
X62253477Y225491291D01*
X62285297Y225460498D01*
X62319399Y225441079D01*
X62367824Y225430427D01*
X62442612Y225425936D01*
X62555804Y225425001D01*
X62559772Y225425001D01*
X62694360Y225421998D01*
X62785930Y225412358D01*
X62841947Y225395136D01*
X62853795Y225387708D01*
X62917733Y225358380D01*
X62971450Y225349608D01*
X63027826Y225340334D01*
X63055737Y225323016D01*
X63087952Y225295303D01*
X63145358Y225261999D01*
X63152486Y225258515D01*
X63230945Y225219792D01*
X63316717Y225175922D01*
X63327150Y225170459D01*
X63392713Y225126409D01*
X63479481Y225054855D01*
X63578546Y224964691D01*
X63680998Y224864809D01*
X63777928Y224764104D01*
X63860428Y224671469D01*
X63919589Y224595796D01*
X63943385Y224555285D01*
X63973575Y224492656D01*
X64000082Y224453068D01*
X64004735Y224449118D01*
X64024411Y224416682D01*
X64042351Y224355982D01*
X64044170Y224346854D01*
X64067194Y224262360D01*
X64097693Y224187823D01*
X64120470Y224110510D01*
X64132773Y223988656D01*
X64134843Y223897710D01*
X64134999Y223678520D01*
X64255650Y223582132D01*
X64332130Y223517579D01*
X64400467Y223454102D01*
X64432648Y223420322D01*
X64483095Y223362737D01*
X64524680Y223316800D01*
X64563188Y223259311D01*
X64576525Y223227900D01*
X64603059Y223177690D01*
X64650055Y223113094D01*
X64668643Y223091109D01*
X64715129Y223029165D01*
X64741974Y222975358D01*
X64744600Y222960869D01*
X64762902Y222906692D01*
X64779229Y222887880D01*
X64801629Y222847656D01*
X64821401Y222775822D01*
X64829831Y222723247D01*
X64847540Y222622573D01*
X64873938Y222524464D01*
X64886905Y222488982D01*
X64914680Y222383633D01*
X64912651Y222259993D01*
X64912282Y222256805D01*
X64905001Y222178905D01*
X64908912Y222138880D01*
X64927055Y222124463D01*
X64945461Y222123000D01*
X64991041Y222137319D01*
X65004918Y222154750D01*
X65030760Y222171097D01*
X65098269Y222183249D01*
X65210965Y222191694D01*
X65296640Y222195032D01*
X65442909Y222196537D01*
X65556942Y222187773D01*
X65655170Y222164096D01*
X65754022Y222120864D01*
X65869926Y222053433D01*
X65927805Y222016676D01*
X66009190Y221954062D01*
X66090962Y221874310D01*
X66163503Y221788956D01*
X66217194Y221709538D01*
X66242417Y221647593D01*
X66243200Y221638344D01*
X66261435Y221586966D01*
X66281300Y221564201D01*
X66313030Y221513853D01*
X66319556Y221478540D01*
X66332059Y221418984D01*
X66362023Y221350075D01*
X66363024Y221348300D01*
X66388534Y221275667D01*
X66404262Y221174776D01*
X66410188Y221060714D01*
X66406291Y220948568D01*
X66392551Y220853426D01*
X66368948Y220790375D01*
X66363782Y220783743D01*
X66328901Y220720373D01*
X66319400Y220669961D01*
X66305252Y220607967D01*
X66281300Y220573600D01*
X66249016Y220530224D01*
X66243200Y220506742D01*
X66225379Y220464734D01*
X66192400Y220428007D01*
X66154258Y220388229D01*
X66141600Y220363649D01*
X66122236Y220323402D01*
X66071155Y220263865D01*
X65998869Y220193984D01*
X65915890Y220122705D01*
X65832730Y220058973D01*
X65759903Y220011734D01*
X65707921Y219989933D01*
X65701800Y219989400D01*
X65661401Y219978112D01*
X65598058Y219949918D01*
X65576165Y219938600D01*
X65531683Y219918025D01*
X65481599Y219903844D01*
X65415840Y219894956D01*
X65324335Y219890261D01*
X65197009Y219888656D01*
X65119342Y219888662D01*
X64968149Y219890052D01*
X64857513Y219894123D01*
X64777213Y219901975D01*
X64717030Y219914710D01*
X64666746Y219933427D01*
X64655700Y219938600D01*
X64588653Y219968763D01*
X64540197Y219986579D01*
X64530369Y219988539D01*
X64477842Y220003701D01*
X64402961Y220039907D01*
X64323533Y220087088D01*
X64257367Y220135178D01*
X64236388Y220154725D01*
X64162653Y220207575D01*
X64088556Y220209627D01*
X64014232Y220160884D01*
X64006829Y220153255D01*
X63948161Y220100802D01*
X63860499Y220033784D01*
X63758416Y219962167D01*
X63656486Y219895914D01*
X63569280Y219844991D01*
X63525400Y219824038D01*
X63479331Y219803020D01*
X63412205Y219769380D01*
X63393367Y219759541D01*
X63321905Y219727864D01*
X63261425Y219710900D01*
X63250427Y219710000D01*
X63193093Y219691499D01*
X63169800Y219671900D01*
X63121450Y219642346D01*
X63071439Y219632939D01*
X63006284Y219621288D01*
X62925898Y219593314D01*
X62903100Y219583000D01*
X62812493Y219550692D01*
X62717581Y219533163D01*
X62699900Y219532255D01*
X62621130Y219521967D01*
X62557271Y219498749D01*
X62548995Y219493293D01*
X62489160Y219469811D01*
X62385145Y219457857D01*
X62302232Y219456000D01*
X62178293Y219450091D01*
X62061521Y219434371D01*
X61986925Y219415989D01*
X61894531Y219393928D01*
X61774717Y219383009D01*
X61616532Y219382270D01*
X61605787Y219382523D01*
X61342498Y219389068D01*
X61253874Y219273001D01*
X61184626Y219190977D01*
X61102796Y219106978D01*
X61018269Y219029700D01*
X60940928Y218967838D01*
X60880658Y218930090D01*
X60855596Y218922600D01*
X60803778Y218904407D01*
X60785033Y218887915D01*
X60743761Y218863741D01*
X60673106Y218843106D01*
X60638436Y218837082D01*
X60559608Y218821119D01*
X60498993Y218799812D01*
X60484456Y218790916D01*
X60441098Y218775480D01*
X60361561Y218763507D01*
X60260392Y218755657D01*
X60152134Y218752593D01*
X60051332Y218754973D01*
X59972531Y218763461D01*
X59956700Y218766940D01*
X59881300Y218791721D01*
X59825019Y218816590D01*
X59760229Y218837626D01*
X59682236Y218846400D01*
X59682079Y218846400D01*
X59613326Y218856870D01*
X59564978Y218882293D01*
X59563000Y218884500D01*
X59515696Y218916974D01*
X59488856Y218922600D01*
X59434119Y218941627D01*
X59359583Y218992164D01*
X59274990Y219064393D01*
X59190086Y219148499D01*
X59114613Y219234666D01*
X59058316Y219313076D01*
X59030937Y219373915D01*
X59029753Y219385122D01*
X59020149Y219425508D01*
X58995329Y219493952D01*
X58973811Y219545420D01*
X58939018Y219618934D01*
X58908607Y219657210D01*
X58868025Y219672149D01*
X58814908Y219675383D01*
X58726157Y219681602D01*
X58644393Y219693605D01*
X58635900Y219695454D01*
X58567007Y219710908D01*
X59272685Y219710908D01*
X59287270Y219627691D01*
X59296680Y219590141D01*
X59356046Y219437636D01*
X59444297Y219313103D01*
X59554127Y219226663D01*
X59562132Y219222454D01*
X59625412Y219186807D01*
X59669825Y219155875D01*
X59673356Y219152604D01*
X59715284Y219134262D01*
X59782050Y219125092D01*
X59790330Y219124900D01*
X59872041Y219113752D01*
X59943212Y219088147D01*
X59944000Y219087700D01*
X60018658Y219063692D01*
X60123431Y219052559D01*
X60239288Y219054302D01*
X60347202Y219068919D01*
X60409982Y219087700D01*
X60488268Y219113287D01*
X60559457Y219125604D01*
X60566574Y219125800D01*
X60626187Y219142962D01*
X60705792Y219188450D01*
X60794886Y219253269D01*
X60882970Y219328424D01*
X60959541Y219404919D01*
X61014098Y219473760D01*
X61036139Y219525950D01*
X61036200Y219528070D01*
X61045992Y219563833D01*
X61070819Y219627154D01*
X61086442Y219662777D01*
X61130356Y219815295D01*
X61124881Y219966499D01*
X61087000Y220078300D01*
X61056065Y220154393D01*
X61038499Y220220860D01*
X61037061Y220235971D01*
X61019292Y220277293D01*
X60973666Y220340138D01*
X60910459Y220413648D01*
X60839950Y220486967D01*
X60772418Y220549235D01*
X60718139Y220589596D01*
X60693413Y220599000D01*
X60651610Y220616793D01*
X60629800Y220637100D01*
X60586781Y220657765D01*
X60508361Y220670632D01*
X60409337Y220675703D01*
X60304503Y220672976D01*
X60208658Y220662453D01*
X60136596Y220644133D01*
X60121800Y220637100D01*
X60055463Y220609389D01*
X60005086Y220599901D01*
X59948073Y220581118D01*
X59905900Y220548200D01*
X59863606Y220510302D01*
X59836119Y220497400D01*
X59797863Y220480264D01*
X59734520Y220434615D01*
X59655649Y220369092D01*
X59570809Y220292336D01*
X59489561Y220212985D01*
X59421462Y220139679D01*
X59376929Y220082390D01*
X59343647Y220015853D01*
X59310089Y219925459D01*
X59294702Y219873063D01*
X59275226Y219783570D01*
X59272685Y219710908D01*
X58567007Y219710908D01*
X58560262Y219712421D01*
X58503192Y219724564D01*
X58450448Y219754522D01*
X58411682Y219802850D01*
X58380794Y219844952D01*
X58358741Y219840627D01*
X58322265Y219818970D01*
X58272074Y219811600D01*
X58205127Y219799508D01*
X58125948Y219769564D01*
X58108565Y219760800D01*
X58068059Y219741775D01*
X58022758Y219728171D01*
X57963728Y219719131D01*
X57882033Y219713798D01*
X57768737Y219711313D01*
X57614905Y219710819D01*
X57588242Y219710862D01*
X57425546Y219711905D01*
X57304585Y219714850D01*
X57216304Y219720555D01*
X57151646Y219729878D01*
X57101558Y219743676D01*
X57061100Y219760800D01*
X56989244Y219791378D01*
X56931188Y219809068D01*
X56918160Y219810739D01*
X56867773Y219829720D01*
X56845200Y219849700D01*
X56803882Y219881880D01*
X56782242Y219887800D01*
X56746159Y219902297D01*
X56685765Y219939720D01*
X56634476Y219976700D01*
X56567331Y220025016D01*
X56515051Y220057303D01*
X56494120Y220065600D01*
X56461790Y220083425D01*
X56406613Y220130204D01*
X56338296Y220195895D01*
X56266551Y220270459D01*
X56201086Y220343854D01*
X56151610Y220406038D01*
X56129221Y220442973D01*
X56102369Y220510100D01*
X56072964Y220441477D01*
X56037275Y220378701D01*
X55988025Y220315045D01*
X55938062Y220265105D01*
X55900233Y220243479D01*
X55898628Y220243400D01*
X55864083Y220228992D01*
X55812731Y220194165D01*
X55810730Y220192600D01*
X55751889Y220156617D01*
X55701884Y220141800D01*
X55647696Y220123497D01*
X55628870Y220107159D01*
X55579903Y220079704D01*
X55491509Y220059070D01*
X55374598Y220045263D01*
X55240084Y220038286D01*
X55098878Y220038144D01*
X54961893Y220044843D01*
X54840041Y220058386D01*
X54744234Y220078779D01*
X54685386Y220106026D01*
X54684533Y220106751D01*
X54631197Y220136560D01*
X54565507Y220157049D01*
X54506025Y220178342D01*
X54472936Y220207611D01*
X54472720Y220208151D01*
X54439032Y220238012D01*
X54411925Y220243400D01*
X54367956Y220261012D01*
X54301416Y220307415D01*
X54222948Y220372964D01*
X54143194Y220448010D01*
X54072797Y220522907D01*
X54022398Y220588009D01*
X54011725Y220606167D01*
X53957598Y220750012D01*
X53925191Y220921210D01*
X53918503Y221071251D01*
X54218308Y221071251D01*
X54218977Y220950958D01*
X54223703Y220868335D01*
X54234816Y220810280D01*
X54254649Y220763692D01*
X54280285Y220723061D01*
X54343191Y220651742D01*
X54433315Y220573407D01*
X54533364Y220501153D01*
X54626045Y220448075D01*
X54663080Y220433177D01*
X54724784Y220403862D01*
X54756679Y220379749D01*
X54798014Y220363676D01*
X54877624Y220352036D01*
X54983842Y220344778D01*
X55104998Y220341851D01*
X55229425Y220343205D01*
X55345452Y220348788D01*
X55441413Y220358550D01*
X55505637Y220372439D01*
X55524400Y220383100D01*
X55565717Y220415280D01*
X55587357Y220421200D01*
X55623300Y220435701D01*
X55683793Y220473202D01*
X55737368Y220511814D01*
X55819246Y220565138D01*
X55901546Y220604384D01*
X55944220Y220616738D01*
X56006084Y220630601D01*
X56028097Y220653884D01*
X56015554Y220699798D01*
X55994456Y220742147D01*
X55973778Y220811676D01*
X55960982Y220915171D01*
X55956182Y221036394D01*
X55957026Y221067764D01*
X56235600Y221067764D01*
X56242352Y220903431D01*
X56266385Y220771427D01*
X56313359Y220654629D01*
X56388937Y220535913D01*
X56428680Y220483754D01*
X56512992Y220396093D01*
X56627809Y220303194D01*
X56762035Y220211536D01*
X56904569Y220127597D01*
X57044314Y220057857D01*
X57170170Y220008794D01*
X57271040Y219986886D01*
X57280714Y219986395D01*
X57370608Y219979673D01*
X57453188Y219966840D01*
X57467500Y219963462D01*
X57539464Y219952451D01*
X57594500Y219954676D01*
X57644097Y219962125D01*
X57727193Y219971320D01*
X57826616Y219980378D01*
X57835800Y219981124D01*
X57946600Y219995564D01*
X58042836Y220016918D01*
X58614957Y220016918D01*
X58676228Y219965904D01*
X58753331Y219925505D01*
X58842907Y219912089D01*
X58926797Y219925439D01*
X58986841Y219965337D01*
X58990059Y219969652D01*
X59020558Y220033196D01*
X59029600Y220080842D01*
X59045145Y220138902D01*
X59065207Y220165132D01*
X59099818Y220212822D01*
X59115624Y220253686D01*
X59138668Y220292596D01*
X59188581Y220352781D01*
X59255320Y220424286D01*
X59328844Y220497156D01*
X59399112Y220561435D01*
X59456082Y220607168D01*
X59489547Y220624400D01*
X59512449Y220636988D01*
X59502006Y220663412D01*
X59465241Y220686666D01*
X59463622Y220687195D01*
X59421811Y220712668D01*
X59359558Y220764362D01*
X59292821Y220828607D01*
X59227051Y220891862D01*
X59171613Y220937089D01*
X59138400Y220954598D01*
X59138199Y220954600D01*
X59108245Y220971276D01*
X59105800Y220981500D01*
X59090239Y220996669D01*
X59080400Y220992700D01*
X59067663Y220961152D01*
X59058548Y220893397D01*
X59055000Y220804003D01*
X59055000Y220802547D01*
X59051347Y220700450D01*
X59036459Y220618635D01*
X59004434Y220534242D01*
X58965253Y220454796D01*
X58918115Y220367910D01*
X58876097Y220297695D01*
X58847296Y220257566D01*
X58844603Y220254959D01*
X58810727Y220222423D01*
X58756386Y220166899D01*
X58714328Y220122667D01*
X58614957Y220016918D01*
X58042836Y220016918D01*
X58049556Y220018409D01*
X58120538Y220043715D01*
X58189902Y220073848D01*
X58245419Y220090088D01*
X58255117Y220091000D01*
X58290348Y220108595D01*
X58349336Y220155088D01*
X58422582Y220221043D01*
X58500586Y220297027D01*
X58573848Y220373603D01*
X58632870Y220441336D01*
X58668152Y220490790D01*
X58674000Y220507057D01*
X58690780Y220554286D01*
X58714181Y220584753D01*
X58740936Y220638271D01*
X58760643Y220730578D01*
X58773319Y220850156D01*
X58778978Y220985488D01*
X58777636Y221125057D01*
X58769308Y221257345D01*
X58754011Y221370835D01*
X58731760Y221454009D01*
X58712965Y221487044D01*
X58681320Y221540602D01*
X58674000Y221574545D01*
X58656850Y221607289D01*
X58609582Y221668133D01*
X58538464Y221749729D01*
X58449767Y221844729D01*
X58399365Y221896395D01*
X58124730Y222173800D01*
X57997819Y222173800D01*
X57908733Y222181480D01*
X57838630Y222201301D01*
X57821604Y222211093D01*
X57773819Y222228173D01*
X57689318Y222240753D01*
X57579735Y222248822D01*
X57456701Y222252366D01*
X57331850Y222251375D01*
X57216812Y222245836D01*
X57123220Y222235736D01*
X57062707Y222221063D01*
X57048399Y222211900D01*
X56999796Y222182303D01*
X56952170Y222173800D01*
X56917690Y222171797D01*
X56886106Y222161597D01*
X56848650Y222136919D01*
X56796556Y222091480D01*
X56721057Y222018997D01*
X56680100Y221978822D01*
X56571581Y221869058D01*
X56492808Y221780593D01*
X56434782Y221701872D01*
X56388502Y221621342D01*
X56367006Y221576900D01*
X56326294Y221490893D01*
X56287898Y221413135D01*
X56271958Y221382481D01*
X56250252Y221309941D01*
X56238286Y221190097D01*
X56235600Y221067764D01*
X55957026Y221067764D01*
X55959487Y221159110D01*
X55971011Y221267081D01*
X55990314Y221342766D01*
X56018360Y221424913D01*
X56041451Y221516730D01*
X56043263Y221526100D01*
X56064824Y221602576D01*
X56094159Y221662406D01*
X56100537Y221670550D01*
X56123817Y221719058D01*
X56108953Y221754483D01*
X56063148Y221761337D01*
X56058797Y221760302D01*
X56004322Y221763323D01*
X55953713Y221782589D01*
X55884877Y221806600D01*
X55804141Y221817288D01*
X55803101Y221817300D01*
X55723843Y221829551D01*
X55656900Y221857860D01*
X55655691Y221858694D01*
X55599189Y221879208D01*
X55505288Y221893824D01*
X55386945Y221902502D01*
X55257118Y221905208D01*
X55128764Y221901903D01*
X55014841Y221892551D01*
X54928306Y221877116D01*
X54888223Y221860876D01*
X54817877Y221828545D01*
X54758010Y221818200D01*
X54699529Y221807469D01*
X54668412Y221786215D01*
X54635724Y221753250D01*
X54577698Y221708381D01*
X54552275Y221690965D01*
X54487291Y221638106D01*
X54409752Y221560837D01*
X54337898Y221477651D01*
X54219345Y221327602D01*
X54218308Y221071251D01*
X53918503Y221071251D01*
X53917221Y221100002D01*
X53927509Y221218238D01*
X53944032Y221313370D01*
X53961395Y221391525D01*
X53975943Y221436334D01*
X53976414Y221437200D01*
X54000547Y221482363D01*
X54036127Y221551419D01*
X54051631Y221582045D01*
X54090315Y221642481D01*
X54150949Y221719286D01*
X54224606Y221803105D01*
X54302358Y221884582D01*
X54375276Y221954360D01*
X54434433Y222003085D01*
X54470897Y222021400D01*
X54512058Y222039163D01*
X54533799Y222059500D01*
X54581635Y222088179D01*
X54635399Y222097600D01*
X54698696Y222110436D01*
X54736442Y222135028D01*
X54781315Y222163882D01*
X54850269Y222185240D01*
X54860202Y222186976D01*
X54938965Y222200494D01*
X55039251Y222219223D01*
X55098949Y222230988D01*
X55244999Y222260479D01*
X55245001Y222261282D01*
X55532912Y222261282D01*
X55537575Y222221131D01*
X55550290Y222203591D01*
X55572609Y222199303D01*
X55582606Y222199200D01*
X55641044Y222187370D01*
X55715312Y222157993D01*
X55734234Y222148400D01*
X55803279Y222116318D01*
X55858973Y222098738D01*
X55869638Y222097600D01*
X55918962Y222086340D01*
X55984448Y222058925D01*
X55990380Y222055892D01*
X56055838Y222022319D01*
X56106220Y221997311D01*
X56108600Y221996180D01*
X56140086Y221959423D01*
X56154737Y221910889D01*
X56166151Y221860093D01*
X56186534Y221849758D01*
X56220337Y221881620D01*
X56271373Y221956405D01*
X56335323Y222046157D01*
X56410275Y222136096D01*
X56435188Y222162467D01*
X56516662Y222236106D01*
X56611979Y222309502D01*
X56709331Y222374927D01*
X56796910Y222424653D01*
X56862908Y222450954D01*
X56879444Y222453200D01*
X56945778Y222467780D01*
X56985598Y222488189D01*
X57026039Y222503130D01*
X57103690Y222515956D01*
X57222331Y222527059D01*
X57385744Y222536832D01*
X57505431Y222542163D01*
X57671581Y222549233D01*
X57794330Y222555760D01*
X57881052Y222562796D01*
X57939123Y222571392D01*
X57975915Y222582600D01*
X57998804Y222597472D01*
X58013431Y222614608D01*
X58048288Y222672447D01*
X58064400Y222709788D01*
X58092280Y222759595D01*
X58151309Y222837264D01*
X58235325Y222936186D01*
X58338161Y223049750D01*
X58453655Y223171346D01*
X58575641Y223294365D01*
X58697956Y223412197D01*
X58814436Y223518232D01*
X58835290Y223536406D01*
X58894744Y223592123D01*
X58930907Y223634680D01*
X58936204Y223654028D01*
X58899523Y223661646D01*
X58833323Y223665693D01*
X58808999Y223665909D01*
X58719580Y223677011D01*
X58661135Y223707037D01*
X58612833Y223740339D01*
X58582392Y223748600D01*
X58533203Y223761409D01*
X58488956Y223783704D01*
X58433021Y223805738D01*
X58348149Y223825528D01*
X58281972Y223835275D01*
X58194166Y223849205D01*
X58123907Y223868089D01*
X58093984Y223882722D01*
X58056174Y223895581D01*
X57975357Y223905932D01*
X57849327Y223913938D01*
X57675874Y223919764D01*
X57567696Y223921962D01*
X57391565Y223924315D01*
X57258555Y223924316D01*
X57161026Y223921522D01*
X57091334Y223915495D01*
X57041836Y223905793D01*
X57004892Y223891975D01*
X56999319Y223889189D01*
X56931819Y223865378D01*
X56836156Y223844755D01*
X56749233Y223833464D01*
X56652453Y223820719D01*
X56569316Y223802048D01*
X56522243Y223783687D01*
X56460402Y223756324D01*
X56418180Y223748600D01*
X56365011Y223732614D01*
X56311800Y223697800D01*
X56259816Y223661351D01*
X56220601Y223647000D01*
X56185030Y223628981D01*
X56126277Y223581209D01*
X56053496Y223513112D01*
X55975838Y223434117D01*
X55902457Y223353653D01*
X55842505Y223281147D01*
X55805135Y223226027D01*
X55799204Y223212937D01*
X55775135Y223161152D01*
X55752905Y223139012D01*
X55752533Y223139000D01*
X55732985Y223117159D01*
X55715303Y223064638D01*
X55715285Y223064556D01*
X55691569Y223000247D01*
X55662467Y222959845D01*
X55634651Y222912813D01*
X55626000Y222862142D01*
X55612934Y222790252D01*
X55591648Y222744602D01*
X55574370Y222696357D01*
X55558250Y222610182D01*
X55545454Y222498937D01*
X55541529Y222446850D01*
X55534747Y222333402D01*
X55532912Y222261282D01*
X55245001Y222261282D01*
X55245605Y222452090D01*
X55250292Y222587462D01*
X55265772Y222709073D01*
X55295564Y222830048D01*
X55343189Y222963514D01*
X55412167Y223122596D01*
X55443439Y223189800D01*
X55502820Y223304054D01*
X55573072Y223422288D01*
X55639239Y223519367D01*
X55640754Y223521362D01*
X55709815Y223603929D01*
X55789295Y223686789D01*
X55869316Y223760992D01*
X55939998Y223817584D01*
X55991461Y223847614D01*
X56003662Y223850200D01*
X56038908Y223869127D01*
X56050187Y223883373D01*
X56090050Y223919719D01*
X56159728Y223961510D01*
X56240421Y223999446D01*
X56313331Y224024226D01*
X56344332Y224028901D01*
X56409170Y224042243D01*
X56464200Y224066100D01*
X56533424Y224091066D01*
X56616755Y224103133D01*
X56624104Y224103300D01*
X56715442Y224123324D01*
X56742100Y224141140D01*
X57053807Y224141140D01*
X57053927Y224141007D01*
X57084623Y224139728D01*
X57145991Y224153285D01*
X57186579Y224165876D01*
X57264260Y224182773D01*
X57377713Y224195419D01*
X57515511Y224203771D01*
X57666223Y224207781D01*
X57818422Y224207407D01*
X57960679Y224202602D01*
X58081564Y224193322D01*
X58169650Y224179521D01*
X58200261Y224169861D01*
X58273976Y224146348D01*
X58369114Y224127917D01*
X58413907Y224122765D01*
X58500924Y224108376D01*
X58571015Y224084270D01*
X58593707Y224069804D01*
X58647718Y224036745D01*
X58684752Y224028000D01*
X58738904Y224008155D01*
X58805425Y223957593D01*
X58871602Y223889772D01*
X58924723Y223818154D01*
X58952076Y223756197D01*
X58953400Y223743555D01*
X58963249Y223686440D01*
X58992591Y223676226D01*
X59036330Y223708159D01*
X59102438Y223748826D01*
X59192244Y223775194D01*
X59280771Y223781615D01*
X59323861Y223773179D01*
X59371557Y223738658D01*
X59385199Y223675856D01*
X59385200Y223675499D01*
X59378336Y223630212D01*
X59351517Y223589715D01*
X59295396Y223543066D01*
X59239150Y223504509D01*
X59128286Y223422208D01*
X58988464Y223303410D01*
X58822798Y223151013D01*
X58634398Y222967918D01*
X58426378Y222757024D01*
X58336754Y222663836D01*
X58164608Y222483617D01*
X58242810Y222423959D01*
X58391542Y222304980D01*
X58532542Y222181961D01*
X58656971Y222063287D01*
X58755987Y221957342D01*
X58815167Y221881165D01*
X58865956Y221807561D01*
X58907875Y221752016D01*
X58930500Y221727755D01*
X58948535Y221693904D01*
X58953400Y221654712D01*
X58968958Y221594398D01*
X58991500Y221564200D01*
X59023802Y221524256D01*
X59029988Y221503940D01*
X59043012Y221457876D01*
X59051938Y221441285D01*
X59073571Y221430321D01*
X59111944Y221449767D01*
X59174476Y221503653D01*
X59184899Y221513524D01*
X59265917Y221585793D01*
X59365337Y221667585D01*
X59448700Y221731523D01*
X59528800Y221790893D01*
X59596344Y221842096D01*
X59637565Y221874687D01*
X59639200Y221876079D01*
X59681747Y221904928D01*
X59752702Y221945855D01*
X59817000Y221979851D01*
X59907036Y222027215D01*
X59990707Y222073913D01*
X60032900Y222099228D01*
X60105292Y222140806D01*
X60172493Y222172874D01*
X60172600Y222172916D01*
X60243244Y222204317D01*
X60308008Y222236794D01*
X60372271Y222264334D01*
X60423006Y222275400D01*
X60475787Y222289423D01*
X60522940Y222315216D01*
X60599402Y222346837D01*
X60666345Y222338077D01*
X60712704Y222296417D01*
X60727415Y222229338D01*
X60717724Y222183516D01*
X60671613Y222115336D01*
X60588954Y222050233D01*
X60502800Y222006736D01*
X60437406Y221977325D01*
X60346866Y221932736D01*
X60250280Y221882747D01*
X60166748Y221837134D01*
X60134500Y221818200D01*
X60069048Y221780376D01*
X59981165Y221732505D01*
X59918600Y221699765D01*
X59824908Y221645896D01*
X59716673Y221575177D01*
X59623100Y221507260D01*
X59546999Y221449946D01*
X59486195Y221407334D01*
X59451740Y221387092D01*
X59448880Y221386400D01*
X59413346Y221368124D01*
X59366981Y221325292D01*
X59326705Y221275900D01*
X59309438Y221238085D01*
X59326323Y221203633D01*
X59370707Y221148028D01*
X59423725Y221092569D01*
X59522444Y220980630D01*
X59573077Y220883535D01*
X59575471Y220801578D01*
X59574707Y220799073D01*
X59567328Y220745415D01*
X59591747Y220728436D01*
X59649223Y220748070D01*
X59721594Y220791240D01*
X59802649Y220838119D01*
X59876761Y220870082D01*
X59918020Y220879208D01*
X59988995Y220894800D01*
X60031404Y220917308D01*
X60087675Y220939934D01*
X60185364Y220952021D01*
X60286900Y220954600D01*
X60418303Y220949834D01*
X60504668Y220935055D01*
X60542395Y220917308D01*
X60597148Y220894549D01*
X60677369Y220880880D01*
X60712610Y220879208D01*
X60796275Y220871558D01*
X60871601Y220844593D01*
X60960176Y220790385D01*
X60966610Y220785936D01*
X61079700Y220702359D01*
X61166849Y220627777D01*
X61221841Y220567986D01*
X61238694Y220532261D01*
X61256979Y220493279D01*
X61276827Y220472558D01*
X61307168Y220427103D01*
X61329639Y220359304D01*
X61330454Y220355148D01*
X61346400Y220291929D01*
X61369186Y220273611D01*
X61410509Y220294528D01*
X61428404Y220307708D01*
X61491721Y220332239D01*
X61595359Y220344129D01*
X61638751Y220345000D01*
X61729129Y220347857D01*
X61786125Y220362043D01*
X61814329Y220395982D01*
X61818329Y220458101D01*
X61802714Y220556823D01*
X61789248Y220621317D01*
X61768825Y220726582D01*
X61753924Y220822883D01*
X61747468Y220891029D01*
X61747400Y220895944D01*
X61731902Y220976074D01*
X61688410Y221085004D01*
X61621423Y221212488D01*
X61574800Y221288984D01*
X61484314Y221426281D01*
X61399807Y221546775D01*
X61328232Y221640838D01*
X61284270Y221691287D01*
X61226845Y221756541D01*
X61180275Y221819476D01*
X61153573Y221870095D01*
X61157931Y221908244D01*
X61177744Y221940126D01*
X61219888Y221983255D01*
X61269051Y221991332D01*
X61336525Y221963995D01*
X61385954Y221933455D01*
X61508982Y221842530D01*
X61608883Y221743132D01*
X61703416Y221617053D01*
X61722000Y221588944D01*
X61766059Y221527624D01*
X61798200Y221488796D01*
X61843010Y221427003D01*
X61894299Y221337258D01*
X61945191Y221234270D01*
X61988811Y221132748D01*
X62018282Y221047401D01*
X62027074Y220999152D01*
X62034853Y220924469D01*
X62054186Y220831566D01*
X62065174Y220791814D01*
X62087682Y220703357D01*
X62101225Y220622610D01*
X62103000Y220594964D01*
X62103810Y220563457D01*
X62111205Y220541293D01*
X62132630Y220527089D01*
X62175532Y220519466D01*
X62247356Y220517041D01*
X62355548Y220518434D01*
X62496463Y220521974D01*
X62637858Y220527981D01*
X62739750Y220538514D01*
X62813356Y220555248D01*
X62864387Y220576828D01*
X62932239Y220607780D01*
X62987071Y220623791D01*
X62994863Y220624400D01*
X63045502Y220642602D01*
X63068200Y220662500D01*
X63123045Y220698024D01*
X63182634Y220692746D01*
X63234630Y220653706D01*
X63266695Y220587943D01*
X63271400Y220546546D01*
X63260540Y220490936D01*
X63221184Y220440190D01*
X63165989Y220395960D01*
X63094294Y220351422D01*
X63030332Y220323906D01*
X63006540Y220319600D01*
X62944800Y220305199D01*
X62894470Y220278953D01*
X62865910Y220263974D01*
X62824784Y220253539D01*
X62763333Y220247153D01*
X62673796Y220244319D01*
X62548413Y220244543D01*
X62394484Y220247027D01*
X62232186Y220249713D01*
X62113253Y220250064D01*
X62030285Y220247565D01*
X61975879Y220241696D01*
X61942633Y220231939D01*
X61923147Y220217778D01*
X61919815Y220213820D01*
X61857845Y220162975D01*
X61764361Y220117245D01*
X61658605Y220083816D01*
X61559819Y220069876D01*
X61535948Y220070449D01*
X61429900Y220078300D01*
X61422357Y219890178D01*
X61420458Y219793353D01*
X61422499Y219713963D01*
X61428030Y219667882D01*
X61428730Y219665788D01*
X61443092Y219650148D01*
X61477036Y219641359D01*
X61538994Y219638908D01*
X61637401Y219642283D01*
X61728373Y219647577D01*
X61850874Y219657989D01*
X61960696Y219672157D01*
X62044202Y219688045D01*
X62082688Y219700517D01*
X62144959Y219719030D01*
X62237525Y219731595D01*
X62324686Y219735400D01*
X62436731Y219741139D01*
X62518900Y219757013D01*
X62548198Y219770345D01*
X62602163Y219794069D01*
X62683396Y219815309D01*
X62730372Y219823353D01*
X62811443Y219840218D01*
X62873044Y219863402D01*
X62892232Y219877308D01*
X62941513Y219907869D01*
X62972141Y219913200D01*
X63031486Y219924819D01*
X63089680Y219948438D01*
X63163965Y219985160D01*
X63220600Y220010983D01*
X63328314Y220064707D01*
X63463900Y220143812D01*
X63616059Y220241334D01*
X63773491Y220350307D01*
X63787902Y220360706D01*
X63887571Y220428362D01*
X63982234Y220484733D01*
X64058520Y220522228D01*
X64090860Y220532692D01*
X64137425Y220537709D01*
X64180486Y220529509D01*
X64231873Y220502623D01*
X64303420Y220451585D01*
X64358464Y220409036D01*
X64443855Y220346128D01*
X64518925Y220297824D01*
X64571769Y220271514D01*
X64584371Y220268800D01*
X64635662Y220257187D01*
X64705683Y220228282D01*
X64725834Y220218000D01*
X64777979Y220194678D01*
X64838116Y220179580D01*
X64918373Y220171088D01*
X65030879Y220167586D01*
X65106834Y220167200D01*
X65241095Y220168732D01*
X65336749Y220174406D01*
X65405923Y220185839D01*
X65460745Y220204647D01*
X65487834Y220218000D01*
X65555703Y220249980D01*
X65609043Y220267604D01*
X65619151Y220268800D01*
X65654627Y220286327D01*
X65711720Y220331595D01*
X65779325Y220393638D01*
X65846336Y220461489D01*
X65901648Y220524181D01*
X65934156Y220570747D01*
X65938400Y220584071D01*
X65953901Y220625303D01*
X65989200Y220675200D01*
X66026593Y220734964D01*
X66040900Y220787037D01*
X66054136Y220849210D01*
X66078100Y220903800D01*
X66102545Y220972944D01*
X66113786Y221059528D01*
X66111642Y221144902D01*
X66095932Y221210414D01*
X66081269Y221231370D01*
X66054955Y221273941D01*
X66033598Y221343051D01*
X66030169Y221361480D01*
X66014921Y221424811D01*
X65996498Y221460027D01*
X65990917Y221462600D01*
X65969250Y221484343D01*
X65951866Y221532450D01*
X65925189Y221604509D01*
X65875474Y221669012D01*
X65794182Y221734679D01*
X65689251Y221800643D01*
X65602025Y221849149D01*
X65532911Y221877272D01*
X65460951Y221890490D01*
X65365187Y221894282D01*
X65330549Y221894400D01*
X65216211Y221891113D01*
X65143627Y221880292D01*
X65104120Y221860503D01*
X65100200Y221856300D01*
X65052896Y221823827D01*
X65026056Y221818200D01*
X64973113Y221803362D01*
X64933916Y221780100D01*
X64784027Y221669192D01*
X64664173Y221590610D01*
X64568244Y221540985D01*
X64490131Y221516947D01*
X64450421Y221513400D01*
X64412883Y221531936D01*
X64402802Y221580893D01*
X64416834Y221650294D01*
X64451634Y221730165D01*
X64503858Y221810530D01*
X64570161Y221881414D01*
X64575275Y221885789D01*
X64660950Y221957900D01*
X64640548Y222161300D01*
X64625600Y222272335D01*
X64605115Y222376360D01*
X64583238Y222452742D01*
X64580773Y222458934D01*
X64553905Y222550115D01*
X64541498Y222645220D01*
X64541400Y222652475D01*
X64531610Y222728965D01*
X64506627Y222780312D01*
X64503300Y222783401D01*
X64471120Y222824718D01*
X64465199Y222846358D01*
X64450703Y222882441D01*
X64413280Y222942835D01*
X64376299Y222994124D01*
X64328040Y223060607D01*
X64295686Y223111455D01*
X64287236Y223131127D01*
X64271775Y223159824D01*
X64231690Y223213969D01*
X64183659Y223272350D01*
X64123228Y223339227D01*
X64076822Y223375292D01*
X64027252Y223389815D01*
X63961573Y223392100D01*
X63874461Y223383713D01*
X63798450Y223363769D01*
X63779400Y223354900D01*
X63708325Y223328718D01*
X63627000Y223316839D01*
X63545825Y223304124D01*
X63456123Y223274814D01*
X63436500Y223266000D01*
X63359784Y223235014D01*
X63292084Y223217467D01*
X63276721Y223216062D01*
X63214655Y223199981D01*
X63147882Y223161630D01*
X63093455Y223113445D01*
X63068429Y223067863D01*
X63068200Y223063998D01*
X63079587Y223016432D01*
X63107714Y222949902D01*
X63115122Y222935424D01*
X63151376Y222841147D01*
X63174353Y222730089D01*
X63181794Y222621421D01*
X63171434Y222534314D01*
X63164660Y222515564D01*
X63121118Y222463380D01*
X63063398Y222456825D01*
X62997989Y222495122D01*
X62956914Y222540406D01*
X62914801Y222609739D01*
X62891830Y222675022D01*
X62890400Y222689696D01*
X62876333Y222750274D01*
X62853932Y222782045D01*
X62821670Y222828412D01*
X62801500Y222885001D01*
X62777659Y222948794D01*
X62749067Y222987956D01*
X62717987Y223037706D01*
X62712600Y223068289D01*
X62691145Y223115617D01*
X62664148Y223131027D01*
X62615916Y223161472D01*
X62600242Y223185799D01*
X62572343Y223243153D01*
X62526103Y223321831D01*
X62472682Y223404425D01*
X62423239Y223473527D01*
X62394149Y223507300D01*
X62364949Y223539862D01*
X62316279Y223598930D01*
X62268105Y223659700D01*
X62199652Y223742520D01*
X62128989Y223819905D01*
X62065586Y223882300D01*
X62018911Y223920147D01*
X62003175Y223927088D01*
X61978372Y223943186D01*
X61927324Y223984709D01*
X61861700Y224042121D01*
X61769535Y224118005D01*
X61666343Y224192630D01*
X61601886Y224233491D01*
X61528644Y224278349D01*
X61474507Y224315920D01*
X61454337Y224334358D01*
X61419211Y224354800D01*
X61393411Y224358200D01*
X61337759Y224376588D01*
X61317668Y224393808D01*
X61271503Y224426622D01*
X61219308Y224446491D01*
X61134948Y224483389D01*
X61074158Y224539979D01*
X61042209Y224605373D01*
X61044376Y224668683D01*
X61085931Y224719021D01*
X61087000Y224719695D01*
X61107756Y224746010D01*
X61327446Y224746010D01*
X61345855Y224706939D01*
X61391816Y224670633D01*
X61454703Y224648737D01*
X61522729Y224627820D01*
X61569711Y224599179D01*
X61571805Y224596843D01*
X61611444Y224566154D01*
X61629860Y224561229D01*
X61669104Y224546701D01*
X61738274Y224507908D01*
X61827110Y224451665D01*
X61925354Y224384784D01*
X62022747Y224314081D01*
X62109030Y224246370D01*
X62128310Y224230154D01*
X62258423Y224113755D01*
X62385715Y223990910D01*
X62503040Y223869329D01*
X62603253Y223756724D01*
X62679208Y223660805D01*
X62723763Y223589283D01*
X62725300Y223585894D01*
X62758446Y223527831D01*
X62806969Y223461183D01*
X62859568Y223399424D01*
X62904943Y223356030D01*
X62928500Y223343592D01*
X62966913Y223357823D01*
X63003204Y223381108D01*
X63059303Y223410746D01*
X63095344Y223418400D01*
X63147007Y223436649D01*
X63169800Y223456500D01*
X63218036Y223485659D01*
X63268536Y223494600D01*
X63334319Y223506657D01*
X63412836Y223536523D01*
X63430434Y223545400D01*
X63533963Y223582560D01*
X63645957Y223596589D01*
X63736889Y223600464D01*
X63794484Y223617601D01*
X63826139Y223657332D01*
X63839250Y223728992D01*
X63841213Y223841911D01*
X63841204Y223842970D01*
X63833112Y223985959D01*
X63811068Y224085633D01*
X63796910Y224116900D01*
X63767871Y224175157D01*
X63754289Y224214824D01*
X63754156Y224216831D01*
X63735040Y224280996D01*
X63683200Y224368543D01*
X63605916Y224471542D01*
X63510466Y224582061D01*
X63404128Y224692169D01*
X63294181Y224793936D01*
X63187903Y224879430D01*
X63092573Y224940722D01*
X63087250Y224943514D01*
X63019982Y224981132D01*
X62976184Y225011157D01*
X62966600Y225022674D01*
X62944234Y225037044D01*
X62888411Y225052334D01*
X62866462Y225056453D01*
X62794497Y225076036D01*
X62742864Y225103134D01*
X62736352Y225109486D01*
X62692262Y225134011D01*
X62623890Y225146409D01*
X62614239Y225146715D01*
X62527360Y225156588D01*
X62434199Y225179369D01*
X62421323Y225183722D01*
X62356306Y225201718D01*
X62313577Y225203989D01*
X62307023Y225200317D01*
X62263815Y225162733D01*
X62193284Y225121242D01*
X62116733Y225086645D01*
X62055462Y225069742D01*
X62048825Y225069400D01*
X61987519Y225057482D01*
X61911577Y225027915D01*
X61893165Y225018600D01*
X61818177Y224986009D01*
X61750641Y224968667D01*
X61737902Y224967800D01*
X61677137Y224952653D01*
X61645800Y224929700D01*
X61597823Y224897195D01*
X61570426Y224891600D01*
X61521232Y224873868D01*
X61480700Y224840800D01*
X61431051Y224802348D01*
X61392096Y224790000D01*
X61341292Y224777234D01*
X61327446Y224746010D01*
X61107756Y224746010D01*
X61128752Y224772628D01*
X61137800Y224820441D01*
X61156930Y224877517D01*
X61206647Y224950731D01*
X61275438Y225028383D01*
X61351791Y225098773D01*
X61424193Y225150203D01*
X61481132Y225170973D01*
X61482756Y225171000D01*
X61522602Y225188701D01*
X61544200Y225209100D01*
X61592433Y225238256D01*
X61642956Y225247200D01*
X61704460Y225258259D01*
X61777957Y225285654D01*
X61844937Y225320719D01*
X61886891Y225354785D01*
X61891921Y225363790D01*
X61876593Y225389844D01*
X61828457Y225428642D01*
X61760535Y225471010D01*
X61690250Y225505904D01*
X61652965Y225533879D01*
X61645800Y225551182D01*
X61625501Y225575027D01*
X61611125Y225577400D01*
X61568020Y225592142D01*
X61512571Y225627650D01*
X61511869Y225628201D01*
X61450926Y225664358D01*
X61397253Y225679001D01*
X61339322Y225697329D01*
X61315600Y225717100D01*
X61269045Y225744240D01*
X61203841Y225755200D01*
X61125917Y225768516D01*
X61064999Y225796318D01*
X61003211Y225820946D01*
X60892837Y225843037D01*
X60736050Y225862175D01*
X60710098Y225864633D01*
X60430012Y225883652D01*
X60183028Y225886628D01*
X59972938Y225873803D01*
X59803535Y225845418D01*
X59678612Y225801715D01*
X59672211Y225798398D01*
X59610873Y225769540D01*
X59567155Y225755469D01*
X59563601Y225755200D01*
X59529465Y225740930D01*
X59472245Y225704862D01*
X59405518Y225657112D01*
X59342860Y225607794D01*
X59297847Y225567026D01*
X59283600Y225546579D01*
X59307182Y225538101D01*
X59370677Y225531409D01*
X59463204Y225527378D01*
X59531626Y225526600D01*
X59659695Y225524362D01*
X59750784Y225516294D01*
X59818567Y225500371D01*
X59874434Y225475800D01*
X59944344Y225443643D01*
X60001765Y225426096D01*
X60012809Y225425000D01*
X60056320Y225412897D01*
X60138362Y225378354D01*
X60253299Y225324026D01*
X60395490Y225252567D01*
X60540250Y225176786D01*
X60588039Y225143797D01*
X60657847Y225086711D01*
X60735565Y225017141D01*
X60745022Y225008251D01*
X60820536Y224932997D01*
X60862001Y224880105D01*
X60875414Y224840681D01*
X60872381Y224819437D01*
X60868681Y224761565D01*
X60880659Y224684997D01*
X60885342Y224667868D01*
X60898861Y224575535D01*
X60882145Y224504489D01*
X60838827Y224464779D01*
X60810131Y224459800D01*
X60757954Y224444704D01*
X60699069Y224409000D01*
X60649013Y224373779D01*
X60616483Y224358238D01*
X60615709Y224358200D01*
X60587163Y224343308D01*
X60533546Y224304961D01*
X60488441Y224269300D01*
X60423858Y224220003D01*
X60373087Y224187722D01*
X60353782Y224180400D01*
X60326325Y224163786D01*
X60270462Y224118462D01*
X60194134Y224051210D01*
X60105281Y223968811D01*
X60098742Y223962598D01*
X59992793Y223864572D01*
X59914984Y223799803D01*
X59859328Y223763922D01*
X59819837Y223752557D01*
X59811684Y223753048D01*
X59763034Y223781163D01*
X59745285Y223841756D01*
X59759272Y223926361D01*
X59787870Y223994320D01*
X59822186Y224045178D01*
X59880206Y224115777D01*
X59953311Y224197230D01*
X60032881Y224280645D01*
X60110298Y224357133D01*
X60176941Y224417803D01*
X60224193Y224453765D01*
X60239168Y224459800D01*
X60270595Y224473516D01*
X60328676Y224509004D01*
X60382903Y224546000D01*
X60466772Y224597492D01*
X60550598Y224636231D01*
X60592931Y224648856D01*
X60649260Y224662254D01*
X60663025Y224678128D01*
X60643058Y224704171D01*
X60611646Y224745462D01*
X60604400Y224766415D01*
X60584613Y224788826D01*
X60575683Y224790000D01*
X60540440Y224803759D01*
X60479863Y224839223D01*
X60429633Y224872979D01*
X60351594Y224925800D01*
X60280083Y224970314D01*
X60248800Y224987599D01*
X60188162Y225019304D01*
X60108563Y225062731D01*
X60073354Y225082421D01*
X60000945Y225119202D01*
X59942168Y225141981D01*
X59922955Y225145600D01*
X59874940Y225161645D01*
X59838515Y225187216D01*
X59795159Y225210315D01*
X59719292Y225226875D01*
X59603211Y225238348D01*
X59549849Y225241524D01*
X59435002Y225248666D01*
X59359336Y225257621D01*
X59311243Y225271385D01*
X59279119Y225292956D01*
X59257842Y225316924D01*
X59225358Y225373264D01*
X59230867Y225420946D01*
X59234252Y225427715D01*
X59245629Y225459458D01*
X59226556Y225472994D01*
X59168498Y225475800D01*
X59059779Y225451275D01*
X58989861Y225409329D01*
X58921195Y225366008D01*
X58864159Y225355910D01*
X58832806Y225361600D01*
X58772153Y225372676D01*
X58680684Y225383614D01*
X58579520Y225391951D01*
X58469552Y225395441D01*
X58396189Y225388054D01*
X58346092Y225368214D01*
X58338918Y225363480D01*
X58273983Y225335920D01*
X58194089Y225323462D01*
X58188858Y225323400D01*
X58117739Y225313424D01*
X58067733Y225288847D01*
X58064399Y225285300D01*
X58020453Y225252988D01*
X57996472Y225247201D01*
X57924690Y225227593D01*
X57827595Y225171313D01*
X57710561Y225082171D01*
X57578959Y224963978D01*
X57531000Y224917000D01*
X57424295Y224806161D01*
X57343490Y224709630D01*
X57275450Y224609281D01*
X57207039Y224486993D01*
X57176985Y224428582D01*
X57124783Y224322082D01*
X57084201Y224232478D01*
X57059216Y224169066D01*
X57053807Y224141140D01*
X56742100Y224141140D01*
X56791289Y224174013D01*
X56837858Y224243941D01*
X56846007Y224287196D01*
X56862049Y224354656D01*
X56884107Y224394805D01*
X56914771Y224455719D01*
X56923087Y224496405D01*
X56936482Y224546559D01*
X56969184Y224620324D01*
X56999180Y224675700D01*
X57043165Y224752018D01*
X57077896Y224814496D01*
X57091542Y224840800D01*
X57137915Y224919850D01*
X57205649Y225011523D01*
X57286338Y225106946D01*
X57371574Y225197247D01*
X57452951Y225273554D01*
X57522062Y225326996D01*
X57570499Y225348699D01*
X57572908Y225348801D01*
X57614082Y225367747D01*
X57624987Y225380551D01*
X57662056Y225413887D01*
X57727457Y225455268D01*
X57802152Y225494390D01*
X57867101Y225520951D01*
X57894872Y225526601D01*
X57941538Y225544549D01*
X57959966Y225561286D01*
X58001238Y225585460D01*
X58071893Y225606095D01*
X58106563Y225612119D01*
X58185988Y225628478D01*
X58247724Y225650722D01*
X58262634Y225659984D01*
X58312200Y225677291D01*
X58409694Y225687951D01*
X58552645Y225691698D01*
X58557296Y225691700D01*
X58685128Y225689745D01*
X58773357Y225682849D01*
X58833069Y225669468D01*
X58875347Y225648061D01*
X58876501Y225647251D01*
X58936510Y225615583D01*
X58991483Y225603157D01*
X59025436Y225612386D01*
X59029600Y225624136D01*
X59047582Y225656133D01*
X59094418Y225710042D01*
X59159437Y225775862D01*
X59231969Y225843590D01*
X59301344Y225903223D01*
X59356894Y225944759D01*
X59386153Y225958400D01*
X59438541Y225976681D01*
X59461399Y225996500D01*
X59501507Y226028617D01*
X59522036Y226034600D01*
X59561189Y226045853D01*
X59623753Y226073966D01*
X59645834Y226085401D01*
X59732305Y226119168D01*
X59822420Y226136529D01*
X59835957Y226137101D01*
X59918540Y226147615D01*
X59990513Y226171961D01*
X59994800Y226174300D01*
X60059013Y226194307D01*
X60158991Y226206875D01*
X60280243Y226212006D01*
X60408280Y226209699D01*
G36*
X63391032Y222083005D02*
G01*
X63456903Y222044315D01*
X63504037Y221981264D01*
X63513967Y221951229D01*
X63538072Y221874515D01*
X63565170Y221814281D01*
X63587427Y221747425D01*
X63600406Y221658837D01*
X63601756Y221623781D01*
X63609741Y221533295D01*
X63629624Y221451792D01*
X63639345Y221428932D01*
X63661990Y221365023D01*
X63682345Y221272881D01*
X63693496Y221193982D01*
X63703578Y221110577D01*
X63713621Y221051757D01*
X63721077Y221030800D01*
X63769930Y221050895D01*
X63840886Y221112003D01*
X63935289Y221215367D01*
X63982553Y221272043D01*
X64086280Y221387494D01*
X64172584Y221459540D01*
X64240096Y221487856D01*
X64287450Y221472118D01*
X64313277Y221412001D01*
X64317880Y221351598D01*
X64296747Y221251487D01*
X64239061Y221138729D01*
X64153390Y221024018D01*
X64048301Y220918048D01*
X63932362Y220831511D01*
X63876317Y220800476D01*
X63794034Y220759701D01*
X63719121Y220721532D01*
X63699280Y220711114D01*
X63608960Y220678674D01*
X63537081Y220691076D01*
X63475831Y220749671D01*
X63475755Y220749777D01*
X63448273Y220799826D01*
X63429097Y220866713D01*
X63415691Y220962396D01*
X63407042Y221073627D01*
X63397563Y221186407D01*
X63384949Y221284216D01*
X63371214Y221353062D01*
X63363812Y221373700D01*
X63347584Y221424176D01*
X63331827Y221507177D01*
X63320207Y221602300D01*
X63307215Y221705195D01*
X63289038Y221798751D01*
X63271233Y221858171D01*
X63251452Y221944930D01*
X63262901Y222022182D01*
X63302117Y222074881D01*
X63323502Y222085314D01*
X63391032Y222083005D01*
G37*
X63391032Y222083005D02*
X63456903Y222044315D01*
X63504037Y221981264D01*
X63513967Y221951229D01*
X63538072Y221874515D01*
X63565170Y221814281D01*
X63587427Y221747425D01*
X63600406Y221658837D01*
X63601756Y221623781D01*
X63609741Y221533295D01*
X63629624Y221451792D01*
X63639345Y221428932D01*
X63661990Y221365023D01*
X63682345Y221272881D01*
X63693496Y221193982D01*
X63703578Y221110577D01*
X63713621Y221051757D01*
X63721077Y221030800D01*
X63769930Y221050895D01*
X63840886Y221112003D01*
X63935289Y221215367D01*
X63982553Y221272043D01*
X64086280Y221387494D01*
X64172584Y221459540D01*
X64240096Y221487856D01*
X64287450Y221472118D01*
X64313277Y221412001D01*
X64317880Y221351598D01*
X64296747Y221251487D01*
X64239061Y221138729D01*
X64153390Y221024018D01*
X64048301Y220918048D01*
X63932362Y220831511D01*
X63876317Y220800476D01*
X63794034Y220759701D01*
X63719121Y220721532D01*
X63699280Y220711114D01*
X63608960Y220678674D01*
X63537081Y220691076D01*
X63475831Y220749671D01*
X63475755Y220749777D01*
X63448273Y220799826D01*
X63429097Y220866713D01*
X63415691Y220962396D01*
X63407042Y221073627D01*
X63397563Y221186407D01*
X63384949Y221284216D01*
X63371214Y221353062D01*
X63363812Y221373700D01*
X63347584Y221424176D01*
X63331827Y221507177D01*
X63320207Y221602300D01*
X63307215Y221705195D01*
X63289038Y221798751D01*
X63271233Y221858171D01*
X63251452Y221944930D01*
X63262901Y222022182D01*
X63302117Y222074881D01*
X63323502Y222085314D01*
X63391032Y222083005D01*
G36*
X59782247Y223594888D02*
G01*
X59862466Y223583951D01*
X59914116Y223562578D01*
X59918600Y223558100D01*
X59958578Y223525593D01*
X59978860Y223519206D01*
X60027738Y223505125D01*
X60107630Y223468406D01*
X60207466Y223414869D01*
X60316179Y223350333D01*
X60388383Y223303898D01*
X60511354Y223211947D01*
X60645304Y223095020D01*
X60780236Y222963486D01*
X60906155Y222827715D01*
X61013065Y222698078D01*
X61090969Y222584945D01*
X61104398Y222561103D01*
X61138677Y222472282D01*
X61158940Y222370418D01*
X61164074Y222271561D01*
X61152962Y222191759D01*
X61132720Y222153480D01*
X61072044Y222124305D01*
X61000846Y222138820D01*
X60929850Y222194574D01*
X60924157Y222201149D01*
X60881209Y222265255D01*
X60858501Y222324534D01*
X60857486Y222334499D01*
X60840787Y222391858D01*
X60801732Y222453972D01*
X60800336Y222455625D01*
X60756800Y222506829D01*
X60693024Y222582036D01*
X60621556Y222666447D01*
X60609256Y222680988D01*
X60521282Y222777508D01*
X60420653Y222876837D01*
X60329856Y222956877D01*
X60257587Y223015708D01*
X60201796Y223062267D01*
X60173520Y223087328D01*
X60172600Y223088333D01*
X60145162Y223108258D01*
X60087495Y223144113D01*
X60032900Y223176121D01*
X59961665Y223218861D01*
X59910110Y223253355D01*
X59892945Y223268138D01*
X59861090Y223287714D01*
X59808088Y223305419D01*
X59718963Y223336084D01*
X59631946Y223379508D01*
X59561024Y223427233D01*
X59520180Y223470797D01*
X59515787Y223482259D01*
X59527006Y223533603D01*
X59552392Y223562772D01*
X59608989Y223584531D01*
X59691681Y223595160D01*
X59782247Y223594888D01*
G37*
X59782247Y223594888D02*
X59862466Y223583951D01*
X59914116Y223562578D01*
X59918600Y223558100D01*
X59958578Y223525593D01*
X59978860Y223519206D01*
X60027738Y223505125D01*
X60107630Y223468406D01*
X60207466Y223414869D01*
X60316179Y223350333D01*
X60388383Y223303898D01*
X60511354Y223211947D01*
X60645304Y223095020D01*
X60780236Y222963486D01*
X60906155Y222827715D01*
X61013065Y222698078D01*
X61090969Y222584945D01*
X61104398Y222561103D01*
X61138677Y222472282D01*
X61158940Y222370418D01*
X61164074Y222271561D01*
X61152962Y222191759D01*
X61132720Y222153480D01*
X61072044Y222124305D01*
X61000846Y222138820D01*
X60929850Y222194574D01*
X60924157Y222201149D01*
X60881209Y222265255D01*
X60858501Y222324534D01*
X60857486Y222334499D01*
X60840787Y222391858D01*
X60801732Y222453972D01*
X60800336Y222455625D01*
X60756800Y222506829D01*
X60693024Y222582036D01*
X60621556Y222666447D01*
X60609256Y222680988D01*
X60521282Y222777508D01*
X60420653Y222876837D01*
X60329856Y222956877D01*
X60257587Y223015708D01*
X60201796Y223062267D01*
X60173520Y223087328D01*
X60172600Y223088333D01*
X60145162Y223108258D01*
X60087495Y223144113D01*
X60032900Y223176121D01*
X59961665Y223218861D01*
X59910110Y223253355D01*
X59892945Y223268138D01*
X59861090Y223287714D01*
X59808088Y223305419D01*
X59718963Y223336084D01*
X59631946Y223379508D01*
X59561024Y223427233D01*
X59520180Y223470797D01*
X59515787Y223482259D01*
X59527006Y223533603D01*
X59552392Y223562772D01*
X59608989Y223584531D01*
X59691681Y223595160D01*
X59782247Y223594888D01*
G36*
X62516044Y223137114D02*
G01*
X62584284Y223124791D01*
X62620289Y223100436D01*
X62620982Y223098823D01*
X62640691Y222998642D01*
X62617159Y222922063D01*
X62553472Y222873885D01*
X62466619Y222858793D01*
X62394426Y222844888D01*
X62345795Y222820693D01*
X62282508Y222792084D01*
X62225824Y222783400D01*
X62159885Y222771954D01*
X62067453Y222741988D01*
X61966213Y222700063D01*
X61874400Y222653056D01*
X61820847Y222625412D01*
X61777186Y222605422D01*
X61727986Y222578461D01*
X61653147Y222531009D01*
X61567886Y222472763D01*
X61558060Y222465783D01*
X61443639Y222395171D01*
X61344886Y222355883D01*
X61268772Y222349991D01*
X61230933Y222368534D01*
X61209726Y222419912D01*
X61233207Y222488271D01*
X61302054Y222574921D01*
X61373079Y222643128D01*
X61453844Y222713291D01*
X61526468Y222772741D01*
X61578020Y222810986D01*
X61586367Y222816157D01*
X61707838Y222882984D01*
X61812191Y222936440D01*
X61890839Y222972346D01*
X61935193Y222986529D01*
X61936876Y222986600D01*
X61979501Y223004432D01*
X62001400Y223024700D01*
X62046706Y223050540D01*
X62115760Y223063419D01*
X62125160Y223063701D01*
X62207194Y223074598D01*
X62278666Y223099709D01*
X62280800Y223100900D01*
X62348013Y223125268D01*
X62431858Y223137306D01*
X62516044Y223137114D01*
G37*
X62516044Y223137114D02*
X62584284Y223124791D01*
X62620289Y223100436D01*
X62620982Y223098823D01*
X62640691Y222998642D01*
X62617159Y222922063D01*
X62553472Y222873885D01*
X62466619Y222858793D01*
X62394426Y222844888D01*
X62345795Y222820693D01*
X62282508Y222792084D01*
X62225824Y222783400D01*
X62159885Y222771954D01*
X62067453Y222741988D01*
X61966213Y222700063D01*
X61874400Y222653056D01*
X61820847Y222625412D01*
X61777186Y222605422D01*
X61727986Y222578461D01*
X61653147Y222531009D01*
X61567886Y222472763D01*
X61558060Y222465783D01*
X61443639Y222395171D01*
X61344886Y222355883D01*
X61268772Y222349991D01*
X61230933Y222368534D01*
X61209726Y222419912D01*
X61233207Y222488271D01*
X61302054Y222574921D01*
X61373079Y222643128D01*
X61453844Y222713291D01*
X61526468Y222772741D01*
X61578020Y222810986D01*
X61586367Y222816157D01*
X61707838Y222882984D01*
X61812191Y222936440D01*
X61890839Y222972346D01*
X61935193Y222986529D01*
X61936876Y222986600D01*
X61979501Y223004432D01*
X62001400Y223024700D01*
X62046706Y223050540D01*
X62115760Y223063419D01*
X62125160Y223063701D01*
X62207194Y223074598D01*
X62278666Y223099709D01*
X62280800Y223100900D01*
X62348013Y223125268D01*
X62431858Y223137306D01*
X62516044Y223137114D01*
G36*
X58090989Y221730651D02*
G01*
X58146684Y221691789D01*
X58172852Y221618193D01*
X58176908Y221537869D01*
X58168973Y221452495D01*
X58142112Y221393309D01*
X58103349Y221351312D01*
X58010452Y221296909D01*
X57905600Y221285575D01*
X57804449Y221317973D01*
X57775725Y221337444D01*
X57721919Y221401509D01*
X57713607Y221476054D01*
X57751105Y221565002D01*
X57799400Y221631435D01*
X57856622Y221696004D01*
X57903409Y221729070D01*
X57958284Y221740868D01*
X57999490Y221742000D01*
X58090989Y221730651D01*
G37*
X58090989Y221730651D02*
X58146684Y221691789D01*
X58172852Y221618193D01*
X58176908Y221537869D01*
X58168973Y221452495D01*
X58142112Y221393309D01*
X58103349Y221351312D01*
X58010452Y221296909D01*
X57905600Y221285575D01*
X57804449Y221317973D01*
X57775725Y221337444D01*
X57721919Y221401509D01*
X57713607Y221476054D01*
X57751105Y221565002D01*
X57799400Y221631435D01*
X57856622Y221696004D01*
X57903409Y221729070D01*
X57958284Y221740868D01*
X57999490Y221742000D01*
X58090989Y221730651D01*
G36*
X57087185Y221820589D02*
G01*
X57154753Y221758179D01*
X57194047Y221665402D01*
X57200800Y221600559D01*
X57180714Y221497765D01*
X57122297Y221427404D01*
X57028314Y221392042D01*
X56972200Y221388245D01*
X56891991Y221395204D01*
X56839020Y221420866D01*
X56800750Y221461673D01*
X56753139Y221539743D01*
X56749493Y221601879D01*
X56778348Y221646121D01*
X56813263Y221697589D01*
X56832572Y221743185D01*
X56861370Y221803569D01*
X56908653Y221833916D01*
X56989224Y221843115D01*
X56999173Y221843212D01*
X57087185Y221820589D01*
G37*
X57087185Y221820589D02*
X57154753Y221758179D01*
X57194047Y221665402D01*
X57200800Y221600559D01*
X57180714Y221497765D01*
X57122297Y221427404D01*
X57028314Y221392042D01*
X56972200Y221388245D01*
X56891991Y221395204D01*
X56839020Y221420866D01*
X56800750Y221461673D01*
X56753139Y221539743D01*
X56749493Y221601879D01*
X56778348Y221646121D01*
X56813263Y221697589D01*
X56832572Y221743185D01*
X56861370Y221803569D01*
X56908653Y221833916D01*
X56989224Y221843115D01*
X56999173Y221843212D01*
X57087185Y221820589D01*
%TD*%
%TO.C,C1*%
G36*
G01*
X55430000Y241394000D02*
X55430000Y240444000D01*
G75*
G02*
X55180000Y240194000I-250000J0D01*
G01*
X54680000Y240194000D01*
G75*
G02*
X54430000Y240444000I0J250000D01*
G01*
X54430000Y241394000D01*
G75*
G02*
X54680000Y241644000I250000J0D01*
G01*
X55180000Y241644000D01*
G75*
G02*
X55430000Y241394000I0J-250000D01*
G01*
G37*
G36*
G01*
X57330000Y241394000D02*
X57330000Y240444000D01*
G75*
G02*
X57080000Y240194000I-250000J0D01*
G01*
X56580000Y240194000D01*
G75*
G02*
X56330000Y240444000I0J250000D01*
G01*
X56330000Y241394000D01*
G75*
G02*
X56580000Y241644000I250000J0D01*
G01*
X57080000Y241644000D01*
G75*
G02*
X57330000Y241394000I0J-250000D01*
G01*
G37*
%TD*%
%TO.C,C20*%
G36*
G01*
X53906000Y282415000D02*
X53906000Y281465000D01*
G75*
G02*
X53656000Y281215000I-250000J0D01*
G01*
X53156000Y281215000D01*
G75*
G02*
X52906000Y281465000I0J250000D01*
G01*
X52906000Y282415000D01*
G75*
G02*
X53156000Y282665000I250000J0D01*
G01*
X53656000Y282665000D01*
G75*
G02*
X53906000Y282415000I0J-250000D01*
G01*
G37*
G36*
G01*
X55806000Y282415000D02*
X55806000Y281465000D01*
G75*
G02*
X55556000Y281215000I-250000J0D01*
G01*
X55056000Y281215000D01*
G75*
G02*
X54806000Y281465000I0J250000D01*
G01*
X54806000Y282415000D01*
G75*
G02*
X55056000Y282665000I250000J0D01*
G01*
X55556000Y282665000D01*
G75*
G02*
X55806000Y282415000I0J-250000D01*
G01*
G37*
%TD*%
D11*
%TO.C,USB1*%
X43941250Y281881250D03*
X49721250Y281881250D03*
D12*
X46581250Y279936250D03*
X47081250Y279936250D03*
X47581250Y279936250D03*
X46081250Y279936250D03*
X48081250Y279936250D03*
X45581250Y279936250D03*
X48581250Y279936250D03*
X45081250Y279936250D03*
D13*
X44381250Y279936250D03*
X49281250Y279936250D03*
X43606250Y279936250D03*
X50056250Y279936250D03*
%TD*%
%TO.C,R3*%
G36*
G01*
X53932500Y284422002D02*
X53932500Y283521998D01*
G75*
G02*
X53682502Y283272000I-249998J0D01*
G01*
X53157498Y283272000D01*
G75*
G02*
X52907500Y283521998I0J249998D01*
G01*
X52907500Y284422002D01*
G75*
G02*
X53157498Y284672000I249998J0D01*
G01*
X53682502Y284672000D01*
G75*
G02*
X53932500Y284422002I0J-249998D01*
G01*
G37*
G36*
G01*
X55757500Y284422002D02*
X55757500Y283521998D01*
G75*
G02*
X55507502Y283272000I-249998J0D01*
G01*
X54982498Y283272000D01*
G75*
G02*
X54732500Y283521998I0J249998D01*
G01*
X54732500Y284422002D01*
G75*
G02*
X54982498Y284672000I249998J0D01*
G01*
X55507502Y284672000D01*
G75*
G02*
X55757500Y284422002I0J-249998D01*
G01*
G37*
%TD*%
D14*
%TO.C,SW33*%
X151923750Y238125000D03*
X141763750Y238125000D03*
D15*
X143033750Y240665000D03*
D16*
X146843750Y238125000D03*
D15*
X149383750Y243205000D03*
%TD*%
D17*
%TO.C,J1*%
X247396000Y211328000D03*
D18*
X249936000Y211328000D03*
%TD*%
D19*
%TO.C,D57*%
X45371000Y274017000D03*
X47371000Y274017000D03*
X45371000Y275917000D03*
D20*
X47371000Y275717000D03*
%TD*%
D21*
%TO.C,D59*%
X155575000Y215837500D03*
X155575000Y219137500D03*
%TD*%
D22*
%TO.C,U2*%
X60817000Y241869000D03*
X60817000Y239969000D03*
X58817000Y240919000D03*
%TD*%
D23*
%TO.C,SW48*%
X237109000Y216933000D03*
X243309000Y213233000D03*
X237109000Y213233000D03*
X243309000Y216933000D03*
%TD*%
%TO.C,R7*%
G36*
G01*
X49345002Y273506500D02*
X48444998Y273506500D01*
G75*
G02*
X48195000Y273756498I0J249998D01*
G01*
X48195000Y274281502D01*
G75*
G02*
X48444998Y274531500I249998J0D01*
G01*
X49345002Y274531500D01*
G75*
G02*
X49595000Y274281502I0J-249998D01*
G01*
X49595000Y273756498D01*
G75*
G02*
X49345002Y273506500I-249998J0D01*
G01*
G37*
G36*
G01*
X49345002Y275331500D02*
X48444998Y275331500D01*
G75*
G02*
X48195000Y275581498I0J249998D01*
G01*
X48195000Y276106502D01*
G75*
G02*
X48444998Y276356500I249998J0D01*
G01*
X49345002Y276356500D01*
G75*
G02*
X49595000Y276106502I0J-249998D01*
G01*
X49595000Y275581498D01*
G75*
G02*
X49345002Y275331500I-249998J0D01*
G01*
G37*
%TD*%
%TO.C,R6*%
G36*
G01*
X41471002Y271521500D02*
X40570998Y271521500D01*
G75*
G02*
X40321000Y271771498I0J249998D01*
G01*
X40321000Y272296502D01*
G75*
G02*
X40570998Y272546500I249998J0D01*
G01*
X41471002Y272546500D01*
G75*
G02*
X41721000Y272296502I0J-249998D01*
G01*
X41721000Y271771498D01*
G75*
G02*
X41471002Y271521500I-249998J0D01*
G01*
G37*
G36*
G01*
X41471002Y273346500D02*
X40570998Y273346500D01*
G75*
G02*
X40321000Y273596498I0J249998D01*
G01*
X40321000Y274121502D01*
G75*
G02*
X40570998Y274371500I249998J0D01*
G01*
X41471002Y274371500D01*
G75*
G02*
X41721000Y274121502I0J-249998D01*
G01*
X41721000Y273596498D01*
G75*
G02*
X41471002Y273346500I-249998J0D01*
G01*
G37*
%TD*%
%TO.C,R5*%
G36*
G01*
X238055998Y220904500D02*
X238956002Y220904500D01*
G75*
G02*
X239206000Y220654502I0J-249998D01*
G01*
X239206000Y220129498D01*
G75*
G02*
X238956002Y219879500I-249998J0D01*
G01*
X238055998Y219879500D01*
G75*
G02*
X237806000Y220129498I0J249998D01*
G01*
X237806000Y220654502D01*
G75*
G02*
X238055998Y220904500I249998J0D01*
G01*
G37*
G36*
G01*
X238055998Y219079500D02*
X238956002Y219079500D01*
G75*
G02*
X239206000Y218829502I0J-249998D01*
G01*
X239206000Y218304498D01*
G75*
G02*
X238956002Y218054500I-249998J0D01*
G01*
X238055998Y218054500D01*
G75*
G02*
X237806000Y218304498I0J249998D01*
G01*
X237806000Y218829502D01*
G75*
G02*
X238055998Y219079500I249998J0D01*
G01*
G37*
%TD*%
%TO.C,R2*%
G36*
G01*
X60320500Y237547998D02*
X60320500Y238448002D01*
G75*
G02*
X60570498Y238698000I249998J0D01*
G01*
X61095502Y238698000D01*
G75*
G02*
X61345500Y238448002I0J-249998D01*
G01*
X61345500Y237547998D01*
G75*
G02*
X61095502Y237298000I-249998J0D01*
G01*
X60570498Y237298000D01*
G75*
G02*
X60320500Y237547998I0J249998D01*
G01*
G37*
G36*
G01*
X62145500Y237547998D02*
X62145500Y238448002D01*
G75*
G02*
X62395498Y238698000I249998J0D01*
G01*
X62920502Y238698000D01*
G75*
G02*
X63170500Y238448002I0J-249998D01*
G01*
X63170500Y237547998D01*
G75*
G02*
X62920502Y237298000I-249998J0D01*
G01*
X62395498Y237298000D01*
G75*
G02*
X62145500Y237547998I0J249998D01*
G01*
G37*
%TD*%
%TO.C,R1*%
G36*
G01*
X57328500Y244036002D02*
X57328500Y243135998D01*
G75*
G02*
X57078502Y242886000I-249998J0D01*
G01*
X56553498Y242886000D01*
G75*
G02*
X56303500Y243135998I0J249998D01*
G01*
X56303500Y244036002D01*
G75*
G02*
X56553498Y244286000I249998J0D01*
G01*
X57078502Y244286000D01*
G75*
G02*
X57328500Y244036002I0J-249998D01*
G01*
G37*
G36*
G01*
X55503500Y244036002D02*
X55503500Y243135998D01*
G75*
G02*
X55253502Y242886000I-249998J0D01*
G01*
X54728498Y242886000D01*
G75*
G02*
X54478500Y243135998I0J249998D01*
G01*
X54478500Y244036002D01*
G75*
G02*
X54728498Y244286000I249998J0D01*
G01*
X55253502Y244286000D01*
G75*
G02*
X55503500Y244036002I0J-249998D01*
G01*
G37*
%TD*%
D22*
%TO.C,Q1*%
X221869000Y228666000D03*
X221869000Y230566000D03*
X223869000Y229616000D03*
%TD*%
%TO.C,F1*%
G36*
G01*
X57400000Y247005000D02*
X57400000Y245755000D01*
G75*
G02*
X57150000Y245505000I-250000J0D01*
G01*
X56400000Y245505000D01*
G75*
G02*
X56150000Y245755000I0J250000D01*
G01*
X56150000Y247005000D01*
G75*
G02*
X56400000Y247255000I250000J0D01*
G01*
X57150000Y247255000D01*
G75*
G02*
X57400000Y247005000I0J-250000D01*
G01*
G37*
G36*
G01*
X54600000Y247005000D02*
X54600000Y245755000D01*
G75*
G02*
X54350000Y245505000I-250000J0D01*
G01*
X53600000Y245505000D01*
G75*
G02*
X53350000Y245755000I0J250000D01*
G01*
X53350000Y247005000D01*
G75*
G02*
X53600000Y247255000I250000J0D01*
G01*
X54350000Y247255000D01*
G75*
G02*
X54600000Y247005000I0J-250000D01*
G01*
G37*
%TD*%
D21*
%TO.C,D58*%
X234188000Y217805000D03*
X234188000Y214505000D03*
%TD*%
D24*
%TO.C,D52*%
X56136000Y233299000D03*
X59436000Y233299000D03*
%TD*%
D21*
%TO.C,D47*%
X262731250Y215837500D03*
X262731250Y219137500D03*
%TD*%
%TO.C,D46*%
X224631250Y215775000D03*
X224631250Y219075000D03*
%TD*%
%TO.C,D45*%
X203200000Y215775000D03*
X203200000Y219075000D03*
%TD*%
%TO.C,D44*%
X184150000Y215775000D03*
X184150000Y219075000D03*
%TD*%
%TO.C,D43*%
X136525000Y215775000D03*
X136525000Y219075000D03*
%TD*%
%TO.C,D42*%
X107950000Y215775000D03*
X107950000Y219075000D03*
%TD*%
%TO.C,D41*%
X86518750Y215775000D03*
X86518750Y219075000D03*
%TD*%
%TO.C,D40*%
X48418750Y215837500D03*
X48418750Y219137500D03*
%TD*%
%TO.C,D39*%
X17462500Y215837500D03*
X17462500Y219137500D03*
%TD*%
%TO.C,D38*%
X257968750Y234825000D03*
X257968750Y238125000D03*
%TD*%
%TO.C,D37*%
X231775000Y234887500D03*
X231775000Y238187500D03*
%TD*%
%TO.C,D36*%
X212725000Y234825000D03*
X212725000Y238125000D03*
%TD*%
%TO.C,D35*%
X193675000Y234887500D03*
X193675000Y238187500D03*
%TD*%
%TO.C,D34*%
X174625000Y234950000D03*
X174625000Y238250000D03*
%TD*%
%TO.C,D33*%
X155575000Y234950000D03*
X155575000Y238250000D03*
%TD*%
%TO.C,D32*%
X136525000Y234825000D03*
X136525000Y238125000D03*
%TD*%
%TO.C,D31*%
X117475000Y234825000D03*
X117475000Y238125000D03*
%TD*%
%TO.C,D30*%
X98425000Y234825000D03*
X98425000Y238125000D03*
%TD*%
%TO.C,D29*%
X79375000Y234825000D03*
X79375000Y238125000D03*
%TD*%
%TO.C,D28*%
X53181250Y234825000D03*
X53181250Y238125000D03*
%TD*%
%TO.C,D27*%
X17462500Y234887500D03*
X17462500Y238187500D03*
%TD*%
%TO.C,D26*%
X246062500Y253875000D03*
X246062500Y257175000D03*
%TD*%
%TO.C,D25*%
X241300000Y253875000D03*
X241300000Y257175000D03*
%TD*%
%TO.C,D24*%
X222250000Y253937500D03*
X222250000Y257237500D03*
%TD*%
%TO.C,D23*%
X203200000Y253875000D03*
X203200000Y257175000D03*
%TD*%
%TO.C,D22*%
X184150000Y253875000D03*
X184150000Y257175000D03*
%TD*%
%TO.C,D21*%
X165100000Y254000000D03*
X165100000Y257300000D03*
%TD*%
%TO.C,D20*%
X146050000Y253875000D03*
X146050000Y257175000D03*
%TD*%
%TO.C,D19*%
X127000000Y253875000D03*
X127000000Y257175000D03*
%TD*%
%TO.C,D18*%
X107950000Y253875000D03*
X107950000Y257175000D03*
%TD*%
%TO.C,D17*%
X88900000Y253875000D03*
X88900000Y257175000D03*
%TD*%
%TO.C,D16*%
X69850000Y253875000D03*
X69850000Y257175000D03*
%TD*%
%TO.C,D15*%
X48418750Y253875000D03*
X48418750Y257175000D03*
%TD*%
%TO.C,D14*%
X17462500Y253875000D03*
X17462500Y257175000D03*
%TD*%
%TO.C,D13*%
X243459000Y272923000D03*
X243459000Y276223000D03*
%TD*%
%TO.C,D12*%
X236537500Y272925000D03*
X236537500Y276225000D03*
%TD*%
%TO.C,D11*%
X217487500Y273050000D03*
X217487500Y276350000D03*
%TD*%
%TO.C,D10*%
X198437500Y272925000D03*
X198437500Y276225000D03*
%TD*%
%TO.C,D9*%
X179387500Y272925000D03*
X179387500Y276225000D03*
%TD*%
%TO.C,D8*%
X160337500Y272925000D03*
X160337500Y276225000D03*
%TD*%
%TO.C,D7*%
X141287500Y272925000D03*
X141287500Y276225000D03*
%TD*%
%TO.C,D6*%
X122237500Y272987500D03*
X122237500Y276287500D03*
%TD*%
%TO.C,D5*%
X103187500Y272987500D03*
X103187500Y276287500D03*
%TD*%
%TO.C,D4*%
X84137500Y272987500D03*
X84137500Y276287500D03*
%TD*%
%TO.C,D3*%
X65087500Y272987500D03*
X65087500Y276287500D03*
%TD*%
%TO.C,D2*%
X29368750Y272925000D03*
X29368750Y276225000D03*
%TD*%
%TO.C,D1*%
X17462500Y272987500D03*
X17462500Y276287500D03*
%TD*%
%TO.C,C11*%
G36*
G01*
X230980000Y230772001D02*
X230030000Y230772001D01*
G75*
G02*
X229780000Y231022001I0J250000D01*
G01*
X229780000Y231522001D01*
G75*
G02*
X230030000Y231772001I250000J0D01*
G01*
X230980000Y231772001D01*
G75*
G02*
X231230000Y231522001I0J-250000D01*
G01*
X231230000Y231022001D01*
G75*
G02*
X230980000Y230772001I-250000J0D01*
G01*
G37*
G36*
G01*
X230980000Y232672001D02*
X230030000Y232672001D01*
G75*
G02*
X229780000Y232922001I0J250000D01*
G01*
X229780000Y233422001D01*
G75*
G02*
X230030000Y233672001I250000J0D01*
G01*
X230980000Y233672001D01*
G75*
G02*
X231230000Y233422001I0J-250000D01*
G01*
X231230000Y232922001D01*
G75*
G02*
X230980000Y232672001I-250000J0D01*
G01*
G37*
%TD*%
%TO.C,C10*%
G36*
G01*
X231767001Y225392000D02*
X231767001Y224442000D01*
G75*
G02*
X231517001Y224192000I-250000J0D01*
G01*
X231017001Y224192000D01*
G75*
G02*
X230767001Y224442000I0J250000D01*
G01*
X230767001Y225392000D01*
G75*
G02*
X231017001Y225642000I250000J0D01*
G01*
X231517001Y225642000D01*
G75*
G02*
X231767001Y225392000I0J-250000D01*
G01*
G37*
G36*
G01*
X229867001Y225392000D02*
X229867001Y224442000D01*
G75*
G02*
X229617001Y224192000I-250000J0D01*
G01*
X229117001Y224192000D01*
G75*
G02*
X228867001Y224442000I0J250000D01*
G01*
X228867001Y225392000D01*
G75*
G02*
X229117001Y225642000I250000J0D01*
G01*
X229617001Y225642000D01*
G75*
G02*
X229867001Y225392000I0J-250000D01*
G01*
G37*
%TD*%
%TO.C,C9*%
G36*
G01*
X241948001Y221140000D02*
X241948001Y222090000D01*
G75*
G02*
X242198001Y222340000I250000J0D01*
G01*
X242698001Y222340000D01*
G75*
G02*
X242948001Y222090000I0J-250000D01*
G01*
X242948001Y221140000D01*
G75*
G02*
X242698001Y220890000I-250000J0D01*
G01*
X242198001Y220890000D01*
G75*
G02*
X241948001Y221140000I0J250000D01*
G01*
G37*
G36*
G01*
X243848001Y221140000D02*
X243848001Y222090000D01*
G75*
G02*
X244098001Y222340000I250000J0D01*
G01*
X244598001Y222340000D01*
G75*
G02*
X244848001Y222090000I0J-250000D01*
G01*
X244848001Y221140000D01*
G75*
G02*
X244598001Y220890000I-250000J0D01*
G01*
X244098001Y220890000D01*
G75*
G02*
X243848001Y221140000I0J250000D01*
G01*
G37*
%TD*%
%TO.C,C8*%
G36*
G01*
X226154000Y228232001D02*
X225204000Y228232001D01*
G75*
G02*
X224954000Y228482001I0J250000D01*
G01*
X224954000Y228982001D01*
G75*
G02*
X225204000Y229232001I250000J0D01*
G01*
X226154000Y229232001D01*
G75*
G02*
X226404000Y228982001I0J-250000D01*
G01*
X226404000Y228482001D01*
G75*
G02*
X226154000Y228232001I-250000J0D01*
G01*
G37*
G36*
G01*
X226154000Y230132001D02*
X225204000Y230132001D01*
G75*
G02*
X224954000Y230382001I0J250000D01*
G01*
X224954000Y230882001D01*
G75*
G02*
X225204000Y231132001I250000J0D01*
G01*
X226154000Y231132001D01*
G75*
G02*
X226404000Y230882001I0J-250000D01*
G01*
X226404000Y230382001D01*
G75*
G02*
X226154000Y230132001I-250000J0D01*
G01*
G37*
%TD*%
%TO.C,C7*%
G36*
G01*
X228948000Y230772000D02*
X227998000Y230772000D01*
G75*
G02*
X227748000Y231022000I0J250000D01*
G01*
X227748000Y231522000D01*
G75*
G02*
X227998000Y231772000I250000J0D01*
G01*
X228948000Y231772000D01*
G75*
G02*
X229198000Y231522000I0J-250000D01*
G01*
X229198000Y231022000D01*
G75*
G02*
X228948000Y230772000I-250000J0D01*
G01*
G37*
G36*
G01*
X228948000Y232672000D02*
X227998000Y232672000D01*
G75*
G02*
X227748000Y232922000I0J250000D01*
G01*
X227748000Y233422000D01*
G75*
G02*
X227998000Y233672000I250000J0D01*
G01*
X228948000Y233672000D01*
G75*
G02*
X229198000Y233422000I0J-250000D01*
G01*
X229198000Y232922000D01*
G75*
G02*
X228948000Y232672000I-250000J0D01*
G01*
G37*
%TD*%
%TO.C,C6*%
G36*
G01*
X241948001Y223172000D02*
X241948001Y224122000D01*
G75*
G02*
X242198001Y224372000I250000J0D01*
G01*
X242698001Y224372000D01*
G75*
G02*
X242948001Y224122000I0J-250000D01*
G01*
X242948001Y223172000D01*
G75*
G02*
X242698001Y222922000I-250000J0D01*
G01*
X242198001Y222922000D01*
G75*
G02*
X241948001Y223172000I0J250000D01*
G01*
G37*
G36*
G01*
X243848001Y223172000D02*
X243848001Y224122000D01*
G75*
G02*
X244098001Y224372000I250000J0D01*
G01*
X244598001Y224372000D01*
G75*
G02*
X244848001Y224122000I0J-250000D01*
G01*
X244848001Y223172000D01*
G75*
G02*
X244598001Y222922000I-250000J0D01*
G01*
X244098001Y222922000D01*
G75*
G02*
X243848001Y223172000I0J250000D01*
G01*
G37*
%TD*%
%TO.C,C5*%
G36*
G01*
X233898180Y222123931D02*
X234569931Y221452180D01*
G75*
G02*
X234569931Y221098626I-176777J-176777D01*
G01*
X234216378Y220745073D01*
G75*
G02*
X233862824Y220745073I-176777J176777D01*
G01*
X233191073Y221416824D01*
G75*
G02*
X233191073Y221770378I176777J176777D01*
G01*
X233544626Y222123931D01*
G75*
G02*
X233898180Y222123931I176777J-176777D01*
G01*
G37*
G36*
G01*
X232554678Y220780429D02*
X233226429Y220108678D01*
G75*
G02*
X233226429Y219755124I-176777J-176777D01*
G01*
X232872876Y219401571D01*
G75*
G02*
X232519322Y219401571I-176777J176777D01*
G01*
X231847571Y220073322D01*
G75*
G02*
X231847571Y220426876I176777J176777D01*
G01*
X232201124Y220780429D01*
G75*
G02*
X232554678Y220780429I176777J-176777D01*
G01*
G37*
%TD*%
%TO.C,C4*%
G36*
G01*
X241140000Y235339000D02*
X240190000Y235339000D01*
G75*
G02*
X239940000Y235589000I0J250000D01*
G01*
X239940000Y236089000D01*
G75*
G02*
X240190000Y236339000I250000J0D01*
G01*
X241140000Y236339000D01*
G75*
G02*
X241390000Y236089000I0J-250000D01*
G01*
X241390000Y235589000D01*
G75*
G02*
X241140000Y235339000I-250000J0D01*
G01*
G37*
G36*
G01*
X241140000Y237239000D02*
X240190000Y237239000D01*
G75*
G02*
X239940000Y237489000I0J250000D01*
G01*
X239940000Y237989000D01*
G75*
G02*
X240190000Y238239000I250000J0D01*
G01*
X241140000Y238239000D01*
G75*
G02*
X241390000Y237989000I0J-250000D01*
G01*
X241390000Y237489000D01*
G75*
G02*
X241140000Y237239000I-250000J0D01*
G01*
G37*
%TD*%
%TO.C,C3*%
G36*
G01*
X236949000Y218072001D02*
X235999000Y218072001D01*
G75*
G02*
X235749000Y218322001I0J250000D01*
G01*
X235749000Y218822001D01*
G75*
G02*
X235999000Y219072001I250000J0D01*
G01*
X236949000Y219072001D01*
G75*
G02*
X237199000Y218822001I0J-250000D01*
G01*
X237199000Y218322001D01*
G75*
G02*
X236949000Y218072001I-250000J0D01*
G01*
G37*
G36*
G01*
X236949000Y219972001D02*
X235999000Y219972001D01*
G75*
G02*
X235749000Y220222001I0J250000D01*
G01*
X235749000Y220722001D01*
G75*
G02*
X235999000Y220972001I250000J0D01*
G01*
X236949000Y220972001D01*
G75*
G02*
X237199000Y220722001I0J-250000D01*
G01*
X237199000Y220222001D01*
G75*
G02*
X236949000Y219972001I-250000J0D01*
G01*
G37*
%TD*%
%TO.C,C2*%
G36*
G01*
X60332999Y235491000D02*
X60332999Y236441000D01*
G75*
G02*
X60582999Y236691000I250000J0D01*
G01*
X61082999Y236691000D01*
G75*
G02*
X61332999Y236441000I0J-250000D01*
G01*
X61332999Y235491000D01*
G75*
G02*
X61082999Y235241000I-250000J0D01*
G01*
X60582999Y235241000D01*
G75*
G02*
X60332999Y235491000I0J250000D01*
G01*
G37*
G36*
G01*
X62232999Y235491000D02*
X62232999Y236441000D01*
G75*
G02*
X62482999Y236691000I250000J0D01*
G01*
X62982999Y236691000D01*
G75*
G02*
X63232999Y236441000I0J-250000D01*
G01*
X63232999Y235491000D01*
G75*
G02*
X62982999Y235241000I-250000J0D01*
G01*
X62482999Y235241000D01*
G75*
G02*
X62232999Y235491000I0J250000D01*
G01*
G37*
%TD*%
D16*
%TO.C,SW51*%
X194468750Y227330000D03*
X99218750Y227330000D03*
D25*
X194468750Y212090000D03*
X99218750Y212090000D03*
D14*
X151923750Y219075000D03*
X141763750Y219075000D03*
D15*
X143033750Y221615000D03*
D16*
X146843750Y219075000D03*
D15*
X149383750Y224155000D03*
%TD*%
%TO.C,SW50*%
X177958750Y224155000D03*
X171608750Y221615000D03*
D16*
X175418750Y219075000D03*
D14*
X170338750Y219075000D03*
X180498750Y219075000D03*
D25*
X156368750Y212090000D03*
X194468750Y212090000D03*
D16*
X156368750Y227330000D03*
X194468750Y227330000D03*
%TD*%
D15*
%TO.C,SW49*%
X120808750Y224155000D03*
X114458750Y221615000D03*
D16*
X118268750Y219075000D03*
D14*
X113188750Y219075000D03*
X123348750Y219075000D03*
D25*
X99218750Y212090000D03*
X137318750Y212090000D03*
D16*
X99218750Y227330000D03*
X137318750Y227330000D03*
%TD*%
D14*
%TO.C,SW26*%
X259080000Y257175000D03*
X248920000Y257175000D03*
D15*
X250190000Y259715000D03*
D16*
X254000000Y257175000D03*
D15*
X256540000Y262255000D03*
%TD*%
%TO.C,U1*%
G36*
G01*
X232871449Y225503785D02*
X232871449Y225653785D01*
G75*
G02*
X232946449Y225728785I75000J0D01*
G01*
X234271449Y225728785D01*
G75*
G02*
X234346449Y225653785I0J-75000D01*
G01*
X234346449Y225503785D01*
G75*
G02*
X234271449Y225428785I-75000J0D01*
G01*
X232946449Y225428785D01*
G75*
G02*
X232871449Y225503785I0J75000D01*
G01*
G37*
G36*
G01*
X232871449Y226003785D02*
X232871449Y226153785D01*
G75*
G02*
X232946449Y226228785I75000J0D01*
G01*
X234271449Y226228785D01*
G75*
G02*
X234346449Y226153785I0J-75000D01*
G01*
X234346449Y226003785D01*
G75*
G02*
X234271449Y225928785I-75000J0D01*
G01*
X232946449Y225928785D01*
G75*
G02*
X232871449Y226003785I0J75000D01*
G01*
G37*
G36*
G01*
X232871449Y226503785D02*
X232871449Y226653785D01*
G75*
G02*
X232946449Y226728785I75000J0D01*
G01*
X234271449Y226728785D01*
G75*
G02*
X234346449Y226653785I0J-75000D01*
G01*
X234346449Y226503785D01*
G75*
G02*
X234271449Y226428785I-75000J0D01*
G01*
X232946449Y226428785D01*
G75*
G02*
X232871449Y226503785I0J75000D01*
G01*
G37*
G36*
G01*
X232871449Y227003785D02*
X232871449Y227153785D01*
G75*
G02*
X232946449Y227228785I75000J0D01*
G01*
X234271449Y227228785D01*
G75*
G02*
X234346449Y227153785I0J-75000D01*
G01*
X234346449Y227003785D01*
G75*
G02*
X234271449Y226928785I-75000J0D01*
G01*
X232946449Y226928785D01*
G75*
G02*
X232871449Y227003785I0J75000D01*
G01*
G37*
G36*
G01*
X232871449Y227503785D02*
X232871449Y227653785D01*
G75*
G02*
X232946449Y227728785I75000J0D01*
G01*
X234271449Y227728785D01*
G75*
G02*
X234346449Y227653785I0J-75000D01*
G01*
X234346449Y227503785D01*
G75*
G02*
X234271449Y227428785I-75000J0D01*
G01*
X232946449Y227428785D01*
G75*
G02*
X232871449Y227503785I0J75000D01*
G01*
G37*
G36*
G01*
X232871449Y228003785D02*
X232871449Y228153785D01*
G75*
G02*
X232946449Y228228785I75000J0D01*
G01*
X234271449Y228228785D01*
G75*
G02*
X234346449Y228153785I0J-75000D01*
G01*
X234346449Y228003785D01*
G75*
G02*
X234271449Y227928785I-75000J0D01*
G01*
X232946449Y227928785D01*
G75*
G02*
X232871449Y228003785I0J75000D01*
G01*
G37*
G36*
G01*
X232871449Y228503785D02*
X232871449Y228653785D01*
G75*
G02*
X232946449Y228728785I75000J0D01*
G01*
X234271449Y228728785D01*
G75*
G02*
X234346449Y228653785I0J-75000D01*
G01*
X234346449Y228503785D01*
G75*
G02*
X234271449Y228428785I-75000J0D01*
G01*
X232946449Y228428785D01*
G75*
G02*
X232871449Y228503785I0J75000D01*
G01*
G37*
G36*
G01*
X232871449Y229003785D02*
X232871449Y229153785D01*
G75*
G02*
X232946449Y229228785I75000J0D01*
G01*
X234271449Y229228785D01*
G75*
G02*
X234346449Y229153785I0J-75000D01*
G01*
X234346449Y229003785D01*
G75*
G02*
X234271449Y228928785I-75000J0D01*
G01*
X232946449Y228928785D01*
G75*
G02*
X232871449Y229003785I0J75000D01*
G01*
G37*
G36*
G01*
X232871449Y229503785D02*
X232871449Y229653785D01*
G75*
G02*
X232946449Y229728785I75000J0D01*
G01*
X234271449Y229728785D01*
G75*
G02*
X234346449Y229653785I0J-75000D01*
G01*
X234346449Y229503785D01*
G75*
G02*
X234271449Y229428785I-75000J0D01*
G01*
X232946449Y229428785D01*
G75*
G02*
X232871449Y229503785I0J75000D01*
G01*
G37*
G36*
G01*
X232871449Y230003785D02*
X232871449Y230153785D01*
G75*
G02*
X232946449Y230228785I75000J0D01*
G01*
X234271449Y230228785D01*
G75*
G02*
X234346449Y230153785I0J-75000D01*
G01*
X234346449Y230003785D01*
G75*
G02*
X234271449Y229928785I-75000J0D01*
G01*
X232946449Y229928785D01*
G75*
G02*
X232871449Y230003785I0J75000D01*
G01*
G37*
G36*
G01*
X232871449Y230503785D02*
X232871449Y230653785D01*
G75*
G02*
X232946449Y230728785I75000J0D01*
G01*
X234271449Y230728785D01*
G75*
G02*
X234346449Y230653785I0J-75000D01*
G01*
X234346449Y230503785D01*
G75*
G02*
X234271449Y230428785I-75000J0D01*
G01*
X232946449Y230428785D01*
G75*
G02*
X232871449Y230503785I0J75000D01*
G01*
G37*
G36*
G01*
X232871449Y231003785D02*
X232871449Y231153785D01*
G75*
G02*
X232946449Y231228785I75000J0D01*
G01*
X234271449Y231228785D01*
G75*
G02*
X234346449Y231153785I0J-75000D01*
G01*
X234346449Y231003785D01*
G75*
G02*
X234271449Y230928785I-75000J0D01*
G01*
X232946449Y230928785D01*
G75*
G02*
X232871449Y231003785I0J75000D01*
G01*
G37*
G36*
G01*
X234871449Y231828785D02*
X234871449Y233153785D01*
G75*
G02*
X234946449Y233228785I75000J0D01*
G01*
X235096449Y233228785D01*
G75*
G02*
X235171449Y233153785I0J-75000D01*
G01*
X235171449Y231828785D01*
G75*
G02*
X235096449Y231753785I-75000J0D01*
G01*
X234946449Y231753785D01*
G75*
G02*
X234871449Y231828785I0J75000D01*
G01*
G37*
G36*
G01*
X235371449Y231828785D02*
X235371449Y233153785D01*
G75*
G02*
X235446449Y233228785I75000J0D01*
G01*
X235596449Y233228785D01*
G75*
G02*
X235671449Y233153785I0J-75000D01*
G01*
X235671449Y231828785D01*
G75*
G02*
X235596449Y231753785I-75000J0D01*
G01*
X235446449Y231753785D01*
G75*
G02*
X235371449Y231828785I0J75000D01*
G01*
G37*
G36*
G01*
X235871449Y231828785D02*
X235871449Y233153785D01*
G75*
G02*
X235946449Y233228785I75000J0D01*
G01*
X236096449Y233228785D01*
G75*
G02*
X236171449Y233153785I0J-75000D01*
G01*
X236171449Y231828785D01*
G75*
G02*
X236096449Y231753785I-75000J0D01*
G01*
X235946449Y231753785D01*
G75*
G02*
X235871449Y231828785I0J75000D01*
G01*
G37*
G36*
G01*
X236371449Y231828785D02*
X236371449Y233153785D01*
G75*
G02*
X236446449Y233228785I75000J0D01*
G01*
X236596449Y233228785D01*
G75*
G02*
X236671449Y233153785I0J-75000D01*
G01*
X236671449Y231828785D01*
G75*
G02*
X236596449Y231753785I-75000J0D01*
G01*
X236446449Y231753785D01*
G75*
G02*
X236371449Y231828785I0J75000D01*
G01*
G37*
G36*
G01*
X236871449Y231828785D02*
X236871449Y233153785D01*
G75*
G02*
X236946449Y233228785I75000J0D01*
G01*
X237096449Y233228785D01*
G75*
G02*
X237171449Y233153785I0J-75000D01*
G01*
X237171449Y231828785D01*
G75*
G02*
X237096449Y231753785I-75000J0D01*
G01*
X236946449Y231753785D01*
G75*
G02*
X236871449Y231828785I0J75000D01*
G01*
G37*
G36*
G01*
X237371449Y231828785D02*
X237371449Y233153785D01*
G75*
G02*
X237446449Y233228785I75000J0D01*
G01*
X237596449Y233228785D01*
G75*
G02*
X237671449Y233153785I0J-75000D01*
G01*
X237671449Y231828785D01*
G75*
G02*
X237596449Y231753785I-75000J0D01*
G01*
X237446449Y231753785D01*
G75*
G02*
X237371449Y231828785I0J75000D01*
G01*
G37*
G36*
G01*
X237871449Y231828785D02*
X237871449Y233153785D01*
G75*
G02*
X237946449Y233228785I75000J0D01*
G01*
X238096449Y233228785D01*
G75*
G02*
X238171449Y233153785I0J-75000D01*
G01*
X238171449Y231828785D01*
G75*
G02*
X238096449Y231753785I-75000J0D01*
G01*
X237946449Y231753785D01*
G75*
G02*
X237871449Y231828785I0J75000D01*
G01*
G37*
G36*
G01*
X238371449Y231828785D02*
X238371449Y233153785D01*
G75*
G02*
X238446449Y233228785I75000J0D01*
G01*
X238596449Y233228785D01*
G75*
G02*
X238671449Y233153785I0J-75000D01*
G01*
X238671449Y231828785D01*
G75*
G02*
X238596449Y231753785I-75000J0D01*
G01*
X238446449Y231753785D01*
G75*
G02*
X238371449Y231828785I0J75000D01*
G01*
G37*
G36*
G01*
X238871449Y231828785D02*
X238871449Y233153785D01*
G75*
G02*
X238946449Y233228785I75000J0D01*
G01*
X239096449Y233228785D01*
G75*
G02*
X239171449Y233153785I0J-75000D01*
G01*
X239171449Y231828785D01*
G75*
G02*
X239096449Y231753785I-75000J0D01*
G01*
X238946449Y231753785D01*
G75*
G02*
X238871449Y231828785I0J75000D01*
G01*
G37*
G36*
G01*
X239371449Y231828785D02*
X239371449Y233153785D01*
G75*
G02*
X239446449Y233228785I75000J0D01*
G01*
X239596449Y233228785D01*
G75*
G02*
X239671449Y233153785I0J-75000D01*
G01*
X239671449Y231828785D01*
G75*
G02*
X239596449Y231753785I-75000J0D01*
G01*
X239446449Y231753785D01*
G75*
G02*
X239371449Y231828785I0J75000D01*
G01*
G37*
G36*
G01*
X239871449Y231828785D02*
X239871449Y233153785D01*
G75*
G02*
X239946449Y233228785I75000J0D01*
G01*
X240096449Y233228785D01*
G75*
G02*
X240171449Y233153785I0J-75000D01*
G01*
X240171449Y231828785D01*
G75*
G02*
X240096449Y231753785I-75000J0D01*
G01*
X239946449Y231753785D01*
G75*
G02*
X239871449Y231828785I0J75000D01*
G01*
G37*
G36*
G01*
X240371449Y231828785D02*
X240371449Y233153785D01*
G75*
G02*
X240446449Y233228785I75000J0D01*
G01*
X240596449Y233228785D01*
G75*
G02*
X240671449Y233153785I0J-75000D01*
G01*
X240671449Y231828785D01*
G75*
G02*
X240596449Y231753785I-75000J0D01*
G01*
X240446449Y231753785D01*
G75*
G02*
X240371449Y231828785I0J75000D01*
G01*
G37*
G36*
G01*
X241196449Y231003785D02*
X241196449Y231153785D01*
G75*
G02*
X241271449Y231228785I75000J0D01*
G01*
X242596449Y231228785D01*
G75*
G02*
X242671449Y231153785I0J-75000D01*
G01*
X242671449Y231003785D01*
G75*
G02*
X242596449Y230928785I-75000J0D01*
G01*
X241271449Y230928785D01*
G75*
G02*
X241196449Y231003785I0J75000D01*
G01*
G37*
G36*
G01*
X241196449Y230503785D02*
X241196449Y230653785D01*
G75*
G02*
X241271449Y230728785I75000J0D01*
G01*
X242596449Y230728785D01*
G75*
G02*
X242671449Y230653785I0J-75000D01*
G01*
X242671449Y230503785D01*
G75*
G02*
X242596449Y230428785I-75000J0D01*
G01*
X241271449Y230428785D01*
G75*
G02*
X241196449Y230503785I0J75000D01*
G01*
G37*
G36*
G01*
X241196449Y230003785D02*
X241196449Y230153785D01*
G75*
G02*
X241271449Y230228785I75000J0D01*
G01*
X242596449Y230228785D01*
G75*
G02*
X242671449Y230153785I0J-75000D01*
G01*
X242671449Y230003785D01*
G75*
G02*
X242596449Y229928785I-75000J0D01*
G01*
X241271449Y229928785D01*
G75*
G02*
X241196449Y230003785I0J75000D01*
G01*
G37*
G36*
G01*
X241196449Y229503785D02*
X241196449Y229653785D01*
G75*
G02*
X241271449Y229728785I75000J0D01*
G01*
X242596449Y229728785D01*
G75*
G02*
X242671449Y229653785I0J-75000D01*
G01*
X242671449Y229503785D01*
G75*
G02*
X242596449Y229428785I-75000J0D01*
G01*
X241271449Y229428785D01*
G75*
G02*
X241196449Y229503785I0J75000D01*
G01*
G37*
G36*
G01*
X241196449Y229003785D02*
X241196449Y229153785D01*
G75*
G02*
X241271449Y229228785I75000J0D01*
G01*
X242596449Y229228785D01*
G75*
G02*
X242671449Y229153785I0J-75000D01*
G01*
X242671449Y229003785D01*
G75*
G02*
X242596449Y228928785I-75000J0D01*
G01*
X241271449Y228928785D01*
G75*
G02*
X241196449Y229003785I0J75000D01*
G01*
G37*
G36*
G01*
X241196449Y228503785D02*
X241196449Y228653785D01*
G75*
G02*
X241271449Y228728785I75000J0D01*
G01*
X242596449Y228728785D01*
G75*
G02*
X242671449Y228653785I0J-75000D01*
G01*
X242671449Y228503785D01*
G75*
G02*
X242596449Y228428785I-75000J0D01*
G01*
X241271449Y228428785D01*
G75*
G02*
X241196449Y228503785I0J75000D01*
G01*
G37*
G36*
G01*
X241196449Y228003785D02*
X241196449Y228153785D01*
G75*
G02*
X241271449Y228228785I75000J0D01*
G01*
X242596449Y228228785D01*
G75*
G02*
X242671449Y228153785I0J-75000D01*
G01*
X242671449Y228003785D01*
G75*
G02*
X242596449Y227928785I-75000J0D01*
G01*
X241271449Y227928785D01*
G75*
G02*
X241196449Y228003785I0J75000D01*
G01*
G37*
G36*
G01*
X241196449Y227503785D02*
X241196449Y227653785D01*
G75*
G02*
X241271449Y227728785I75000J0D01*
G01*
X242596449Y227728785D01*
G75*
G02*
X242671449Y227653785I0J-75000D01*
G01*
X242671449Y227503785D01*
G75*
G02*
X242596449Y227428785I-75000J0D01*
G01*
X241271449Y227428785D01*
G75*
G02*
X241196449Y227503785I0J75000D01*
G01*
G37*
G36*
G01*
X241196449Y227003785D02*
X241196449Y227153785D01*
G75*
G02*
X241271449Y227228785I75000J0D01*
G01*
X242596449Y227228785D01*
G75*
G02*
X242671449Y227153785I0J-75000D01*
G01*
X242671449Y227003785D01*
G75*
G02*
X242596449Y226928785I-75000J0D01*
G01*
X241271449Y226928785D01*
G75*
G02*
X241196449Y227003785I0J75000D01*
G01*
G37*
G36*
G01*
X241196449Y226503785D02*
X241196449Y226653785D01*
G75*
G02*
X241271449Y226728785I75000J0D01*
G01*
X242596449Y226728785D01*
G75*
G02*
X242671449Y226653785I0J-75000D01*
G01*
X242671449Y226503785D01*
G75*
G02*
X242596449Y226428785I-75000J0D01*
G01*
X241271449Y226428785D01*
G75*
G02*
X241196449Y226503785I0J75000D01*
G01*
G37*
G36*
G01*
X241196449Y226003785D02*
X241196449Y226153785D01*
G75*
G02*
X241271449Y226228785I75000J0D01*
G01*
X242596449Y226228785D01*
G75*
G02*
X242671449Y226153785I0J-75000D01*
G01*
X242671449Y226003785D01*
G75*
G02*
X242596449Y225928785I-75000J0D01*
G01*
X241271449Y225928785D01*
G75*
G02*
X241196449Y226003785I0J75000D01*
G01*
G37*
G36*
G01*
X241196449Y225503785D02*
X241196449Y225653785D01*
G75*
G02*
X241271449Y225728785I75000J0D01*
G01*
X242596449Y225728785D01*
G75*
G02*
X242671449Y225653785I0J-75000D01*
G01*
X242671449Y225503785D01*
G75*
G02*
X242596449Y225428785I-75000J0D01*
G01*
X241271449Y225428785D01*
G75*
G02*
X241196449Y225503785I0J75000D01*
G01*
G37*
G36*
G01*
X240371449Y223503785D02*
X240371449Y224828785D01*
G75*
G02*
X240446449Y224903785I75000J0D01*
G01*
X240596449Y224903785D01*
G75*
G02*
X240671449Y224828785I0J-75000D01*
G01*
X240671449Y223503785D01*
G75*
G02*
X240596449Y223428785I-75000J0D01*
G01*
X240446449Y223428785D01*
G75*
G02*
X240371449Y223503785I0J75000D01*
G01*
G37*
G36*
G01*
X239871449Y223503785D02*
X239871449Y224828785D01*
G75*
G02*
X239946449Y224903785I75000J0D01*
G01*
X240096449Y224903785D01*
G75*
G02*
X240171449Y224828785I0J-75000D01*
G01*
X240171449Y223503785D01*
G75*
G02*
X240096449Y223428785I-75000J0D01*
G01*
X239946449Y223428785D01*
G75*
G02*
X239871449Y223503785I0J75000D01*
G01*
G37*
G36*
G01*
X239371449Y223503785D02*
X239371449Y224828785D01*
G75*
G02*
X239446449Y224903785I75000J0D01*
G01*
X239596449Y224903785D01*
G75*
G02*
X239671449Y224828785I0J-75000D01*
G01*
X239671449Y223503785D01*
G75*
G02*
X239596449Y223428785I-75000J0D01*
G01*
X239446449Y223428785D01*
G75*
G02*
X239371449Y223503785I0J75000D01*
G01*
G37*
G36*
G01*
X238871449Y223503785D02*
X238871449Y224828785D01*
G75*
G02*
X238946449Y224903785I75000J0D01*
G01*
X239096449Y224903785D01*
G75*
G02*
X239171449Y224828785I0J-75000D01*
G01*
X239171449Y223503785D01*
G75*
G02*
X239096449Y223428785I-75000J0D01*
G01*
X238946449Y223428785D01*
G75*
G02*
X238871449Y223503785I0J75000D01*
G01*
G37*
G36*
G01*
X238371449Y223503785D02*
X238371449Y224828785D01*
G75*
G02*
X238446449Y224903785I75000J0D01*
G01*
X238596449Y224903785D01*
G75*
G02*
X238671449Y224828785I0J-75000D01*
G01*
X238671449Y223503785D01*
G75*
G02*
X238596449Y223428785I-75000J0D01*
G01*
X238446449Y223428785D01*
G75*
G02*
X238371449Y223503785I0J75000D01*
G01*
G37*
G36*
G01*
X237871449Y223503785D02*
X237871449Y224828785D01*
G75*
G02*
X237946449Y224903785I75000J0D01*
G01*
X238096449Y224903785D01*
G75*
G02*
X238171449Y224828785I0J-75000D01*
G01*
X238171449Y223503785D01*
G75*
G02*
X238096449Y223428785I-75000J0D01*
G01*
X237946449Y223428785D01*
G75*
G02*
X237871449Y223503785I0J75000D01*
G01*
G37*
G36*
G01*
X237371449Y223503785D02*
X237371449Y224828785D01*
G75*
G02*
X237446449Y224903785I75000J0D01*
G01*
X237596449Y224903785D01*
G75*
G02*
X237671449Y224828785I0J-75000D01*
G01*
X237671449Y223503785D01*
G75*
G02*
X237596449Y223428785I-75000J0D01*
G01*
X237446449Y223428785D01*
G75*
G02*
X237371449Y223503785I0J75000D01*
G01*
G37*
G36*
G01*
X236871449Y223503785D02*
X236871449Y224828785D01*
G75*
G02*
X236946449Y224903785I75000J0D01*
G01*
X237096449Y224903785D01*
G75*
G02*
X237171449Y224828785I0J-75000D01*
G01*
X237171449Y223503785D01*
G75*
G02*
X237096449Y223428785I-75000J0D01*
G01*
X236946449Y223428785D01*
G75*
G02*
X236871449Y223503785I0J75000D01*
G01*
G37*
G36*
G01*
X236371449Y223503785D02*
X236371449Y224828785D01*
G75*
G02*
X236446449Y224903785I75000J0D01*
G01*
X236596449Y224903785D01*
G75*
G02*
X236671449Y224828785I0J-75000D01*
G01*
X236671449Y223503785D01*
G75*
G02*
X236596449Y223428785I-75000J0D01*
G01*
X236446449Y223428785D01*
G75*
G02*
X236371449Y223503785I0J75000D01*
G01*
G37*
G36*
G01*
X235871449Y223503785D02*
X235871449Y224828785D01*
G75*
G02*
X235946449Y224903785I75000J0D01*
G01*
X236096449Y224903785D01*
G75*
G02*
X236171449Y224828785I0J-75000D01*
G01*
X236171449Y223503785D01*
G75*
G02*
X236096449Y223428785I-75000J0D01*
G01*
X235946449Y223428785D01*
G75*
G02*
X235871449Y223503785I0J75000D01*
G01*
G37*
G36*
G01*
X235371449Y223503785D02*
X235371449Y224828785D01*
G75*
G02*
X235446449Y224903785I75000J0D01*
G01*
X235596449Y224903785D01*
G75*
G02*
X235671449Y224828785I0J-75000D01*
G01*
X235671449Y223503785D01*
G75*
G02*
X235596449Y223428785I-75000J0D01*
G01*
X235446449Y223428785D01*
G75*
G02*
X235371449Y223503785I0J75000D01*
G01*
G37*
G36*
G01*
X234871449Y223503785D02*
X234871449Y224828785D01*
G75*
G02*
X234946449Y224903785I75000J0D01*
G01*
X235096449Y224903785D01*
G75*
G02*
X235171449Y224828785I0J-75000D01*
G01*
X235171449Y223503785D01*
G75*
G02*
X235096449Y223428785I-75000J0D01*
G01*
X234946449Y223428785D01*
G75*
G02*
X234871449Y223503785I0J75000D01*
G01*
G37*
%TD*%
D14*
%TO.C,SW47*%
X259080000Y219075000D03*
X248920000Y219075000D03*
D15*
X250190000Y221615000D03*
D16*
X254000000Y219075000D03*
D15*
X256540000Y224155000D03*
%TD*%
D14*
%TO.C,SW46*%
X220980000Y219075000D03*
X210820000Y219075000D03*
D15*
X212090000Y221615000D03*
D16*
X215900000Y219075000D03*
D15*
X218440000Y224155000D03*
%TD*%
D14*
%TO.C,SW45*%
X199548750Y219075000D03*
X189388750Y219075000D03*
D15*
X190658750Y221615000D03*
D16*
X194468750Y219075000D03*
D15*
X197008750Y224155000D03*
%TD*%
D16*
%TO.C,SW44*%
X177800000Y227330000D03*
X153987500Y227330000D03*
D25*
X177800000Y212090000D03*
X153987500Y212090000D03*
D14*
X170973750Y219075000D03*
X160813750Y219075000D03*
D15*
X162083750Y221615000D03*
D16*
X165893750Y219075000D03*
D15*
X168433750Y224155000D03*
%TD*%
D16*
%TO.C,SW43*%
X139700000Y227330000D03*
X115887500Y227330000D03*
D25*
X139700000Y212090000D03*
X115887500Y212090000D03*
D14*
X132873750Y219075000D03*
X122713750Y219075000D03*
D15*
X123983750Y221615000D03*
D16*
X127793750Y219075000D03*
D15*
X130333750Y224155000D03*
%TD*%
D14*
%TO.C,SW42*%
X104298750Y219075000D03*
X94138750Y219075000D03*
D15*
X95408750Y221615000D03*
D16*
X99218750Y219075000D03*
D15*
X101758750Y224155000D03*
%TD*%
D14*
%TO.C,SW41*%
X82867500Y219075000D03*
X72707500Y219075000D03*
D15*
X73977500Y221615000D03*
D16*
X77787500Y219075000D03*
D15*
X80327500Y224155000D03*
%TD*%
D14*
%TO.C,SW40*%
X44767500Y219075000D03*
X34607500Y219075000D03*
D15*
X35877500Y221615000D03*
D16*
X39687500Y219075000D03*
D15*
X42227500Y224155000D03*
%TD*%
D14*
%TO.C,SW39*%
X13811250Y219075000D03*
X3651250Y219075000D03*
D15*
X4921250Y221615000D03*
D16*
X8731250Y219075000D03*
D15*
X11271250Y224155000D03*
%TD*%
D14*
%TO.C,SW38*%
X254317500Y238125000D03*
X244157500Y238125000D03*
D15*
X245427500Y240665000D03*
D16*
X249237500Y238125000D03*
D15*
X251777500Y243205000D03*
%TD*%
D14*
%TO.C,SW37*%
X228123750Y238125000D03*
X217963750Y238125000D03*
D15*
X219233750Y240665000D03*
D16*
X223043750Y238125000D03*
D15*
X225583750Y243205000D03*
%TD*%
D14*
%TO.C,SW36*%
X209073750Y238125000D03*
X198913750Y238125000D03*
D15*
X200183750Y240665000D03*
D16*
X203993750Y238125000D03*
D15*
X206533750Y243205000D03*
%TD*%
D14*
%TO.C,SW35*%
X190023750Y238125000D03*
X179863750Y238125000D03*
D15*
X181133750Y240665000D03*
D16*
X184943750Y238125000D03*
D15*
X187483750Y243205000D03*
%TD*%
D14*
%TO.C,SW34*%
X170973750Y238125000D03*
X160813750Y238125000D03*
D15*
X162083750Y240665000D03*
D16*
X165893750Y238125000D03*
D15*
X168433750Y243205000D03*
%TD*%
D14*
%TO.C,SW32*%
X132873750Y238125000D03*
X122713750Y238125000D03*
D15*
X123983750Y240665000D03*
D16*
X127793750Y238125000D03*
D15*
X130333750Y243205000D03*
%TD*%
D14*
%TO.C,SW31*%
X113823750Y238125000D03*
X103663750Y238125000D03*
D15*
X104933750Y240665000D03*
D16*
X108743750Y238125000D03*
D15*
X111283750Y243205000D03*
%TD*%
D14*
%TO.C,SW30*%
X94773750Y238125000D03*
X84613750Y238125000D03*
D15*
X85883750Y240665000D03*
D16*
X89693750Y238125000D03*
D15*
X92233750Y243205000D03*
%TD*%
D14*
%TO.C,SW29*%
X75723750Y238125000D03*
X65563750Y238125000D03*
D15*
X66833750Y240665000D03*
D16*
X70643750Y238125000D03*
D15*
X73183750Y243205000D03*
%TD*%
D14*
%TO.C,SW28*%
X49530000Y238125000D03*
X39370000Y238125000D03*
D15*
X40640000Y240665000D03*
D16*
X44450000Y238125000D03*
D15*
X46990000Y243205000D03*
%TD*%
D14*
%TO.C,SW27*%
X13811250Y238125000D03*
X3651250Y238125000D03*
D15*
X4921250Y240665000D03*
D16*
X8731250Y238125000D03*
D15*
X11271250Y243205000D03*
%TD*%
D14*
%TO.C,SW25*%
X237648750Y257175000D03*
X227488750Y257175000D03*
D15*
X228758750Y259715000D03*
D16*
X232568750Y257175000D03*
D15*
X235108750Y262255000D03*
%TD*%
D14*
%TO.C,SW24*%
X218598750Y257175000D03*
X208438750Y257175000D03*
D15*
X209708750Y259715000D03*
D16*
X213518750Y257175000D03*
D15*
X216058750Y262255000D03*
%TD*%
D14*
%TO.C,SW23*%
X199548750Y257175000D03*
X189388750Y257175000D03*
D15*
X190658750Y259715000D03*
D16*
X194468750Y257175000D03*
D15*
X197008750Y262255000D03*
%TD*%
D14*
%TO.C,SW22*%
X180498750Y257175000D03*
X170338750Y257175000D03*
D15*
X171608750Y259715000D03*
D16*
X175418750Y257175000D03*
D15*
X177958750Y262255000D03*
%TD*%
D14*
%TO.C,SW21*%
X161448750Y257175000D03*
X151288750Y257175000D03*
D15*
X152558750Y259715000D03*
D16*
X156368750Y257175000D03*
D15*
X158908750Y262255000D03*
%TD*%
D14*
%TO.C,SW20*%
X142398750Y257175000D03*
X132238750Y257175000D03*
D15*
X133508750Y259715000D03*
D16*
X137318750Y257175000D03*
D15*
X139858750Y262255000D03*
%TD*%
D14*
%TO.C,SW19*%
X123348750Y257175000D03*
X113188750Y257175000D03*
D15*
X114458750Y259715000D03*
D16*
X118268750Y257175000D03*
D15*
X120808750Y262255000D03*
%TD*%
D14*
%TO.C,SW18*%
X104298750Y257175000D03*
X94138750Y257175000D03*
D15*
X95408750Y259715000D03*
D16*
X99218750Y257175000D03*
D15*
X101758750Y262255000D03*
%TD*%
D14*
%TO.C,SW17*%
X85248750Y257175000D03*
X75088750Y257175000D03*
D15*
X76358750Y259715000D03*
D16*
X80168750Y257175000D03*
D15*
X82708750Y262255000D03*
%TD*%
D14*
%TO.C,SW16*%
X66198750Y257175000D03*
X56038750Y257175000D03*
D15*
X57308750Y259715000D03*
D16*
X61118750Y257175000D03*
D15*
X63658750Y262255000D03*
%TD*%
D14*
%TO.C,SW15*%
X44767500Y257175000D03*
X34607500Y257175000D03*
D15*
X35877500Y259715000D03*
D16*
X39687500Y257175000D03*
D15*
X42227500Y262255000D03*
%TD*%
D14*
%TO.C,SW14*%
X13811250Y257175000D03*
X3651250Y257175000D03*
D15*
X4921250Y259715000D03*
D16*
X8731250Y257175000D03*
D15*
X11271250Y262255000D03*
%TD*%
D14*
%TO.C,SW13*%
X256698750Y276225000D03*
X246538750Y276225000D03*
D15*
X247808750Y278765000D03*
D16*
X251618750Y276225000D03*
D15*
X254158750Y281305000D03*
%TD*%
D14*
%TO.C,SW12*%
X232886250Y276225000D03*
X222726250Y276225000D03*
D15*
X223996250Y278765000D03*
D16*
X227806250Y276225000D03*
D15*
X230346250Y281305000D03*
%TD*%
D14*
%TO.C,SW11*%
X213836250Y276225000D03*
X203676250Y276225000D03*
D15*
X204946250Y278765000D03*
D16*
X208756250Y276225000D03*
D15*
X211296250Y281305000D03*
%TD*%
D14*
%TO.C,SW10*%
X194786250Y276225000D03*
X184626250Y276225000D03*
D15*
X185896250Y278765000D03*
D16*
X189706250Y276225000D03*
D15*
X192246250Y281305000D03*
%TD*%
D14*
%TO.C,SW9*%
X175736250Y276225000D03*
X165576250Y276225000D03*
D15*
X166846250Y278765000D03*
D16*
X170656250Y276225000D03*
D15*
X173196250Y281305000D03*
%TD*%
D14*
%TO.C,SW8*%
X156686250Y276225000D03*
X146526250Y276225000D03*
D15*
X147796250Y278765000D03*
D16*
X151606250Y276225000D03*
D15*
X154146250Y281305000D03*
%TD*%
D14*
%TO.C,SW7*%
X137636250Y276225000D03*
X127476250Y276225000D03*
D15*
X128746250Y278765000D03*
D16*
X132556250Y276225000D03*
D15*
X135096250Y281305000D03*
%TD*%
D14*
%TO.C,SW6*%
X118586250Y276225000D03*
X108426250Y276225000D03*
D15*
X109696250Y278765000D03*
D16*
X113506250Y276225000D03*
D15*
X116046250Y281305000D03*
%TD*%
D14*
%TO.C,SW5*%
X99536250Y276225000D03*
X89376250Y276225000D03*
D15*
X90646250Y278765000D03*
D16*
X94456250Y276225000D03*
D15*
X96996250Y281305000D03*
%TD*%
D14*
%TO.C,SW4*%
X80486250Y276225000D03*
X70326250Y276225000D03*
D15*
X71596250Y278765000D03*
D16*
X75406250Y276225000D03*
D15*
X77946250Y281305000D03*
%TD*%
D14*
%TO.C,SW3*%
X61436250Y276225000D03*
X51276250Y276225000D03*
D15*
X52546250Y278765000D03*
D16*
X56356250Y276225000D03*
D15*
X58896250Y281305000D03*
%TD*%
D14*
%TO.C,SW2*%
X42386250Y276225000D03*
X32226250Y276225000D03*
D15*
X33496250Y278765000D03*
D16*
X37306250Y276225000D03*
D15*
X39846250Y281305000D03*
%TD*%
D14*
%TO.C,SW1*%
X13811250Y276225000D03*
X3651250Y276225000D03*
D15*
X4921250Y278765000D03*
D16*
X8731250Y276225000D03*
D15*
X11271250Y281305000D03*
%TD*%
D26*
%TO.C,RE4*%
X11223000Y226082000D03*
X6223000Y226082000D03*
D27*
X14323000Y219082000D03*
X3123000Y219082000D03*
D26*
X11223000Y211582000D03*
X8723000Y211582000D03*
D28*
X6223000Y211582000D03*
%TD*%
D26*
%TO.C,RE3*%
X11223000Y245132000D03*
X6223000Y245132000D03*
D27*
X14323000Y238132000D03*
X3123000Y238132000D03*
D26*
X11223000Y230632000D03*
X8723000Y230632000D03*
D28*
X6223000Y230632000D03*
%TD*%
D26*
%TO.C,RE2*%
X11223000Y264182000D03*
X6223000Y264182000D03*
D27*
X14323000Y257182000D03*
X3123000Y257182000D03*
D26*
X11223000Y249682000D03*
X8723000Y249682000D03*
D28*
X6223000Y249682000D03*
%TD*%
D26*
%TO.C,RE1*%
X11223000Y283232000D03*
X6223000Y283232000D03*
D27*
X14323000Y276232000D03*
X3123000Y276232000D03*
D26*
X11223000Y268732000D03*
X8723000Y268732000D03*
D28*
X6223000Y268732000D03*
%TD*%
M02*
