%TF.GenerationSoftware,KiCad,Pcbnew,5.1.9-73d0e3b20d~88~ubuntu20.04.1*%
%TF.CreationDate,2021-02-21T13:43:44-08:00*%
%TF.ProjectId,KB_Lightbar_1,4b425f4c-6967-4687-9462-61725f312e6b,rev?*%
%TF.SameCoordinates,Original*%
%TF.FileFunction,Paste,Top*%
%TF.FilePolarity,Positive*%
%FSLAX46Y46*%
G04 Gerber Fmt 4.6, Leading zero omitted, Abs format (unit mm)*
G04 Created by KiCad (PCBNEW 5.1.9-73d0e3b20d~88~ubuntu20.04.1) date 2021-02-21 13:43:44*
%MOMM*%
%LPD*%
G01*
G04 APERTURE LIST*
%ADD10R,1.500000X1.000000*%
G04 APERTURE END LIST*
%TO.C,C19*%
G36*
G01*
X27719000Y279133000D02*
X28669000Y279133000D01*
G75*
G02*
X28919000Y278883000I0J-250000D01*
G01*
X28919000Y278383000D01*
G75*
G02*
X28669000Y278133000I-250000J0D01*
G01*
X27719000Y278133000D01*
G75*
G02*
X27469000Y278383000I0J250000D01*
G01*
X27469000Y278883000D01*
G75*
G02*
X27719000Y279133000I250000J0D01*
G01*
G37*
G36*
G01*
X27719000Y277233000D02*
X28669000Y277233000D01*
G75*
G02*
X28919000Y276983000I0J-250000D01*
G01*
X28919000Y276483000D01*
G75*
G02*
X28669000Y276233000I-250000J0D01*
G01*
X27719000Y276233000D01*
G75*
G02*
X27469000Y276483000I0J250000D01*
G01*
X27469000Y276983000D01*
G75*
G02*
X27719000Y277233000I250000J0D01*
G01*
G37*
%TD*%
%TO.C,C18*%
G36*
G01*
X27719000Y270370000D02*
X28669000Y270370000D01*
G75*
G02*
X28919000Y270120000I0J-250000D01*
G01*
X28919000Y269620000D01*
G75*
G02*
X28669000Y269370000I-250000J0D01*
G01*
X27719000Y269370000D01*
G75*
G02*
X27469000Y269620000I0J250000D01*
G01*
X27469000Y270120000D01*
G75*
G02*
X27719000Y270370000I250000J0D01*
G01*
G37*
G36*
G01*
X27719000Y268470000D02*
X28669000Y268470000D01*
G75*
G02*
X28919000Y268220000I0J-250000D01*
G01*
X28919000Y267720000D01*
G75*
G02*
X28669000Y267470000I-250000J0D01*
G01*
X27719000Y267470000D01*
G75*
G02*
X27469000Y267720000I0J250000D01*
G01*
X27469000Y268220000D01*
G75*
G02*
X27719000Y268470000I250000J0D01*
G01*
G37*
%TD*%
%TO.C,C17*%
G36*
G01*
X27719000Y261607000D02*
X28669000Y261607000D01*
G75*
G02*
X28919000Y261357000I0J-250000D01*
G01*
X28919000Y260857000D01*
G75*
G02*
X28669000Y260607000I-250000J0D01*
G01*
X27719000Y260607000D01*
G75*
G02*
X27469000Y260857000I0J250000D01*
G01*
X27469000Y261357000D01*
G75*
G02*
X27719000Y261607000I250000J0D01*
G01*
G37*
G36*
G01*
X27719000Y259707000D02*
X28669000Y259707000D01*
G75*
G02*
X28919000Y259457000I0J-250000D01*
G01*
X28919000Y258957000D01*
G75*
G02*
X28669000Y258707000I-250000J0D01*
G01*
X27719000Y258707000D01*
G75*
G02*
X27469000Y258957000I0J250000D01*
G01*
X27469000Y259457000D01*
G75*
G02*
X27719000Y259707000I250000J0D01*
G01*
G37*
%TD*%
%TO.C,C16*%
G36*
G01*
X27719000Y252844000D02*
X28669000Y252844000D01*
G75*
G02*
X28919000Y252594000I0J-250000D01*
G01*
X28919000Y252094000D01*
G75*
G02*
X28669000Y251844000I-250000J0D01*
G01*
X27719000Y251844000D01*
G75*
G02*
X27469000Y252094000I0J250000D01*
G01*
X27469000Y252594000D01*
G75*
G02*
X27719000Y252844000I250000J0D01*
G01*
G37*
G36*
G01*
X27719000Y250944000D02*
X28669000Y250944000D01*
G75*
G02*
X28919000Y250694000I0J-250000D01*
G01*
X28919000Y250194000D01*
G75*
G02*
X28669000Y249944000I-250000J0D01*
G01*
X27719000Y249944000D01*
G75*
G02*
X27469000Y250194000I0J250000D01*
G01*
X27469000Y250694000D01*
G75*
G02*
X27719000Y250944000I250000J0D01*
G01*
G37*
%TD*%
%TO.C,C15*%
G36*
G01*
X27719000Y244208000D02*
X28669000Y244208000D01*
G75*
G02*
X28919000Y243958000I0J-250000D01*
G01*
X28919000Y243458000D01*
G75*
G02*
X28669000Y243208000I-250000J0D01*
G01*
X27719000Y243208000D01*
G75*
G02*
X27469000Y243458000I0J250000D01*
G01*
X27469000Y243958000D01*
G75*
G02*
X27719000Y244208000I250000J0D01*
G01*
G37*
G36*
G01*
X27719000Y242308000D02*
X28669000Y242308000D01*
G75*
G02*
X28919000Y242058000I0J-250000D01*
G01*
X28919000Y241558000D01*
G75*
G02*
X28669000Y241308000I-250000J0D01*
G01*
X27719000Y241308000D01*
G75*
G02*
X27469000Y241558000I0J250000D01*
G01*
X27469000Y242058000D01*
G75*
G02*
X27719000Y242308000I250000J0D01*
G01*
G37*
%TD*%
%TO.C,C14*%
G36*
G01*
X27719000Y235445000D02*
X28669000Y235445000D01*
G75*
G02*
X28919000Y235195000I0J-250000D01*
G01*
X28919000Y234695000D01*
G75*
G02*
X28669000Y234445000I-250000J0D01*
G01*
X27719000Y234445000D01*
G75*
G02*
X27469000Y234695000I0J250000D01*
G01*
X27469000Y235195000D01*
G75*
G02*
X27719000Y235445000I250000J0D01*
G01*
G37*
G36*
G01*
X27719000Y233545000D02*
X28669000Y233545000D01*
G75*
G02*
X28919000Y233295000I0J-250000D01*
G01*
X28919000Y232795000D01*
G75*
G02*
X28669000Y232545000I-250000J0D01*
G01*
X27719000Y232545000D01*
G75*
G02*
X27469000Y232795000I0J250000D01*
G01*
X27469000Y233295000D01*
G75*
G02*
X27719000Y233545000I250000J0D01*
G01*
G37*
%TD*%
%TO.C,C13*%
G36*
G01*
X27719000Y226682000D02*
X28669000Y226682000D01*
G75*
G02*
X28919000Y226432000I0J-250000D01*
G01*
X28919000Y225932000D01*
G75*
G02*
X28669000Y225682000I-250000J0D01*
G01*
X27719000Y225682000D01*
G75*
G02*
X27469000Y225932000I0J250000D01*
G01*
X27469000Y226432000D01*
G75*
G02*
X27719000Y226682000I250000J0D01*
G01*
G37*
G36*
G01*
X27719000Y224782000D02*
X28669000Y224782000D01*
G75*
G02*
X28919000Y224532000I0J-250000D01*
G01*
X28919000Y224032000D01*
G75*
G02*
X28669000Y223782000I-250000J0D01*
G01*
X27719000Y223782000D01*
G75*
G02*
X27469000Y224032000I0J250000D01*
G01*
X27469000Y224532000D01*
G75*
G02*
X27719000Y224782000I250000J0D01*
G01*
G37*
%TD*%
%TO.C,C12*%
G36*
G01*
X27719000Y217919000D02*
X28669000Y217919000D01*
G75*
G02*
X28919000Y217669000I0J-250000D01*
G01*
X28919000Y217169000D01*
G75*
G02*
X28669000Y216919000I-250000J0D01*
G01*
X27719000Y216919000D01*
G75*
G02*
X27469000Y217169000I0J250000D01*
G01*
X27469000Y217669000D01*
G75*
G02*
X27719000Y217919000I250000J0D01*
G01*
G37*
G36*
G01*
X27719000Y216019000D02*
X28669000Y216019000D01*
G75*
G02*
X28919000Y215769000I0J-250000D01*
G01*
X28919000Y215269000D01*
G75*
G02*
X28669000Y215019000I-250000J0D01*
G01*
X27719000Y215019000D01*
G75*
G02*
X27469000Y215269000I0J250000D01*
G01*
X27469000Y215769000D01*
G75*
G02*
X27719000Y216019000I250000J0D01*
G01*
G37*
%TD*%
%TO.C,R8*%
G36*
G01*
X31016000Y213810002D02*
X31016000Y212909998D01*
G75*
G02*
X30766002Y212660000I-249998J0D01*
G01*
X30240998Y212660000D01*
G75*
G02*
X29991000Y212909998I0J249998D01*
G01*
X29991000Y213810002D01*
G75*
G02*
X30240998Y214060000I249998J0D01*
G01*
X30766002Y214060000D01*
G75*
G02*
X31016000Y213810002I0J-249998D01*
G01*
G37*
G36*
G01*
X29191000Y213810002D02*
X29191000Y212909998D01*
G75*
G02*
X28941002Y212660000I-249998J0D01*
G01*
X28415998Y212660000D01*
G75*
G02*
X28166000Y212909998I0J249998D01*
G01*
X28166000Y213810002D01*
G75*
G02*
X28415998Y214060000I249998J0D01*
G01*
X28941002Y214060000D01*
G75*
G02*
X29191000Y213810002I0J-249998D01*
G01*
G37*
%TD*%
D10*
%TO.C,RGB7*%
X20632249Y271157501D03*
X20632249Y267957501D03*
X25532249Y271157501D03*
X25532249Y267957501D03*
%TD*%
%TO.C,RGB6*%
X20632250Y262426249D03*
X20632250Y259226249D03*
X25532250Y262426249D03*
X25532250Y259226249D03*
%TD*%
%TO.C,RGB5*%
X20701000Y253682500D03*
X20701000Y250482500D03*
X25601000Y253682500D03*
X25601000Y250482500D03*
%TD*%
%TO.C,RGB4*%
X20632250Y244963750D03*
X20632250Y241763750D03*
X25532250Y244963750D03*
X25532250Y241763750D03*
%TD*%
%TO.C,RGB3*%
X20632250Y236232500D03*
X20632250Y233032500D03*
X25532250Y236232500D03*
X25532250Y233032500D03*
%TD*%
%TO.C,RGB2*%
X20701000Y227501251D03*
X20701000Y224301251D03*
X25601000Y227501251D03*
X25601000Y224301251D03*
%TD*%
%TO.C,RGB8*%
X20632249Y279888750D03*
X20632249Y276688750D03*
X25532249Y279888750D03*
X25532249Y276688750D03*
%TD*%
%TO.C,RGB1*%
X20632250Y218770000D03*
X20632250Y215570000D03*
X25532250Y218770000D03*
X25532250Y215570000D03*
%TD*%
M02*
