%TF.GenerationSoftware,KiCad,Pcbnew,5.1.9-73d0e3b20d~88~ubuntu20.04.1*%
%TF.CreationDate,2021-02-21T13:43:44-08:00*%
%TF.ProjectId,KB_Lightbar_1,4b425f4c-6967-4687-9462-61725f312e6b,rev?*%
%TF.SameCoordinates,Original*%
%TF.FileFunction,Legend,Bot*%
%TF.FilePolarity,Positive*%
%FSLAX46Y46*%
G04 Gerber Fmt 4.6, Leading zero omitted, Abs format (unit mm)*
G04 Created by KiCad (PCBNEW 5.1.9-73d0e3b20d~88~ubuntu20.04.1) date 2021-02-21 13:43:44*
%MOMM*%
%LPD*%
G01*
G04 APERTURE LIST*
%ADD10C,0.150000*%
%ADD11C,0.120000*%
G04 APERTURE END LIST*
D10*
X252990602Y215715183D02*
X252923259Y215580496D01*
X252754900Y215412137D01*
X252653885Y215378465D01*
X252586541Y215378465D01*
X252485526Y215412137D01*
X252418183Y215479480D01*
X252384511Y215580496D01*
X252384511Y215647839D01*
X252418183Y215748854D01*
X252519198Y215917213D01*
X252552870Y216018228D01*
X252552870Y216085572D01*
X252519198Y216186587D01*
X252451854Y216253931D01*
X252350839Y216287602D01*
X252283496Y216287602D01*
X252182480Y216253931D01*
X252014122Y216085572D01*
X251946778Y215950885D01*
X251677404Y215748854D02*
X252216152Y214873389D01*
X251576389Y215243778D01*
X251946778Y214604015D01*
X251071312Y215142763D01*
X251509045Y214166282D02*
X250801938Y214873389D01*
X250633580Y214705030D01*
X250566236Y214570343D01*
X250566236Y214435656D01*
X250599908Y214334641D01*
X250700923Y214166282D01*
X250801938Y214065267D01*
X250970297Y213964251D01*
X251071312Y213930580D01*
X251206000Y213930580D01*
X251340687Y213997923D01*
X251509045Y214166282D01*
X250801938Y213459175D02*
X250094832Y214166282D01*
X249623427Y213694877D02*
X249488740Y213560190D01*
X249455068Y213459175D01*
X249455068Y213324488D01*
X249556084Y213156129D01*
X249791786Y212920427D01*
X249960145Y212819412D01*
X250094832Y212819412D01*
X250195847Y212853084D01*
X250330534Y212987771D01*
X250364206Y213088786D01*
X250364206Y213223473D01*
X250263190Y213391832D01*
X250027488Y213627534D01*
X249859129Y213728549D01*
X249724442Y213728549D01*
X249623427Y213694877D01*
X250424618Y216070198D02*
X250357274Y215935511D01*
X250188915Y215767152D01*
X250087900Y215733480D01*
X250020557Y215733480D01*
X249919541Y215767152D01*
X249852198Y215834496D01*
X249818526Y215935511D01*
X249818526Y216002854D01*
X249852198Y216103870D01*
X249953213Y216272228D01*
X249986885Y216373244D01*
X249986885Y216440587D01*
X249953213Y216541602D01*
X249885870Y216608946D01*
X249784854Y216642618D01*
X249717511Y216642618D01*
X249616496Y216608946D01*
X249448137Y216440587D01*
X249380793Y216305900D01*
X249111419Y216103870D02*
X249650167Y215228404D01*
X249010404Y215598793D01*
X249380793Y214959030D01*
X248505328Y215497778D01*
X248471656Y214184580D02*
X248539000Y214184580D01*
X248673687Y214251923D01*
X248741030Y214319267D01*
X248808374Y214453954D01*
X248808374Y214588641D01*
X248774702Y214689656D01*
X248673687Y214858015D01*
X248572671Y214959030D01*
X248404312Y215060045D01*
X248303297Y215093717D01*
X248168610Y215093717D01*
X248033923Y215026374D01*
X247966580Y214959030D01*
X247899236Y214824343D01*
X247899236Y214757000D01*
X247899236Y213477473D02*
X248235954Y213814190D01*
X247528847Y214521297D01*
X247663534Y213241771D02*
X246956427Y213948877D01*
X247259473Y212837710D02*
X247158458Y213544816D01*
X246552366Y213544816D02*
X247360488Y213544816D01*
D11*
%TO.C,C1*%
X56141252Y241654000D02*
X55618748Y241654000D01*
X56141252Y240184000D02*
X55618748Y240184000D01*
%TO.C,C20*%
X54617252Y281205000D02*
X54094748Y281205000D01*
X54617252Y282675000D02*
X54094748Y282675000D01*
%TO.C,R3*%
X54559564Y283237000D02*
X54105436Y283237000D01*
X54559564Y284707000D02*
X54105436Y284707000D01*
D10*
%TO.C,D57*%
X45721000Y276417000D02*
X45721000Y273517000D01*
X45721000Y276417000D02*
X47021000Y276417000D01*
X47021000Y276417000D02*
X47021000Y273517000D01*
X47021000Y273517000D02*
X45721000Y273517000D01*
D11*
%TO.C,D59*%
X156575000Y215237500D02*
X156575000Y219137500D01*
X154575000Y215237500D02*
X154575000Y219137500D01*
X156575000Y215237500D02*
X154575000Y215237500D01*
%TO.C,U2*%
X59057000Y239339000D02*
X60517000Y239339000D01*
X59057000Y242499000D02*
X61217000Y242499000D01*
X59057000Y242499000D02*
X59057000Y241569000D01*
X59057000Y239339000D02*
X59057000Y240269000D01*
D10*
%TO.C,SW48*%
X241209000Y215083000D02*
G75*
G03*
X241209000Y215083000I-1000000J0D01*
G01*
X237609000Y217683000D02*
X237609000Y212483000D01*
X242809000Y217683000D02*
X237609000Y217683000D01*
X242809000Y212483000D02*
X242809000Y217683000D01*
X237609000Y212483000D02*
X242809000Y212483000D01*
D11*
%TO.C,R7*%
X48160000Y274704436D02*
X48160000Y275158564D01*
X49630000Y274704436D02*
X49630000Y275158564D01*
%TO.C,R6*%
X40286000Y272719436D02*
X40286000Y273173564D01*
X41756000Y272719436D02*
X41756000Y273173564D01*
%TO.C,R5*%
X239241000Y219706564D02*
X239241000Y219252436D01*
X237771000Y219706564D02*
X237771000Y219252436D01*
%TO.C,R2*%
X61518436Y238733000D02*
X61972564Y238733000D01*
X61518436Y237263000D02*
X61972564Y237263000D01*
%TO.C,R1*%
X56130564Y242851000D02*
X55676436Y242851000D01*
X56130564Y244321000D02*
X55676436Y244321000D01*
%TO.C,Q1*%
X223629000Y231196000D02*
X222169000Y231196000D01*
X223629000Y228036000D02*
X221469000Y228036000D01*
X223629000Y228036000D02*
X223629000Y228966000D01*
X223629000Y231196000D02*
X223629000Y230266000D01*
%TO.C,F1*%
X55977064Y245470000D02*
X54772936Y245470000D01*
X55977064Y247290000D02*
X54772936Y247290000D01*
%TO.C,D58*%
X233188000Y218405000D02*
X233188000Y214505000D01*
X235188000Y218405000D02*
X235188000Y214505000D01*
X233188000Y218405000D02*
X235188000Y218405000D01*
%TO.C,D52*%
X55536000Y232299000D02*
X59436000Y232299000D01*
X55536000Y234299000D02*
X59436000Y234299000D01*
X55536000Y232299000D02*
X55536000Y234299000D01*
%TO.C,D47*%
X263731250Y215237500D02*
X263731250Y219137500D01*
X261731250Y215237500D02*
X261731250Y219137500D01*
X263731250Y215237500D02*
X261731250Y215237500D01*
%TO.C,D46*%
X225631250Y215175000D02*
X225631250Y219075000D01*
X223631250Y215175000D02*
X223631250Y219075000D01*
X225631250Y215175000D02*
X223631250Y215175000D01*
%TO.C,D45*%
X204200000Y215175000D02*
X204200000Y219075000D01*
X202200000Y215175000D02*
X202200000Y219075000D01*
X204200000Y215175000D02*
X202200000Y215175000D01*
%TO.C,D44*%
X185150000Y215175000D02*
X185150000Y219075000D01*
X183150000Y215175000D02*
X183150000Y219075000D01*
X185150000Y215175000D02*
X183150000Y215175000D01*
%TO.C,D43*%
X137525000Y215175000D02*
X137525000Y219075000D01*
X135525000Y215175000D02*
X135525000Y219075000D01*
X137525000Y215175000D02*
X135525000Y215175000D01*
%TO.C,D42*%
X108950000Y215175000D02*
X108950000Y219075000D01*
X106950000Y215175000D02*
X106950000Y219075000D01*
X108950000Y215175000D02*
X106950000Y215175000D01*
%TO.C,D41*%
X87518750Y215175000D02*
X87518750Y219075000D01*
X85518750Y215175000D02*
X85518750Y219075000D01*
X87518750Y215175000D02*
X85518750Y215175000D01*
%TO.C,D40*%
X49418750Y215237500D02*
X49418750Y219137500D01*
X47418750Y215237500D02*
X47418750Y219137500D01*
X49418750Y215237500D02*
X47418750Y215237500D01*
%TO.C,D39*%
X18462500Y215237500D02*
X18462500Y219137500D01*
X16462500Y215237500D02*
X16462500Y219137500D01*
X18462500Y215237500D02*
X16462500Y215237500D01*
%TO.C,D38*%
X258968750Y234225000D02*
X258968750Y238125000D01*
X256968750Y234225000D02*
X256968750Y238125000D01*
X258968750Y234225000D02*
X256968750Y234225000D01*
%TO.C,D37*%
X232775000Y234287500D02*
X232775000Y238187500D01*
X230775000Y234287500D02*
X230775000Y238187500D01*
X232775000Y234287500D02*
X230775000Y234287500D01*
%TO.C,D36*%
X213725000Y234225000D02*
X213725000Y238125000D01*
X211725000Y234225000D02*
X211725000Y238125000D01*
X213725000Y234225000D02*
X211725000Y234225000D01*
%TO.C,D35*%
X194675000Y234287500D02*
X194675000Y238187500D01*
X192675000Y234287500D02*
X192675000Y238187500D01*
X194675000Y234287500D02*
X192675000Y234287500D01*
%TO.C,D34*%
X175625000Y234350000D02*
X175625000Y238250000D01*
X173625000Y234350000D02*
X173625000Y238250000D01*
X175625000Y234350000D02*
X173625000Y234350000D01*
%TO.C,D33*%
X156575000Y234350000D02*
X156575000Y238250000D01*
X154575000Y234350000D02*
X154575000Y238250000D01*
X156575000Y234350000D02*
X154575000Y234350000D01*
%TO.C,D32*%
X137525000Y234225000D02*
X137525000Y238125000D01*
X135525000Y234225000D02*
X135525000Y238125000D01*
X137525000Y234225000D02*
X135525000Y234225000D01*
%TO.C,D31*%
X118475000Y234225000D02*
X118475000Y238125000D01*
X116475000Y234225000D02*
X116475000Y238125000D01*
X118475000Y234225000D02*
X116475000Y234225000D01*
%TO.C,D30*%
X99425000Y234225000D02*
X99425000Y238125000D01*
X97425000Y234225000D02*
X97425000Y238125000D01*
X99425000Y234225000D02*
X97425000Y234225000D01*
%TO.C,D29*%
X80375000Y234225000D02*
X80375000Y238125000D01*
X78375000Y234225000D02*
X78375000Y238125000D01*
X80375000Y234225000D02*
X78375000Y234225000D01*
%TO.C,D28*%
X54181250Y234225000D02*
X54181250Y238125000D01*
X52181250Y234225000D02*
X52181250Y238125000D01*
X54181250Y234225000D02*
X52181250Y234225000D01*
%TO.C,D27*%
X18462500Y234287500D02*
X18462500Y238187500D01*
X16462500Y234287500D02*
X16462500Y238187500D01*
X18462500Y234287500D02*
X16462500Y234287500D01*
%TO.C,D26*%
X247062500Y253275000D02*
X247062500Y257175000D01*
X245062500Y253275000D02*
X245062500Y257175000D01*
X247062500Y253275000D02*
X245062500Y253275000D01*
%TO.C,D25*%
X242300000Y253275000D02*
X242300000Y257175000D01*
X240300000Y253275000D02*
X240300000Y257175000D01*
X242300000Y253275000D02*
X240300000Y253275000D01*
%TO.C,D24*%
X223250000Y253337500D02*
X223250000Y257237500D01*
X221250000Y253337500D02*
X221250000Y257237500D01*
X223250000Y253337500D02*
X221250000Y253337500D01*
%TO.C,D23*%
X204200000Y253275000D02*
X204200000Y257175000D01*
X202200000Y253275000D02*
X202200000Y257175000D01*
X204200000Y253275000D02*
X202200000Y253275000D01*
%TO.C,D22*%
X185150000Y253275000D02*
X185150000Y257175000D01*
X183150000Y253275000D02*
X183150000Y257175000D01*
X185150000Y253275000D02*
X183150000Y253275000D01*
%TO.C,D21*%
X166100000Y253400000D02*
X166100000Y257300000D01*
X164100000Y253400000D02*
X164100000Y257300000D01*
X166100000Y253400000D02*
X164100000Y253400000D01*
%TO.C,D20*%
X147050000Y253275000D02*
X147050000Y257175000D01*
X145050000Y253275000D02*
X145050000Y257175000D01*
X147050000Y253275000D02*
X145050000Y253275000D01*
%TO.C,D19*%
X128000000Y253275000D02*
X128000000Y257175000D01*
X126000000Y253275000D02*
X126000000Y257175000D01*
X128000000Y253275000D02*
X126000000Y253275000D01*
%TO.C,D18*%
X108950000Y253275000D02*
X108950000Y257175000D01*
X106950000Y253275000D02*
X106950000Y257175000D01*
X108950000Y253275000D02*
X106950000Y253275000D01*
%TO.C,D17*%
X89900000Y253275000D02*
X89900000Y257175000D01*
X87900000Y253275000D02*
X87900000Y257175000D01*
X89900000Y253275000D02*
X87900000Y253275000D01*
%TO.C,D16*%
X70850000Y253275000D02*
X70850000Y257175000D01*
X68850000Y253275000D02*
X68850000Y257175000D01*
X70850000Y253275000D02*
X68850000Y253275000D01*
%TO.C,D15*%
X49418750Y253275000D02*
X49418750Y257175000D01*
X47418750Y253275000D02*
X47418750Y257175000D01*
X49418750Y253275000D02*
X47418750Y253275000D01*
%TO.C,D14*%
X18462500Y253275000D02*
X18462500Y257175000D01*
X16462500Y253275000D02*
X16462500Y257175000D01*
X18462500Y253275000D02*
X16462500Y253275000D01*
%TO.C,D13*%
X244459000Y272323000D02*
X244459000Y276223000D01*
X242459000Y272323000D02*
X242459000Y276223000D01*
X244459000Y272323000D02*
X242459000Y272323000D01*
%TO.C,D12*%
X237537500Y272325000D02*
X237537500Y276225000D01*
X235537500Y272325000D02*
X235537500Y276225000D01*
X237537500Y272325000D02*
X235537500Y272325000D01*
%TO.C,D11*%
X218487500Y272450000D02*
X218487500Y276350000D01*
X216487500Y272450000D02*
X216487500Y276350000D01*
X218487500Y272450000D02*
X216487500Y272450000D01*
%TO.C,D10*%
X199437500Y272325000D02*
X199437500Y276225000D01*
X197437500Y272325000D02*
X197437500Y276225000D01*
X199437500Y272325000D02*
X197437500Y272325000D01*
%TO.C,D9*%
X180387500Y272325000D02*
X180387500Y276225000D01*
X178387500Y272325000D02*
X178387500Y276225000D01*
X180387500Y272325000D02*
X178387500Y272325000D01*
%TO.C,D8*%
X161337500Y272325000D02*
X161337500Y276225000D01*
X159337500Y272325000D02*
X159337500Y276225000D01*
X161337500Y272325000D02*
X159337500Y272325000D01*
%TO.C,D7*%
X142287500Y272325000D02*
X142287500Y276225000D01*
X140287500Y272325000D02*
X140287500Y276225000D01*
X142287500Y272325000D02*
X140287500Y272325000D01*
%TO.C,D6*%
X123237500Y272387500D02*
X123237500Y276287500D01*
X121237500Y272387500D02*
X121237500Y276287500D01*
X123237500Y272387500D02*
X121237500Y272387500D01*
%TO.C,D5*%
X104187500Y272387500D02*
X104187500Y276287500D01*
X102187500Y272387500D02*
X102187500Y276287500D01*
X104187500Y272387500D02*
X102187500Y272387500D01*
%TO.C,D4*%
X85137500Y272387500D02*
X85137500Y276287500D01*
X83137500Y272387500D02*
X83137500Y276287500D01*
X85137500Y272387500D02*
X83137500Y272387500D01*
%TO.C,D3*%
X66087500Y272387500D02*
X66087500Y276287500D01*
X64087500Y272387500D02*
X64087500Y276287500D01*
X66087500Y272387500D02*
X64087500Y272387500D01*
%TO.C,D2*%
X30368750Y272325000D02*
X30368750Y276225000D01*
X28368750Y272325000D02*
X28368750Y276225000D01*
X30368750Y272325000D02*
X28368750Y272325000D01*
%TO.C,D1*%
X18462500Y272387500D02*
X18462500Y276287500D01*
X16462500Y272387500D02*
X16462500Y276287500D01*
X18462500Y272387500D02*
X16462500Y272387500D01*
%TO.C,C11*%
X229770000Y231960749D02*
X229770000Y232483253D01*
X231240000Y231960749D02*
X231240000Y232483253D01*
%TO.C,C10*%
X230578253Y224182000D02*
X230055749Y224182000D01*
X230578253Y225652000D02*
X230055749Y225652000D01*
%TO.C,C9*%
X243136749Y222350000D02*
X243659253Y222350000D01*
X243136749Y220880000D02*
X243659253Y220880000D01*
%TO.C,C8*%
X224944000Y229420749D02*
X224944000Y229943253D01*
X226414000Y229420749D02*
X226414000Y229943253D01*
%TO.C,C7*%
X227738000Y231960748D02*
X227738000Y232483252D01*
X229208000Y231960748D02*
X229208000Y232483252D01*
%TO.C,C6*%
X243136749Y224382000D02*
X243659253Y224382000D01*
X243136749Y222912000D02*
X243659253Y222912000D01*
%TO.C,C5*%
X233913208Y220427761D02*
X233543741Y220058294D01*
X232873761Y221467208D02*
X232504294Y221097741D01*
%TO.C,C4*%
X239930000Y236527748D02*
X239930000Y237050252D01*
X241400000Y236527748D02*
X241400000Y237050252D01*
%TO.C,C3*%
X235739000Y219260749D02*
X235739000Y219783253D01*
X237209000Y219260749D02*
X237209000Y219783253D01*
%TO.C,C2*%
X61521747Y236701000D02*
X62044251Y236701000D01*
X61521747Y235231000D02*
X62044251Y235231000D01*
%TO.C,U1*%
X234161449Y225168785D02*
X232871449Y225168785D01*
X234161449Y224718785D02*
X234161449Y225168785D01*
X234611449Y224718785D02*
X234161449Y224718785D01*
X241381449Y224718785D02*
X241381449Y225168785D01*
X240931449Y224718785D02*
X241381449Y224718785D01*
X234161449Y231938785D02*
X234161449Y231488785D01*
X234611449Y231938785D02*
X234161449Y231938785D01*
X241381449Y231938785D02*
X241381449Y231488785D01*
X240931449Y231938785D02*
X241381449Y231938785D01*
%TO.C,C1*%
D10*
X56046666Y242241857D02*
X56094285Y242194238D01*
X56237142Y242146619D01*
X56332380Y242146619D01*
X56475238Y242194238D01*
X56570476Y242289476D01*
X56618095Y242384714D01*
X56665714Y242575190D01*
X56665714Y242718047D01*
X56618095Y242908523D01*
X56570476Y243003761D01*
X56475238Y243099000D01*
X56332380Y243146619D01*
X56237142Y243146619D01*
X56094285Y243099000D01*
X56046666Y243051380D01*
X55094285Y242146619D02*
X55665714Y242146619D01*
X55380000Y242146619D02*
X55380000Y243146619D01*
X55475238Y243003761D01*
X55570476Y242908523D01*
X55665714Y242860904D01*
%TO.C,C20*%
X56141857Y279804857D02*
X56189476Y279757238D01*
X56332333Y279709619D01*
X56427571Y279709619D01*
X56570428Y279757238D01*
X56665666Y279852476D01*
X56713285Y279947714D01*
X56760904Y280138190D01*
X56760904Y280281047D01*
X56713285Y280471523D01*
X56665666Y280566761D01*
X56570428Y280662000D01*
X56427571Y280709619D01*
X56332333Y280709619D01*
X56189476Y280662000D01*
X56141857Y280614380D01*
X55760904Y280614380D02*
X55713285Y280662000D01*
X55618047Y280709619D01*
X55379952Y280709619D01*
X55284714Y280662000D01*
X55237095Y280614380D01*
X55189476Y280519142D01*
X55189476Y280423904D01*
X55237095Y280281047D01*
X55808523Y279709619D01*
X55189476Y279709619D01*
X54570428Y280709619D02*
X54475190Y280709619D01*
X54379952Y280662000D01*
X54332333Y280614380D01*
X54284714Y280519142D01*
X54237095Y280328666D01*
X54237095Y280090571D01*
X54284714Y279900095D01*
X54332333Y279804857D01*
X54379952Y279757238D01*
X54475190Y279709619D01*
X54570428Y279709619D01*
X54665666Y279757238D01*
X54713285Y279804857D01*
X54760904Y279900095D01*
X54808523Y280090571D01*
X54808523Y280328666D01*
X54760904Y280519142D01*
X54713285Y280614380D01*
X54665666Y280662000D01*
X54570428Y280709619D01*
%TO.C,USB1*%
X48569345Y278478869D02*
X48569345Y277669345D01*
X48521726Y277574107D01*
X48474107Y277526488D01*
X48378869Y277478869D01*
X48188392Y277478869D01*
X48093154Y277526488D01*
X48045535Y277574107D01*
X47997916Y277669345D01*
X47997916Y278478869D01*
X47569345Y277526488D02*
X47426488Y277478869D01*
X47188392Y277478869D01*
X47093154Y277526488D01*
X47045535Y277574107D01*
X46997916Y277669345D01*
X46997916Y277764583D01*
X47045535Y277859821D01*
X47093154Y277907440D01*
X47188392Y277955059D01*
X47378869Y278002678D01*
X47474107Y278050297D01*
X47521726Y278097916D01*
X47569345Y278193154D01*
X47569345Y278288392D01*
X47521726Y278383630D01*
X47474107Y278431250D01*
X47378869Y278478869D01*
X47140773Y278478869D01*
X46997916Y278431250D01*
X46236011Y278002678D02*
X46093154Y277955059D01*
X46045535Y277907440D01*
X45997916Y277812202D01*
X45997916Y277669345D01*
X46045535Y277574107D01*
X46093154Y277526488D01*
X46188392Y277478869D01*
X46569345Y277478869D01*
X46569345Y278478869D01*
X46236011Y278478869D01*
X46140773Y278431250D01*
X46093154Y278383630D01*
X46045535Y278288392D01*
X46045535Y278193154D01*
X46093154Y278097916D01*
X46140773Y278050297D01*
X46236011Y278002678D01*
X46569345Y278002678D01*
X45045535Y277478869D02*
X45616964Y277478869D01*
X45331250Y277478869D02*
X45331250Y278478869D01*
X45426488Y278336011D01*
X45521726Y278240773D01*
X45616964Y278193154D01*
%TO.C,R3*%
X57443666Y283519619D02*
X57777000Y283995809D01*
X58015095Y283519619D02*
X58015095Y284519619D01*
X57634142Y284519619D01*
X57538904Y284472000D01*
X57491285Y284424380D01*
X57443666Y284329142D01*
X57443666Y284186285D01*
X57491285Y284091047D01*
X57538904Y284043428D01*
X57634142Y283995809D01*
X58015095Y283995809D01*
X57110333Y284519619D02*
X56491285Y284519619D01*
X56824619Y284138666D01*
X56681761Y284138666D01*
X56586523Y284091047D01*
X56538904Y284043428D01*
X56491285Y283948190D01*
X56491285Y283710095D01*
X56538904Y283614857D01*
X56586523Y283567238D01*
X56681761Y283519619D01*
X56967476Y283519619D01*
X57062714Y283567238D01*
X57110333Y283614857D01*
%TO.C,D57*%
X47585285Y272064619D02*
X47585285Y273064619D01*
X47347190Y273064619D01*
X47204333Y273017000D01*
X47109095Y272921761D01*
X47061476Y272826523D01*
X47013857Y272636047D01*
X47013857Y272493190D01*
X47061476Y272302714D01*
X47109095Y272207476D01*
X47204333Y272112238D01*
X47347190Y272064619D01*
X47585285Y272064619D01*
X46109095Y273064619D02*
X46585285Y273064619D01*
X46632904Y272588428D01*
X46585285Y272636047D01*
X46490047Y272683666D01*
X46251952Y272683666D01*
X46156714Y272636047D01*
X46109095Y272588428D01*
X46061476Y272493190D01*
X46061476Y272255095D01*
X46109095Y272159857D01*
X46156714Y272112238D01*
X46251952Y272064619D01*
X46490047Y272064619D01*
X46585285Y272112238D01*
X46632904Y272159857D01*
X45728142Y273064619D02*
X45061476Y273064619D01*
X45490047Y272064619D01*
%TO.C,D59*%
X158027380Y218701785D02*
X157027380Y218701785D01*
X157027380Y218463690D01*
X157075000Y218320833D01*
X157170238Y218225595D01*
X157265476Y218177976D01*
X157455952Y218130357D01*
X157598809Y218130357D01*
X157789285Y218177976D01*
X157884523Y218225595D01*
X157979761Y218320833D01*
X158027380Y218463690D01*
X158027380Y218701785D01*
X157027380Y217225595D02*
X157027380Y217701785D01*
X157503571Y217749404D01*
X157455952Y217701785D01*
X157408333Y217606547D01*
X157408333Y217368452D01*
X157455952Y217273214D01*
X157503571Y217225595D01*
X157598809Y217177976D01*
X157836904Y217177976D01*
X157932142Y217225595D01*
X157979761Y217273214D01*
X158027380Y217368452D01*
X158027380Y217606547D01*
X157979761Y217701785D01*
X157932142Y217749404D01*
X158027380Y216701785D02*
X158027380Y216511309D01*
X157979761Y216416071D01*
X157932142Y216368452D01*
X157789285Y216273214D01*
X157598809Y216225595D01*
X157217857Y216225595D01*
X157122619Y216273214D01*
X157075000Y216320833D01*
X157027380Y216416071D01*
X157027380Y216606547D01*
X157075000Y216701785D01*
X157122619Y216749404D01*
X157217857Y216797023D01*
X157455952Y216797023D01*
X157551190Y216749404D01*
X157598809Y216701785D01*
X157646428Y216606547D01*
X157646428Y216416071D01*
X157598809Y216320833D01*
X157551190Y216273214D01*
X157455952Y216225595D01*
%TO.C,U2*%
X60578904Y243966619D02*
X60578904Y243157095D01*
X60531285Y243061857D01*
X60483666Y243014238D01*
X60388428Y242966619D01*
X60197952Y242966619D01*
X60102714Y243014238D01*
X60055095Y243061857D01*
X60007476Y243157095D01*
X60007476Y243966619D01*
X59578904Y243871380D02*
X59531285Y243919000D01*
X59436047Y243966619D01*
X59197952Y243966619D01*
X59102714Y243919000D01*
X59055095Y243871380D01*
X59007476Y243776142D01*
X59007476Y243680904D01*
X59055095Y243538047D01*
X59626523Y242966619D01*
X59007476Y242966619D01*
%TO.C,SW48*%
X241712523Y210669238D02*
X241569666Y210621619D01*
X241331571Y210621619D01*
X241236333Y210669238D01*
X241188714Y210716857D01*
X241141095Y210812095D01*
X241141095Y210907333D01*
X241188714Y211002571D01*
X241236333Y211050190D01*
X241331571Y211097809D01*
X241522047Y211145428D01*
X241617285Y211193047D01*
X241664904Y211240666D01*
X241712523Y211335904D01*
X241712523Y211431142D01*
X241664904Y211526380D01*
X241617285Y211574000D01*
X241522047Y211621619D01*
X241283952Y211621619D01*
X241141095Y211574000D01*
X240807761Y211621619D02*
X240569666Y210621619D01*
X240379190Y211335904D01*
X240188714Y210621619D01*
X239950619Y211621619D01*
X239141095Y211288285D02*
X239141095Y210621619D01*
X239379190Y211669238D02*
X239617285Y210954952D01*
X238998238Y210954952D01*
X238474428Y211193047D02*
X238569666Y211240666D01*
X238617285Y211288285D01*
X238664904Y211383523D01*
X238664904Y211431142D01*
X238617285Y211526380D01*
X238569666Y211574000D01*
X238474428Y211621619D01*
X238283952Y211621619D01*
X238188714Y211574000D01*
X238141095Y211526380D01*
X238093476Y211431142D01*
X238093476Y211383523D01*
X238141095Y211288285D01*
X238188714Y211240666D01*
X238283952Y211193047D01*
X238474428Y211193047D01*
X238569666Y211145428D01*
X238617285Y211097809D01*
X238664904Y211002571D01*
X238664904Y210812095D01*
X238617285Y210716857D01*
X238569666Y210669238D01*
X238474428Y210621619D01*
X238283952Y210621619D01*
X238188714Y210669238D01*
X238141095Y210716857D01*
X238093476Y210812095D01*
X238093476Y211002571D01*
X238141095Y211097809D01*
X238188714Y211145428D01*
X238283952Y211193047D01*
%TO.C,R7*%
X51093666Y273359619D02*
X51427000Y273835809D01*
X51665095Y273359619D02*
X51665095Y274359619D01*
X51284142Y274359619D01*
X51188904Y274312000D01*
X51141285Y274264380D01*
X51093666Y274169142D01*
X51093666Y274026285D01*
X51141285Y273931047D01*
X51188904Y273883428D01*
X51284142Y273835809D01*
X51665095Y273835809D01*
X50760333Y274359619D02*
X50093666Y274359619D01*
X50522238Y273359619D01*
%TO.C,R6*%
X39282666Y271327619D02*
X39616000Y271803809D01*
X39854095Y271327619D02*
X39854095Y272327619D01*
X39473142Y272327619D01*
X39377904Y272280000D01*
X39330285Y272232380D01*
X39282666Y272137142D01*
X39282666Y271994285D01*
X39330285Y271899047D01*
X39377904Y271851428D01*
X39473142Y271803809D01*
X39854095Y271803809D01*
X38425523Y272327619D02*
X38616000Y272327619D01*
X38711238Y272280000D01*
X38758857Y272232380D01*
X38854095Y272089523D01*
X38901714Y271899047D01*
X38901714Y271518095D01*
X38854095Y271422857D01*
X38806476Y271375238D01*
X38711238Y271327619D01*
X38520761Y271327619D01*
X38425523Y271375238D01*
X38377904Y271422857D01*
X38330285Y271518095D01*
X38330285Y271756190D01*
X38377904Y271851428D01*
X38425523Y271899047D01*
X38520761Y271946666D01*
X38711238Y271946666D01*
X38806476Y271899047D01*
X38854095Y271851428D01*
X38901714Y271756190D01*
%TO.C,R5*%
X239085380Y222289666D02*
X238609190Y222623000D01*
X239085380Y222861095D02*
X238085380Y222861095D01*
X238085380Y222480142D01*
X238133000Y222384904D01*
X238180619Y222337285D01*
X238275857Y222289666D01*
X238418714Y222289666D01*
X238513952Y222337285D01*
X238561571Y222384904D01*
X238609190Y222480142D01*
X238609190Y222861095D01*
X238085380Y221384904D02*
X238085380Y221861095D01*
X238561571Y221908714D01*
X238513952Y221861095D01*
X238466333Y221765857D01*
X238466333Y221527761D01*
X238513952Y221432523D01*
X238561571Y221384904D01*
X238656809Y221337285D01*
X238894904Y221337285D01*
X238990142Y221384904D01*
X239037761Y221432523D01*
X239085380Y221527761D01*
X239085380Y221765857D01*
X239037761Y221861095D01*
X238990142Y221908714D01*
%TO.C,R2*%
X59221666Y237545619D02*
X59555000Y238021809D01*
X59793095Y237545619D02*
X59793095Y238545619D01*
X59412142Y238545619D01*
X59316904Y238498000D01*
X59269285Y238450380D01*
X59221666Y238355142D01*
X59221666Y238212285D01*
X59269285Y238117047D01*
X59316904Y238069428D01*
X59412142Y238021809D01*
X59793095Y238021809D01*
X58840714Y238450380D02*
X58793095Y238498000D01*
X58697857Y238545619D01*
X58459761Y238545619D01*
X58364523Y238498000D01*
X58316904Y238450380D01*
X58269285Y238355142D01*
X58269285Y238259904D01*
X58316904Y238117047D01*
X58888333Y237545619D01*
X58269285Y237545619D01*
%TO.C,R1*%
X53252666Y243006619D02*
X53586000Y243482809D01*
X53824095Y243006619D02*
X53824095Y244006619D01*
X53443142Y244006619D01*
X53347904Y243959000D01*
X53300285Y243911380D01*
X53252666Y243816142D01*
X53252666Y243673285D01*
X53300285Y243578047D01*
X53347904Y243530428D01*
X53443142Y243482809D01*
X53824095Y243482809D01*
X52300285Y243006619D02*
X52871714Y243006619D01*
X52586000Y243006619D02*
X52586000Y244006619D01*
X52681238Y243863761D01*
X52776476Y243768523D01*
X52871714Y243720904D01*
%TO.C,Q1*%
X221019619Y230219238D02*
X220972000Y230314476D01*
X220876761Y230409714D01*
X220733904Y230552571D01*
X220686285Y230647809D01*
X220686285Y230743047D01*
X220924380Y230695428D02*
X220876761Y230790666D01*
X220781523Y230885904D01*
X220591047Y230933523D01*
X220257714Y230933523D01*
X220067238Y230885904D01*
X219972000Y230790666D01*
X219924380Y230695428D01*
X219924380Y230504952D01*
X219972000Y230409714D01*
X220067238Y230314476D01*
X220257714Y230266857D01*
X220591047Y230266857D01*
X220781523Y230314476D01*
X220876761Y230409714D01*
X220924380Y230504952D01*
X220924380Y230695428D01*
X220924380Y229314476D02*
X220924380Y229885904D01*
X220924380Y229600190D02*
X219924380Y229600190D01*
X220067238Y229695428D01*
X220162476Y229790666D01*
X220210095Y229885904D01*
%TO.C,F1*%
X55708333Y248271428D02*
X56041666Y248271428D01*
X56041666Y247747619D02*
X56041666Y248747619D01*
X55565476Y248747619D01*
X54660714Y247747619D02*
X55232142Y247747619D01*
X54946428Y247747619D02*
X54946428Y248747619D01*
X55041666Y248604761D01*
X55136904Y248509523D01*
X55232142Y248461904D01*
%TO.C,D58*%
X232640380Y217369285D02*
X231640380Y217369285D01*
X231640380Y217131190D01*
X231688000Y216988333D01*
X231783238Y216893095D01*
X231878476Y216845476D01*
X232068952Y216797857D01*
X232211809Y216797857D01*
X232402285Y216845476D01*
X232497523Y216893095D01*
X232592761Y216988333D01*
X232640380Y217131190D01*
X232640380Y217369285D01*
X231640380Y215893095D02*
X231640380Y216369285D01*
X232116571Y216416904D01*
X232068952Y216369285D01*
X232021333Y216274047D01*
X232021333Y216035952D01*
X232068952Y215940714D01*
X232116571Y215893095D01*
X232211809Y215845476D01*
X232449904Y215845476D01*
X232545142Y215893095D01*
X232592761Y215940714D01*
X232640380Y216035952D01*
X232640380Y216274047D01*
X232592761Y216369285D01*
X232545142Y216416904D01*
X232068952Y215274047D02*
X232021333Y215369285D01*
X231973714Y215416904D01*
X231878476Y215464523D01*
X231830857Y215464523D01*
X231735619Y215416904D01*
X231688000Y215369285D01*
X231640380Y215274047D01*
X231640380Y215083571D01*
X231688000Y214988333D01*
X231735619Y214940714D01*
X231830857Y214893095D01*
X231878476Y214893095D01*
X231973714Y214940714D01*
X232021333Y214988333D01*
X232068952Y215083571D01*
X232068952Y215274047D01*
X232116571Y215369285D01*
X232164190Y215416904D01*
X232259428Y215464523D01*
X232449904Y215464523D01*
X232545142Y215416904D01*
X232592761Y215369285D01*
X232640380Y215274047D01*
X232640380Y215083571D01*
X232592761Y214988333D01*
X232545142Y214940714D01*
X232449904Y214893095D01*
X232259428Y214893095D01*
X232164190Y214940714D01*
X232116571Y214988333D01*
X232068952Y215083571D01*
%TO.C,D52*%
X59000285Y230846619D02*
X59000285Y231846619D01*
X58762190Y231846619D01*
X58619333Y231799000D01*
X58524095Y231703761D01*
X58476476Y231608523D01*
X58428857Y231418047D01*
X58428857Y231275190D01*
X58476476Y231084714D01*
X58524095Y230989476D01*
X58619333Y230894238D01*
X58762190Y230846619D01*
X59000285Y230846619D01*
X57524095Y231846619D02*
X58000285Y231846619D01*
X58047904Y231370428D01*
X58000285Y231418047D01*
X57905047Y231465666D01*
X57666952Y231465666D01*
X57571714Y231418047D01*
X57524095Y231370428D01*
X57476476Y231275190D01*
X57476476Y231037095D01*
X57524095Y230941857D01*
X57571714Y230894238D01*
X57666952Y230846619D01*
X57905047Y230846619D01*
X58000285Y230894238D01*
X58047904Y230941857D01*
X57095523Y231751380D02*
X57047904Y231799000D01*
X56952666Y231846619D01*
X56714571Y231846619D01*
X56619333Y231799000D01*
X56571714Y231751380D01*
X56524095Y231656142D01*
X56524095Y231560904D01*
X56571714Y231418047D01*
X57143142Y230846619D01*
X56524095Y230846619D01*
%TO.C,D47*%
X265183630Y218701785D02*
X264183630Y218701785D01*
X264183630Y218463690D01*
X264231250Y218320833D01*
X264326488Y218225595D01*
X264421726Y218177976D01*
X264612202Y218130357D01*
X264755059Y218130357D01*
X264945535Y218177976D01*
X265040773Y218225595D01*
X265136011Y218320833D01*
X265183630Y218463690D01*
X265183630Y218701785D01*
X264516964Y217273214D02*
X265183630Y217273214D01*
X264136011Y217511309D02*
X264850297Y217749404D01*
X264850297Y217130357D01*
X264183630Y216844642D02*
X264183630Y216177976D01*
X265183630Y216606547D01*
%TO.C,D46*%
X227083630Y218639285D02*
X226083630Y218639285D01*
X226083630Y218401190D01*
X226131250Y218258333D01*
X226226488Y218163095D01*
X226321726Y218115476D01*
X226512202Y218067857D01*
X226655059Y218067857D01*
X226845535Y218115476D01*
X226940773Y218163095D01*
X227036011Y218258333D01*
X227083630Y218401190D01*
X227083630Y218639285D01*
X226416964Y217210714D02*
X227083630Y217210714D01*
X226036011Y217448809D02*
X226750297Y217686904D01*
X226750297Y217067857D01*
X226083630Y216258333D02*
X226083630Y216448809D01*
X226131250Y216544047D01*
X226178869Y216591666D01*
X226321726Y216686904D01*
X226512202Y216734523D01*
X226893154Y216734523D01*
X226988392Y216686904D01*
X227036011Y216639285D01*
X227083630Y216544047D01*
X227083630Y216353571D01*
X227036011Y216258333D01*
X226988392Y216210714D01*
X226893154Y216163095D01*
X226655059Y216163095D01*
X226559821Y216210714D01*
X226512202Y216258333D01*
X226464583Y216353571D01*
X226464583Y216544047D01*
X226512202Y216639285D01*
X226559821Y216686904D01*
X226655059Y216734523D01*
%TO.C,D45*%
X205652380Y218639285D02*
X204652380Y218639285D01*
X204652380Y218401190D01*
X204700000Y218258333D01*
X204795238Y218163095D01*
X204890476Y218115476D01*
X205080952Y218067857D01*
X205223809Y218067857D01*
X205414285Y218115476D01*
X205509523Y218163095D01*
X205604761Y218258333D01*
X205652380Y218401190D01*
X205652380Y218639285D01*
X204985714Y217210714D02*
X205652380Y217210714D01*
X204604761Y217448809D02*
X205319047Y217686904D01*
X205319047Y217067857D01*
X204652380Y216210714D02*
X204652380Y216686904D01*
X205128571Y216734523D01*
X205080952Y216686904D01*
X205033333Y216591666D01*
X205033333Y216353571D01*
X205080952Y216258333D01*
X205128571Y216210714D01*
X205223809Y216163095D01*
X205461904Y216163095D01*
X205557142Y216210714D01*
X205604761Y216258333D01*
X205652380Y216353571D01*
X205652380Y216591666D01*
X205604761Y216686904D01*
X205557142Y216734523D01*
%TO.C,D44*%
X186602380Y218639285D02*
X185602380Y218639285D01*
X185602380Y218401190D01*
X185650000Y218258333D01*
X185745238Y218163095D01*
X185840476Y218115476D01*
X186030952Y218067857D01*
X186173809Y218067857D01*
X186364285Y218115476D01*
X186459523Y218163095D01*
X186554761Y218258333D01*
X186602380Y218401190D01*
X186602380Y218639285D01*
X185935714Y217210714D02*
X186602380Y217210714D01*
X185554761Y217448809D02*
X186269047Y217686904D01*
X186269047Y217067857D01*
X185935714Y216258333D02*
X186602380Y216258333D01*
X185554761Y216496428D02*
X186269047Y216734523D01*
X186269047Y216115476D01*
%TO.C,D43*%
X138977380Y218639285D02*
X137977380Y218639285D01*
X137977380Y218401190D01*
X138025000Y218258333D01*
X138120238Y218163095D01*
X138215476Y218115476D01*
X138405952Y218067857D01*
X138548809Y218067857D01*
X138739285Y218115476D01*
X138834523Y218163095D01*
X138929761Y218258333D01*
X138977380Y218401190D01*
X138977380Y218639285D01*
X138310714Y217210714D02*
X138977380Y217210714D01*
X137929761Y217448809D02*
X138644047Y217686904D01*
X138644047Y217067857D01*
X137977380Y216782142D02*
X137977380Y216163095D01*
X138358333Y216496428D01*
X138358333Y216353571D01*
X138405952Y216258333D01*
X138453571Y216210714D01*
X138548809Y216163095D01*
X138786904Y216163095D01*
X138882142Y216210714D01*
X138929761Y216258333D01*
X138977380Y216353571D01*
X138977380Y216639285D01*
X138929761Y216734523D01*
X138882142Y216782142D01*
%TO.C,D42*%
X110402380Y218639285D02*
X109402380Y218639285D01*
X109402380Y218401190D01*
X109450000Y218258333D01*
X109545238Y218163095D01*
X109640476Y218115476D01*
X109830952Y218067857D01*
X109973809Y218067857D01*
X110164285Y218115476D01*
X110259523Y218163095D01*
X110354761Y218258333D01*
X110402380Y218401190D01*
X110402380Y218639285D01*
X109735714Y217210714D02*
X110402380Y217210714D01*
X109354761Y217448809D02*
X110069047Y217686904D01*
X110069047Y217067857D01*
X109497619Y216734523D02*
X109450000Y216686904D01*
X109402380Y216591666D01*
X109402380Y216353571D01*
X109450000Y216258333D01*
X109497619Y216210714D01*
X109592857Y216163095D01*
X109688095Y216163095D01*
X109830952Y216210714D01*
X110402380Y216782142D01*
X110402380Y216163095D01*
%TO.C,D41*%
X88971130Y218639285D02*
X87971130Y218639285D01*
X87971130Y218401190D01*
X88018750Y218258333D01*
X88113988Y218163095D01*
X88209226Y218115476D01*
X88399702Y218067857D01*
X88542559Y218067857D01*
X88733035Y218115476D01*
X88828273Y218163095D01*
X88923511Y218258333D01*
X88971130Y218401190D01*
X88971130Y218639285D01*
X88304464Y217210714D02*
X88971130Y217210714D01*
X87923511Y217448809D02*
X88637797Y217686904D01*
X88637797Y217067857D01*
X88971130Y216163095D02*
X88971130Y216734523D01*
X88971130Y216448809D02*
X87971130Y216448809D01*
X88113988Y216544047D01*
X88209226Y216639285D01*
X88256845Y216734523D01*
%TO.C,D40*%
X50871130Y218701785D02*
X49871130Y218701785D01*
X49871130Y218463690D01*
X49918750Y218320833D01*
X50013988Y218225595D01*
X50109226Y218177976D01*
X50299702Y218130357D01*
X50442559Y218130357D01*
X50633035Y218177976D01*
X50728273Y218225595D01*
X50823511Y218320833D01*
X50871130Y218463690D01*
X50871130Y218701785D01*
X50204464Y217273214D02*
X50871130Y217273214D01*
X49823511Y217511309D02*
X50537797Y217749404D01*
X50537797Y217130357D01*
X49871130Y216558928D02*
X49871130Y216463690D01*
X49918750Y216368452D01*
X49966369Y216320833D01*
X50061607Y216273214D01*
X50252083Y216225595D01*
X50490178Y216225595D01*
X50680654Y216273214D01*
X50775892Y216320833D01*
X50823511Y216368452D01*
X50871130Y216463690D01*
X50871130Y216558928D01*
X50823511Y216654166D01*
X50775892Y216701785D01*
X50680654Y216749404D01*
X50490178Y216797023D01*
X50252083Y216797023D01*
X50061607Y216749404D01*
X49966369Y216701785D01*
X49918750Y216654166D01*
X49871130Y216558928D01*
%TO.C,D39*%
X19914880Y218701785D02*
X18914880Y218701785D01*
X18914880Y218463690D01*
X18962500Y218320833D01*
X19057738Y218225595D01*
X19152976Y218177976D01*
X19343452Y218130357D01*
X19486309Y218130357D01*
X19676785Y218177976D01*
X19772023Y218225595D01*
X19867261Y218320833D01*
X19914880Y218463690D01*
X19914880Y218701785D01*
X18914880Y217797023D02*
X18914880Y217177976D01*
X19295833Y217511309D01*
X19295833Y217368452D01*
X19343452Y217273214D01*
X19391071Y217225595D01*
X19486309Y217177976D01*
X19724404Y217177976D01*
X19819642Y217225595D01*
X19867261Y217273214D01*
X19914880Y217368452D01*
X19914880Y217654166D01*
X19867261Y217749404D01*
X19819642Y217797023D01*
X19914880Y216701785D02*
X19914880Y216511309D01*
X19867261Y216416071D01*
X19819642Y216368452D01*
X19676785Y216273214D01*
X19486309Y216225595D01*
X19105357Y216225595D01*
X19010119Y216273214D01*
X18962500Y216320833D01*
X18914880Y216416071D01*
X18914880Y216606547D01*
X18962500Y216701785D01*
X19010119Y216749404D01*
X19105357Y216797023D01*
X19343452Y216797023D01*
X19438690Y216749404D01*
X19486309Y216701785D01*
X19533928Y216606547D01*
X19533928Y216416071D01*
X19486309Y216320833D01*
X19438690Y216273214D01*
X19343452Y216225595D01*
%TO.C,D38*%
X260421130Y237689285D02*
X259421130Y237689285D01*
X259421130Y237451190D01*
X259468750Y237308333D01*
X259563988Y237213095D01*
X259659226Y237165476D01*
X259849702Y237117857D01*
X259992559Y237117857D01*
X260183035Y237165476D01*
X260278273Y237213095D01*
X260373511Y237308333D01*
X260421130Y237451190D01*
X260421130Y237689285D01*
X259421130Y236784523D02*
X259421130Y236165476D01*
X259802083Y236498809D01*
X259802083Y236355952D01*
X259849702Y236260714D01*
X259897321Y236213095D01*
X259992559Y236165476D01*
X260230654Y236165476D01*
X260325892Y236213095D01*
X260373511Y236260714D01*
X260421130Y236355952D01*
X260421130Y236641666D01*
X260373511Y236736904D01*
X260325892Y236784523D01*
X259849702Y235594047D02*
X259802083Y235689285D01*
X259754464Y235736904D01*
X259659226Y235784523D01*
X259611607Y235784523D01*
X259516369Y235736904D01*
X259468750Y235689285D01*
X259421130Y235594047D01*
X259421130Y235403571D01*
X259468750Y235308333D01*
X259516369Y235260714D01*
X259611607Y235213095D01*
X259659226Y235213095D01*
X259754464Y235260714D01*
X259802083Y235308333D01*
X259849702Y235403571D01*
X259849702Y235594047D01*
X259897321Y235689285D01*
X259944940Y235736904D01*
X260040178Y235784523D01*
X260230654Y235784523D01*
X260325892Y235736904D01*
X260373511Y235689285D01*
X260421130Y235594047D01*
X260421130Y235403571D01*
X260373511Y235308333D01*
X260325892Y235260714D01*
X260230654Y235213095D01*
X260040178Y235213095D01*
X259944940Y235260714D01*
X259897321Y235308333D01*
X259849702Y235403571D01*
%TO.C,D37*%
X230322380Y239720285D02*
X229322380Y239720285D01*
X229322380Y239482190D01*
X229370000Y239339333D01*
X229465238Y239244095D01*
X229560476Y239196476D01*
X229750952Y239148857D01*
X229893809Y239148857D01*
X230084285Y239196476D01*
X230179523Y239244095D01*
X230274761Y239339333D01*
X230322380Y239482190D01*
X230322380Y239720285D01*
X229322380Y238815523D02*
X229322380Y238196476D01*
X229703333Y238529809D01*
X229703333Y238386952D01*
X229750952Y238291714D01*
X229798571Y238244095D01*
X229893809Y238196476D01*
X230131904Y238196476D01*
X230227142Y238244095D01*
X230274761Y238291714D01*
X230322380Y238386952D01*
X230322380Y238672666D01*
X230274761Y238767904D01*
X230227142Y238815523D01*
X229322380Y237863142D02*
X229322380Y237196476D01*
X230322380Y237625047D01*
%TO.C,D36*%
X215177380Y237689285D02*
X214177380Y237689285D01*
X214177380Y237451190D01*
X214225000Y237308333D01*
X214320238Y237213095D01*
X214415476Y237165476D01*
X214605952Y237117857D01*
X214748809Y237117857D01*
X214939285Y237165476D01*
X215034523Y237213095D01*
X215129761Y237308333D01*
X215177380Y237451190D01*
X215177380Y237689285D01*
X214177380Y236784523D02*
X214177380Y236165476D01*
X214558333Y236498809D01*
X214558333Y236355952D01*
X214605952Y236260714D01*
X214653571Y236213095D01*
X214748809Y236165476D01*
X214986904Y236165476D01*
X215082142Y236213095D01*
X215129761Y236260714D01*
X215177380Y236355952D01*
X215177380Y236641666D01*
X215129761Y236736904D01*
X215082142Y236784523D01*
X214177380Y235308333D02*
X214177380Y235498809D01*
X214225000Y235594047D01*
X214272619Y235641666D01*
X214415476Y235736904D01*
X214605952Y235784523D01*
X214986904Y235784523D01*
X215082142Y235736904D01*
X215129761Y235689285D01*
X215177380Y235594047D01*
X215177380Y235403571D01*
X215129761Y235308333D01*
X215082142Y235260714D01*
X214986904Y235213095D01*
X214748809Y235213095D01*
X214653571Y235260714D01*
X214605952Y235308333D01*
X214558333Y235403571D01*
X214558333Y235594047D01*
X214605952Y235689285D01*
X214653571Y235736904D01*
X214748809Y235784523D01*
%TO.C,D35*%
X196127380Y237751785D02*
X195127380Y237751785D01*
X195127380Y237513690D01*
X195175000Y237370833D01*
X195270238Y237275595D01*
X195365476Y237227976D01*
X195555952Y237180357D01*
X195698809Y237180357D01*
X195889285Y237227976D01*
X195984523Y237275595D01*
X196079761Y237370833D01*
X196127380Y237513690D01*
X196127380Y237751785D01*
X195127380Y236847023D02*
X195127380Y236227976D01*
X195508333Y236561309D01*
X195508333Y236418452D01*
X195555952Y236323214D01*
X195603571Y236275595D01*
X195698809Y236227976D01*
X195936904Y236227976D01*
X196032142Y236275595D01*
X196079761Y236323214D01*
X196127380Y236418452D01*
X196127380Y236704166D01*
X196079761Y236799404D01*
X196032142Y236847023D01*
X195127380Y235323214D02*
X195127380Y235799404D01*
X195603571Y235847023D01*
X195555952Y235799404D01*
X195508333Y235704166D01*
X195508333Y235466071D01*
X195555952Y235370833D01*
X195603571Y235323214D01*
X195698809Y235275595D01*
X195936904Y235275595D01*
X196032142Y235323214D01*
X196079761Y235370833D01*
X196127380Y235466071D01*
X196127380Y235704166D01*
X196079761Y235799404D01*
X196032142Y235847023D01*
%TO.C,D34*%
X177077380Y237814285D02*
X176077380Y237814285D01*
X176077380Y237576190D01*
X176125000Y237433333D01*
X176220238Y237338095D01*
X176315476Y237290476D01*
X176505952Y237242857D01*
X176648809Y237242857D01*
X176839285Y237290476D01*
X176934523Y237338095D01*
X177029761Y237433333D01*
X177077380Y237576190D01*
X177077380Y237814285D01*
X176077380Y236909523D02*
X176077380Y236290476D01*
X176458333Y236623809D01*
X176458333Y236480952D01*
X176505952Y236385714D01*
X176553571Y236338095D01*
X176648809Y236290476D01*
X176886904Y236290476D01*
X176982142Y236338095D01*
X177029761Y236385714D01*
X177077380Y236480952D01*
X177077380Y236766666D01*
X177029761Y236861904D01*
X176982142Y236909523D01*
X176410714Y235433333D02*
X177077380Y235433333D01*
X176029761Y235671428D02*
X176744047Y235909523D01*
X176744047Y235290476D01*
%TO.C,D33*%
X158027380Y237814285D02*
X157027380Y237814285D01*
X157027380Y237576190D01*
X157075000Y237433333D01*
X157170238Y237338095D01*
X157265476Y237290476D01*
X157455952Y237242857D01*
X157598809Y237242857D01*
X157789285Y237290476D01*
X157884523Y237338095D01*
X157979761Y237433333D01*
X158027380Y237576190D01*
X158027380Y237814285D01*
X157027380Y236909523D02*
X157027380Y236290476D01*
X157408333Y236623809D01*
X157408333Y236480952D01*
X157455952Y236385714D01*
X157503571Y236338095D01*
X157598809Y236290476D01*
X157836904Y236290476D01*
X157932142Y236338095D01*
X157979761Y236385714D01*
X158027380Y236480952D01*
X158027380Y236766666D01*
X157979761Y236861904D01*
X157932142Y236909523D01*
X157027380Y235957142D02*
X157027380Y235338095D01*
X157408333Y235671428D01*
X157408333Y235528571D01*
X157455952Y235433333D01*
X157503571Y235385714D01*
X157598809Y235338095D01*
X157836904Y235338095D01*
X157932142Y235385714D01*
X157979761Y235433333D01*
X158027380Y235528571D01*
X158027380Y235814285D01*
X157979761Y235909523D01*
X157932142Y235957142D01*
%TO.C,D32*%
X138977380Y237689285D02*
X137977380Y237689285D01*
X137977380Y237451190D01*
X138025000Y237308333D01*
X138120238Y237213095D01*
X138215476Y237165476D01*
X138405952Y237117857D01*
X138548809Y237117857D01*
X138739285Y237165476D01*
X138834523Y237213095D01*
X138929761Y237308333D01*
X138977380Y237451190D01*
X138977380Y237689285D01*
X137977380Y236784523D02*
X137977380Y236165476D01*
X138358333Y236498809D01*
X138358333Y236355952D01*
X138405952Y236260714D01*
X138453571Y236213095D01*
X138548809Y236165476D01*
X138786904Y236165476D01*
X138882142Y236213095D01*
X138929761Y236260714D01*
X138977380Y236355952D01*
X138977380Y236641666D01*
X138929761Y236736904D01*
X138882142Y236784523D01*
X138072619Y235784523D02*
X138025000Y235736904D01*
X137977380Y235641666D01*
X137977380Y235403571D01*
X138025000Y235308333D01*
X138072619Y235260714D01*
X138167857Y235213095D01*
X138263095Y235213095D01*
X138405952Y235260714D01*
X138977380Y235832142D01*
X138977380Y235213095D01*
%TO.C,D31*%
X119927380Y237689285D02*
X118927380Y237689285D01*
X118927380Y237451190D01*
X118975000Y237308333D01*
X119070238Y237213095D01*
X119165476Y237165476D01*
X119355952Y237117857D01*
X119498809Y237117857D01*
X119689285Y237165476D01*
X119784523Y237213095D01*
X119879761Y237308333D01*
X119927380Y237451190D01*
X119927380Y237689285D01*
X118927380Y236784523D02*
X118927380Y236165476D01*
X119308333Y236498809D01*
X119308333Y236355952D01*
X119355952Y236260714D01*
X119403571Y236213095D01*
X119498809Y236165476D01*
X119736904Y236165476D01*
X119832142Y236213095D01*
X119879761Y236260714D01*
X119927380Y236355952D01*
X119927380Y236641666D01*
X119879761Y236736904D01*
X119832142Y236784523D01*
X119927380Y235213095D02*
X119927380Y235784523D01*
X119927380Y235498809D02*
X118927380Y235498809D01*
X119070238Y235594047D01*
X119165476Y235689285D01*
X119213095Y235784523D01*
%TO.C,D30*%
X100877380Y237689285D02*
X99877380Y237689285D01*
X99877380Y237451190D01*
X99925000Y237308333D01*
X100020238Y237213095D01*
X100115476Y237165476D01*
X100305952Y237117857D01*
X100448809Y237117857D01*
X100639285Y237165476D01*
X100734523Y237213095D01*
X100829761Y237308333D01*
X100877380Y237451190D01*
X100877380Y237689285D01*
X99877380Y236784523D02*
X99877380Y236165476D01*
X100258333Y236498809D01*
X100258333Y236355952D01*
X100305952Y236260714D01*
X100353571Y236213095D01*
X100448809Y236165476D01*
X100686904Y236165476D01*
X100782142Y236213095D01*
X100829761Y236260714D01*
X100877380Y236355952D01*
X100877380Y236641666D01*
X100829761Y236736904D01*
X100782142Y236784523D01*
X99877380Y235546428D02*
X99877380Y235451190D01*
X99925000Y235355952D01*
X99972619Y235308333D01*
X100067857Y235260714D01*
X100258333Y235213095D01*
X100496428Y235213095D01*
X100686904Y235260714D01*
X100782142Y235308333D01*
X100829761Y235355952D01*
X100877380Y235451190D01*
X100877380Y235546428D01*
X100829761Y235641666D01*
X100782142Y235689285D01*
X100686904Y235736904D01*
X100496428Y235784523D01*
X100258333Y235784523D01*
X100067857Y235736904D01*
X99972619Y235689285D01*
X99925000Y235641666D01*
X99877380Y235546428D01*
%TO.C,D29*%
X81827380Y237689285D02*
X80827380Y237689285D01*
X80827380Y237451190D01*
X80875000Y237308333D01*
X80970238Y237213095D01*
X81065476Y237165476D01*
X81255952Y237117857D01*
X81398809Y237117857D01*
X81589285Y237165476D01*
X81684523Y237213095D01*
X81779761Y237308333D01*
X81827380Y237451190D01*
X81827380Y237689285D01*
X80922619Y236736904D02*
X80875000Y236689285D01*
X80827380Y236594047D01*
X80827380Y236355952D01*
X80875000Y236260714D01*
X80922619Y236213095D01*
X81017857Y236165476D01*
X81113095Y236165476D01*
X81255952Y236213095D01*
X81827380Y236784523D01*
X81827380Y236165476D01*
X81827380Y235689285D02*
X81827380Y235498809D01*
X81779761Y235403571D01*
X81732142Y235355952D01*
X81589285Y235260714D01*
X81398809Y235213095D01*
X81017857Y235213095D01*
X80922619Y235260714D01*
X80875000Y235308333D01*
X80827380Y235403571D01*
X80827380Y235594047D01*
X80875000Y235689285D01*
X80922619Y235736904D01*
X81017857Y235784523D01*
X81255952Y235784523D01*
X81351190Y235736904D01*
X81398809Y235689285D01*
X81446428Y235594047D01*
X81446428Y235403571D01*
X81398809Y235308333D01*
X81351190Y235260714D01*
X81255952Y235213095D01*
%TO.C,D28*%
X55633630Y237689285D02*
X54633630Y237689285D01*
X54633630Y237451190D01*
X54681250Y237308333D01*
X54776488Y237213095D01*
X54871726Y237165476D01*
X55062202Y237117857D01*
X55205059Y237117857D01*
X55395535Y237165476D01*
X55490773Y237213095D01*
X55586011Y237308333D01*
X55633630Y237451190D01*
X55633630Y237689285D01*
X54728869Y236736904D02*
X54681250Y236689285D01*
X54633630Y236594047D01*
X54633630Y236355952D01*
X54681250Y236260714D01*
X54728869Y236213095D01*
X54824107Y236165476D01*
X54919345Y236165476D01*
X55062202Y236213095D01*
X55633630Y236784523D01*
X55633630Y236165476D01*
X55062202Y235594047D02*
X55014583Y235689285D01*
X54966964Y235736904D01*
X54871726Y235784523D01*
X54824107Y235784523D01*
X54728869Y235736904D01*
X54681250Y235689285D01*
X54633630Y235594047D01*
X54633630Y235403571D01*
X54681250Y235308333D01*
X54728869Y235260714D01*
X54824107Y235213095D01*
X54871726Y235213095D01*
X54966964Y235260714D01*
X55014583Y235308333D01*
X55062202Y235403571D01*
X55062202Y235594047D01*
X55109821Y235689285D01*
X55157440Y235736904D01*
X55252678Y235784523D01*
X55443154Y235784523D01*
X55538392Y235736904D01*
X55586011Y235689285D01*
X55633630Y235594047D01*
X55633630Y235403571D01*
X55586011Y235308333D01*
X55538392Y235260714D01*
X55443154Y235213095D01*
X55252678Y235213095D01*
X55157440Y235260714D01*
X55109821Y235308333D01*
X55062202Y235403571D01*
%TO.C,D27*%
X19914880Y237751785D02*
X18914880Y237751785D01*
X18914880Y237513690D01*
X18962500Y237370833D01*
X19057738Y237275595D01*
X19152976Y237227976D01*
X19343452Y237180357D01*
X19486309Y237180357D01*
X19676785Y237227976D01*
X19772023Y237275595D01*
X19867261Y237370833D01*
X19914880Y237513690D01*
X19914880Y237751785D01*
X19010119Y236799404D02*
X18962500Y236751785D01*
X18914880Y236656547D01*
X18914880Y236418452D01*
X18962500Y236323214D01*
X19010119Y236275595D01*
X19105357Y236227976D01*
X19200595Y236227976D01*
X19343452Y236275595D01*
X19914880Y236847023D01*
X19914880Y236227976D01*
X18914880Y235894642D02*
X18914880Y235227976D01*
X19914880Y235656547D01*
%TO.C,D26*%
X248514880Y256739285D02*
X247514880Y256739285D01*
X247514880Y256501190D01*
X247562500Y256358333D01*
X247657738Y256263095D01*
X247752976Y256215476D01*
X247943452Y256167857D01*
X248086309Y256167857D01*
X248276785Y256215476D01*
X248372023Y256263095D01*
X248467261Y256358333D01*
X248514880Y256501190D01*
X248514880Y256739285D01*
X247610119Y255786904D02*
X247562500Y255739285D01*
X247514880Y255644047D01*
X247514880Y255405952D01*
X247562500Y255310714D01*
X247610119Y255263095D01*
X247705357Y255215476D01*
X247800595Y255215476D01*
X247943452Y255263095D01*
X248514880Y255834523D01*
X248514880Y255215476D01*
X247514880Y254358333D02*
X247514880Y254548809D01*
X247562500Y254644047D01*
X247610119Y254691666D01*
X247752976Y254786904D01*
X247943452Y254834523D01*
X248324404Y254834523D01*
X248419642Y254786904D01*
X248467261Y254739285D01*
X248514880Y254644047D01*
X248514880Y254453571D01*
X248467261Y254358333D01*
X248419642Y254310714D01*
X248324404Y254263095D01*
X248086309Y254263095D01*
X247991071Y254310714D01*
X247943452Y254358333D01*
X247895833Y254453571D01*
X247895833Y254644047D01*
X247943452Y254739285D01*
X247991071Y254786904D01*
X248086309Y254834523D01*
%TO.C,D25*%
X243752380Y256739285D02*
X242752380Y256739285D01*
X242752380Y256501190D01*
X242800000Y256358333D01*
X242895238Y256263095D01*
X242990476Y256215476D01*
X243180952Y256167857D01*
X243323809Y256167857D01*
X243514285Y256215476D01*
X243609523Y256263095D01*
X243704761Y256358333D01*
X243752380Y256501190D01*
X243752380Y256739285D01*
X242847619Y255786904D02*
X242800000Y255739285D01*
X242752380Y255644047D01*
X242752380Y255405952D01*
X242800000Y255310714D01*
X242847619Y255263095D01*
X242942857Y255215476D01*
X243038095Y255215476D01*
X243180952Y255263095D01*
X243752380Y255834523D01*
X243752380Y255215476D01*
X242752380Y254310714D02*
X242752380Y254786904D01*
X243228571Y254834523D01*
X243180952Y254786904D01*
X243133333Y254691666D01*
X243133333Y254453571D01*
X243180952Y254358333D01*
X243228571Y254310714D01*
X243323809Y254263095D01*
X243561904Y254263095D01*
X243657142Y254310714D01*
X243704761Y254358333D01*
X243752380Y254453571D01*
X243752380Y254691666D01*
X243704761Y254786904D01*
X243657142Y254834523D01*
%TO.C,D24*%
X224702380Y256801785D02*
X223702380Y256801785D01*
X223702380Y256563690D01*
X223750000Y256420833D01*
X223845238Y256325595D01*
X223940476Y256277976D01*
X224130952Y256230357D01*
X224273809Y256230357D01*
X224464285Y256277976D01*
X224559523Y256325595D01*
X224654761Y256420833D01*
X224702380Y256563690D01*
X224702380Y256801785D01*
X223797619Y255849404D02*
X223750000Y255801785D01*
X223702380Y255706547D01*
X223702380Y255468452D01*
X223750000Y255373214D01*
X223797619Y255325595D01*
X223892857Y255277976D01*
X223988095Y255277976D01*
X224130952Y255325595D01*
X224702380Y255897023D01*
X224702380Y255277976D01*
X224035714Y254420833D02*
X224702380Y254420833D01*
X223654761Y254658928D02*
X224369047Y254897023D01*
X224369047Y254277976D01*
%TO.C,D23*%
X205652380Y256739285D02*
X204652380Y256739285D01*
X204652380Y256501190D01*
X204700000Y256358333D01*
X204795238Y256263095D01*
X204890476Y256215476D01*
X205080952Y256167857D01*
X205223809Y256167857D01*
X205414285Y256215476D01*
X205509523Y256263095D01*
X205604761Y256358333D01*
X205652380Y256501190D01*
X205652380Y256739285D01*
X204747619Y255786904D02*
X204700000Y255739285D01*
X204652380Y255644047D01*
X204652380Y255405952D01*
X204700000Y255310714D01*
X204747619Y255263095D01*
X204842857Y255215476D01*
X204938095Y255215476D01*
X205080952Y255263095D01*
X205652380Y255834523D01*
X205652380Y255215476D01*
X204652380Y254882142D02*
X204652380Y254263095D01*
X205033333Y254596428D01*
X205033333Y254453571D01*
X205080952Y254358333D01*
X205128571Y254310714D01*
X205223809Y254263095D01*
X205461904Y254263095D01*
X205557142Y254310714D01*
X205604761Y254358333D01*
X205652380Y254453571D01*
X205652380Y254739285D01*
X205604761Y254834523D01*
X205557142Y254882142D01*
%TO.C,D22*%
X186602380Y256739285D02*
X185602380Y256739285D01*
X185602380Y256501190D01*
X185650000Y256358333D01*
X185745238Y256263095D01*
X185840476Y256215476D01*
X186030952Y256167857D01*
X186173809Y256167857D01*
X186364285Y256215476D01*
X186459523Y256263095D01*
X186554761Y256358333D01*
X186602380Y256501190D01*
X186602380Y256739285D01*
X185697619Y255786904D02*
X185650000Y255739285D01*
X185602380Y255644047D01*
X185602380Y255405952D01*
X185650000Y255310714D01*
X185697619Y255263095D01*
X185792857Y255215476D01*
X185888095Y255215476D01*
X186030952Y255263095D01*
X186602380Y255834523D01*
X186602380Y255215476D01*
X185697619Y254834523D02*
X185650000Y254786904D01*
X185602380Y254691666D01*
X185602380Y254453571D01*
X185650000Y254358333D01*
X185697619Y254310714D01*
X185792857Y254263095D01*
X185888095Y254263095D01*
X186030952Y254310714D01*
X186602380Y254882142D01*
X186602380Y254263095D01*
%TO.C,D21*%
X167552380Y256864285D02*
X166552380Y256864285D01*
X166552380Y256626190D01*
X166600000Y256483333D01*
X166695238Y256388095D01*
X166790476Y256340476D01*
X166980952Y256292857D01*
X167123809Y256292857D01*
X167314285Y256340476D01*
X167409523Y256388095D01*
X167504761Y256483333D01*
X167552380Y256626190D01*
X167552380Y256864285D01*
X166647619Y255911904D02*
X166600000Y255864285D01*
X166552380Y255769047D01*
X166552380Y255530952D01*
X166600000Y255435714D01*
X166647619Y255388095D01*
X166742857Y255340476D01*
X166838095Y255340476D01*
X166980952Y255388095D01*
X167552380Y255959523D01*
X167552380Y255340476D01*
X167552380Y254388095D02*
X167552380Y254959523D01*
X167552380Y254673809D02*
X166552380Y254673809D01*
X166695238Y254769047D01*
X166790476Y254864285D01*
X166838095Y254959523D01*
%TO.C,D20*%
X148502380Y256739285D02*
X147502380Y256739285D01*
X147502380Y256501190D01*
X147550000Y256358333D01*
X147645238Y256263095D01*
X147740476Y256215476D01*
X147930952Y256167857D01*
X148073809Y256167857D01*
X148264285Y256215476D01*
X148359523Y256263095D01*
X148454761Y256358333D01*
X148502380Y256501190D01*
X148502380Y256739285D01*
X147597619Y255786904D02*
X147550000Y255739285D01*
X147502380Y255644047D01*
X147502380Y255405952D01*
X147550000Y255310714D01*
X147597619Y255263095D01*
X147692857Y255215476D01*
X147788095Y255215476D01*
X147930952Y255263095D01*
X148502380Y255834523D01*
X148502380Y255215476D01*
X147502380Y254596428D02*
X147502380Y254501190D01*
X147550000Y254405952D01*
X147597619Y254358333D01*
X147692857Y254310714D01*
X147883333Y254263095D01*
X148121428Y254263095D01*
X148311904Y254310714D01*
X148407142Y254358333D01*
X148454761Y254405952D01*
X148502380Y254501190D01*
X148502380Y254596428D01*
X148454761Y254691666D01*
X148407142Y254739285D01*
X148311904Y254786904D01*
X148121428Y254834523D01*
X147883333Y254834523D01*
X147692857Y254786904D01*
X147597619Y254739285D01*
X147550000Y254691666D01*
X147502380Y254596428D01*
%TO.C,D19*%
X129452380Y256739285D02*
X128452380Y256739285D01*
X128452380Y256501190D01*
X128500000Y256358333D01*
X128595238Y256263095D01*
X128690476Y256215476D01*
X128880952Y256167857D01*
X129023809Y256167857D01*
X129214285Y256215476D01*
X129309523Y256263095D01*
X129404761Y256358333D01*
X129452380Y256501190D01*
X129452380Y256739285D01*
X129452380Y255215476D02*
X129452380Y255786904D01*
X129452380Y255501190D02*
X128452380Y255501190D01*
X128595238Y255596428D01*
X128690476Y255691666D01*
X128738095Y255786904D01*
X129452380Y254739285D02*
X129452380Y254548809D01*
X129404761Y254453571D01*
X129357142Y254405952D01*
X129214285Y254310714D01*
X129023809Y254263095D01*
X128642857Y254263095D01*
X128547619Y254310714D01*
X128500000Y254358333D01*
X128452380Y254453571D01*
X128452380Y254644047D01*
X128500000Y254739285D01*
X128547619Y254786904D01*
X128642857Y254834523D01*
X128880952Y254834523D01*
X128976190Y254786904D01*
X129023809Y254739285D01*
X129071428Y254644047D01*
X129071428Y254453571D01*
X129023809Y254358333D01*
X128976190Y254310714D01*
X128880952Y254263095D01*
%TO.C,D18*%
X110402380Y256739285D02*
X109402380Y256739285D01*
X109402380Y256501190D01*
X109450000Y256358333D01*
X109545238Y256263095D01*
X109640476Y256215476D01*
X109830952Y256167857D01*
X109973809Y256167857D01*
X110164285Y256215476D01*
X110259523Y256263095D01*
X110354761Y256358333D01*
X110402380Y256501190D01*
X110402380Y256739285D01*
X110402380Y255215476D02*
X110402380Y255786904D01*
X110402380Y255501190D02*
X109402380Y255501190D01*
X109545238Y255596428D01*
X109640476Y255691666D01*
X109688095Y255786904D01*
X109830952Y254644047D02*
X109783333Y254739285D01*
X109735714Y254786904D01*
X109640476Y254834523D01*
X109592857Y254834523D01*
X109497619Y254786904D01*
X109450000Y254739285D01*
X109402380Y254644047D01*
X109402380Y254453571D01*
X109450000Y254358333D01*
X109497619Y254310714D01*
X109592857Y254263095D01*
X109640476Y254263095D01*
X109735714Y254310714D01*
X109783333Y254358333D01*
X109830952Y254453571D01*
X109830952Y254644047D01*
X109878571Y254739285D01*
X109926190Y254786904D01*
X110021428Y254834523D01*
X110211904Y254834523D01*
X110307142Y254786904D01*
X110354761Y254739285D01*
X110402380Y254644047D01*
X110402380Y254453571D01*
X110354761Y254358333D01*
X110307142Y254310714D01*
X110211904Y254263095D01*
X110021428Y254263095D01*
X109926190Y254310714D01*
X109878571Y254358333D01*
X109830952Y254453571D01*
%TO.C,D17*%
X91352380Y256739285D02*
X90352380Y256739285D01*
X90352380Y256501190D01*
X90400000Y256358333D01*
X90495238Y256263095D01*
X90590476Y256215476D01*
X90780952Y256167857D01*
X90923809Y256167857D01*
X91114285Y256215476D01*
X91209523Y256263095D01*
X91304761Y256358333D01*
X91352380Y256501190D01*
X91352380Y256739285D01*
X91352380Y255215476D02*
X91352380Y255786904D01*
X91352380Y255501190D02*
X90352380Y255501190D01*
X90495238Y255596428D01*
X90590476Y255691666D01*
X90638095Y255786904D01*
X90352380Y254882142D02*
X90352380Y254215476D01*
X91352380Y254644047D01*
%TO.C,D16*%
X72302380Y256739285D02*
X71302380Y256739285D01*
X71302380Y256501190D01*
X71350000Y256358333D01*
X71445238Y256263095D01*
X71540476Y256215476D01*
X71730952Y256167857D01*
X71873809Y256167857D01*
X72064285Y256215476D01*
X72159523Y256263095D01*
X72254761Y256358333D01*
X72302380Y256501190D01*
X72302380Y256739285D01*
X72302380Y255215476D02*
X72302380Y255786904D01*
X72302380Y255501190D02*
X71302380Y255501190D01*
X71445238Y255596428D01*
X71540476Y255691666D01*
X71588095Y255786904D01*
X71302380Y254358333D02*
X71302380Y254548809D01*
X71350000Y254644047D01*
X71397619Y254691666D01*
X71540476Y254786904D01*
X71730952Y254834523D01*
X72111904Y254834523D01*
X72207142Y254786904D01*
X72254761Y254739285D01*
X72302380Y254644047D01*
X72302380Y254453571D01*
X72254761Y254358333D01*
X72207142Y254310714D01*
X72111904Y254263095D01*
X71873809Y254263095D01*
X71778571Y254310714D01*
X71730952Y254358333D01*
X71683333Y254453571D01*
X71683333Y254644047D01*
X71730952Y254739285D01*
X71778571Y254786904D01*
X71873809Y254834523D01*
%TO.C,D15*%
X50871130Y256739285D02*
X49871130Y256739285D01*
X49871130Y256501190D01*
X49918750Y256358333D01*
X50013988Y256263095D01*
X50109226Y256215476D01*
X50299702Y256167857D01*
X50442559Y256167857D01*
X50633035Y256215476D01*
X50728273Y256263095D01*
X50823511Y256358333D01*
X50871130Y256501190D01*
X50871130Y256739285D01*
X50871130Y255215476D02*
X50871130Y255786904D01*
X50871130Y255501190D02*
X49871130Y255501190D01*
X50013988Y255596428D01*
X50109226Y255691666D01*
X50156845Y255786904D01*
X49871130Y254310714D02*
X49871130Y254786904D01*
X50347321Y254834523D01*
X50299702Y254786904D01*
X50252083Y254691666D01*
X50252083Y254453571D01*
X50299702Y254358333D01*
X50347321Y254310714D01*
X50442559Y254263095D01*
X50680654Y254263095D01*
X50775892Y254310714D01*
X50823511Y254358333D01*
X50871130Y254453571D01*
X50871130Y254691666D01*
X50823511Y254786904D01*
X50775892Y254834523D01*
%TO.C,D14*%
X19914880Y256739285D02*
X18914880Y256739285D01*
X18914880Y256501190D01*
X18962500Y256358333D01*
X19057738Y256263095D01*
X19152976Y256215476D01*
X19343452Y256167857D01*
X19486309Y256167857D01*
X19676785Y256215476D01*
X19772023Y256263095D01*
X19867261Y256358333D01*
X19914880Y256501190D01*
X19914880Y256739285D01*
X19914880Y255215476D02*
X19914880Y255786904D01*
X19914880Y255501190D02*
X18914880Y255501190D01*
X19057738Y255596428D01*
X19152976Y255691666D01*
X19200595Y255786904D01*
X19248214Y254358333D02*
X19914880Y254358333D01*
X18867261Y254596428D02*
X19581547Y254834523D01*
X19581547Y254215476D01*
%TO.C,D13*%
X245911380Y275787285D02*
X244911380Y275787285D01*
X244911380Y275549190D01*
X244959000Y275406333D01*
X245054238Y275311095D01*
X245149476Y275263476D01*
X245339952Y275215857D01*
X245482809Y275215857D01*
X245673285Y275263476D01*
X245768523Y275311095D01*
X245863761Y275406333D01*
X245911380Y275549190D01*
X245911380Y275787285D01*
X245911380Y274263476D02*
X245911380Y274834904D01*
X245911380Y274549190D02*
X244911380Y274549190D01*
X245054238Y274644428D01*
X245149476Y274739666D01*
X245197095Y274834904D01*
X244911380Y273930142D02*
X244911380Y273311095D01*
X245292333Y273644428D01*
X245292333Y273501571D01*
X245339952Y273406333D01*
X245387571Y273358714D01*
X245482809Y273311095D01*
X245720904Y273311095D01*
X245816142Y273358714D01*
X245863761Y273406333D01*
X245911380Y273501571D01*
X245911380Y273787285D01*
X245863761Y273882523D01*
X245816142Y273930142D01*
%TO.C,D12*%
X238989880Y275789285D02*
X237989880Y275789285D01*
X237989880Y275551190D01*
X238037500Y275408333D01*
X238132738Y275313095D01*
X238227976Y275265476D01*
X238418452Y275217857D01*
X238561309Y275217857D01*
X238751785Y275265476D01*
X238847023Y275313095D01*
X238942261Y275408333D01*
X238989880Y275551190D01*
X238989880Y275789285D01*
X238989880Y274265476D02*
X238989880Y274836904D01*
X238989880Y274551190D02*
X237989880Y274551190D01*
X238132738Y274646428D01*
X238227976Y274741666D01*
X238275595Y274836904D01*
X238085119Y273884523D02*
X238037500Y273836904D01*
X237989880Y273741666D01*
X237989880Y273503571D01*
X238037500Y273408333D01*
X238085119Y273360714D01*
X238180357Y273313095D01*
X238275595Y273313095D01*
X238418452Y273360714D01*
X238989880Y273932142D01*
X238989880Y273313095D01*
%TO.C,D11*%
X219939880Y275914285D02*
X218939880Y275914285D01*
X218939880Y275676190D01*
X218987500Y275533333D01*
X219082738Y275438095D01*
X219177976Y275390476D01*
X219368452Y275342857D01*
X219511309Y275342857D01*
X219701785Y275390476D01*
X219797023Y275438095D01*
X219892261Y275533333D01*
X219939880Y275676190D01*
X219939880Y275914285D01*
X219939880Y274390476D02*
X219939880Y274961904D01*
X219939880Y274676190D02*
X218939880Y274676190D01*
X219082738Y274771428D01*
X219177976Y274866666D01*
X219225595Y274961904D01*
X219939880Y273438095D02*
X219939880Y274009523D01*
X219939880Y273723809D02*
X218939880Y273723809D01*
X219082738Y273819047D01*
X219177976Y273914285D01*
X219225595Y274009523D01*
%TO.C,D10*%
X200889880Y275789285D02*
X199889880Y275789285D01*
X199889880Y275551190D01*
X199937500Y275408333D01*
X200032738Y275313095D01*
X200127976Y275265476D01*
X200318452Y275217857D01*
X200461309Y275217857D01*
X200651785Y275265476D01*
X200747023Y275313095D01*
X200842261Y275408333D01*
X200889880Y275551190D01*
X200889880Y275789285D01*
X200889880Y274265476D02*
X200889880Y274836904D01*
X200889880Y274551190D02*
X199889880Y274551190D01*
X200032738Y274646428D01*
X200127976Y274741666D01*
X200175595Y274836904D01*
X199889880Y273646428D02*
X199889880Y273551190D01*
X199937500Y273455952D01*
X199985119Y273408333D01*
X200080357Y273360714D01*
X200270833Y273313095D01*
X200508928Y273313095D01*
X200699404Y273360714D01*
X200794642Y273408333D01*
X200842261Y273455952D01*
X200889880Y273551190D01*
X200889880Y273646428D01*
X200842261Y273741666D01*
X200794642Y273789285D01*
X200699404Y273836904D01*
X200508928Y273884523D01*
X200270833Y273884523D01*
X200080357Y273836904D01*
X199985119Y273789285D01*
X199937500Y273741666D01*
X199889880Y273646428D01*
%TO.C,D9*%
X181839880Y275313095D02*
X180839880Y275313095D01*
X180839880Y275075000D01*
X180887500Y274932142D01*
X180982738Y274836904D01*
X181077976Y274789285D01*
X181268452Y274741666D01*
X181411309Y274741666D01*
X181601785Y274789285D01*
X181697023Y274836904D01*
X181792261Y274932142D01*
X181839880Y275075000D01*
X181839880Y275313095D01*
X181839880Y274265476D02*
X181839880Y274075000D01*
X181792261Y273979761D01*
X181744642Y273932142D01*
X181601785Y273836904D01*
X181411309Y273789285D01*
X181030357Y273789285D01*
X180935119Y273836904D01*
X180887500Y273884523D01*
X180839880Y273979761D01*
X180839880Y274170238D01*
X180887500Y274265476D01*
X180935119Y274313095D01*
X181030357Y274360714D01*
X181268452Y274360714D01*
X181363690Y274313095D01*
X181411309Y274265476D01*
X181458928Y274170238D01*
X181458928Y273979761D01*
X181411309Y273884523D01*
X181363690Y273836904D01*
X181268452Y273789285D01*
%TO.C,D8*%
X162789880Y275313095D02*
X161789880Y275313095D01*
X161789880Y275075000D01*
X161837500Y274932142D01*
X161932738Y274836904D01*
X162027976Y274789285D01*
X162218452Y274741666D01*
X162361309Y274741666D01*
X162551785Y274789285D01*
X162647023Y274836904D01*
X162742261Y274932142D01*
X162789880Y275075000D01*
X162789880Y275313095D01*
X162218452Y274170238D02*
X162170833Y274265476D01*
X162123214Y274313095D01*
X162027976Y274360714D01*
X161980357Y274360714D01*
X161885119Y274313095D01*
X161837500Y274265476D01*
X161789880Y274170238D01*
X161789880Y273979761D01*
X161837500Y273884523D01*
X161885119Y273836904D01*
X161980357Y273789285D01*
X162027976Y273789285D01*
X162123214Y273836904D01*
X162170833Y273884523D01*
X162218452Y273979761D01*
X162218452Y274170238D01*
X162266071Y274265476D01*
X162313690Y274313095D01*
X162408928Y274360714D01*
X162599404Y274360714D01*
X162694642Y274313095D01*
X162742261Y274265476D01*
X162789880Y274170238D01*
X162789880Y273979761D01*
X162742261Y273884523D01*
X162694642Y273836904D01*
X162599404Y273789285D01*
X162408928Y273789285D01*
X162313690Y273836904D01*
X162266071Y273884523D01*
X162218452Y273979761D01*
%TO.C,D7*%
X143739880Y275313095D02*
X142739880Y275313095D01*
X142739880Y275075000D01*
X142787500Y274932142D01*
X142882738Y274836904D01*
X142977976Y274789285D01*
X143168452Y274741666D01*
X143311309Y274741666D01*
X143501785Y274789285D01*
X143597023Y274836904D01*
X143692261Y274932142D01*
X143739880Y275075000D01*
X143739880Y275313095D01*
X142739880Y274408333D02*
X142739880Y273741666D01*
X143739880Y274170238D01*
%TO.C,D6*%
X124689880Y275375595D02*
X123689880Y275375595D01*
X123689880Y275137500D01*
X123737500Y274994642D01*
X123832738Y274899404D01*
X123927976Y274851785D01*
X124118452Y274804166D01*
X124261309Y274804166D01*
X124451785Y274851785D01*
X124547023Y274899404D01*
X124642261Y274994642D01*
X124689880Y275137500D01*
X124689880Y275375595D01*
X123689880Y273947023D02*
X123689880Y274137500D01*
X123737500Y274232738D01*
X123785119Y274280357D01*
X123927976Y274375595D01*
X124118452Y274423214D01*
X124499404Y274423214D01*
X124594642Y274375595D01*
X124642261Y274327976D01*
X124689880Y274232738D01*
X124689880Y274042261D01*
X124642261Y273947023D01*
X124594642Y273899404D01*
X124499404Y273851785D01*
X124261309Y273851785D01*
X124166071Y273899404D01*
X124118452Y273947023D01*
X124070833Y274042261D01*
X124070833Y274232738D01*
X124118452Y274327976D01*
X124166071Y274375595D01*
X124261309Y274423214D01*
%TO.C,D5*%
X105639880Y275375595D02*
X104639880Y275375595D01*
X104639880Y275137500D01*
X104687500Y274994642D01*
X104782738Y274899404D01*
X104877976Y274851785D01*
X105068452Y274804166D01*
X105211309Y274804166D01*
X105401785Y274851785D01*
X105497023Y274899404D01*
X105592261Y274994642D01*
X105639880Y275137500D01*
X105639880Y275375595D01*
X104639880Y273899404D02*
X104639880Y274375595D01*
X105116071Y274423214D01*
X105068452Y274375595D01*
X105020833Y274280357D01*
X105020833Y274042261D01*
X105068452Y273947023D01*
X105116071Y273899404D01*
X105211309Y273851785D01*
X105449404Y273851785D01*
X105544642Y273899404D01*
X105592261Y273947023D01*
X105639880Y274042261D01*
X105639880Y274280357D01*
X105592261Y274375595D01*
X105544642Y274423214D01*
%TO.C,D4*%
X86589880Y275375595D02*
X85589880Y275375595D01*
X85589880Y275137500D01*
X85637500Y274994642D01*
X85732738Y274899404D01*
X85827976Y274851785D01*
X86018452Y274804166D01*
X86161309Y274804166D01*
X86351785Y274851785D01*
X86447023Y274899404D01*
X86542261Y274994642D01*
X86589880Y275137500D01*
X86589880Y275375595D01*
X85923214Y273947023D02*
X86589880Y273947023D01*
X85542261Y274185119D02*
X86256547Y274423214D01*
X86256547Y273804166D01*
%TO.C,D3*%
X67539880Y275375595D02*
X66539880Y275375595D01*
X66539880Y275137500D01*
X66587500Y274994642D01*
X66682738Y274899404D01*
X66777976Y274851785D01*
X66968452Y274804166D01*
X67111309Y274804166D01*
X67301785Y274851785D01*
X67397023Y274899404D01*
X67492261Y274994642D01*
X67539880Y275137500D01*
X67539880Y275375595D01*
X66539880Y274470833D02*
X66539880Y273851785D01*
X66920833Y274185119D01*
X66920833Y274042261D01*
X66968452Y273947023D01*
X67016071Y273899404D01*
X67111309Y273851785D01*
X67349404Y273851785D01*
X67444642Y273899404D01*
X67492261Y273947023D01*
X67539880Y274042261D01*
X67539880Y274327976D01*
X67492261Y274423214D01*
X67444642Y274470833D01*
%TO.C,D2*%
X31821130Y275313095D02*
X30821130Y275313095D01*
X30821130Y275075000D01*
X30868750Y274932142D01*
X30963988Y274836904D01*
X31059226Y274789285D01*
X31249702Y274741666D01*
X31392559Y274741666D01*
X31583035Y274789285D01*
X31678273Y274836904D01*
X31773511Y274932142D01*
X31821130Y275075000D01*
X31821130Y275313095D01*
X30916369Y274360714D02*
X30868750Y274313095D01*
X30821130Y274217857D01*
X30821130Y273979761D01*
X30868750Y273884523D01*
X30916369Y273836904D01*
X31011607Y273789285D01*
X31106845Y273789285D01*
X31249702Y273836904D01*
X31821130Y274408333D01*
X31821130Y273789285D01*
%TO.C,D1*%
X19914880Y275375595D02*
X18914880Y275375595D01*
X18914880Y275137500D01*
X18962500Y274994642D01*
X19057738Y274899404D01*
X19152976Y274851785D01*
X19343452Y274804166D01*
X19486309Y274804166D01*
X19676785Y274851785D01*
X19772023Y274899404D01*
X19867261Y274994642D01*
X19914880Y275137500D01*
X19914880Y275375595D01*
X19914880Y273851785D02*
X19914880Y274423214D01*
X19914880Y274137500D02*
X18914880Y274137500D01*
X19057738Y274232738D01*
X19152976Y274327976D01*
X19200595Y274423214D01*
%TO.C,C11*%
X230227142Y236100857D02*
X230274761Y236148476D01*
X230322380Y236291333D01*
X230322380Y236386571D01*
X230274761Y236529428D01*
X230179523Y236624666D01*
X230084285Y236672285D01*
X229893809Y236719904D01*
X229750952Y236719904D01*
X229560476Y236672285D01*
X229465238Y236624666D01*
X229370000Y236529428D01*
X229322380Y236386571D01*
X229322380Y236291333D01*
X229370000Y236148476D01*
X229417619Y236100857D01*
X230322380Y235148476D02*
X230322380Y235719904D01*
X230322380Y235434190D02*
X229322380Y235434190D01*
X229465238Y235529428D01*
X229560476Y235624666D01*
X229608095Y235719904D01*
X230322380Y234196095D02*
X230322380Y234767523D01*
X230322380Y234481809D02*
X229322380Y234481809D01*
X229465238Y234577047D01*
X229560476Y234672285D01*
X229608095Y234767523D01*
%TO.C,C10*%
X227718857Y224559857D02*
X227766476Y224512238D01*
X227909333Y224464619D01*
X228004571Y224464619D01*
X228147428Y224512238D01*
X228242666Y224607476D01*
X228290285Y224702714D01*
X228337904Y224893190D01*
X228337904Y225036047D01*
X228290285Y225226523D01*
X228242666Y225321761D01*
X228147428Y225417000D01*
X228004571Y225464619D01*
X227909333Y225464619D01*
X227766476Y225417000D01*
X227718857Y225369380D01*
X226766476Y224464619D02*
X227337904Y224464619D01*
X227052190Y224464619D02*
X227052190Y225464619D01*
X227147428Y225321761D01*
X227242666Y225226523D01*
X227337904Y225178904D01*
X226147428Y225464619D02*
X226052190Y225464619D01*
X225956952Y225417000D01*
X225909333Y225369380D01*
X225861714Y225274142D01*
X225814095Y225083666D01*
X225814095Y224845571D01*
X225861714Y224655095D01*
X225909333Y224559857D01*
X225956952Y224512238D01*
X226052190Y224464619D01*
X226147428Y224464619D01*
X226242666Y224512238D01*
X226290285Y224559857D01*
X226337904Y224655095D01*
X226385523Y224845571D01*
X226385523Y225083666D01*
X226337904Y225274142D01*
X226290285Y225369380D01*
X226242666Y225417000D01*
X226147428Y225464619D01*
%TO.C,C9*%
X246292666Y221257857D02*
X246340285Y221210238D01*
X246483142Y221162619D01*
X246578380Y221162619D01*
X246721238Y221210238D01*
X246816476Y221305476D01*
X246864095Y221400714D01*
X246911714Y221591190D01*
X246911714Y221734047D01*
X246864095Y221924523D01*
X246816476Y222019761D01*
X246721238Y222115000D01*
X246578380Y222162619D01*
X246483142Y222162619D01*
X246340285Y222115000D01*
X246292666Y222067380D01*
X245816476Y221162619D02*
X245626000Y221162619D01*
X245530761Y221210238D01*
X245483142Y221257857D01*
X245387904Y221400714D01*
X245340285Y221591190D01*
X245340285Y221972142D01*
X245387904Y222067380D01*
X245435523Y222115000D01*
X245530761Y222162619D01*
X245721238Y222162619D01*
X245816476Y222115000D01*
X245864095Y222067380D01*
X245911714Y221972142D01*
X245911714Y221734047D01*
X245864095Y221638809D01*
X245816476Y221591190D01*
X245721238Y221543571D01*
X245530761Y221543571D01*
X245435523Y221591190D01*
X245387904Y221638809D01*
X245340285Y221734047D01*
%TO.C,C8*%
X227716142Y229848667D02*
X227763761Y229896286D01*
X227811380Y230039143D01*
X227811380Y230134381D01*
X227763761Y230277239D01*
X227668523Y230372477D01*
X227573285Y230420096D01*
X227382809Y230467715D01*
X227239952Y230467715D01*
X227049476Y230420096D01*
X226954238Y230372477D01*
X226859000Y230277239D01*
X226811380Y230134381D01*
X226811380Y230039143D01*
X226859000Y229896286D01*
X226906619Y229848667D01*
X227239952Y229277239D02*
X227192333Y229372477D01*
X227144714Y229420096D01*
X227049476Y229467715D01*
X227001857Y229467715D01*
X226906619Y229420096D01*
X226859000Y229372477D01*
X226811380Y229277239D01*
X226811380Y229086762D01*
X226859000Y228991524D01*
X226906619Y228943905D01*
X227001857Y228896286D01*
X227049476Y228896286D01*
X227144714Y228943905D01*
X227192333Y228991524D01*
X227239952Y229086762D01*
X227239952Y229277239D01*
X227287571Y229372477D01*
X227335190Y229420096D01*
X227430428Y229467715D01*
X227620904Y229467715D01*
X227716142Y229420096D01*
X227763761Y229372477D01*
X227811380Y229277239D01*
X227811380Y229086762D01*
X227763761Y228991524D01*
X227716142Y228943905D01*
X227620904Y228896286D01*
X227430428Y228896286D01*
X227335190Y228943905D01*
X227287571Y228991524D01*
X227239952Y229086762D01*
%TO.C,C7*%
X228703142Y235370666D02*
X228750761Y235418285D01*
X228798380Y235561142D01*
X228798380Y235656380D01*
X228750761Y235799238D01*
X228655523Y235894476D01*
X228560285Y235942095D01*
X228369809Y235989714D01*
X228226952Y235989714D01*
X228036476Y235942095D01*
X227941238Y235894476D01*
X227846000Y235799238D01*
X227798380Y235656380D01*
X227798380Y235561142D01*
X227846000Y235418285D01*
X227893619Y235370666D01*
X227798380Y235037333D02*
X227798380Y234370666D01*
X228798380Y234799238D01*
%TO.C,C6*%
X246292666Y223289857D02*
X246340285Y223242238D01*
X246483142Y223194619D01*
X246578380Y223194619D01*
X246721238Y223242238D01*
X246816476Y223337476D01*
X246864095Y223432714D01*
X246911714Y223623190D01*
X246911714Y223766047D01*
X246864095Y223956523D01*
X246816476Y224051761D01*
X246721238Y224147000D01*
X246578380Y224194619D01*
X246483142Y224194619D01*
X246340285Y224147000D01*
X246292666Y224099380D01*
X245435523Y224194619D02*
X245626000Y224194619D01*
X245721238Y224147000D01*
X245768857Y224099380D01*
X245864095Y223956523D01*
X245911714Y223766047D01*
X245911714Y223385095D01*
X245864095Y223289857D01*
X245816476Y223242238D01*
X245721238Y223194619D01*
X245530761Y223194619D01*
X245435523Y223242238D01*
X245387904Y223289857D01*
X245340285Y223385095D01*
X245340285Y223623190D01*
X245387904Y223718428D01*
X245435523Y223766047D01*
X245530761Y223813666D01*
X245721238Y223813666D01*
X245816476Y223766047D01*
X245864095Y223718428D01*
X245911714Y223623190D01*
%TO.C,C5*%
X231637389Y218686312D02*
X231704732Y218686312D01*
X231839419Y218753656D01*
X231906763Y218821000D01*
X231974106Y218955687D01*
X231974106Y219090374D01*
X231940435Y219191389D01*
X231839419Y219359748D01*
X231738404Y219460763D01*
X231570045Y219561778D01*
X231469030Y219595450D01*
X231334343Y219595450D01*
X231199656Y219528106D01*
X231132312Y219460763D01*
X231064969Y219326076D01*
X231064969Y219258732D01*
X230357862Y218686312D02*
X230694580Y219023030D01*
X231064969Y218719984D01*
X230997625Y218719984D01*
X230896610Y218686312D01*
X230728251Y218517954D01*
X230694580Y218416938D01*
X230694580Y218349595D01*
X230728251Y218248580D01*
X230896610Y218080221D01*
X230997625Y218046549D01*
X231064969Y218046549D01*
X231165984Y218080221D01*
X231334343Y218248580D01*
X231368015Y218349595D01*
X231368015Y218416938D01*
%TO.C,C4*%
X241022142Y239815666D02*
X241069761Y239863285D01*
X241117380Y240006142D01*
X241117380Y240101380D01*
X241069761Y240244238D01*
X240974523Y240339476D01*
X240879285Y240387095D01*
X240688809Y240434714D01*
X240545952Y240434714D01*
X240355476Y240387095D01*
X240260238Y240339476D01*
X240165000Y240244238D01*
X240117380Y240101380D01*
X240117380Y240006142D01*
X240165000Y239863285D01*
X240212619Y239815666D01*
X240450714Y238958523D02*
X241117380Y238958523D01*
X240069761Y239196619D02*
X240784047Y239434714D01*
X240784047Y238815666D01*
%TO.C,C3*%
X236958142Y222416666D02*
X237005761Y222464285D01*
X237053380Y222607142D01*
X237053380Y222702380D01*
X237005761Y222845238D01*
X236910523Y222940476D01*
X236815285Y222988095D01*
X236624809Y223035714D01*
X236481952Y223035714D01*
X236291476Y222988095D01*
X236196238Y222940476D01*
X236101000Y222845238D01*
X236053380Y222702380D01*
X236053380Y222607142D01*
X236101000Y222464285D01*
X236148619Y222416666D01*
X236053380Y222083333D02*
X236053380Y221464285D01*
X236434333Y221797619D01*
X236434333Y221654761D01*
X236481952Y221559523D01*
X236529571Y221511904D01*
X236624809Y221464285D01*
X236862904Y221464285D01*
X236958142Y221511904D01*
X237005761Y221559523D01*
X237053380Y221654761D01*
X237053380Y221940476D01*
X237005761Y222035714D01*
X236958142Y222083333D01*
%TO.C,C2*%
X59221666Y235608857D02*
X59269285Y235561238D01*
X59412142Y235513619D01*
X59507380Y235513619D01*
X59650238Y235561238D01*
X59745476Y235656476D01*
X59793095Y235751714D01*
X59840714Y235942190D01*
X59840714Y236085047D01*
X59793095Y236275523D01*
X59745476Y236370761D01*
X59650238Y236466000D01*
X59507380Y236513619D01*
X59412142Y236513619D01*
X59269285Y236466000D01*
X59221666Y236418380D01*
X58840714Y236418380D02*
X58793095Y236466000D01*
X58697857Y236513619D01*
X58459761Y236513619D01*
X58364523Y236466000D01*
X58316904Y236418380D01*
X58269285Y236323142D01*
X58269285Y236227904D01*
X58316904Y236085047D01*
X58888333Y235513619D01*
X58269285Y235513619D01*
%TO.C,U1*%
X234187904Y224448619D02*
X234187904Y223639095D01*
X234140285Y223543857D01*
X234092666Y223496238D01*
X233997428Y223448619D01*
X233806952Y223448619D01*
X233711714Y223496238D01*
X233664095Y223543857D01*
X233616476Y223639095D01*
X233616476Y224448619D01*
X232616476Y223448619D02*
X233187904Y223448619D01*
X232902190Y223448619D02*
X232902190Y224448619D01*
X232997428Y224305761D01*
X233092666Y224210523D01*
X233187904Y224162904D01*
%TD*%
M02*
