M48
; DRILL file {KiCad 5.1.9-73d0e3b20d~88~ubuntu20.04.1} date Sun Feb 21 13:43:46 2021
; FORMAT={-:-/ absolute / inch / decimal}
; #@! TF.CreationDate,2021-02-21T13:43:46-08:00
; #@! TF.GenerationSoftware,Kicad,Pcbnew,5.1.9-73d0e3b20d~88~ubuntu20.04.1
; #@! TF.FileFunction,Plated,1,2,PTH
FMAT,2
INCH
T1C0.0157
T2C0.0236
T3C0.0394
T4C0.0579
T5C0.0591
%
G90
G05
T1
X1.2Y9.185
X1.305Y8.4
X1.68Y10.785
X1.68Y10.745
X1.735Y10.675
X1.78Y10.925
X2.045Y10.745
X2.09Y9.7969
X2.17Y9.245
X2.52Y9.245
X8.625Y9.11
X8.79Y8.995
X8.93Y9.145
X9.1Y8.75
X9.145Y8.53
X9.1703Y9.2457
X9.225Y8.38
X9.411Y8.5356
X9.42Y8.465
X9.45Y8.53
X9.4548Y8.4002
X9.489Y8.5356
X9.4915Y9.2172
X9.515Y8.4665
X9.54Y8.66
X9.66Y9.245
T3
X0.245Y11.1509
X0.245Y10.58
X0.245Y10.4009
X0.245Y9.83
X0.245Y9.6509
X0.245Y9.08
X0.245Y8.9009
X0.245Y8.33
X0.3434Y10.58
X0.3434Y9.83
X0.3434Y9.08
X0.3434Y8.33
X0.4419Y11.1509
X0.4419Y10.58
X0.4419Y10.4009
X0.4419Y9.83
X0.4419Y9.6509
X0.4419Y9.08
X0.4419Y8.9009
X0.4419Y8.33
X9.74Y8.32
X9.84Y8.32
T4
X0.1938Y10.975
X0.1938Y10.225
X0.1938Y9.475
X0.1938Y8.725
X0.4437Y11.075
X0.4437Y10.325
X0.4437Y9.575
X0.4437Y8.825
X1.3187Y10.975
X1.4125Y10.225
X1.4125Y8.725
X1.5687Y11.075
X1.6Y9.475
X1.6625Y10.325
X1.6625Y8.825
X1.85Y9.575
X2.0688Y10.975
X2.2563Y10.225
X2.3188Y11.075
X2.5063Y10.325
X2.6313Y9.475
X2.8188Y10.975
X2.8813Y9.575
X2.9125Y8.725
X3.0063Y10.225
X3.0688Y11.075
X3.1625Y8.825
X3.2563Y10.325
X3.3813Y9.475
X3.5688Y10.975
X3.6313Y9.575
X3.7563Y10.225
X3.7563Y8.725
X3.8188Y11.075
X4.0062Y10.325
X4.0062Y8.825
X4.1312Y9.475
X4.3187Y10.975
X4.3812Y9.575
X4.5062Y10.225
X4.5062Y8.725
X4.5687Y11.075
X4.7562Y10.325
X4.7562Y8.825
X4.8812Y9.475
X4.8812Y8.725
X5.0687Y10.975
X5.1312Y9.575
X5.1312Y8.825
X5.2562Y10.225
X5.3187Y11.075
X5.5062Y10.325
X5.6312Y9.475
X5.6312Y8.725
X5.8187Y10.975
X5.8812Y9.575
X5.8812Y8.825
X6.0062Y10.225
X6.0687Y11.075
X6.2562Y10.325
X6.3812Y9.475
X6.3812Y8.725
X6.5687Y10.975
X6.6312Y9.575
X6.6312Y8.825
X6.7562Y10.225
X6.7562Y8.725
X6.8187Y11.075
X7.0062Y10.325
X7.0062Y8.825
X7.1312Y9.475
X7.3187Y10.975
X7.3812Y9.575
X7.5062Y10.225
X7.5062Y8.725
X7.5687Y11.075
X7.7562Y10.325
X7.7562Y8.825
X7.8812Y9.475
X8.0687Y10.975
X8.1312Y9.575
X8.2562Y10.225
X8.3187Y11.075
X8.35Y8.725
X8.5062Y10.325
X8.6Y8.825
X8.6312Y9.475
X8.8187Y10.975
X8.8812Y9.575
X9.0062Y10.225
X9.0687Y11.075
X9.2562Y10.325
X9.6625Y9.475
X9.7562Y10.975
X9.85Y10.225
X9.85Y8.725
X9.9125Y9.575
X10.0062Y11.075
X10.1Y10.325
X10.1Y8.825
T2
G00X1.6737Y11.2532
M15
G01X1.6737Y11.2296
M16
G05
G00X1.6737Y11.0985
M15
G01X1.6737Y11.0552
M16
G05
G00X2.0138Y11.2532
M15
G01X2.0138Y11.2296
M16
G05
G00X2.0138Y11.0985
M15
G01X2.0138Y11.0552
M16
G05
T5
G00X0.123Y10.8497
M15
G01X0.123Y10.9009
M16
G05
G00X0.123Y10.0997
M15
G01X0.123Y10.1509
M16
G05
G00X0.123Y9.3497
M15
G01X0.123Y9.4009
M16
G05
G00X0.123Y8.5997
M15
G01X0.123Y8.6509
M16
G05
G00X0.5639Y10.8497
M15
G01X0.5639Y10.9009
M16
G05
G00X0.5639Y10.0997
M15
G01X0.5639Y10.1509
M16
G05
G00X0.5639Y9.3497
M15
G01X0.5639Y9.4009
M16
G05
G00X0.5639Y8.5997
M15
G01X0.5639Y8.6509
M16
G05
T0
M30
