%TF.GenerationSoftware,KiCad,Pcbnew,5.1.9-73d0e3b20d~88~ubuntu20.04.1*%
%TF.CreationDate,2021-02-21T13:43:44-08:00*%
%TF.ProjectId,KB_Lightbar_1,4b425f4c-6967-4687-9462-61725f312e6b,rev?*%
%TF.SameCoordinates,Original*%
%TF.FileFunction,Soldermask,Top*%
%TF.FilePolarity,Negative*%
%FSLAX46Y46*%
G04 Gerber Fmt 4.6, Leading zero omitted, Abs format (unit mm)*
G04 Created by KiCad (PCBNEW 5.1.9-73d0e3b20d~88~ubuntu20.04.1) date 2021-02-21 13:43:44*
%MOMM*%
%LPD*%
G01*
G04 APERTURE LIST*
%ADD10O,1.000000X1.600000*%
%ADD11O,1.000000X2.100000*%
%ADD12C,0.650000*%
%ADD13C,1.750000*%
%ADD14C,3.987800*%
%ADD15O,1.700000X1.700000*%
%ADD16R,1.700000X1.700000*%
%ADD17R,1.500000X1.000000*%
%ADD18C,3.048000*%
%ADD19C,2.000000*%
%ADD20R,2.000000X3.200000*%
%ADD21R,2.000000X2.000000*%
G04 APERTURE END LIST*
D10*
%TO.C,USB1*%
X51151250Y285531250D03*
X42511250Y285531250D03*
D11*
X51151250Y281351250D03*
X42511250Y281351250D03*
D12*
X43941250Y281881250D03*
X49721250Y281881250D03*
%TD*%
D13*
%TO.C,SW33*%
X151923750Y238125000D03*
X141763750Y238125000D03*
D14*
X146843750Y238125000D03*
%TD*%
%TO.C,C19*%
G36*
G01*
X27719000Y279133000D02*
X28669000Y279133000D01*
G75*
G02*
X28919000Y278883000I0J-250000D01*
G01*
X28919000Y278383000D01*
G75*
G02*
X28669000Y278133000I-250000J0D01*
G01*
X27719000Y278133000D01*
G75*
G02*
X27469000Y278383000I0J250000D01*
G01*
X27469000Y278883000D01*
G75*
G02*
X27719000Y279133000I250000J0D01*
G01*
G37*
G36*
G01*
X27719000Y277233000D02*
X28669000Y277233000D01*
G75*
G02*
X28919000Y276983000I0J-250000D01*
G01*
X28919000Y276483000D01*
G75*
G02*
X28669000Y276233000I-250000J0D01*
G01*
X27719000Y276233000D01*
G75*
G02*
X27469000Y276483000I0J250000D01*
G01*
X27469000Y276983000D01*
G75*
G02*
X27719000Y277233000I250000J0D01*
G01*
G37*
%TD*%
%TO.C,C18*%
G36*
G01*
X27719000Y270370000D02*
X28669000Y270370000D01*
G75*
G02*
X28919000Y270120000I0J-250000D01*
G01*
X28919000Y269620000D01*
G75*
G02*
X28669000Y269370000I-250000J0D01*
G01*
X27719000Y269370000D01*
G75*
G02*
X27469000Y269620000I0J250000D01*
G01*
X27469000Y270120000D01*
G75*
G02*
X27719000Y270370000I250000J0D01*
G01*
G37*
G36*
G01*
X27719000Y268470000D02*
X28669000Y268470000D01*
G75*
G02*
X28919000Y268220000I0J-250000D01*
G01*
X28919000Y267720000D01*
G75*
G02*
X28669000Y267470000I-250000J0D01*
G01*
X27719000Y267470000D01*
G75*
G02*
X27469000Y267720000I0J250000D01*
G01*
X27469000Y268220000D01*
G75*
G02*
X27719000Y268470000I250000J0D01*
G01*
G37*
%TD*%
%TO.C,C17*%
G36*
G01*
X27719000Y261607000D02*
X28669000Y261607000D01*
G75*
G02*
X28919000Y261357000I0J-250000D01*
G01*
X28919000Y260857000D01*
G75*
G02*
X28669000Y260607000I-250000J0D01*
G01*
X27719000Y260607000D01*
G75*
G02*
X27469000Y260857000I0J250000D01*
G01*
X27469000Y261357000D01*
G75*
G02*
X27719000Y261607000I250000J0D01*
G01*
G37*
G36*
G01*
X27719000Y259707000D02*
X28669000Y259707000D01*
G75*
G02*
X28919000Y259457000I0J-250000D01*
G01*
X28919000Y258957000D01*
G75*
G02*
X28669000Y258707000I-250000J0D01*
G01*
X27719000Y258707000D01*
G75*
G02*
X27469000Y258957000I0J250000D01*
G01*
X27469000Y259457000D01*
G75*
G02*
X27719000Y259707000I250000J0D01*
G01*
G37*
%TD*%
%TO.C,C16*%
G36*
G01*
X27719000Y252844000D02*
X28669000Y252844000D01*
G75*
G02*
X28919000Y252594000I0J-250000D01*
G01*
X28919000Y252094000D01*
G75*
G02*
X28669000Y251844000I-250000J0D01*
G01*
X27719000Y251844000D01*
G75*
G02*
X27469000Y252094000I0J250000D01*
G01*
X27469000Y252594000D01*
G75*
G02*
X27719000Y252844000I250000J0D01*
G01*
G37*
G36*
G01*
X27719000Y250944000D02*
X28669000Y250944000D01*
G75*
G02*
X28919000Y250694000I0J-250000D01*
G01*
X28919000Y250194000D01*
G75*
G02*
X28669000Y249944000I-250000J0D01*
G01*
X27719000Y249944000D01*
G75*
G02*
X27469000Y250194000I0J250000D01*
G01*
X27469000Y250694000D01*
G75*
G02*
X27719000Y250944000I250000J0D01*
G01*
G37*
%TD*%
%TO.C,C15*%
G36*
G01*
X27719000Y244208000D02*
X28669000Y244208000D01*
G75*
G02*
X28919000Y243958000I0J-250000D01*
G01*
X28919000Y243458000D01*
G75*
G02*
X28669000Y243208000I-250000J0D01*
G01*
X27719000Y243208000D01*
G75*
G02*
X27469000Y243458000I0J250000D01*
G01*
X27469000Y243958000D01*
G75*
G02*
X27719000Y244208000I250000J0D01*
G01*
G37*
G36*
G01*
X27719000Y242308000D02*
X28669000Y242308000D01*
G75*
G02*
X28919000Y242058000I0J-250000D01*
G01*
X28919000Y241558000D01*
G75*
G02*
X28669000Y241308000I-250000J0D01*
G01*
X27719000Y241308000D01*
G75*
G02*
X27469000Y241558000I0J250000D01*
G01*
X27469000Y242058000D01*
G75*
G02*
X27719000Y242308000I250000J0D01*
G01*
G37*
%TD*%
%TO.C,C14*%
G36*
G01*
X27719000Y235445000D02*
X28669000Y235445000D01*
G75*
G02*
X28919000Y235195000I0J-250000D01*
G01*
X28919000Y234695000D01*
G75*
G02*
X28669000Y234445000I-250000J0D01*
G01*
X27719000Y234445000D01*
G75*
G02*
X27469000Y234695000I0J250000D01*
G01*
X27469000Y235195000D01*
G75*
G02*
X27719000Y235445000I250000J0D01*
G01*
G37*
G36*
G01*
X27719000Y233545000D02*
X28669000Y233545000D01*
G75*
G02*
X28919000Y233295000I0J-250000D01*
G01*
X28919000Y232795000D01*
G75*
G02*
X28669000Y232545000I-250000J0D01*
G01*
X27719000Y232545000D01*
G75*
G02*
X27469000Y232795000I0J250000D01*
G01*
X27469000Y233295000D01*
G75*
G02*
X27719000Y233545000I250000J0D01*
G01*
G37*
%TD*%
%TO.C,C13*%
G36*
G01*
X27719000Y226682000D02*
X28669000Y226682000D01*
G75*
G02*
X28919000Y226432000I0J-250000D01*
G01*
X28919000Y225932000D01*
G75*
G02*
X28669000Y225682000I-250000J0D01*
G01*
X27719000Y225682000D01*
G75*
G02*
X27469000Y225932000I0J250000D01*
G01*
X27469000Y226432000D01*
G75*
G02*
X27719000Y226682000I250000J0D01*
G01*
G37*
G36*
G01*
X27719000Y224782000D02*
X28669000Y224782000D01*
G75*
G02*
X28919000Y224532000I0J-250000D01*
G01*
X28919000Y224032000D01*
G75*
G02*
X28669000Y223782000I-250000J0D01*
G01*
X27719000Y223782000D01*
G75*
G02*
X27469000Y224032000I0J250000D01*
G01*
X27469000Y224532000D01*
G75*
G02*
X27719000Y224782000I250000J0D01*
G01*
G37*
%TD*%
%TO.C,C12*%
G36*
G01*
X27719000Y217919000D02*
X28669000Y217919000D01*
G75*
G02*
X28919000Y217669000I0J-250000D01*
G01*
X28919000Y217169000D01*
G75*
G02*
X28669000Y216919000I-250000J0D01*
G01*
X27719000Y216919000D01*
G75*
G02*
X27469000Y217169000I0J250000D01*
G01*
X27469000Y217669000D01*
G75*
G02*
X27719000Y217919000I250000J0D01*
G01*
G37*
G36*
G01*
X27719000Y216019000D02*
X28669000Y216019000D01*
G75*
G02*
X28919000Y215769000I0J-250000D01*
G01*
X28919000Y215269000D01*
G75*
G02*
X28669000Y215019000I-250000J0D01*
G01*
X27719000Y215019000D01*
G75*
G02*
X27469000Y215269000I0J250000D01*
G01*
X27469000Y215769000D01*
G75*
G02*
X27719000Y216019000I250000J0D01*
G01*
G37*
%TD*%
D15*
%TO.C,J1*%
X247396000Y211328000D03*
D16*
X249936000Y211328000D03*
%TD*%
%TO.C,R8*%
G36*
G01*
X31016000Y213810002D02*
X31016000Y212909998D01*
G75*
G02*
X30766002Y212660000I-249998J0D01*
G01*
X30240998Y212660000D01*
G75*
G02*
X29991000Y212909998I0J249998D01*
G01*
X29991000Y213810002D01*
G75*
G02*
X30240998Y214060000I249998J0D01*
G01*
X30766002Y214060000D01*
G75*
G02*
X31016000Y213810002I0J-249998D01*
G01*
G37*
G36*
G01*
X29191000Y213810002D02*
X29191000Y212909998D01*
G75*
G02*
X28941002Y212660000I-249998J0D01*
G01*
X28415998Y212660000D01*
G75*
G02*
X28166000Y212909998I0J249998D01*
G01*
X28166000Y213810002D01*
G75*
G02*
X28415998Y214060000I249998J0D01*
G01*
X28941002Y214060000D01*
G75*
G02*
X29191000Y213810002I0J-249998D01*
G01*
G37*
%TD*%
D17*
%TO.C,RGB7*%
X20632249Y271157501D03*
X20632249Y267957501D03*
X25532249Y271157501D03*
X25532249Y267957501D03*
%TD*%
%TO.C,RGB6*%
X20632250Y262426249D03*
X20632250Y259226249D03*
X25532250Y262426249D03*
X25532250Y259226249D03*
%TD*%
%TO.C,RGB5*%
X20701000Y253682500D03*
X20701000Y250482500D03*
X25601000Y253682500D03*
X25601000Y250482500D03*
%TD*%
%TO.C,RGB4*%
X20632250Y244963750D03*
X20632250Y241763750D03*
X25532250Y244963750D03*
X25532250Y241763750D03*
%TD*%
%TO.C,RGB3*%
X20632250Y236232500D03*
X20632250Y233032500D03*
X25532250Y236232500D03*
X25532250Y233032500D03*
%TD*%
%TO.C,RGB2*%
X20701000Y227501251D03*
X20701000Y224301251D03*
X25601000Y227501251D03*
X25601000Y224301251D03*
%TD*%
%TO.C,RGB8*%
X20632249Y279888750D03*
X20632249Y276688750D03*
X25532249Y279888750D03*
X25532249Y276688750D03*
%TD*%
%TO.C,RGB1*%
X20632250Y218770000D03*
X20632250Y215570000D03*
X25532250Y218770000D03*
X25532250Y215570000D03*
%TD*%
D14*
%TO.C,SW51*%
X194468750Y227330000D03*
X99218750Y227330000D03*
D18*
X194468750Y212090000D03*
X99218750Y212090000D03*
D13*
X151923750Y219075000D03*
X141763750Y219075000D03*
D14*
X146843750Y219075000D03*
%TD*%
%TO.C,SW50*%
X175418750Y219075000D03*
D13*
X170338750Y219075000D03*
X180498750Y219075000D03*
D18*
X156368750Y212090000D03*
X194468750Y212090000D03*
D14*
X156368750Y227330000D03*
X194468750Y227330000D03*
%TD*%
%TO.C,SW49*%
X118268750Y219075000D03*
D13*
X113188750Y219075000D03*
X123348750Y219075000D03*
D18*
X99218750Y212090000D03*
X137318750Y212090000D03*
D14*
X99218750Y227330000D03*
X137318750Y227330000D03*
%TD*%
D13*
%TO.C,SW26*%
X259080000Y257175000D03*
X248920000Y257175000D03*
D14*
X254000000Y257175000D03*
%TD*%
D13*
%TO.C,SW47*%
X259080000Y219075000D03*
X248920000Y219075000D03*
D14*
X254000000Y219075000D03*
%TD*%
D13*
%TO.C,SW46*%
X220980000Y219075000D03*
X210820000Y219075000D03*
D14*
X215900000Y219075000D03*
%TD*%
D13*
%TO.C,SW45*%
X199548750Y219075000D03*
X189388750Y219075000D03*
D14*
X194468750Y219075000D03*
%TD*%
%TO.C,SW44*%
X177800000Y227330000D03*
X153987500Y227330000D03*
D18*
X177800000Y212090000D03*
X153987500Y212090000D03*
D13*
X170973750Y219075000D03*
X160813750Y219075000D03*
D14*
X165893750Y219075000D03*
%TD*%
%TO.C,SW43*%
X139700000Y227330000D03*
X115887500Y227330000D03*
D18*
X139700000Y212090000D03*
X115887500Y212090000D03*
D13*
X132873750Y219075000D03*
X122713750Y219075000D03*
D14*
X127793750Y219075000D03*
%TD*%
D13*
%TO.C,SW42*%
X104298750Y219075000D03*
X94138750Y219075000D03*
D14*
X99218750Y219075000D03*
%TD*%
D13*
%TO.C,SW41*%
X82867500Y219075000D03*
X72707500Y219075000D03*
D14*
X77787500Y219075000D03*
%TD*%
D13*
%TO.C,SW40*%
X44767500Y219075000D03*
X34607500Y219075000D03*
D14*
X39687500Y219075000D03*
%TD*%
D13*
%TO.C,SW39*%
X13811250Y219075000D03*
X3651250Y219075000D03*
D14*
X8731250Y219075000D03*
%TD*%
D13*
%TO.C,SW38*%
X254317500Y238125000D03*
X244157500Y238125000D03*
D14*
X249237500Y238125000D03*
%TD*%
D13*
%TO.C,SW37*%
X228123750Y238125000D03*
X217963750Y238125000D03*
D14*
X223043750Y238125000D03*
%TD*%
D13*
%TO.C,SW36*%
X209073750Y238125000D03*
X198913750Y238125000D03*
D14*
X203993750Y238125000D03*
%TD*%
D13*
%TO.C,SW35*%
X190023750Y238125000D03*
X179863750Y238125000D03*
D14*
X184943750Y238125000D03*
%TD*%
D13*
%TO.C,SW34*%
X170973750Y238125000D03*
X160813750Y238125000D03*
D14*
X165893750Y238125000D03*
%TD*%
D13*
%TO.C,SW32*%
X132873750Y238125000D03*
X122713750Y238125000D03*
D14*
X127793750Y238125000D03*
%TD*%
D13*
%TO.C,SW31*%
X113823750Y238125000D03*
X103663750Y238125000D03*
D14*
X108743750Y238125000D03*
%TD*%
D13*
%TO.C,SW30*%
X94773750Y238125000D03*
X84613750Y238125000D03*
D14*
X89693750Y238125000D03*
%TD*%
D13*
%TO.C,SW29*%
X75723750Y238125000D03*
X65563750Y238125000D03*
D14*
X70643750Y238125000D03*
%TD*%
D13*
%TO.C,SW28*%
X49530000Y238125000D03*
X39370000Y238125000D03*
D14*
X44450000Y238125000D03*
%TD*%
D13*
%TO.C,SW27*%
X13811250Y238125000D03*
X3651250Y238125000D03*
D14*
X8731250Y238125000D03*
%TD*%
D13*
%TO.C,SW25*%
X237648750Y257175000D03*
X227488750Y257175000D03*
D14*
X232568750Y257175000D03*
%TD*%
D13*
%TO.C,SW24*%
X218598750Y257175000D03*
X208438750Y257175000D03*
D14*
X213518750Y257175000D03*
%TD*%
D13*
%TO.C,SW23*%
X199548750Y257175000D03*
X189388750Y257175000D03*
D14*
X194468750Y257175000D03*
%TD*%
D13*
%TO.C,SW22*%
X180498750Y257175000D03*
X170338750Y257175000D03*
D14*
X175418750Y257175000D03*
%TD*%
D13*
%TO.C,SW21*%
X161448750Y257175000D03*
X151288750Y257175000D03*
D14*
X156368750Y257175000D03*
%TD*%
D13*
%TO.C,SW20*%
X142398750Y257175000D03*
X132238750Y257175000D03*
D14*
X137318750Y257175000D03*
%TD*%
D13*
%TO.C,SW19*%
X123348750Y257175000D03*
X113188750Y257175000D03*
D14*
X118268750Y257175000D03*
%TD*%
D13*
%TO.C,SW18*%
X104298750Y257175000D03*
X94138750Y257175000D03*
D14*
X99218750Y257175000D03*
%TD*%
D13*
%TO.C,SW17*%
X85248750Y257175000D03*
X75088750Y257175000D03*
D14*
X80168750Y257175000D03*
%TD*%
D13*
%TO.C,SW16*%
X66198750Y257175000D03*
X56038750Y257175000D03*
D14*
X61118750Y257175000D03*
%TD*%
D13*
%TO.C,SW15*%
X44767500Y257175000D03*
X34607500Y257175000D03*
D14*
X39687500Y257175000D03*
%TD*%
D13*
%TO.C,SW14*%
X13811250Y257175000D03*
X3651250Y257175000D03*
D14*
X8731250Y257175000D03*
%TD*%
D13*
%TO.C,SW13*%
X256698750Y276225000D03*
X246538750Y276225000D03*
D14*
X251618750Y276225000D03*
%TD*%
D13*
%TO.C,SW12*%
X232886250Y276225000D03*
X222726250Y276225000D03*
D14*
X227806250Y276225000D03*
%TD*%
D13*
%TO.C,SW11*%
X213836250Y276225000D03*
X203676250Y276225000D03*
D14*
X208756250Y276225000D03*
%TD*%
D13*
%TO.C,SW10*%
X194786250Y276225000D03*
X184626250Y276225000D03*
D14*
X189706250Y276225000D03*
%TD*%
D13*
%TO.C,SW9*%
X175736250Y276225000D03*
X165576250Y276225000D03*
D14*
X170656250Y276225000D03*
%TD*%
D13*
%TO.C,SW8*%
X156686250Y276225000D03*
X146526250Y276225000D03*
D14*
X151606250Y276225000D03*
%TD*%
D13*
%TO.C,SW7*%
X137636250Y276225000D03*
X127476250Y276225000D03*
D14*
X132556250Y276225000D03*
%TD*%
D13*
%TO.C,SW6*%
X118586250Y276225000D03*
X108426250Y276225000D03*
D14*
X113506250Y276225000D03*
%TD*%
D13*
%TO.C,SW5*%
X99536250Y276225000D03*
X89376250Y276225000D03*
D14*
X94456250Y276225000D03*
%TD*%
D13*
%TO.C,SW4*%
X80486250Y276225000D03*
X70326250Y276225000D03*
D14*
X75406250Y276225000D03*
%TD*%
D13*
%TO.C,SW3*%
X61436250Y276225000D03*
X51276250Y276225000D03*
D14*
X56356250Y276225000D03*
%TD*%
D13*
%TO.C,SW2*%
X42386250Y276225000D03*
X32226250Y276225000D03*
D14*
X37306250Y276225000D03*
%TD*%
D13*
%TO.C,SW1*%
X13811250Y276225000D03*
X3651250Y276225000D03*
D14*
X8731250Y276225000D03*
%TD*%
D19*
%TO.C,RE4*%
X11223000Y226082000D03*
X6223000Y226082000D03*
D20*
X14323000Y219082000D03*
X3123000Y219082000D03*
D19*
X11223000Y211582000D03*
X8723000Y211582000D03*
D21*
X6223000Y211582000D03*
%TD*%
D19*
%TO.C,RE3*%
X11223000Y245132000D03*
X6223000Y245132000D03*
D20*
X14323000Y238132000D03*
X3123000Y238132000D03*
D19*
X11223000Y230632000D03*
X8723000Y230632000D03*
D21*
X6223000Y230632000D03*
%TD*%
D19*
%TO.C,RE2*%
X11223000Y264182000D03*
X6223000Y264182000D03*
D20*
X14323000Y257182000D03*
X3123000Y257182000D03*
D19*
X11223000Y249682000D03*
X8723000Y249682000D03*
D21*
X6223000Y249682000D03*
%TD*%
D19*
%TO.C,RE1*%
X11223000Y283232000D03*
X6223000Y283232000D03*
D20*
X14323000Y276232000D03*
X3123000Y276232000D03*
D19*
X11223000Y268732000D03*
X8723000Y268732000D03*
D21*
X6223000Y268732000D03*
%TD*%
M02*
